<?xml version="1.0" encoding="UTF-8"?>
<svg width="18px" height="19px" viewBox="0 0 18 19" version="1.1" xmlns="http://www.w3.org/2000/svg" xmlns:xlink="http://www.w3.org/1999/xlink">
    <!-- Generator: Sketch 47 (45396) - http://www.bohemiancoding.com/sketch -->
    <title>Shape</title>
    <desc>Created with Sketch.</desc>
    <defs></defs>
    <g id="Web-UI" stroke="none" stroke-width="1" fill="none" fill-rule="evenodd">
        <g id="Landlord---Dashboard-Copy-14" transform="translate(-990.000000, -408.000000)" fill-rule="nonzero" fill="#FFFFFF">
            <path d="M1006.68259,426.656018 L990.815726,426.656018 C989.936202,425.307059 990.292568,422.607452 991.172373,421.708521 C991.591743,421.280432 994.73294,420.470381 996.236877,420.10164 C994.648841,418.868281 993.680718,416.58017 993.680718,414.398377 C993.680718,411.227085 994.601869,408.656018 998.74719,408.656018 C1002.89223,408.656018 1003.81338,411.227085 1003.81338,414.398377 C1003.81338,416.5737 1002.8506,418.855343 1001.27072,420.091233 C1002.74007,420.457724 1005.9288,421.289995 1006.33523,421.708521 C1007.208,422.607734 1007.55593,425.307059 1006.68259,426.656018 Z M1005.61153,422.656956 C1005.03493,422.347843 1002.55246,421.651143 1000.4362,421.143173 L1000.4362,419.361062 C1001.84704,418.400815 1002.68297,416.314934 1002.68297,414.419191 C1002.68297,411.855437 1002.02705,409.776588 998.74719,409.776588 C995.467329,409.776588 994.811413,411.855437 994.811413,414.419191 C994.811413,416.316622 995.648466,418.40419 997.060991,419.363594 L997.060991,421.159768 C994.934046,421.660143 992.464235,422.345311 991.896356,422.656393 C991.528739,423.119922 991.207532,424.604734 991.43564,425.533198 L1006.06155,425.533198 C1006.28826,424.604734 1005.9738,423.124422 1005.61153,422.656956 Z" id="Shape"></path>
        </g>
    </g>
</svg>