<?xml version="1.0" encoding="UTF-8"?>
<svg width="80px" height="76px" viewBox="0 0 80 76" version="1.1" xmlns="http://www.w3.org/2000/svg" xmlns:xlink="http://www.w3.org/1999/xlink">
    <!-- Generator: Sketch 48.2 (47327) - http://www.bohemiancoding.com/sketch -->
    <title>Group 14</title>
    <desc>Created with Sketch.</desc>
    <defs></defs>
    <g id="Landlord---Review-Proposal" stroke="none" stroke-width="1" fill="none" fill-rule="evenodd" transform="translate(-627.000000, -501.000000)">
        <g id="Group-14" transform="translate(626.062250, 500.580709)">
            <g id="Group-10" transform="translate(29.158078, 38.585994) scale(-1, 1) translate(-29.158078, -38.585994) translate(0.158078, 0.585994)">
                <g id="Group-4" transform="translate(19.013535, 0.000000)">
                    <polygon id="Rectangle-4" fill="#E3E3E3" points="4.58100332 0 37.7583797 19.1824966 37.7583797 72.8704321 33.1293974 75.4494187 4.58100332 54.1885405 0 2.67445517"></polygon>
                    <polygon id="Rectangle-4" fill="#E24660" points="33.1293974 66.0471901 37.7583797 63.2315024 37.7583797 72.8704321 33.1293974 75.4494187 4.58100332 54.1885405"></polygon>
                    <polygon id="Rectangle-4-Copy" fill="#F3F3F3" points="0 2.64785006 33.1773764 21.7614832 33.1773764 75.4494187 0 56.3357856"></polygon>
                    <polygon id="Rectangle-4-Copy" fill="#F65873" points="0 46.9116669 33.1773764 66.0253 33.1773764 75.4494187 0 56.3357856"></polygon>
                    <polygon id="Rectangle-10" fill="#E6E6E6" points="4.90960057 14.1342637 28.2677758 27.5963443 28.2677758 31.4311968 4.90960057 17.9691163"></polygon>
                    <polygon id="Rectangle-10-Copy" fill="#E6E6E6" points="4.90960057 20.4277763 28.2677758 33.8898568 28.2677758 37.7247094 4.90960057 24.2626288"></polygon>
                    <polygon id="Rectangle-10-Copy-2" fill="#E6E6E6" points="4.90960057 27.5338879 28.2677758 40.9959685 28.2677758 44.830821 4.90960057 31.3687405"></polygon>
                    <polygon id="Rectangle-10-Copy-3" fill="#E6E6E6" points="4.90960057 35.4232229 28.2677758 48.8853035 28.2677758 52.720156 4.90960057 39.2580755"></polygon>
                    <polygon id="Rectangle-10-Copy-4" fill="#E6E6E6" points="4.90960057 42.7674213 28.2677758 56.2295019 28.2677758 60.0643544 4.90960057 46.6022739"></polygon>
                </g>
                <g id="Group-4-Copy">
                    <polygon id="Rectangle-4" fill="#E3E3E3" points="4.58100332 0 37.7583797 19.1824966 37.7583797 72.8704321 33.1293974 75.4494187 4.58100332 54.1885405 0 2.67445517"></polygon>
                    <polygon id="Rectangle-4" fill="#E8D369" points="33.1293974 66.0471901 37.7583797 63.2315024 37.7583797 72.8704321 33.1293974 75.4494187 4.58100332 54.1885405"></polygon>
                    <polygon id="Rectangle-4-Copy" fill="#F3F3F3" points="0 2.64785006 33.1773764 21.7614832 33.1773764 75.4494187 0 56.3357856"></polygon>
                    <polygon id="Rectangle-4-Copy" fill="#F5DF70" points="0 46.9116669 33.1773764 66.0253 33.1773764 75.4494187 0 56.3357856"></polygon>
                    <polygon id="Rectangle-10" fill="#E6E6E6" points="4.90960057 14.1342637 28.2677758 27.5963443 28.2677758 31.4311968 4.90960057 17.9691163"></polygon>
                    <polygon id="Rectangle-10-Copy" fill="#E6E6E6" points="4.90960057 20.4277763 28.2677758 33.8898568 28.2677758 37.7247094 4.90960057 24.2626288"></polygon>
                    <polygon id="Rectangle-10-Copy-2" fill="#E6E6E6" points="4.90960057 27.5338879 28.2677758 40.9959685 28.2677758 44.830821 4.90960057 31.3687405"></polygon>
                    <polygon id="Rectangle-10-Copy-3" fill="#E6E6E6" points="4.90960057 35.4232229 28.2677758 48.8853035 28.2677758 52.720156 4.90960057 39.2580755"></polygon>
                    <polygon id="Rectangle-10-Copy-4" fill="#E6E6E6" points="4.90960057 42.7674213 28.2677758 56.2295019 28.2677758 60.0643544 4.90960057 46.6022739"></polygon>
                </g>
            </g>
            <g id="Group-2" transform="translate(57.935228, 51.450984) scale(-1, 1) translate(-57.935228, -51.450984) translate(32.435228, 26.450984)">
                <rect id="Rectangle" fill="#000000" transform="translate(3.759734, 46.026064) rotate(-315.000000) translate(-3.759734, -46.026064) " x="3.25973444" y="45.1648581" width="1" height="1.72241128" rx="0.5"></rect>
                <path d="M9.63507117,48.2662096 C11.0695872,48.2662096 14.9170527,40.1807199 14.9170527,37.2369512 C14.9170527,34.2931826 12.5306567,31.9067866 9.58688806,31.9067866 C6.64311942,31.9067866 4.25672343,34.2931826 4.25672343,37.2369512 C4.25672343,40.1807199 8.2005551,48.2662096 9.63507117,48.2662096 Z" id="Oval-12" fill="#EAEAEA" transform="translate(9.586888, 40.086498) rotate(-315.000000) translate(-9.586888, -40.086498) "></path>
                <path d="M46.7030313,12.4500188 L18.2653787,40.8876715 L18.234186,40.8564788 C17.0636024,41.988823 15.4690712,42.6855986 13.7117993,42.6855986 C10.1190755,42.6855986 7.20659739,39.7731205 7.20659739,36.1803966 C7.20659739,34.4231248 7.90337296,32.8285936 9.03571711,31.65801 L9.01570396,31.6379968 L38.0155737,2.63812705 L38.0844163,2.70696965 C39.2193484,1.74173866 40.6899345,1.15931257 42.2965535,1.15931257 C45.8892774,1.15931257 48.8017555,4.07179069 48.8017555,7.66451451 C48.8017555,9.27113354 48.2193294,10.7417197 47.2540984,11.8766517 L47.2652484,11.8878017 L47.0820579,12.0709923 C46.9609483,12.2024521 46.8344911,12.3289093 46.7030313,12.4500188 Z" id="Combined-Shape" fill="#7C7C7C"></path>
                <path d="M37.1805452,3.47315557 C38.3860889,2.00159222 40.2175041,1.06253859 42.2682471,1.06253859 C45.8987846,1.06253859 48.8419167,4.00567068 48.8419167,7.63620811 C48.8419167,9.69243651 47.8978327,11.5281623 46.4194797,12.7335705 L43.9930692,15.1599809 C42.791266,16.653917 40.947996,17.6099694 38.881428,17.6099694 C35.2601945,17.6099694 32.3246047,14.6743796 32.3246047,11.0531461 C32.3246047,9.07673575 33.1990579,7.30456487 34.5821725,6.10242518 L34.566724,6.08697675 L37.1805452,3.47315557 Z" id="Combined-Shape" fill="#FADB51"></path>
                <circle id="Oval-11" fill="#565656" cx="43.5143809" cy="6.47485515" r="5.31314469"></circle>
                <polygon id="Path-22" fill="#565656" points="41.3689731 1.60825445 44.7526662 0.249392615 49.600594 6.45562714 47.6478569 9.85474582"></polygon>
                <circle id="Oval-11-Copy" fill="#616161" cx="46.0901978" cy="4.1954501" r="4.15317089"></circle>
                <g id="Group" transform="translate(20.512202, 4.195450)">
                    <path d="M3.58390476,11.1988796 L12.2272728,2.43273408 C13.3261016,1.31829665 14.2168783,1.30564333 14.2168783,2.40447209 C14.2168783,3.50330085 13.3261016,5.2975076 12.2272728,6.41194503 L3.58390476,15.1780906 C2.48507599,16.292528 1.59429928,16.3051813 1.59429928,15.2063526 C1.59429928,14.1075238 2.48507599,12.313317 3.58390476,11.1988796 Z" id="Rectangle-18" fill="#F3D44B"></path>
                    <polygon id="Path-23" fill="#F3D44B" points="12.4101441 0.170653073 13.9899032 1.73046757 12.9493724 4.40862793 11.1287277 3.18063829"></polygon>
                    <polygon id="Path-24" fill="#F3D44B" points="1.83459253 15.9293131 0.22377042 14.3278246 1.70980013 11.9156615 3.64825252 13.2996946"></polygon>
                    <path d="M1.99226308,9.64132036 L10.6356311,0.875174829 C11.7344599,-0.239262598 12.6252366,-0.251915921 12.6252366,0.84691284 C12.6252366,1.9457416 11.7344599,3.73994835 10.6356311,4.85438578 L1.99226308,13.6205313 C0.893434316,14.7349687 0.00265760387,14.7476221 0.00265760387,13.6487933 C0.00265760387,12.5499645 0.893434316,10.7557578 1.99226308,9.64132036 Z" id="Rectangle-18-Copy" fill="#FADB51"></path>
                </g>
                <path d="M7.21634639,45.6593617 L44.7485623,8.12714575 C45.1694332,8.27072251 45.6207184,8.348621 46.0901978,8.348621 C47.5580062,8.348621 48.8479711,7.58718269 49.5866379,6.4377608 L49.600594,6.45562714 L48.8403987,7.77889479 C48.7978441,9.77723597 47.8635507,11.5561149 46.4194797,12.7335705 L43.9930692,15.1599809 C43.6953747,15.5300387 43.3583207,15.8670927 42.9882629,16.1647873 L18.2653787,40.8876715 L18.234186,40.8564788 C17.1987245,41.8581149 15.8315403,42.5189353 14.3134254,42.658148 C12.5433929,43.8006903 9.56300672,45.0208468 7.21634639,45.6593617 Z" id="Combined-Shape" fill="#000000" opacity="0.15"></path>
            </g>
        </g>
    </g>
</svg>