<?xml version="1.0" encoding="UTF-8"?>
<svg width="67px" height="75px" viewBox="0 0 67 75" version="1.1" xmlns="http://www.w3.org/2000/svg" xmlns:xlink="http://www.w3.org/1999/xlink">
    <!-- Generator: Sketch 48.2 (47327) - http://www.bohemiancoding.com/sketch -->
    <title>Group 5</title>
    <desc>Created with Sketch.</desc>
    <defs>
        <path d="M0.0017814314,1.93946907 L3.61406918,0.0334560601 C3.69552273,1.41344442 3.29415743,2.27803251 2.40997327,2.62722033 C1.52578911,2.97640814 0.723058496,2.74715772 0.0017814314,1.93946907 Z" id="path-1"></path>
        <path d="M0.0017814314,1.93946907 L3.61406918,0.0334560601 C3.69552273,1.41344442 3.29415743,2.27803251 2.40997327,2.62722033 C1.52578911,2.97640814 0.723058496,2.74715772 0.0017814314,1.93946907 Z" id="path-3"></path>
    </defs>
    <g id="Landlord---Review-Proposal" stroke="none" stroke-width="1" fill="none" fill-rule="evenodd" transform="translate(-415.000000, -501.000000)">
        <g id="Group-5" transform="translate(414.562250, 501.276154)">
            <g id="Group-4" transform="translate(0.133760, 31.970086)">
                <g id="Group-3" transform="translate(0.351867, 0.391941)">
                    <path d="M10.2453205,16.5211367 L10.2453205,16.5211367 C13.543498,14.6552371 17.7298097,15.8163278 19.5957093,19.1145054 C20.178735,20.145066 20.4851471,21.3089656 20.4851471,22.4930155 L20.4851471,26.9260038 L5.14546556,41.9852906 L0.00549376506,39.1437455 L0.00549376506,34.0791036 C0.00549376506,26.8088522 3.9175175,20.101006 10.2453205,16.5211367 Z" id="Rectangle-16" fill="#68E2C2"></path>
                    <polygon id="Path-19" fill="#56CAAC" points="17.1511136 16.6142595 22.5506383 20.3290614 17.4155088 22.6333914 15.0741602 18.6181563"></polygon>
                    <path d="M15.2983784,20.0214657 L15.2983784,20.0214657 C18.596556,18.1555661 22.7828677,19.3166569 24.6487672,22.6148345 C25.231793,23.645395 25.5382051,24.8092946 25.5382051,25.9933445 L25.5382051,30.4263329 L5.05855171,42.012421 L5.05855171,37.5794326 C5.05855171,30.3091813 8.97057544,23.601335 15.2983784,20.0214657 Z" id="Rectangle-16-Copy" fill="#60D8B9"></path>
                    <rect id="Rectangle-25" fill="#4BB096" transform="translate(10.245320, 22.248122) rotate(-345.000000) translate(-10.245320, -22.248122) " x="5.03696326" y="20.0524419" width="10.4167144" height="4.39135998"></rect>
                    <polygon id="Rectangle-25-Copy" fill="#4BB096" transform="translate(16.635877, 17.381412) rotate(-75.000000) translate(-16.635877, -17.381412) " points="12.6636828 17.9549121 20.0605338 12.9870932 20.7765767 17.2376712 12.4951766 21.7757318"></polygon>
                    <g id="Group" transform="translate(45.922775, 28.704873) scale(-1, 1) translate(-45.922775, -28.704873) translate(32.922775, 15.204873)">
                        <path d="M10.3295694,0.924489655 L10.3295694,0.924489655 C13.627747,-0.941409906 17.8140586,0.219680848 19.6799582,3.51785844 C20.262984,4.54841902 20.5693961,5.71231857 20.5693961,6.89636846 L20.5693961,11.3293568 L5.22971449,26.3886436 L0.0897426917,23.5470985 L0.0897426917,18.4824566 C0.0897426917,11.2122052 4.00176642,4.50435897 10.3295694,0.924489655 Z" id="Rectangle-16-Copy-2" fill="#FFEB84"></path>
                        <polygon id="Path-19-Copy" fill="#E4D069" points="17.2353626 1.01761251 22.6348872 4.73241438 17.4997578 7.03674435 15.1584091 3.02150932"></polygon>
                        <path d="M15.3826273,4.42481868 L15.3826273,4.42481868 C18.6808049,2.55891912 22.8671166,3.72000987 24.7330161,7.01818746 C25.3160419,8.04874804 25.622454,9.21264759 25.622454,10.3966975 L25.622454,14.8296859 L5.14280064,26.415774 L5.14280064,21.9827856 C5.14280064,14.7125343 9.05482437,8.00468799 15.3826273,4.42481868 Z" id="Rectangle-16-Copy-3" fill="#F5DF70"></path>
                    </g>
                    <circle id="Oval-8" fill="#FFDBB9" cx="11.6183166" cy="11.8847283" r="9.95707013"></circle>
                    <path d="M8.54981044,13.9909209 C8.58871447,13.8501561 8.60950013,13.7018692 8.60950013,13.5487275 C8.60950013,12.6340636 7.86801852,11.892582 6.95335459,11.892582 C6.03869067,11.892582 5.29720906,12.6340636 5.29720906,13.5487275 C5.29720906,14.0093253 5.48523639,14.4260069 5.78872091,14.7262023 C4.36510745,16.3105522 3.55728077,17.1027272 3.36524087,17.1027272 C3.02071216,17.1027272 2.13007362,15.3949777 1.73882311,14.1188812 C1.3475726,12.8427848 0.954798086,10.9465299 1.30160474,8.94589426 C1.64841139,6.94525861 1.90814236,4.62270784 8.68861765,2.31774307 C13.2089345,0.781099891 17.0590075,2.35110876 20.2388365,7.02776967 C18.7895703,9.18983855 15.135679,10.5042636 9.27716252,10.9710449 C9.50110106,11.4140781 9.30491944,12.4633569 8.68861765,14.1188812 L8.54981044,13.9909209 Z" id="Combined-Shape" fill="#6F5019"></path>
                    <path d="M1.53167626,7.75322976 L9.3834013,11.45042 C11.833826,11.0736525 13.5547648,10.7538525 14.5462177,10.4910201 C18.8778773,9.34270484 21.210274,7.10785405 21.6600114,4.2337675 C22.5662285,-1.55749327 18.1547087,1.21763431 14.1368029,0.768487224 C10.1188971,0.319340135 5.55161254,0.734883484 3.68881226,2.98371606 C2.4469454,4.48293779 1.72790007,6.07277569 1.53167626,7.75322976 Z" id="Path-2" fill="#513A12"></path>
                    <g id="Group-2" transform="translate(36.679807, 0.051469)">
                        <path d="M2.9787646,4.07201461 C0.535332707,8.37787802 -0.404868766,11.7273884 0.158160183,14.1205458 C0.721189131,16.5137032 1.35485262,18.102696 2.05915065,18.8875242 C1.85077307,17.7860349 2.15731105,16.7161661 2.9787646,15.677918 C3.80021815,14.6396699 5.67334153,11.2105392 8.59813474,5.39052604 L2.9787646,4.07201461 Z" id="Path-34" fill="#795B27"></path>
                        <circle id="Oval-8-Copy" fill="#FFDBB9" cx="10.1769651" cy="12.0965642" r="9.04449497"></circle>
                        <path d="M16.3392936,6.63011895 C16.636099,1.70252235 18.2405692,-0.121521322 21.1527041,1.15798793 C25.5209065,3.0772518 24.1899744,10.2428164 29.4779218,11.8353597 C25.3676156,13.5254694 22.5925431,13.5254694 21.1527041,11.8353597 C19.7128652,10.14525 18.108395,9.3001951 16.3392936,9.3001951 L13.7484046,8.36930519 L16.3392936,6.63011895 Z" id="Path-35" fill="#694F21"></path>
                        <path d="M1.7576169,8.35722025 C2.81348764,7.45210917 4.36369078,7.15850596 6.40822634,7.47641062 C11.3440368,8.24387936 14.9568909,11.1512711 15.3632014,11.936039 C15.7428694,12.6693486 14.2224445,15.4439154 13.2977508,18.3849769 C13.0213405,19.2641217 13.1386811,21.2561412 13.6497726,24.3610353 C14.8962902,21.3724199 16.2677152,19.6676239 17.7640479,19.2466471 C20.0085468,18.6151819 22.8669042,13.1489698 21.0211292,7.93782546 C19.1753541,2.7266811 15.8898754,0.193661416 11.6639135,0.0845403327 C7.43795155,-0.0245807501 5.23251996,1.03091664 3.34142301,3.42864611 C2.08069171,5.02713242 1.55275634,6.66999047 1.7576169,8.35722025 Z" id="Path-33" fill="#795B27"></path>
                    </g>
                    <g id="Path-22-Copy" transform="translate(15.072379, 15.204873)">
                        <mask id="mask-2" fill="white">
                            <use xlink:href="#path-1"></use>
                        </mask>
                        <use id="Mask" fill="#FFFFFF" xlink:href="#path-1"></use>
                        <path d="M1.13102622,3.57310457 L4.74331398,1.66709156 C4.82476752,3.04707992 4.42340222,3.91166801 3.53921806,4.26085583 C2.6550339,4.61004365 1.85230329,4.38079323 1.13102622,3.57310457 Z" fill="#FF8585" mask="url(#mask-2)" transform="translate(2.942323, 3.043022) rotate(-180.000000) translate(-2.942323, -3.043022) "></path>
                    </g>
                    <g id="Path-22-Copy-2" transform="translate(42.913799, 16.583934) rotate(57.000000) translate(-42.913799, -16.583934) translate(40.913799, 15.083934)">
                        <mask id="mask-4" fill="white">
                            <use xlink:href="#path-3"></use>
                        </mask>
                        <use id="Mask" fill="#FFFFFF" xlink:href="#path-3"></use>
                        <path d="M1.13102622,3.57310457 L4.74331398,1.66709156 C4.82476752,3.04707992 4.42340222,3.91166801 3.53921806,4.26085583 C2.6550339,4.61004365 1.85230329,4.38079323 1.13102622,3.57310457 Z" id="Path-22-Copy" fill="#FF8585" mask="url(#mask-4)" transform="translate(2.942323, 3.043022) rotate(-180.000000) translate(-2.942323, -3.043022) "></path>
                    </g>
                    <circle id="Oval-15" fill="#FFFFFF" cx="7.08619825" cy="13.6753126" r="1"></circle>
                    <path d="M17.1685958,28.558078 C18.8628212,27.1554846 19.8941341,25.5955166 20.2625345,23.8781741 C20.630935,22.1608315 20.5224694,20.0200443 19.9371377,17.4558125" id="Path-32" stroke="#FFFFFF" stroke-width="2" stroke-linecap="round"></path>
                    <path d="M7.11006282,13.8759147 C6.95537272,22.3688218 8.85582796,26.7317783 12.8114285,26.9647844 C16.7670291,27.1977904 18.7448294,29.4308455 18.7448294,33.6639497" id="Path-31" stroke="#FFFFFF" stroke-width="2" stroke-linecap="round"></path>
                </g>
            </g>
            <g id="Group" transform="translate(12.296187, 0.326281)">
                <g id="Group-22" transform="translate(0.067304, 0.098877)">
                    <path d="M28.5343124,23.8100654 L27.1526518,27.7436238 L25.7709913,25.3610198 L3.38106318,37.9276944 C1.54560956,38.9578696 0.0576804085,38.3050625 0.0576804085,36.4696088 L0.0576804085,20.6835406 C0.0576804085,18.848087 1.54560956,16.5250359 3.38106318,15.4948607 L29.9681254,0.572483149 C31.803579,-0.457692043 33.2915082,0.195115109 33.2915082,2.03056873 L33.2915082,17.8166369 C33.2915082,19.6520905 31.803579,21.9751417 29.9681254,23.0053169 L28.5343124,23.8100654 Z" id="Combined-Shape" fill="#CE3D55"></path>
                    <path d="M0.891653812,38.2078769 L6.79899619,40.945462 L9.37727981,38.4373048 L6.79899619,32.7317757 C4.48607378,33.5343123 3.29247517,33.9716644 3.21820037,34.0438321 C3.14392558,34.1159998 2.36841006,35.5040147 0.891653812,38.2078769 Z" id="Path-17" fill="#CE3D55"></path>
                    <polygon id="Path-18" fill="#CE3D55" points="32.9414332 30.2830852 25.6571921 26.04407 32.9414332 23.8651222"></polygon>
                    <polygon id="Path-16" fill="#CE3D55" points="32.5207577 0.281399899 37.9970696 2.85314647 36.7019653 5.94459258 32.3181779 7.93974646 31.9332386 2.85314647"></polygon>
                    <path d="M34.3099876,26.507557 L32.928327,30.4411154 L31.5466665,28.0585113 L9.15673839,40.625186 C7.32128477,41.6553612 5.83335562,41.002554 5.83335562,39.1671004 L5.83335562,23.3810322 C5.83335562,21.5455786 7.32128477,19.2225274 9.15673839,18.1923522 L35.7438006,3.2699747 C37.5792542,2.23979951 39.0671834,2.89260666 39.0671834,4.72806029 L39.0671834,20.5141285 C39.0671834,22.3495821 37.5792542,24.6726333 35.7438006,25.7028084 L34.3099876,26.507557 Z" id="Combined-Shape-Copy-13" fill="#E24660"></path>
                </g>
                <path d="M12.5932944,30.6191474 C12.5932944,30.9567468 12.8586645,31.0850864 13.1921895,30.9164047 C13.1817473,30.9227143 13.1712384,30.9288068 13.1606687,30.9346729 C13.1452316,30.9432404 13.1299242,30.9511812 13.1147651,30.9585035 C11.7709225,31.6560469 10.6963158,31.147807 10.6963158,29.7921771 L10.713509,27.1082654 C11.4069517,26.7234076 11.9690982,26.9735651 11.9690982,27.6670079 C11.9690982,27.6688 11.9660639,28.1442297 11.9599955,29.0932968 C11.9599955,29.7644542 12.4904214,30.0173399 13.1549376,29.6755829 C13.1674476,29.6686908 13.1798679,29.6621993 13.1921895,29.656104 C12.8559398,29.863001 12.5932944,30.2832857 12.5932944,30.6191474 Z" id="Combined-Shape" fill="#FFFFFF" opacity="0.7"></path>
                <path d="M15.6880631,27.0217785 L15.67087,24.3569511 C14.9774272,24.7418088 14.4152808,25.6159441 14.4152808,26.3093869 C14.4152808,26.311179 14.418315,26.7832407 14.4243835,27.725572 C14.4243835,28.3967293 13.8939576,29.2383832 13.2294413,29.6342336 C12.8755412,29.8320858 12.5932944,30.2709783 12.5932944,30.6191474 C12.5932944,30.9673165 12.8755412,31.0929175 13.2237103,30.8996851 C13.2391473,30.8911176 13.2544548,30.8820672 13.2696138,30.8725631 C14.6134565,30.0784526 15.6880631,28.3774084 15.6880631,27.0217785 Z" id="Combined-Shape" fill="#FFFFFF"></path>
                <path d="M15.0649127,24.3905996 C15.4090692,24.1995942 15.6880631,23.7657598 15.6880631,23.4216033 C15.6880631,23.0774469 15.4090692,22.9532934 15.0649127,23.1442988 C14.7207562,23.3353042 14.4417623,23.7691386 14.4417623,24.113295 C14.4417623,24.4574515 14.7207562,24.581605 15.0649127,24.3905996 Z" id="Oval-Copy" fill="#FFFFFF"></path>
                <path d="M11.3194662,26.4693065 C11.6636227,26.2783011 11.9426167,25.8444667 11.9426167,25.5003103 C11.9426167,25.1561538 11.6636227,25.0320003 11.3194662,25.2230057 C10.9753098,25.4140111 10.6963158,25.8478455 10.6963158,26.1920019 C10.6963158,26.5361584 10.9753098,26.6603119 11.3194662,26.4693065 Z" id="Oval-Copy-3" fill="#FFFFFF" opacity="0.7"></path>
                <path d="M19.0673448,26.0446095 C19.0276433,26.0738621 18.9689943,26.1163373 18.8913959,26.1720364 C18.8137975,26.2277355 18.735298,26.2776184 18.655895,26.3216867 C18.576492,26.3657551 18.5052109,26.399902 18.4420494,26.4241287 C18.3788879,26.4483554 18.3256526,26.4562457 18.2823419,26.4477999 C18.2390312,26.4393542 18.2056463,26.4136702 18.1821864,26.3707474 C18.1587264,26.3278246 18.1469966,26.2612488 18.1469966,26.1710182 L18.1469966,23.0310065 C18.1866981,23.0017538 18.2453471,22.9592786 18.3229455,22.9035796 C18.4005439,22.8478805 18.4790434,22.7979976 18.5584464,22.7539292 C18.6378494,22.7098609 18.7091305,22.6757139 18.772292,22.6514873 C18.8354535,22.6272606 18.8886888,22.6193703 18.9319995,22.627816 C18.9753102,22.6362618 19.0086951,22.6619457 19.0321551,22.7048686 C19.055615,22.7477914 19.0673448,22.8143672 19.0673448,22.9045978 L19.0673448,26.0446095 Z M21.0379729,25.0429541 C20.8250285,25.1611374 20.6274263,25.2410301 20.4451603,25.2826347 C20.2628944,25.3242393 20.1040908,25.3230476 19.9687447,25.2790595 C19.8333987,25.2350715 19.7269281,25.1443816 19.6493298,25.006987 C19.5717314,24.8695924 19.5329328,24.6799889 19.5329328,24.4381707 C19.5329328,24.1999617 19.5717314,23.9736081 19.6493298,23.759103 C19.7269281,23.544598 19.8288873,23.3472534 19.9552102,23.1670633 C20.0815332,22.9868731 20.2259001,22.8255437 20.3883153,22.6830702 C20.5507305,22.5405966 20.7167524,22.4222887 20.8863861,22.3281427 C21.0776751,22.2219781 21.2518177,22.1542031 21.4088191,22.1248156 C21.5658204,22.0954281 21.7011644,22.0997146 21.8148551,22.1376751 C21.9285457,22.1756357 22.0169705,22.2474676 22.0801319,22.3531731 C22.1432934,22.4588786 22.1748737,22.5947415 22.1748737,22.760766 C22.1748737,22.8834797 22.1405865,22.9963474 22.0720112,23.0993725 C22.0034359,23.2023976 21.9077928,23.2969846 21.7850791,23.3831363 L20.4478672,24.3255943 C20.4875687,24.4226646 20.5687751,24.4669225 20.6914888,24.4583691 C20.8142025,24.4498158 20.9549603,24.4014715 21.1137663,24.3133348 C21.2617446,24.2312075 21.4016,24.1346402 21.5333368,24.0236299 C21.6650736,23.9126197 21.7724465,23.8088158 21.8554587,23.7122152 C21.9132063,23.7162578 21.9619301,23.7397447 22.0016316,23.7826766 C22.0413331,23.8256086 22.0611836,23.8831659 22.0611836,23.9553505 C22.0611836,24.1177657 21.9853909,24.2807375 21.8338034,24.444271 C21.7183082,24.5697272 21.5883779,24.6833434 21.4440089,24.785123 C21.2996398,24.8869026 21.1642958,24.9728454 21.0379729,25.0429541 Z M20.8863861,22.9994555 C20.7997647,23.0475301 20.7248743,23.1035306 20.6617128,23.1674587 C20.5985514,23.2313869 20.5471207,23.2969248 20.5074192,23.3640743 C20.4677177,23.4312238 20.437942,23.4982775 20.4180912,23.5652376 C20.3982405,23.6321977 20.3865107,23.6955522 20.3829015,23.7553029 L21.3086635,23.0899221 C21.2978359,23.0237469 21.2581349,22.9735973 21.1895596,22.9394718 C21.1209843,22.9053462 21.0199275,22.9253406 20.8863861,22.9994555 Z M23.5391546,22.664081 C23.5391546,22.7579209 23.5689303,22.8081653 23.6284825,22.8148155 C23.6880348,22.8214658 23.771948,22.7947447 23.8802248,22.7346515 C23.9343632,22.704605 23.9903054,22.6690458 24.048053,22.6279731 C24.1058007,22.5869003 24.1563291,22.5471274 24.1996398,22.5086533 C24.2321229,22.5303268 24.2600939,22.5590153 24.2835539,22.5947197 C24.3070139,22.6304241 24.3187437,22.6825632 24.3187437,22.7511385 C24.3187437,22.8882891 24.267313,23.0287173 24.16445,23.1724272 C24.0615871,23.3161372 23.8802261,23.4601018 23.6203618,23.6043254 C23.3027498,23.7805987 23.0582284,23.8441236 22.8867901,23.7949021 C22.7153518,23.7456805 22.629634,23.5586573 22.629634,23.2338269 L22.629634,20.9167148 C22.6693355,20.883853 22.7261799,20.8405747 22.8001691,20.7868788 C22.8741582,20.7331828 22.9526577,20.6832999 23.03567,20.6372284 C23.1944759,20.5490918 23.3180901,20.5084575 23.4065162,20.5153245 C23.4949422,20.5221914 23.5391546,20.6158541 23.5391546,20.7963155 L23.5391546,21.1427995 L24.2483641,20.7491912 C24.2700195,20.7768741 24.2907722,20.8149825 24.310623,20.8635177 C24.3304737,20.9120529 24.340399,20.9724118 24.340399,21.0445963 C24.340399,21.1709193 24.3124279,21.2775747 24.2564849,21.3645659 C24.2005418,21.451557 24.1256515,21.5210919 24.0318116,21.5731727 L23.5391546,21.8465952 L23.5391546,22.664081 Z M27.7619289,20.0118718 C27.7619289,20.2067701 27.7285441,20.4030503 27.6617734,20.6007183 C27.5950027,20.7983864 27.4984573,20.9891172 27.3721344,21.1729166 C27.2458115,21.3567159 27.0924216,21.5293691 26.9119603,21.6908812 C26.7314989,21.8523933 26.5275807,21.9962451 26.3001994,22.1224407 C26.0728181,22.2486364 25.8688998,22.3311322 25.6884385,22.3699306 C25.5079771,22.408729 25.3545873,22.4063373 25.2282643,22.3627554 C25.1019414,22.3191734 25.005396,22.2356071 24.9386253,22.112054 C24.8718546,21.9885008 24.8384698,21.8292775 24.8384698,21.6343793 L24.8384698,19.5663026 C24.8781713,19.53705 24.9413318,19.4920709 25.0279532,19.4313641 C25.1145747,19.3706573 25.1975857,19.3182705 25.2769887,19.2742022 C25.3600009,19.2281307 25.4330866,19.1938845 25.4962481,19.1714624 C25.5594096,19.1490404 25.6126449,19.1420524 25.6559556,19.1504981 C25.6992663,19.1589439 25.7317489,19.1860309 25.7534042,19.2317599 C25.7750596,19.2774889 25.7858871,19.3472723 25.7858871,19.4411122 L25.7858871,21.0923252 C25.7858871,21.2655681 25.8337086,21.3743713 25.9293532,21.4187382 C26.0249977,21.463105 26.1486118,21.4432235 26.3001994,21.3590931 C26.4553961,21.2729595 26.5799126,21.1551296 26.6737525,21.0055997 C26.7675924,20.8560698 26.8145116,20.6946859 26.8145116,20.521443 L26.8145116,18.4696077 C26.8542131,18.4403551 26.9173736,18.3953761 27.0039951,18.3346693 C27.0906165,18.2739624 27.1736275,18.2215756 27.2530305,18.1775073 C27.3360427,18.1314359 27.4091285,18.0971897 27.4722899,18.0747676 C27.5354514,18.0523455 27.5886867,18.0453575 27.6319974,18.0538033 C27.6753082,18.0622491 27.7077907,18.089336 27.7294461,18.135065 C27.7511014,18.180794 27.7619289,18.2505774 27.7619289,18.3444173 L27.7619289,20.0118718 Z M29.3156934,20.3568195 C29.2759919,20.3860721 29.2173428,20.4285473 29.1397444,20.4842464 C29.062146,20.5399455 28.9836465,20.5898284 28.9042435,20.6338967 C28.8248406,20.6779651 28.7535594,20.712112 28.6903979,20.7363387 C28.6272365,20.7605654 28.5740012,20.7684557 28.5306904,20.7600099 C28.4873797,20.7515642 28.4539949,20.7258802 28.4305349,20.6829574 C28.4070749,20.6400346 28.3953451,20.5734588 28.3953451,20.4832282 L28.3953451,17.3432165 C28.4350466,17.3139638 28.4936957,17.2714886 28.571294,17.2157896 C28.6488924,17.1600905 28.7273919,17.1102076 28.8067949,17.0661392 C28.8861979,17.0220709 28.9574791,16.9879239 29.0206405,16.9636973 C29.083802,16.9394706 29.1370373,16.9315803 29.180348,16.940026 C29.2236587,16.9484718 29.2570436,16.9741557 29.2805036,17.0170786 C29.3039635,17.0600014 29.3156934,17.1265771 29.3156934,17.2168078 L29.3156934,20.3568195 Z M31.2863214,19.3551641 C31.073377,19.4733474 30.8757748,19.5532401 30.6935088,19.5948447 C30.5112429,19.6364493 30.3524393,19.6352576 30.2170933,19.5912695 C30.0817473,19.5472815 29.9752767,19.4565916 29.8976783,19.319197 C29.8200799,19.1818024 29.7812813,18.9921989 29.7812813,18.7503807 C29.7812813,18.5121717 29.8200799,18.2858181 29.8976783,18.071313 C29.9752767,17.856808 30.0772358,17.6594634 30.2035587,17.4792732 C30.3298817,17.2990831 30.4742486,17.1377537 30.6366638,16.9952802 C30.799079,16.8528066 30.965101,16.7344986 31.1347346,16.6403527 C31.3260236,16.5341881 31.5001662,16.4664131 31.6571676,16.4370256 C31.814169,16.4076381 31.9495129,16.4119246 32.0632036,16.4498851 C32.1768942,16.4878457 32.265319,16.5596776 32.3284804,16.6653831 C32.3916419,16.7710886 32.4232222,16.9069515 32.4232222,17.072976 C32.4232222,17.1956897 32.388935,17.3085574 32.3203597,17.4115825 C32.2517844,17.5146076 32.1561413,17.6091946 32.0334276,17.6953463 L30.6962157,18.6378043 C30.7359172,18.7348746 30.8171236,18.7791325 30.9398373,18.7705791 C31.0625511,18.7620258 31.2033088,18.7136815 31.3621148,18.6255448 C31.5100931,18.5434175 31.6499485,18.4468502 31.7816853,18.3358399 C31.9134221,18.2248297 32.020795,18.1210258 32.1038072,18.0244252 C32.1615548,18.0284678 32.2102787,18.0519547 32.2499801,18.0948866 C32.2896816,18.1378185 32.3095321,18.1953759 32.3095321,18.2675604 C32.3095321,18.4299757 32.2337395,18.5929475 32.0821519,18.756481 C31.9666567,18.8819372 31.8367265,18.9955534 31.6923574,19.097333 C31.5479883,19.1991126 31.4126443,19.2850554 31.2863214,19.3551641 Z M31.1347346,17.3116655 C31.0481132,17.3597401 30.9732228,17.4157406 30.9100614,17.4796687 C30.8468999,17.5435969 30.7954692,17.6091347 30.7557677,17.6762842 C30.7160662,17.7434337 30.6862905,17.8104875 30.6664398,17.8774476 C30.646589,17.9444077 30.6348592,18.0077622 30.63125,18.0675129 L31.5570121,17.4021321 C31.5461844,17.3359569 31.5064835,17.2858073 31.4379082,17.2516818 C31.3693328,17.2175562 31.268276,17.2375506 31.1347346,17.3116655 Z M33.7875031,16.976291 C33.7875031,17.0701309 33.8172788,17.1203753 33.876831,17.1270255 C33.9363833,17.1336758 34.0202965,17.1069547 34.1285734,17.0468615 C34.1827118,17.016815 34.2386539,16.9812558 34.2964016,16.9401831 C34.3541492,16.8991103 34.4046776,16.8593374 34.4479883,16.8208633 C34.4804714,16.8425368 34.5084425,16.8712253 34.5319024,16.9069297 C34.5553624,16.9426341 34.5670922,16.9947731 34.5670922,17.0633485 C34.5670922,17.2004991 34.5156615,17.3409273 34.4127986,17.4846372 C34.3099356,17.6283472 34.1285747,17.7723118 33.8687103,17.9165354 C33.5510984,18.0928087 33.3065769,18.1563336 33.1351386,18.1071121 C32.9637003,18.0578905 32.8779825,17.8708673 32.8779825,17.5460369 L32.8779825,15.2289248 C32.917684,15.196063 32.9745285,15.1527847 33.0485176,15.0990888 C33.1225068,15.0453928 33.2010063,14.9955099 33.2840185,14.9494384 C33.4428245,14.8613018 33.5664386,14.8206675 33.6548647,14.8275345 C33.7432908,14.8344014 33.7875031,14.9280641 33.7875031,15.1085255 L33.7875031,15.4550095 L34.4967127,15.0614012 C34.518368,15.0890841 34.5391208,15.1271925 34.5589715,15.1757277 C34.5788223,15.2242628 34.5887475,15.2846218 34.5887475,15.3568063 C34.5887475,15.4831293 34.5607764,15.5897847 34.5048334,15.6767759 C34.4488904,15.763767 34.374,15.8333019 34.2801601,15.8853827 L33.7875031,16.1588052 L33.7875031,16.976291 Z" id="letUlet" fill="#FFFFFF"></path>
            </g>
        </g>
    </g>
</svg>