<?xml version="1.0" encoding="UTF-8"?>
<svg width="316px" height="330px" viewBox="0 0 316 330" version="1.1" xmlns="http://www.w3.org/2000/svg" xmlns:xlink="http://www.w3.org/1999/xlink">
    <!-- Generator: Sketch 48.2 (47327) - http://www.bohemiancoding.com/sketch -->
    <title>Personalized Message</title>
    <desc>Created with Sketch.</desc>
    <defs>
        <polygon id="path-1" points="0 0.125727723 70.9475817 32.6529834 70.9475817 76.5891966 0 44.061941"></polygon>
        <polygon id="path-3" points="7.74963443 0.299272487 78.6972161 32.8265281 71.1461597 36.0982659 0.198577982 3.57101028"></polygon>
        <path d="M78.5828431,153.645772 C78.5828431,154.768171 79.4927273,156.085699 80.6151264,156.588553 L126.214765,177.01797 C127.337164,177.520824 128.247048,177.018583 128.247048,175.896184 L128.247048,135.455324 C128.247048,134.332925 127.337164,133.015397 126.214765,132.512543 L80.6151264,112.083126 C79.4927273,111.580272 78.5828431,112.082513 78.5828431,113.204912 L78.5828431,141.128574 L76.8651861,141.277093 C76.7470136,141.287311 76.6502263,141.340736 76.5870651,141.430611 C76.4107073,141.681559 76.5352263,142.147797 76.8651861,142.471983 L78.5828431,144.15958 L78.5828431,153.645772 Z" id="path-5"></path>
    </defs>
    <g id="Landing-Page---Tenant" stroke="none" stroke-width="1" fill="none" fill-rule="evenodd" transform="translate(-307.000000, -3275.000000)">
        <g id="Section-2" transform="translate(307.000000, 2004.000000)">
            <g id="Personalized-Message" transform="translate(0.000000, 1271.000000)">
                <g id="Group-2-Copy-4" transform="translate(68.789259, 0.065831)">
                    <g id="Group-8-Copy-3" transform="translate(0.315858, 0.216748)">
                        <polygon id="Rectangle-Copy-27" fill="#EBEBEB" points="23.8329954 0.354314033 246.768075 102.160016 246.768075 301.6611 226.759544 310.288591 0.217250051 10.0268958"></polygon>
                        <polygon id="Rectangle-Copy-14" fill="#F8F8F8" points="0.217250051 10.2824775 226.869977 113.785884 226.869977 310.828876 181.145083 289.998569 0.217250051 207.575581"></polygon>
                        <polygon id="Rectangle-Copy-3" fill="#FFFFFF" points="50.573408 83.4394404 155.119821 131.193697 155.119821 227.777277 50.573408 180.090537"></polygon>
                        <polygon id="Rectangle-Copy-14" fill="#D7D7D7" points="0.217250051 10.2824775 226.869977 113.785884 226.869977 142.683375 0.217250051 39.4300799"></polygon>
                        <g id="Group-12" transform="translate(10.278574, 29.409501)">
                            <path d="M3.59364771,6.73341781 C5.27405165,7.39628514 6.63628819,6.57140875 6.63628819,4.89100482 C6.63628819,3.21060089 5.27405165,1.3110042 3.59364771,0.648136866 C1.91324378,-0.0147304693 0.551007243,0.810145922 0.551007243,2.49054985 C0.551007243,4.17095378 1.91324378,6.07055047 3.59364771,6.73341781 Z" id="Oval-6" fill="#70D1B8"></path>
                            <path d="M13.779063,11.3283793 C15.4594669,11.9912467 16.8217035,11.1663703 16.8217035,9.48596635 C16.8217035,7.80556242 15.4594669,5.90596573 13.779063,5.2430984 C12.0986591,4.58023106 10.7364225,5.40510745 10.7364225,7.08551138 C10.7364225,8.76591531 12.0986591,10.665512 13.779063,11.3283793 Z" id="Oval-6-Copy" fill="#F6DF71"></path>
                            <path d="M23.9758207,15.9476244 C25.6562246,16.6104918 27.0184612,15.7856154 27.0184612,14.1052115 C27.0184612,12.4248075 25.6562246,10.5252108 23.9758207,9.8623435 C22.2954168,9.19947617 20.9331802,10.0243526 20.9331802,11.7047565 C20.9331802,13.3851604 22.2954168,15.2847571 23.9758207,15.9476244 Z" id="Oval-6-Copy-2" fill="#E24660"></path>
                        </g>
                        <polygon id="Rectangle-Copy-28" fill="#D7D7D7" points="226.869977 113.872983 246.763315 102.220907 246.763315 131.118398 226.869977 143.020586"></polygon>
                        <g id="Group" transform="translate(66.776750, 117.573920)" fill="#E0E0E0">
                            <polygon id="Rectangle-Copy-21" points="0.0741451224 0.14657136 71.9539335 32.97125 71.9539335 41.1231184 0.0741451224 8.37775899"></polygon>
                            <polygon id="Rectangle-Copy-22" points="0.0741451224 17.0897625 71.9539335 49.9144411 71.9539335 58.0663096 0.0741451224 25.3209502"></polygon>
                            <polygon id="Rectangle-Copy-23" points="0.0741451224 34.0329537 71.9539335 66.8576323 71.9539335 75.0095007 0.0741451224 42.2641413"></polygon>
                        </g>
                    </g>
                    <polygon id="Rectangle" fill="#5B5B5B" points="0.315857824 39.5969694 37.2245561 56.2643086 37.2245561 224.441997 0.315857824 207.751166"></polygon>
                    <polygon id="Rectangle-Copy-2" fill="#FFFFFF" points="174.674386 119.029157 227.114535 142.98254 227.114535 311.14457 174.674386 287.225053"></polygon>
                    <polygon id="Rectangle" fill="#4E4E4E" points="0.315857824 83.6561884 37.2245561 100.018712 37.2245561 113.292384 0.315857824 96.9298598"></polygon>
                    <polygon id="Rectangle-Copy" fill="#E24660" points="34.3356508 98.671 37.2245561 99.951722 37.2245561 113.114045 34.3356508 111.833322"></polygon>
                    <path d="M186.75803,224.497934 L211.411254,235.78119 C213.719174,236.837476 215.590113,239.564703 215.590113,241.872623 L215.590113,245.492259 C215.590113,245.801109 215.33974,245.936892 215.03089,245.795538 L190.377666,234.512282 C188.069746,233.455996 186.198808,230.728768 186.198808,228.420848 L186.198808,224.801212 C186.198808,224.492362 186.44918,224.35658 186.75803,224.497934 Z" id="Rectangle-6" fill="#E24660"></path>
                    <path d="M202.168768,197.995844 C209.581172,200.607583 215.590113,196.715875 215.590113,189.303471 C215.590113,181.891067 209.581172,173.764893 202.168768,171.153155 C194.756364,168.541416 188.747423,172.433124 188.747423,179.845528 C188.747423,187.257932 194.756364,195.384105 202.168768,197.995844 Z" id="Oval-7" fill="#F7F7F7"></path>
                </g>
                <g id="Group-2-Copy-5" transform="translate(0.000000, 19.752605)">
                    <g id="Group-8-Copy-3" transform="translate(0.226346, 0.155323)">
                        <polygon id="Rectangle-Copy-27" fill="#EBEBEB" points="17.0788792 0.253903737 176.835605 73.2085312 176.835605 216.172304 162.497362 222.35482 0.155682798 7.18533862"></polygon>
                        <polygon id="Rectangle-Copy-14" fill="#F8F8F8" points="0.155682798 7.36849019 162.576499 81.5397032 162.576499 222.741991 129.809743 207.814858 0.155682798 148.750009"></polygon>
                    </g>
                    <path d="M144.875452,141.885108 C150.187229,143.756697 154.493275,140.967874 154.493275,135.656097 C154.493275,130.34432 150.187229,124.521051 144.875452,122.649462 C139.563675,120.777873 135.257629,123.566696 135.257629,128.878473 C135.257629,134.19025 139.563675,140.013519 144.875452,141.885108 Z" id="Oval-7" fill="#F7F7F7"></path>
                </g>
                <polygon id="Rectangle-5-Copy-3" fill="#FFFFFF" points="18.4617035 53 143.538296 109.857293 143.538296 214.857293 18.4617035 158"></polygon>
                <g id="Group-5" transform="translate(138.000000, 156.065831)">
                    <g id="Group-8" transform="translate(39.624395, 78.361535) rotate(-360.000000) translate(-39.624395, -78.361535) translate(0.124395, 0.361535)">
                        <polygon id="Rectangle-Copy-27" fill="#EDEDED" points="7.74331925 0.107033139 78.5572388 32.4449713 78.5572388 152.863507 70.8461075 155.982709 0.241926944 3.17946762"></polygon>
                        <polygon id="Rectangle-Copy-14" fill="#F8F8F8" points="0.116981572 3.21321747 70.9309012 35.5511556 70.9309012 155.969691 56.6449093 149.461604 0.116981572 123.709896"></polygon>
                        <polygon id="Rectangle-Copy-24" fill="#E0E0E0" points="10.9856306 85.3474313 55.518478 105.683835 55.518478 110.734294 10.9856306 90.4470321"></polygon>
                        <polygon id="Rectangle-Copy-22" fill="#E0E0E0" points="10.9856306 64.353253 55.518478 84.6896569 55.518478 89.7401157 10.9856306 69.4528538"></polygon>
                        <polygon id="Rectangle-Copy-25" fill="#E0E0E0" points="10.9856306 95.8445205 55.518478 116.180924 55.518478 121.231383 10.9856306 100.944121"></polygon>
                        <polygon id="Rectangle-Copy-23" fill="#E0E0E0" points="10.9856306 74.8503422 55.518478 95.186746 55.518478 100.237205 10.9856306 79.9499429"></polygon>
                        <polygon id="Rectangle-Copy-26" fill="#E0E0E0" points="10.9856306 106.34161 43.150279 121.029942 43.150279 125.576485 10.9856306 110.923646"></polygon>
                    </g>
                    <g id="patrick-perkins-340019" transform="translate(0.198578, 3.353300)">
                        <mask id="mask-2" fill="white">
                            <use xlink:href="#path-1"></use>
                        </mask>
                        <use id="Mask" fill="#FEEB8C" xlink:href="#path-1"></use>
                    </g>
                    <polygon id="Rectangle-Copy-22" fill="#FFFFFF" points="11.1100254 23.5757926 55.6428728 43.9121965 55.6428728 48.9626553 11.1100254 28.6753934"></polygon>
                    <polygon id="Rectangle-Copy-28" fill="#FFFFFF" points="11.1100254 32.8365475 36.6528361 44.9244053 36.6528361 49.9748641 11.1100254 37.9361482"></polygon>
                    <mask id="mask-4" fill="white">
                        <use xlink:href="#path-3"></use>
                    </mask>
                    <use id="Mask" fill="#DCCA75" xlink:href="#path-3"></use>
                    <polygon id="Mask" fill="#EBD982" points="71.1461597 36.0169933 78.6975147 32.8365475 78.6975147 76.7727607 71.1461597 79.692714"></polygon>
                </g>
                <g id="Group-7" transform="translate(215.500000, 293.606454)">
                    <polygon id="Rectangle-13" fill="#95D2E6" points="0.221990432 10.3940741 17.5372442 18.4351466 17.5372442 36.1943812 0.221990432 28.1533086"></polygon>
                    <polygon id="Rectangle-13-Copy" fill="#88C3D7" points="17.5077577 18.4397464 31.5142632 10.6783521 31.5142632 28.4375867 17.5077577 36.198981"></polygon>
                    <polygon id="Rectangle-13-Copy" fill="#A8DBEC" points="17.5077577 18.4397464 31.5142632 10.6783521 14.2264231 2.63018369 0.219917562 10.391578"></polygon>
                    <polygon id="Rectangle-13" fill="#95D2E6" points="6.45399502 4.62459782 16.7884656 9.42384759 16.7884656 15.3615803 6.45399502 10.5623306"></polygon>
                    <polygon id="Rectangle-13-Copy" fill="#88C3D7" points="16.7708668 9.4125604 25.1305375 4.78023436 25.1305375 10.7319997 16.7708668 15.3643257"></polygon>
                    <polygon id="Rectangle-13-Copy" fill="#696969" points="16.7708668 9.49813983 25.1305375 4.86581378 14.8124285 0.062328886 6.45275785 4.69465493"></polygon>
                    <path d="M16.7708668,9.49813983 L6.45275785,4.69465493 L14.8124285,0.062328886 L25.1305375,4.86581378 L16.7708668,9.49813983 Z M16.4400829,7.90441334 L21.9758248,4.83690473 L15.1432125,1.65605538 L9.60747051,4.72356399 L16.4400829,7.90441334 Z" id="Combined-Shape" fill="#A8DBEC"></path>
                </g>
                <g id="Combined-Shape">
                    <use fill="#FFFFFF" fill-rule="evenodd" xlink:href="#path-5"></use>
                    <path stroke="#DBDBDB" stroke-width="0.5" d="M78.8328431,153.645772 C78.8328431,154.666616 79.6823434,155.896707 80.7173412,156.360404 L126.31698,176.789821 C127.281985,177.222159 127.997048,176.827457 127.997048,175.896184 L127.997048,135.455324 C127.997048,134.43448 127.147548,133.204389 126.11255,132.740692 L80.5129115,112.311276 C79.547906,111.878937 78.8328431,112.273639 78.8328431,113.204912 L78.8328431,141.357891 L76.8867221,141.526163 C76.8405486,141.530156 76.8113379,141.54628 76.791607,141.574356 C76.6978804,141.707724 76.788186,142.045857 77.0403955,142.293652 L78.7580525,143.98125 L78.8328431,144.15958 L78.8328431,153.645772 Z"></path>
                </g>
                <path d="M87.2144107,129.424362 C88.0094433,129.78055 88.6539447,129.424797 88.6539447,128.629764 C88.6539447,127.834731 88.0094433,126.901483 87.2144107,126.545294 C86.419378,126.189106 85.7748767,126.54486 85.7748767,127.339892 C85.7748767,128.134925 86.419378,129.068174 87.2144107,129.424362 Z" id="Oval-6" fill="#E24660"></path>
                <path d="M87.2144107,145.990082 C88.0094433,146.34627 88.6539447,145.990516 88.6539447,145.195484 C88.6539447,144.400451 88.0094433,143.467202 87.2144107,143.111014 C86.419378,142.754826 85.7748767,143.11058 85.7748767,143.905612 C85.7748767,144.700645 86.419378,145.633894 87.2144107,145.990082 Z" id="Oval-6-Copy" fill="#E7E7E7"></path>
                <polygon id="Rectangle-16" fill="#EDEDED" points="91.6043249 128.165229 113.904505 138.587469 113.904505 141.529522 91.6043249 131.107282"></polygon>
                <polygon id="Rectangle-16-Copy-4" fill="#EDEDED" points="30.5180553 77.5745425 52.8182355 87.9967826 52.8182355 90.9388357 30.5180553 80.5165956"></polygon>
                <polygon id="Rectangle-16-Copy-9" fill="#EDEDED" points="30.5180553 107.205789 52.8182355 117.628029 52.8182355 120.570082 30.5180553 110.147842"></polygon>
                <polygon id="Rectangle-16-Copy-10" fill="#EDEDED" points="30.5180553 132.535502 52.8182355 142.957742 52.8182355 145.899795 30.5180553 135.477555"></polygon>
                <polygon id="Rectangle-16-Copy-2" fill="#EDEDED" points="91.6043249 144.660665 117.16991 156.427456 117.16991 159.369509 91.6043249 147.602718"></polygon>
                <polygon id="Rectangle-16-Copy" fill="#EDEDED" points="91.6043249 133.464086 117.16991 145.230876 117.16991 148.172929 91.6043249 136.406139"></polygon>
                <polygon id="Rectangle-16-Copy-5" fill="#EDEDED" points="30.5180553 82.8734001 56.0836405 94.6401903 56.0836405 97.5822434 30.5180553 85.8154532"></polygon>
                <polygon id="Rectangle-16-Copy-8" fill="#EDEDED" points="30.5180553 100.400492 56.0836405 112.167282 56.0836405 115.109335 30.5180553 103.342545"></polygon>
                <polygon id="Rectangle-16-Copy-11" fill="#EDEDED" points="30.5180553 125.730205 56.0836405 137.496995 56.0836405 140.439048 30.5180553 128.672258"></polygon>
                <polygon id="Rectangle-16-Copy-7" fill="#EDEDED" points="30.5180553 95 56.0836405 106.76679 56.0836405 109.708843 30.5180553 97.9420531"></polygon>
                <polygon id="Rectangle-16-Copy-12" fill="#EDEDED" points="30.5180553 120.329713 56.0836405 132.096503 56.0836405 135.038556 30.5180553 123.271766"></polygon>
                <polygon id="Rectangle-16-Copy-6" fill="#EDEDED" points="30.5180553 88.6459212 59.3257509 101.950972 59.3257509 104.893025 30.5180553 91.5879743"></polygon>
                <polygon id="Rectangle-16-Copy-3" fill="#EDEDED" points="91.6043249 149.959523 110.539684 158.853932 110.539684 161.795985 91.6043249 152.901576"></polygon>
                <g id="Group-11" transform="translate(154.349204, 299.561814) rotate(-64.000000) translate(-154.349204, -299.561814) translate(149.349204, 258.061814)">
                    <g id="Group-10" transform="translate(1.563557, 15.000000)">
                        <path d="M3.43644304,0 C5.33433813,0 6.82517717,1.53854796 6.76632524,3.43644304 L4.90151047,63.5741963 C4.84265854,65.4720914 4.18672551,67.0106394 3.43644304,67.0106394 C2.68616058,67.0106394 2.03022755,65.4720914 1.97137562,63.5741963 L0.106560844,3.43644304 C0.0477089151,1.53854796 1.53854796,0 3.43644304,0 Z" id="Rectangle-14" fill="#D8BEA4"></path>
                        <path d="M2.48477787,66.0950565 L4.40922768,4.03415399 C4.46140954,2.35135967 3.47577758,0.909216838 2.03029123,0.304180406 C2.45590581,0.108783467 2.93178392,0 3.43644304,0 C5.33433813,0 6.82517717,1.53854796 6.76632524,3.43644304 L4.90151047,63.5741963 C4.84265854,65.4720914 4.18672551,67.0106394 3.43644304,67.0106394 C3.07994272,67.0106394 2.74474386,66.6632781 2.48477787,66.0950565 Z" id="Combined-Shape" fill="#C09F7D"></path>
                    </g>
                    <path d="M5,0.256066672 L9.5,11.2560667 C7.5139421,14.3144111 6.0139421,15.8435832 5,15.8435832 C3.9860579,15.8435832 2.4860579,14.3144111 0.5,11.2560667 L5,0.256066672 Z" id="Triangle-2" fill="#D8D8D8"></path>
                    <path d="M5,15.8435832 L5,0.256066672 L9.5,11.2560667 C7.5139421,14.3144111 6.0139421,15.8435832 5,15.8435832 Z" id="Combined-Shape" fill="#C5C5C5"></path>
                    <circle id="Oval" fill="#858585" cx="5" cy="8.04982496" r="1.13461705"></circle>
                </g>
            </g>
        </g>
    </g>
</svg>