<?xml version="1.0" encoding="UTF-8"?>
<svg width="316px" height="320px" viewBox="0 0 316 320" version="1.1" xmlns="http://www.w3.org/2000/svg" xmlns:xlink="http://www.w3.org/1999/xlink">
    <!-- Generator: Sketch 48.2 (47327) - http://www.bohemiancoding.com/sketch -->
    <title>Basic Information</title>
    <desc>Created with Sketch.</desc>
    <defs>
        <polygon id="path-1" points="0.0868668966 6.28164097 10.6517432 0.0718116193 10.6517432 24.9783176 0.0868668966 31.1871685"></polygon>
        <linearGradient x1="50%" y1="0%" x2="50%" y2="100%" id="linearGradient-3">
            <stop stop-color="#FFFDF5" offset="0%"></stop>
            <stop stop-color="#FFFBE8" stop-opacity="0" offset="100%"></stop>
        </linearGradient>
    </defs>
    <g id="Landing-Page---Tenant" stroke="none" stroke-width="1" fill="none" fill-rule="evenodd" transform="translate(-307.000000, -2265.000000)">
        <g id="Section-2" transform="translate(307.000000, 2004.000000)">
            <g id="Basic-Information" transform="translate(0.000000, 261.000000)">
                <g id="Group-2" transform="translate(68.789259, 0.061814)">
                    <g id="Group-8-Copy-3" transform="translate(0.315858, 0.216748)">
                        <polygon id="Rectangle-Copy-27" fill="#EBEBEB" points="23.8329954 0.354314033 246.768075 102.160016 246.768075 301.6611 226.759544 310.288591 0.217250051 10.0268958"></polygon>
                        <polygon id="Rectangle-Copy-14" fill="#F8F8F8" points="0.217250051 10.2824775 226.869977 113.785884 226.869977 310.828876 181.145083 289.998569 0.217250051 207.575581"></polygon>
                        <polygon id="Rectangle-Copy-3" fill="#FFFFFF" points="50.573408 83.4394404 155.119821 131.193697 155.119821 227.777277 50.573408 180.090537"></polygon>
                        <polygon id="Rectangle-Copy-14" fill="#D7D7D7" points="0.217250051 10.2824775 226.869977 113.785884 226.869977 142.683375 0.217250051 39.4300799"></polygon>
                        <g id="Group-12" transform="translate(10.278574, 29.409501)">
                            <path d="M3.59364771,6.73341781 C5.27405165,7.39628514 6.63628819,6.57140875 6.63628819,4.89100482 C6.63628819,3.21060089 5.27405165,1.3110042 3.59364771,0.648136866 C1.91324378,-0.0147304693 0.551007243,0.810145922 0.551007243,2.49054985 C0.551007243,4.17095378 1.91324378,6.07055047 3.59364771,6.73341781 Z" id="Oval-6" fill="#70D1B8"></path>
                            <path d="M13.779063,11.3283793 C15.4594669,11.9912467 16.8217035,11.1663703 16.8217035,9.48596635 C16.8217035,7.80556242 15.4594669,5.90596573 13.779063,5.2430984 C12.0986591,4.58023106 10.7364225,5.40510745 10.7364225,7.08551138 C10.7364225,8.76591531 12.0986591,10.665512 13.779063,11.3283793 Z" id="Oval-6-Copy" fill="#F6DF71"></path>
                            <path d="M23.9758207,15.9476244 C25.6562246,16.6104918 27.0184612,15.7856154 27.0184612,14.1052115 C27.0184612,12.4248075 25.6562246,10.5252108 23.9758207,9.8623435 C22.2954168,9.19947617 20.9331802,10.0243526 20.9331802,11.7047565 C20.9331802,13.3851604 22.2954168,15.2847571 23.9758207,15.9476244 Z" id="Oval-6-Copy-2" fill="#E24660"></path>
                        </g>
                        <polygon id="Rectangle-Copy-28" fill="#D7D7D7" points="226.869977 113.872983 246.763315 102.220907 246.763315 131.118398 226.869977 143.020586"></polygon>
                        <g id="Group" transform="translate(66.776750, 117.573920)" fill="#E0E0E0">
                            <polygon id="Rectangle-Copy-21" points="0.0741451224 0.14657136 71.9539335 32.97125 71.9539335 41.1231184 0.0741451224 8.37775899"></polygon>
                            <polygon id="Rectangle-Copy-22" points="0.0741451224 17.0897625 71.9539335 49.9144411 71.9539335 58.0663096 0.0741451224 25.3209502"></polygon>
                            <polygon id="Rectangle-Copy-23" points="0.0741451224 34.0329537 71.9539335 66.8576323 71.9539335 75.0095007 0.0741451224 42.2641413"></polygon>
                        </g>
                    </g>
                    <polygon id="Rectangle" fill="#5B5B5B" points="0.315857824 39.5969694 37.2245561 56.2643086 37.2245561 224.441997 0.315857824 207.751166"></polygon>
                    <polygon id="Rectangle-Copy-2" fill="#FFFFFF" points="174.674386 119.029157 227.114535 142.98254 227.114535 311.14457 174.674386 287.225053"></polygon>
                    <polygon id="Rectangle" fill="#4E4E4E" points="0.315857824 83.6561884 37.2245561 100.018712 37.2245561 113.292384 0.315857824 96.9298598"></polygon>
                    <polygon id="Rectangle-Copy" fill="#E24660" points="34.3356508 98.671 37.2245561 99.951722 37.2245561 113.114045 34.3356508 111.833322"></polygon>
                    <path d="M186.75803,224.497934 L211.411254,235.78119 C213.719174,236.837476 215.590113,239.564703 215.590113,241.872623 L215.590113,245.492259 C215.590113,245.801109 215.33974,245.936892 215.03089,245.795538 L190.377666,234.512282 C188.069746,233.455996 186.198808,230.728768 186.198808,228.420848 L186.198808,224.801212 C186.198808,224.492362 186.44918,224.35658 186.75803,224.497934 Z" id="Rectangle-6" fill="#E24660"></path>
                    <path d="M202.168768,197.995844 C209.581172,200.607583 215.590113,196.715875 215.590113,189.303471 C215.590113,181.891067 209.581172,173.764893 202.168768,171.153155 C194.756364,168.541416 188.747423,172.433124 188.747423,179.845528 C188.747423,187.257932 194.756364,195.384105 202.168768,197.995844 Z" id="Oval-7" fill="#F7F7F7"></path>
                </g>
                <g id="Group-2-Copy" transform="translate(0.000000, 19.748587)">
                    <g id="Group-8-Copy-3" transform="translate(0.226346, 0.155323)">
                        <polygon id="Rectangle-Copy-27" fill="#EBEBEB" points="17.0788792 0.253903737 176.835605 73.2085312 176.835605 216.172304 162.497362 222.35482 0.155682798 7.18533862"></polygon>
                        <polygon id="Rectangle-Copy-14" fill="#F8F8F8" points="0.155682798 7.36849019 162.576499 81.5397032 162.576499 222.741991 129.809743 207.814858 0.155682798 148.750009"></polygon>
                    </g>
                    <path d="M144.875452,141.885108 C150.187229,143.756697 154.493275,140.967874 154.493275,135.656097 C154.493275,130.34432 150.187229,124.521051 144.875452,122.649462 C139.563675,120.777873 135.257629,123.566696 135.257629,128.878473 C135.257629,134.19025 139.563675,140.013519 144.875452,141.885108 Z" id="Oval-7" fill="#F7F7F7"></path>
                </g>
                <g id="Group-6" transform="translate(144.841013, 199.000000)">
                    <polygon id="Rectangle" fill="#E9E9E9" points="6.90321482e-15 35.951971 42.442523 76.1654045 42.442523 120.599733 0 101.264733"></polygon>
                    <polygon id="Rectangle" fill="#CDEEF0" points="0 66.0948019 42.442523 85.4766366 42.442523 108.349757 0 89.0147572"></polygon>
                    <polygon id="Rectangle-Copy-3" fill="#B3B0DF" points="54.2140369 4.20789607 96.6587186 40.1938567 96.6587186 44.3353861 42.4726995 76.1798173 0.0280177581 36.0523274 0.0280177581 31.8650509"></polygon>
                    <polygon id="Rectangle-Copy-4" fill="#CECAFF" points="54.2140369 0 96.6587186 40.12749 42.4726995 71.9719213 0.0280177581 31.8444313"></polygon>
                    <polygon id="Rectangle-Copy-2" fill="#F7F7F7" points="42.4444081 76.1637493 96.5990429 44.3327055 96.5990429 88.7720492 42.4444081 120.598078"></polygon>
                    <polygon id="Rectangle-Copy-2" fill="#DEF9FA" points="42.4599966 85.3931019 70.1981955 69.0891267 70.1981955 92.0887245 42.4599966 108.390131"></polygon>
                    <path d="M70.1981955,71.6767466 L70.1981955,92.0887245 L50.7208232,103.535342 L70.1981955,71.6767466 Z" id="Combined-Shape" fill="#DAF6F8"></path>
                    <g id="Group" transform="translate(81.697075, 66.306269)">
                        <mask id="mask-2" fill="white">
                            <use xlink:href="#path-1"></use>
                        </mask>
                        <use id="Mask" fill="#AEAEAE" xlink:href="#path-1"></use>
                        <g mask="url(#mask-2)">
                            <g transform="translate(0.000000, -0.771429)">
                                <polygon id="Rectangle-Copy-10" fill="#E5E5E5" points="0.0868668966 30.1273376 10.648903 23.9191777 10.648903 25.751416 0.0868668966 31.9585978"></polygon>
                                <polygon id="Rectangle-Copy-8" fill="#D1D1D1" points="8.8626192 0.0646781725 10.6517432 0.881700892 10.6517432 25.7998741 8.8626192 24.9848257"></polygon>
                            </g>
                        </g>
                    </g>
                    <polygon id="Rectangle-2" fill="#F4E080" points="92.3427995 66.3062689 106.284995 66.3062689 107.402803 67.6177741 106.284995 91.3005786 93.4614188 92.6103985 92.3427995 91.3005786"></polygon>
                    <rect id="Rectangle-2-Copy" fill="#FEEB8C" x="93.4603901" y="67.6176987" width="13.942196" height="24.9943097"></rect>
                    <rect id="Rectangle-3" fill="#F5E285" x="96.0456602" y="70.3177013" width="8.79429416" height="8.79429416"></rect>
                    <path d="M103.735236,79.1119954 L103.735236,71.3205594 L96.0456602,71.3205594 L96.0456602,70.3177013 L104.839954,70.3177013 L104.839954,79.1119954 L103.735236,79.1119954 Z" id="Combined-Shape" fill="#F1DE7F"></path>
                    <rect id="Rectangle-3-Copy" fill="#F5E285" x="96.0456602" y="81.9765539" width="8.79429416" height="8.79429416"></rect>
                    <polygon id="Triangle" fill="url(#linearGradient-3)" points="92.2664426 61.5596573 109.161531 103.371126 75.3713546 103.371126"></polygon>
                    <path d="M103.735236,90.837721 L103.735236,83.0462849 L96.0456602,83.0462849 L96.0456602,82.0434268 L104.839954,82.0434268 L104.839954,90.837721 L103.735236,90.837721 Z" id="Combined-Shape-Copy-2" fill="#F1DE7F"></path>
                    <g id="Group-3" transform="translate(81.697075, 55.501132)">
                        <polygon id="Rectangle-Copy-11" fill="#E8E8E8" points="0.0110292715 6.42946767 8.57566149 10.3405991 8.57566149 12.6104259 0.0110292715 8.70874553"></polygon>
                        <polygon id="Rectangle-Copy-12" fill="#F5F5F5" points="10.9299097 0.0319891682 19.4795863 3.93803141 8.56070589 10.3549179 0.0110292715 6.44887569"></polygon>
                        <polygon id="Rectangle-Copy-2" fill="#F8F8F8" points="8.57572896 10.3320318 19.4795863 3.95125814 19.4795863 6.23154729 8.57572896 12.6113092"></polygon>
                    </g>
                </g>
                <polygon id="Rectangle-5" fill="#FFFFFF" points="18.4617035 52.8199411 143.538296 109.677234 143.538296 214.677234 18.4617035 157.819941"></polygon>
                <g id="Group-13" transform="translate(30.000000, 131.120132)">
                    <path d="M57.2922487,33.5280037 L60.9168726,35.1899399 C61.5174199,35.4652985 62.0042597,36.1907917 62.0042597,36.8103743 L62.0042597,40.549886 C62.0042597,41.1694686 61.5174199,41.4485172 60.9168726,41.1731586 L57.2922487,39.5112225 C56.6917014,39.2358639 56.2048616,38.5103707 56.2048616,37.8907881 L56.2048616,34.1512764 C56.2048616,33.5316938 56.6917014,33.2526451 57.2922487,33.5280037 Z" id="Rectangle-3-Copy" fill="#E24660"></path>
                    <path d="M60.2825634,37.9843385 L59.1951762,37.4857576 L59.1951762,38.6075644 C59.1951762,38.6591696 59.1545805,38.682345 59.1045607,38.6594103 C59.0545408,38.6364756 59.0139451,38.5760728 59.0139451,38.5244676 L59.0139451,37.4026608 L57.9265126,36.9040592 C57.8764928,36.8811245 57.8359423,36.820649 57.8359423,36.7689035 C57.8359423,36.7172983 57.8765381,36.6940294 57.9265126,36.7169434 L59.0139451,37.215545 L59.0139451,36.0936915 C59.0139451,36.0420862 59.0545408,36.0188174 59.1045607,36.0417521 C59.1545805,36.0646868 59.1951762,36.125183 59.1951762,36.1767883 L59.1951762,37.2986418 L60.2825634,37.7972226 C60.3325832,37.8201574 60.373179,37.8806536 60.373179,37.9322588 C60.373179,37.9840043 60.3325832,38.0072732 60.2825634,37.9843385 Z" id="Shape" stroke="#FFFFFF" fill="#FFFFFF" fill-rule="nonzero"></path>
                    <path d="M4.0147597,9.09959692 L7.63938356,10.7615331 C8.2399309,11.0368917 8.72677071,11.7623849 8.72677071,12.3819674 L8.72677071,16.1214792 C8.72677071,16.7410617 8.2399309,17.0201104 7.63938356,16.7447518 L4.0147597,15.0828156 C3.41421236,14.807457 2.92737255,14.0819639 2.92737255,13.4623813 L2.92737255,9.72286958 C2.92737255,9.10328699 3.41421236,8.82423832 4.0147597,9.09959692 Z" id="Rectangle-3-Copy-2" fill="#E24660"></path>
                    <path d="M4.55845328,12.2534178 C4.55845328,12.19828 4.59900448,12.1721144 4.6490705,12.1950703 L7.00511807,13.2753481 C7.05513877,13.2982832 7.09568998,13.3615854 7.09568998,13.4167731 C7.09568998,13.4718609 7.05513877,13.4979767 7.00511807,13.4750415 L4.6490705,12.3947637 C4.59900448,12.3718078 4.55845328,12.3085056 4.55845328,12.2534178 Z" id="Shape-Copy" stroke="#FFFFFF" fill="#000000" fill-rule="nonzero"></path>
                    <path d="M1.08738716,5.13970115 L63.9901825,33.9814334 C64.5907298,34.256792 65.0775696,34.9822852 65.0775696,35.6018678 L65.0775696,44.5766959 C65.0775696,45.1962784 64.5907298,45.4753271 63.9901825,45.1999685 L1.08738716,16.3582363 C0.486839812,16.0828777 0,15.3573845 0,14.7378019 L0,5.76297381 C0,5.14339123 0.486839812,4.86434255 1.08738716,5.13970115 Z" id="Rectangle-2-Copy-6" stroke="#D1D1D1" stroke-width="0.5"></path>
                    <path d="M5.39561507,0.961711973 L5.39561507,3.67659747 L5.07664817,3.53034709 L5.07664817,2.30864861 L3.64927129,1.65417815 L3.64927129,2.87587662 L3.33030439,2.72962624 L3.33030439,0.0147407442 L3.64927129,0.160991127 L3.64927129,1.34566844 L5.07664817,2.0001389 L5.07664817,0.81546159 L5.39561507,0.961711973 Z M7.03829459,2.33192088 C7.33865659,2.46964068 7.57455684,2.67241264 7.7460024,2.94024285 C7.91744797,3.20807306 8.00316946,3.50926531 8.00316946,3.84382863 C8.00316946,4.17839195 7.91744797,4.40097541 7.7460024,4.51158567 C7.57455684,4.62219593 7.33865659,4.60864137 7.03829459,4.47092157 C6.7379326,4.33320177 6.50203235,4.13042981 6.33058679,3.8625996 C6.15914122,3.59476938 6.07341973,3.29357714 6.07341973,2.95901382 C6.07341973,2.6244505 6.15914122,2.40186704 6.33058679,2.29125678 C6.50203235,2.18064651 6.7379326,2.19420108 7.03829459,2.33192088 Z M7.03829459,2.61574981 C6.83628122,2.52312411 6.67812838,2.52053719 6.56383133,2.60798898 C6.44953429,2.69544076 6.39238662,2.86119751 6.39238662,3.1052642 C6.39238662,3.34933088 6.44953429,3.5674935 6.56383133,3.75975858 C6.67812838,3.95202367 6.83628122,4.09446693 7.03829459,4.18709263 C7.24030797,4.27971834 7.39846081,4.28230526 7.51275786,4.19485347 C7.6270549,4.10740168 7.68420257,3.94164493 7.68420257,3.69757825 C7.68420257,3.45351156 7.6270549,3.23534895 7.51275786,3.04308387 C7.39846081,2.85081878 7.24030797,2.70837552 7.03829459,2.61574981 Z M11.5157924,4.42604525 L10.8220394,6.16468211 L10.5030725,6.01843173 L9.94089338,4.1235072 L9.41061091,5.51752416 L9.09164401,5.37127378 L8.397891,2.99644776 L8.75274168,3.15915131 L9.25511454,5.06367506 L9.79735827,3.63812132 L10.1163252,3.7843717 L10.6585689,5.70717674 L11.1609418,4.2633417 L11.5157924,4.42604525 Z M15.7102072,6.30810316 C15.8431107,6.36904112 15.9673736,6.45412565 16.0829997,6.56335928 C16.1986258,6.67259292 16.2923214,6.80262097 16.3640893,6.95344733 C16.4358572,7.10427369 16.4717406,7.26606759 16.4717406,7.4388339 L16.4717406,8.75514202 L16.1527737,8.60889163 L16.1527737,7.32549122 C16.1527737,7.14724027 16.1095807,6.99512066 16.0231934,6.86912783 C15.9368061,6.743135 15.8231753,6.64784289 15.6822976,6.58324865 C15.5759747,6.53449828 15.4782921,6.51644679 15.3892467,6.52909364 C15.3002013,6.54174049 15.2284345,6.58698949 15.1739441,6.66484201 C15.1194536,6.74269454 15.0922088,6.85291952 15.0922088,6.99552028 L15.0922088,8.12260911 L14.7732419,7.97635873 L14.7732419,6.69295831 C14.7732419,6.51470736 14.7300489,6.36258775 14.6436616,6.23659492 C14.5572743,6.11060209 14.4436435,6.01530999 14.3027657,5.95071575 C14.2070752,5.90684041 14.1140441,5.88955058 14.0236697,5.89884572 C13.9332953,5.90814087 13.8588704,5.95285671 13.8003929,6.03299457 C13.7419153,6.11313244 13.712677,6.23272692 13.712677,6.39178162 L13.712677,7.4900762 L13.3937101,7.34382582 L13.3937101,5.28709438 L13.6728061,5.41506347 L13.6927415,5.74505422 C13.7618514,5.65607978 13.8528889,5.60732638 13.9658569,5.59879256 C14.0788249,5.59025874 14.2004299,5.61585105 14.3306753,5.67557025 C14.4768692,5.74260201 14.6117643,5.83873163 14.7353646,5.963962 C14.8589649,6.08919236 14.9526605,6.23224625 15.0164542,6.39312794 C15.0749317,6.28830917 15.1706208,6.23209059 15.3035244,6.22447049 C15.4364279,6.2168504 15.5719875,6.24472768 15.7102072,6.30810316 Z M18.8281086,9.59698587 C18.88127,9.62136106 18.9344306,9.63888017 18.987592,9.64954375 L18.9676566,9.89955126 C18.8932306,9.89284922 18.8134897,9.8699984 18.7284314,9.8309981 C18.6247667,9.78346649 18.5430322,9.72268081 18.4832256,9.64863925 C18.423419,9.57459769 18.3855421,9.47907562 18.3695937,9.36207017 C18.3084581,9.43001999 18.2187495,9.46361464 18.1004654,9.46285514 C17.9821812,9.46209563 17.8579183,9.43185673 17.7276728,9.37213753 C17.5309756,9.28194934 17.3688357,9.16030179 17.2412483,9.00719122 C17.1136609,8.85408066 17.0498681,8.68840239 17.0498681,8.51015144 C17.0498681,8.35383907 17.1163189,8.24925024 17.2492224,8.19638183 C17.382126,8.14351342 17.5748332,8.15303156 17.82735,8.22493654 L18.3576324,8.37758162 L18.3576324,8.26240465 C18.3576324,8.12528854 18.3164329,7.99670681 18.2340327,7.8766556 C18.1516326,7.75660439 18.0373372,7.66306431 17.8911433,7.59603255 C17.7582398,7.53509459 17.64328,7.51529142 17.5462604,7.53662244 C17.4492408,7.55795346 17.3741514,7.62087501 17.32099,7.72538897 L17.0857519,7.44065041 C17.1389133,7.31145554 17.237925,7.23482213 17.3827898,7.21074788 C17.5276547,7.18667362 17.6971042,7.21912072 17.8911433,7.30809015 C18.1277116,7.41655973 18.3177608,7.56265876 18.4612967,7.74639162 C18.6048325,7.93012448 18.6765993,8.13716534 18.6765993,8.36752041 L18.6765993,9.37943228 C18.6765993,9.42879408 18.6885605,9.47129921 18.7124831,9.50694894 C18.7364057,9.54259868 18.7749472,9.57261069 18.8281086,9.59698587 Z M17.7436211,9.09150764 C17.9110796,9.16828948 18.0552778,9.19327196 18.17622,9.16645584 C18.2971622,9.13963972 18.3576324,9.06041711 18.3576324,8.92878564 L18.3576324,8.6449567 L17.9110788,8.52658889 C17.732988,8.47783988 17.6000865,8.46420718 17.5123701,8.48569038 C17.4246538,8.50717357 17.3807963,8.56590493 17.3807963,8.66188621 C17.3807963,8.7468982 17.4126927,8.82665227 17.4764864,8.90115081 C17.5402801,8.97564935 17.6293241,9.039101 17.7436211,9.09150764 Z M20.418956,8.46712444 C20.644892,8.57071898 20.8309542,8.72321673 20.9771481,8.92462229 C21.123342,9.12602784 21.1964378,9.35287404 21.1964378,9.60516769 L21.1964378,10.9214758 L20.8774709,10.7752254 L20.8774709,9.57409427 C20.8774709,9.36019313 20.8329489,9.18484033 20.7439035,9.04803062 C20.6548582,8.9112209 20.5359113,8.80869232 20.3870593,8.7404418 C20.2807365,8.69169143 20.1810603,8.6699836 20.0880278,8.67531767 C19.9949954,8.68065173 19.918577,8.72376794 19.8587704,8.80466759 C19.7989638,8.88556723 19.7690609,9.00828489 19.7690609,9.17282422 L19.7690609,10.2670053 L19.450094,10.120755 L19.450094,8.06402353 L19.7291901,8.19199261 L19.7491255,8.52198337 C19.8155773,8.42904784 19.9072794,8.37991356 20.0242345,8.37457904 C20.1411896,8.36924452 20.2727621,8.40009268 20.418956,8.46712444 Z M22.6756468,11.9452428 C22.5985628,12.107346 22.5121768,12.2069077 22.4164862,12.2439309 C22.3207957,12.2809541 22.1971972,12.2647313 22.0456872,12.195262 C21.9446805,12.1489491 21.860288,12.0965427 21.7925072,12.0380411 C21.7247264,11.9795395 21.6629272,11.9073273 21.6071077,11.8214023 L21.7187461,11.5928744 C21.7958302,11.7379113 21.9034804,11.842116 22.0417001,11.9054914 C22.1187842,11.9408355 22.1872285,11.9482231 22.247035,11.9276545 C22.3068416,11.907086 22.3593377,11.8440887 22.404525,11.7386608 L22.5081892,11.518817 L21.6748882,9.08411995 L22.037713,9.25047976 L22.5360988,10.8199849 L22.6596985,11.2427551 L22.8032336,10.9013349 L23.2697227,9.81537186 L23.6126121,9.97259102 L22.6756468,11.9452428 Z M26.3916112,11.2056629 C26.6707086,11.3336326 26.8919897,11.530387 27.055461,11.7959321 C27.2189324,12.0614772 27.3006668,12.3601558 27.3006668,12.6919768 C27.3006668,13.0237978 27.2189324,13.2475238 27.055461,13.3631615 C26.8919897,13.4787992 26.6707086,13.4726333 26.3916112,13.3446636 C26.2374431,13.2739755 26.09989,13.1745704 25.9789478,13.0464454 C25.8580055,12.9183203 25.768297,12.7805223 25.7098194,12.6330475 L25.689884,12.9817781 L25.410788,12.853809 L25.410788,9.8509811 L25.7297549,9.99723148 L25.7297549,11.264178 C25.7935486,11.1837354 25.8832571,11.1371149 25.9988832,11.1243152 C26.1145093,11.1115155 26.2454173,11.1386311 26.3916112,11.2056629 Z M26.3557274,13.040268 C26.5497666,13.1292374 26.7026034,13.1287013 26.8142423,13.0386596 C26.9258813,12.9486179 26.9817,12.7843085 26.9817,12.5457264 C26.9817,12.3071444 26.9258813,12.0916478 26.8142423,11.8992304 C26.7026034,11.7068129 26.5497666,11.5661215 26.3557274,11.4771521 C26.1643463,11.3894014 26.012174,11.3881855 25.899206,11.4735044 C25.786238,11.5588232 25.7297549,11.7166578 25.7297549,11.9470129 L25.7297549,11.9963744 C25.7297549,12.2267295 25.786238,12.4363606 25.899206,12.625274 C26.012174,12.8141874 26.1643463,12.9525173 26.3557274,13.040268 Z M29.6331123,13.6544827 C29.6331123,13.7312677 29.6277962,13.8056141 29.617164,13.8775241 L28.1140324,13.1883192 C28.1326389,13.405267 28.1997542,13.5978348 28.3153803,13.7660283 C28.4310064,13.9342219 28.5805206,14.060364 28.7639275,14.1444584 C28.9101214,14.2114901 29.0317263,14.2411959 29.1287459,14.2335765 C29.2257655,14.225957 29.2915517,14.1807082 29.3261067,14.0978284 L29.5932414,14.3642843 C29.5134993,14.4730646 29.4071781,14.5353774 29.2742745,14.5512244 C29.141371,14.5670715 28.971257,14.527464 28.7639275,14.4324008 C28.4635655,14.294681 28.2276653,14.091909 28.0562197,13.8240788 C27.8847741,13.5562486 27.7990526,13.2550563 27.7990526,12.920493 C27.7990526,12.5859297 27.8807871,12.3615181 28.0442584,12.2472516 C28.2077298,12.132985 28.439643,12.1447115 28.740005,12.2824313 C28.9260699,12.3677444 29.0868808,12.4839836 29.2224424,12.6311524 C29.358004,12.7783211 29.4603382,12.9404184 29.5294481,13.1174492 C29.5985579,13.2944801 29.6331123,13.4734894 29.6331123,13.6544827 Z M28.740005,12.5703737 C28.5645723,12.4899356 28.4230322,12.4785121 28.3153803,12.5361029 C28.2077284,12.5936937 28.1419422,12.7143554 28.1180195,12.8980914 L29.3261067,13.4520147 C29.3048421,13.2503021 29.2437074,13.0721312 29.1427007,12.9174966 C29.041694,12.762862 28.9074634,12.6471555 28.740005,12.5703737 Z M32.0094157,12.8765359 L32.0094157,15.8793638 L31.7303197,15.7513947 L31.7103842,15.3843828 C31.6519067,15.4782323 31.5621981,15.5337652 31.4412559,15.5509832 C31.3203137,15.5682012 31.1827606,15.5414665 31.0285925,15.4707785 C30.749495,15.3428088 30.528214,15.1460543 30.3647426,14.8805092 C30.2012713,14.6149641 30.1195368,14.3162856 30.1195368,13.9844646 C30.1195368,13.6526436 30.2012713,13.4289176 30.3647426,13.3132799 C30.528214,13.1976422 30.749495,13.2038081 31.0285925,13.3317778 C31.1747864,13.3988096 31.3056944,13.4917399 31.4213205,13.6105717 C31.5369466,13.7294035 31.6266551,13.858289 31.6904488,13.9972321 L31.6904488,12.7302855 L32.0094157,12.8765359 Z M31.0644763,15.1992893 C31.2558574,15.2870399 31.4080296,15.2882558 31.5209976,15.202937 C31.6339656,15.1176181 31.6904488,14.9597835 31.6904488,14.7294285 L31.6904488,14.6800669 C31.6904488,14.4497118 31.6339656,14.2400808 31.5209976,14.0511674 C31.4080296,13.862254 31.2558574,13.723924 31.0644763,13.6361734 C30.8704371,13.5472039 30.7176003,13.5477401 30.6059613,13.6377818 C30.4943224,13.7278235 30.4385037,13.8921329 30.4385037,14.1307149 C30.4385037,14.369297 30.4943224,14.5847935 30.6059613,14.777211 C30.7176003,14.9696285 30.8704371,15.1103198 31.0644763,15.1992893 Z M33.6919661,14.5529685 C33.7876566,14.5968438 33.8607525,14.6440706 33.9112558,14.6946503 L33.8474624,14.9862503 C33.7836688,14.9213499 33.6999408,14.8651347 33.596276,14.8176031 C33.5112178,14.7786028 33.4281543,14.7658832 33.3470831,14.779444 C33.266012,14.7930048 33.1995612,14.8393202 33.1477288,14.9183915 C33.0958964,14.9974628 33.0699806,15.1096683 33.0699806,15.2550113 L33.0699806,16.3656463 L32.7510137,16.2193959 L32.7510137,14.1626645 L33.0101743,14.2814929 L33.0540323,14.6389063 C33.1656713,14.4378006 33.3783137,14.4091549 33.6919661,14.5529685 Z M35.2190201,15.2531422 C35.5193821,15.390862 35.7552824,15.593634 35.9267279,15.8614642 C36.0981735,16.1292944 36.183895,16.4304866 36.183895,16.76505 C36.183895,17.0996133 36.0981735,17.3221967 35.9267279,17.432807 C35.7552824,17.5434173 35.5193821,17.5298627 35.2190201,17.3921429 C34.9186581,17.2544231 34.6827579,17.0516511 34.5113123,16.7838209 C34.3398667,16.5159907 34.2541452,16.2147985 34.2541452,15.8802351 C34.2541452,15.5456718 34.3398667,15.3230884 34.5113123,15.2124781 C34.6827579,15.1018678 34.9186581,15.1154224 35.2190201,15.2531422 Z M35.2190201,15.5369711 C35.0170067,15.4443454 34.8588539,15.4417585 34.7445569,15.5292103 C34.6302598,15.6166621 34.5731121,15.7824188 34.5731121,16.0264855 C34.5731121,16.2705522 34.6302598,16.4887148 34.7445569,16.6809799 C34.8588539,16.873245 35.0170067,17.0156883 35.2190201,17.108314 C35.4210335,17.2009397 35.5791863,17.2035266 35.6934834,17.1160748 C35.8077804,17.028623 35.8649281,16.8628663 35.8649281,16.6187996 C35.8649281,16.3747329 35.8077804,16.1565703 35.6934834,15.9643052 C35.5791863,15.7720401 35.4210335,15.6295968 35.2190201,15.5369711 Z M37.6431685,16.3646451 C37.9435305,16.5023649 38.1794308,16.7051369 38.3508764,16.9729671 C38.5223219,17.2407973 38.6080434,17.5419895 38.6080434,17.8765529 C38.6080434,18.2111162 38.5223219,18.4336996 38.3508764,18.5443099 C38.1794308,18.6549202 37.9435305,18.6413656 37.6431685,18.5036458 C37.3428065,18.365926 37.1069063,18.163154 36.9354607,17.8953238 C36.7640152,17.6274936 36.6782937,17.3263014 36.6782937,16.991738 C36.6782937,16.6571747 36.7640152,16.4345913 36.9354607,16.323981 C37.1069063,16.2133707 37.3428065,16.2269253 37.6431685,16.3646451 Z M37.6431685,16.648474 C37.4411552,16.5558483 37.2830023,16.5532614 37.1687053,16.6407132 C37.0544082,16.728165 36.9972606,16.8939217 36.9972606,17.1379884 C36.9972606,17.3820551 37.0544082,17.6002177 37.1687053,17.7924828 C37.2830023,17.9847479 37.4411552,18.1271912 37.6431685,18.2198169 C37.8451819,18.3124426 38.0033348,18.3150295 38.1176318,18.2275777 C38.2319289,18.1401259 38.2890765,17.9743692 38.2890765,17.7303025 C38.2890765,17.4862358 38.2319289,17.2680732 38.1176318,17.0758081 C38.0033348,16.883543 37.8451819,16.7410998 37.6431685,16.648474 Z M41.5425389,18.152556 C41.6754424,18.213494 41.7997054,18.2985785 41.9153314,18.4078122 C42.0309575,18.5170458 42.1246531,18.6470738 42.196421,18.7979002 C42.2681889,18.9487266 42.3040724,19.1105205 42.3040724,19.2832868 L42.3040724,20.5995949 L41.9851055,20.4533445 L41.9851055,19.1699441 C41.9851055,18.9916931 41.9419125,18.8395735 41.8555252,18.7135807 C41.7691379,18.5875879 41.655507,18.4922958 41.5146293,18.4277015 C41.4083065,18.3789512 41.3106238,18.3608997 41.2215784,18.3735465 C41.1325331,18.3861934 41.0607662,18.4314424 41.0062758,18.5092949 C40.9517853,18.5871474 40.9245405,18.6973724 40.9245405,18.8399732 L40.9245405,19.967062 L40.6055736,19.8208116 L40.6055736,18.5374112 C40.6055736,18.3591602 40.5623806,18.2070406 40.4759933,18.0810478 C40.389606,17.955055 40.2759752,17.8597629 40.1350974,17.7951686 C40.0394069,17.7512933 39.9463758,17.7340035 39.8560014,17.7432986 C39.765627,17.7525938 39.6912021,17.7973096 39.6327246,17.8774475 C39.574247,17.9575853 39.5450087,18.0771798 39.5450087,18.2362345 L39.5450087,19.3345291 L39.2260418,19.1882787 L39.2260418,17.1315473 L39.5051378,17.2595163 L39.5250733,17.5895071 C39.5941831,17.5005327 39.6852206,17.4517793 39.7981887,17.4432454 C39.9111567,17.4347116 40.0327616,17.4603039 40.163007,17.5200231 C40.3092009,17.5870549 40.444096,17.6831845 40.5676963,17.8084149 C40.6912966,17.9336452 40.7849922,18.0766991 40.8487859,18.2375808 C40.9072634,18.1327621 41.0029526,18.0765435 41.1358561,18.0689234 C41.2687596,18.0613033 41.4043192,18.0891806 41.5425389,18.152556 Z M43.7035396,21.2824031 C43.5121585,21.1946524 43.3393865,21.0763567 43.1852184,20.9275125 C43.0310503,20.7786683 42.918084,20.6110104 42.8463161,20.4245339 L43.1054767,20.3582565 C43.1506639,20.4996376 43.2290758,20.6260857 43.3407148,20.7376047 C43.4523538,20.8491237 43.5839263,20.9396164 43.7354363,21.0090857 C43.8922625,21.0809925 44.0118739,21.1070419 44.0942741,21.0872347 C44.1766743,21.0674274 44.2178738,21.0136475 44.2178738,20.9258932 C44.2178738,20.8463658 44.1793323,20.764936 44.1022483,20.6816014 C44.0251642,20.5982667 43.8896046,20.4942911 43.6955655,20.3696715 C43.5041844,20.2462707 43.3526766,20.1336115 43.2410376,20.0316906 C43.1293987,19.9297698 43.0483287,19.8281546 42.9978254,19.726842 C42.947322,19.6255294 42.9220707,19.5172859 42.9220707,19.4021084 C42.9220707,19.2896732 42.9539671,19.2014625 43.0177608,19.1374738 C43.0815545,19.073485 43.1732566,19.0408044 43.2928697,19.039431 C43.4124829,19.0380576 43.5507005,19.0733237 43.7075267,19.1452305 C43.9201724,19.2427313 44.0909509,19.361484 44.2198673,19.5014923 C44.3487837,19.6415007 44.4411503,19.8079402 44.4969698,20.0008158 L44.2258479,20.0410414 C44.1833188,19.8899098 44.1188615,19.7657467 44.0324742,19.6685482 C43.9460869,19.5713498 43.8377722,19.4928921 43.7075267,19.4331729 C43.5772812,19.3734537 43.466973,19.3530411 43.3765986,19.3719343 C43.2862241,19.3908276 43.2410376,19.4400372 43.2410376,19.5195645 C43.2410376,19.6100612 43.2802436,19.6979658 43.3586567,19.783281 C43.4370698,19.8685962 43.5772809,19.9753901 43.7792943,20.103666 C44.0557336,20.2770364 44.2510989,20.4365421 44.3653959,20.5821877 C44.479693,20.7278333 44.5368407,20.8856657 44.5368407,21.0556897 C44.5368407,21.1736096 44.5029508,21.2629629 44.43517,21.3237523 C44.3673891,21.3845417 44.270371,21.4120426 44.1441127,21.4062556 C44.0178543,21.4004687 43.8709981,21.3591849 43.7035396,21.2824031 Z M45.8446049,19.466954 C46.1024378,19.5851737 46.3124222,19.7445267 46.4745646,19.9450178 C46.6367069,20.145509 46.7177768,20.352702 46.7177768,20.5666031 C46.7177768,20.7942159 46.648668,20.9400913 46.5104483,21.0042338 C46.3722287,21.0683763 46.1914826,21.0616002 45.9682046,20.9839054 L45.9682046,21.4240459 L45.6372765,21.2723111 L45.6372765,20.6552917 C45.9057416,20.7372515 46.0971198,20.7632996 46.2114169,20.7334365 C46.3257139,20.7035735 46.3828616,20.6104872 46.3828616,20.4541749 C46.3828616,20.3198011 46.335017,20.1922859 46.2393265,20.0716255 C46.1436359,19.9509652 46.0040893,19.8485893 45.8206824,19.764495 C45.6452497,19.6840568 45.5023806,19.6685961 45.3920706,19.7181124 C45.2817607,19.7676287 45.2159744,19.8738933 45.1947099,20.0369095 L44.9116268,19.7384603 C44.956814,19.5452781 45.0618062,19.4233969 45.2266066,19.3728132 C45.391407,19.3222294 45.5974044,19.3536094 45.8446049,19.466954 Z M45.7967599,21.707421 C45.873844,21.7427651 45.9363077,21.796086 45.984153,21.8673855 C46.0319982,21.9386849 46.0559205,22.0140972 46.0559205,22.0936246 C46.0559205,22.1731519 46.0319982,22.2266269 45.984153,22.254051 C45.9363077,22.2814751 45.873844,22.2775152 45.7967599,22.2421712 C45.7196758,22.2068272 45.6572121,22.1535063 45.6093668,22.0822068 C45.5615216,22.0109073 45.5375993,21.935495 45.5375993,21.8559677 C45.5375993,21.7764403 45.5615216,21.7229654 45.6093668,21.6955413 C45.6572121,21.6681171 45.7196758,21.672077 45.7967599,21.707421 Z" id="How-many-bedrooms?" fill="#454545"></path>
                </g>
                <g id="Address" transform="translate(30.000000, 71.000000)">
                    <path d="M1.36472507,5.05018755 L101.226262,50.7498767 C101.802549,51.0136034 102.269722,51.6945692 102.269722,52.2708565 L102.269722,60.6185403 C102.269722,61.1948276 101.802549,61.4482081 101.226262,61.1844814 L1.36472507,15.4847922 C0.788437766,15.2210656 0.321264602,14.5400997 0.321264602,13.9638124 L0.321264602,5.61612863 C0.321264602,5.03984133 0.788437766,4.78646088 1.36472507,5.05018755 Z" id="Rectangle-2-Copy" stroke="#D1D1D1" stroke-width="0.5"></path>
                    <path d="M1.36472507,32.7776704 L61.7264646,60.401046 C62.3027519,60.6647727 62.7699251,61.3457385 62.7699251,61.9220258 L62.7699251,70.2697096 C62.7699251,70.8459969 62.3027519,71.0993773 61.7264646,70.8356507 L1.36472507,43.2122751 C0.788437766,42.9485484 0.321264602,42.2675825 0.321264602,41.6912952 L0.321264602,33.3436115 C0.321264602,32.7673242 0.788437766,32.5139437 1.36472507,32.7776704 Z" id="Rectangle-2-Copy-4" stroke="#D1D1D1" stroke-width="0.5"></path>
                    <path d="M4.93649025,3.02609005 L3.79250976,2.50256963 L3.52468824,3.0801683 L3.20330242,2.93309233 L4.18659,0.857900425 L4.55006206,1.02423634 L5.52952362,3.9976422 L5.20431177,3.84881533 L4.93649025,3.02609005 Z M4.82553562,2.68836219 L4.48501969,1.63724262 L4.36641302,1.23097058 L4.35876097,1.22746877 L4.24780634,1.51720848 L3.90346439,2.26639423 L4.82553562,2.68836219 Z M7.68357385,2.19040552 L7.68357385,4.98340138 L7.41575233,4.86083807 L7.39662222,4.51921966 C7.34050695,4.60577013 7.25442232,4.65628578 7.13836575,4.67076814 C7.02230918,4.6852505 6.89031275,4.65864109 6.7423725,4.59093911 C6.47454964,4.46837519 6.26220756,4.28256569 6.10533989,4.03350502 C5.94847221,3.78444436 5.87003955,3.50560122 5.87003955,3.19696726 C5.87003955,2.8883333 5.94847221,2.68127653 6.10533989,2.57579075 C6.26220756,2.47030496 6.47454964,2.4788439 6.7423725,2.60140782 C6.88266067,2.66560797 7.00828046,2.75370329 7.11923564,2.86569642 C7.23019083,2.97768956 7.31627546,3.09870549 7.37749211,3.22874786 L7.37749211,2.05033317 L7.68357385,2.19040552 Z M6.7768067,4.33887573 C6.96045666,4.42291956 7.1064817,4.42597869 7.21488619,4.3480532 C7.32329068,4.27012771 7.37749211,4.12403801 7.37749211,3.90977972 L7.37749211,3.86386746 C7.37749211,3.64960918 7.32329068,3.45391102 7.21488619,3.27676712 C7.1064817,3.09962322 6.96045666,2.96903131 6.7768067,2.88498748 C6.59060604,2.79977637 6.44394335,2.79833842 6.3368142,2.88067359 C6.22968506,2.96300876 6.17612129,3.11512925 6.17612129,3.33703961 C6.17612129,3.55894998 6.22968506,3.7600953 6.3368142,3.94048161 C6.44394335,4.12086791 6.59060604,4.25366462 6.7768067,4.33887573 Z M10.0939675,3.29347529 L10.0939675,6.08647114 L9.82614601,5.96390784 L9.8070159,5.62228943 C9.75090063,5.7088399 9.66481601,5.75935555 9.54875943,5.77383791 C9.43270286,5.78832027 9.30070643,5.76171086 9.15276619,5.69400888 C8.88494333,5.57144496 8.67260124,5.38563545 8.51573357,5.13657479 C8.3588659,4.88751412 8.28043323,4.60867099 8.28043323,4.30003703 C8.28043323,3.99140307 8.3588659,3.7843463 8.51573357,3.67886051 C8.67260124,3.57337473 8.88494333,3.58191367 9.15276619,3.70447759 C9.29305435,3.76867774 9.41867414,3.85677306 9.52962932,3.96876619 C9.64058451,4.08075933 9.72666914,4.20177526 9.78788579,4.33181763 L9.78788579,3.15340294 L10.0939675,3.29347529 Z M9.18720038,5.4419455 C9.37085034,5.52598933 9.51687538,5.52904846 9.62527987,5.45112297 C9.73368436,5.37319748 9.78788579,5.22710778 9.78788579,5.01284949 L9.78788579,4.96693723 C9.78788579,4.75267895 9.73368436,4.55698079 9.62527987,4.37983689 C9.51687538,4.20269299 9.37085034,4.07210108 9.18720038,3.98805725 C9.00099973,3.90284614 8.85433703,3.90140819 8.74720788,3.98374336 C8.64007874,4.06607853 8.58651497,4.21819901 8.58651497,4.44010938 C8.58651497,4.66201975 8.64007874,4.86316507 8.74720788,5.04355138 C8.85433703,5.22393768 9.00099973,5.35673439 9.18720038,5.4419455 Z M11.7085487,4.87408172 C11.8003737,4.91610364 11.8705167,4.96095651 11.9189799,5.00864168 L11.8577635,5.27905691 C11.7965469,5.21788327 11.7162012,5.16453539 11.6167242,5.11901165 C11.535102,5.08165883 11.455394,5.06877559 11.3775978,5.08036152 C11.2998017,5.09194746 11.2360353,5.13418437 11.1862967,5.20707352 C11.1365582,5.27996267 11.1116893,5.38399907 11.1116893,5.51918585 L11.1116893,6.55221171 L10.8056076,6.41213936 L10.8056076,4.4991285 L11.054299,4.61293729 L11.0963852,4.94593102 C11.2035144,4.76029275 11.4075668,4.73634322 11.7085487,4.87408172 Z M14.0079877,6.82166435 C14.0079877,6.89308377 14.0028864,6.96216762 13.9926837,7.02891794 L12.5502735,6.36882699 C12.5681283,6.57085065 12.6325324,6.7508126 12.7434876,6.90871822 C12.8544428,7.06662385 12.9979171,7.18584587 13.173915,7.26638788 C13.3142032,7.33058803 13.4308957,7.35975885 13.523996,7.35390122 C13.6170963,7.34804359 13.6802251,7.30679019 13.7133841,7.23013979 L13.9697275,7.48136115 C13.8932067,7.58152966 13.7911805,7.6381409 13.6636458,7.65119655 C13.5361111,7.66425221 13.3728691,7.62525688 13.173915,7.5342094 C12.8856866,7.40230727 12.6593159,7.21071551 12.4947962,6.95942837 C12.3302764,6.70814123 12.2480178,6.42690954 12.2480178,6.11572489 C12.2480178,5.80454023 12.3264504,5.5968458 12.4833181,5.49263536 C12.6401858,5.38842492 12.8627305,5.40227056 13.1509589,5.53417268 C13.3295075,5.61588196 13.4838221,5.72603623 13.6139075,5.86463878 C13.7439929,6.00324134 13.8421931,6.15530831 13.9085112,6.32084425 C13.9748292,6.48638018 14.0079877,6.65331855 14.0079877,6.82166435 Z M13.1509589,5.8019942 C12.9826131,5.72495402 12.8467907,5.71253532 12.7434876,5.76473773 C12.6401845,5.81694014 12.5770557,5.92833656 12.5540995,6.09893035 L13.7133841,6.62945438 C13.6929785,6.44156761 13.6343134,6.27507228 13.5373871,6.1299634 C13.4404607,5.98485453 13.3116526,5.87553255 13.1509589,5.8019942 Z M15.2399667,8.47969777 C15.0563168,8.39565394 14.8905242,8.28343533 14.7425839,8.14303858 C14.5946437,8.00264183 14.4862408,7.84526817 14.4173721,7.67091287 L14.6660635,7.61255068 C14.7094253,7.7446249 14.7846696,7.86323064 14.8917988,7.96837147 C14.9989279,8.07351231 15.1251854,8.15934879 15.2705749,8.22588349 C15.4210659,8.29475274 15.5358454,8.32049746 15.6149169,8.30311843 C15.6939884,8.28573939 15.7335235,8.23623952 15.7335235,8.15461731 C15.7335235,8.08064719 15.696539,8.0044192 15.6225689,7.92593107 C15.5485988,7.84744294 15.4185153,7.74901529 15.2323147,7.63064516 C15.0486647,7.51344231 14.9032774,7.40673578 14.7961482,7.31052238 C14.6890191,7.21430897 14.6112241,7.1187672 14.5627609,7.02389419 C14.5142977,6.92902118 14.4900665,6.82802162 14.4900665,6.72089248 C14.4900665,6.61631403 14.5206743,6.53467153 14.581891,6.47596255 C14.6431077,6.41725357 14.7311053,6.3880186 14.8458865,6.38825677 C14.9606677,6.38849494 15.0933018,6.42304813 15.2437928,6.49191738 C15.4478483,6.58529942 15.6117279,6.69791791 15.7354366,6.82977624 C15.8591452,6.96163457 15.9477805,7.11761395 16.0013451,7.29771906 L15.7411756,7.33169843 C15.7003645,7.19058872 15.6385111,7.07428509 15.5556135,6.98278407 C15.472716,6.89128304 15.3687768,6.8169354 15.2437928,6.7597389 C15.1188088,6.70254241 15.0129565,6.68215842 14.926233,6.69858632 C14.8395094,6.71501422 14.7961482,6.76021255 14.7961482,6.83418267 C14.7961482,6.91835557 14.8337704,7.00061435 14.9090159,7.08096146 C14.9842613,7.16130858 15.1188084,7.2624166 15.3126612,7.38428855 C15.5779333,7.54904699 15.7654065,7.69988217 15.8750863,7.8367986 C15.9847662,7.97371504 16.0396053,8.12124255 16.0396053,8.27938558 C16.0396053,8.38906541 16.0070844,8.47174545 15.9420417,8.52742818 C15.876999,8.5831109 15.7839001,8.60746069 15.6627421,8.60047829 C15.5415842,8.5934959 15.4006605,8.55323612 15.2399667,8.47969777 Z M17.2562802,9.40242439 C17.0726302,9.31838056 16.9068376,9.20616195 16.7588974,9.0657652 C16.6109571,8.92536845 16.5025542,8.76799478 16.4336855,8.59363949 L16.6823769,8.5352773 C16.7257387,8.66735151 16.8009831,8.78595726 16.9081122,8.89109809 C17.0152414,8.99623892 17.1414988,9.0820754 17.2868884,9.1486101 C17.4373793,9.21747935 17.5521588,9.24322408 17.6312303,9.22584504 C17.7103018,9.20846601 17.749837,9.15896613 17.749837,9.07734393 C17.749837,9.0033738 17.7128525,8.92714582 17.6388824,8.84865769 C17.5649122,8.77016956 17.4348288,8.67174191 17.2486281,8.55337178 C17.0649782,8.43616893 16.9195908,8.3294624 16.8124617,8.23324899 C16.7053325,8.13703559 16.6275375,8.04149381 16.5790743,7.94662081 C16.5306112,7.8517478 16.5063799,7.75074823 16.5063799,7.64361909 C16.5063799,7.53904064 16.5369878,7.45739815 16.5982044,7.39868917 C16.6594211,7.33998019 16.7474187,7.31074522 16.8621999,7.31098339 C16.9769812,7.31122156 17.1096153,7.34577475 17.2601062,7.414644 C17.4641617,7.50802603 17.6280413,7.62064453 17.75175,7.75250285 C17.8754586,7.88436118 17.9640939,8.04034056 18.0176585,8.22044568 L17.757489,8.25442505 C17.7166779,8.11331533 17.6548245,7.99701171 17.571927,7.90551068 C17.4890294,7.81400966 17.3850902,7.73966202 17.2601062,7.68246552 C17.1351222,7.62526902 17.02927,7.60488503 16.9425464,7.62131293 C16.8558228,7.63774083 16.8124617,7.68293917 16.8124617,7.75690929 C16.8124617,7.84108219 16.8500838,7.92334096 16.9253293,8.00368808 C17.0005748,8.08403519 17.1351219,8.18514321 17.3289746,8.30701516 C17.5942468,8.47177361 17.78172,8.62260878 17.8913998,8.75952522 C18.0010796,8.89644165 18.0559187,9.04396917 18.0559187,9.20211219 C18.0559187,9.31179203 18.0233979,9.39447207 17.9583552,9.45015479 C17.8933125,9.50583751 17.8002135,9.53018731 17.6790556,9.52320491 C17.5578976,9.51622251 17.4169739,9.47596274 17.2562802,9.40242439 Z" fill="#454545"></path>
                    <path d="M7.29623724,39.2955249 C7.74771006,39.5021327 8.07291865,39.8295039 8.27187277,40.2776486 L8.00787727,40.3710934 C7.93135646,40.1677293 7.84017052,40.0067567 7.73431672,39.8881707 C7.62846293,39.7695847 7.48371322,39.6682713 7.30006326,39.5842274 C7.10621052,39.4955145 6.95380885,39.4659437 6.84285366,39.4955141 C6.73189848,39.5250844 6.67642172,39.6023605 6.67642172,39.7273445 C6.67642172,39.8089667 6.69810229,39.8864807 6.74146409,39.959889 C6.78482588,40.0332972 6.8568819,40.1128217 6.95763431,40.1984649 C7.05838672,40.284108 7.19803512,40.3830869 7.37658369,40.4954045 C7.71072459,40.7044329 7.9472979,40.8968677 8.08631072,41.0727147 C8.22532354,41.2485617 8.2948289,41.4359595 8.2948289,41.6349136 C8.2948289,41.7777525 8.25465608,41.884988 8.17430922,41.9566233 C8.09396236,42.0282586 7.97982052,42.0601955 7.83188028,42.0524348 C7.68394003,42.0446741 7.5130461,41.996438 7.31919337,41.9077251 C7.06412398,41.7909976 6.84668058,41.641751 6.66685666,41.4599811 C6.48703274,41.2782111 6.349935,41.0828369 6.25555933,40.8738526 L6.51955483,40.7804078 C6.58842356,40.9624151 6.68981212,41.1255061 6.82372355,41.2696857 C6.95763498,41.4138652 7.12534059,41.5320605 7.32684541,41.6242753 C7.52579953,41.7153228 7.68394018,41.7513459 7.8012721,41.7323458 C7.91860402,41.7133457 7.9772691,41.6375287 7.9772691,41.5048927 C7.9772691,41.3926621 7.92625599,41.280044 7.82422823,41.167035 C7.72220048,41.0540259 7.54110393,40.9150362 7.28093315,40.7500616 C6.94424155,40.5373153 6.70575525,40.344005 6.56546709,40.170125 C6.42517892,39.9962451 6.35503589,39.8111061 6.35503589,39.6147027 C6.35503589,39.4795159 6.39329573,39.3720427 6.46981654,39.2922797 C6.54633736,39.2125167 6.65601555,39.1715229 6.79885441,39.1692969 C6.94169327,39.167071 7.10748589,39.2091465 7.29623724,39.2955249 Z M10.5215735,42.2789899 C10.5215735,42.3504093 10.5164722,42.4194931 10.5062695,42.4862435 L9.06385927,41.8261525 C9.08171413,42.0281762 9.14611818,42.2081381 9.25707337,42.3660438 C9.36802855,42.5239494 9.51150293,42.6431714 9.68750081,42.7237134 C9.82778897,42.7879136 9.94448147,42.8170844 10.0375818,42.8112267 C10.1306821,42.8053691 10.1938109,42.7641157 10.2269699,42.6874653 L10.4833133,42.9386867 C10.4067925,43.0388552 10.3047663,43.0954664 10.1772316,43.1085221 C10.0496969,43.1215777 9.88645493,43.0825824 9.68750081,42.9915349 C9.3992724,42.8596328 9.17290171,42.668041 9.00838195,42.4167539 C8.8438622,42.1654668 8.76160355,41.8842351 8.76160355,41.5730504 C8.76160355,41.2618658 8.84003621,41.0541713 8.99690389,40.9499609 C9.15377156,40.8457504 9.37631627,40.8595961 9.66454468,40.9914982 C9.84309325,41.0732075 9.99740792,41.1833618 10.1274933,41.3219643 C10.2575787,41.4605669 10.3557789,41.6126338 10.422097,41.7781698 C10.488415,41.9437057 10.5215735,42.1106441 10.5215735,42.2789899 Z M9.66454468,41.2593197 C9.49619888,41.1822795 9.36037647,41.1698609 9.25707337,41.2220633 C9.15377026,41.2742657 9.09064154,41.3856621 9.06768529,41.5562559 L10.2269699,42.0867799 C10.2065643,41.8988931 10.1478992,41.7323978 10.0509729,41.5872889 C9.9540465,41.4421801 9.82523839,41.3328581 9.66454468,41.2593197 Z M11.3939065,43.2214912 C11.3939065,43.3184175 11.4085728,43.392084 11.4379057,43.4424927 C11.4672387,43.4929014 11.5214402,43.5361979 11.6005117,43.5723835 C11.6540762,43.5968962 11.7006257,43.6143727 11.7401615,43.6248134 C11.7796972,43.6352541 11.8262467,43.6425279 11.8798113,43.6466352 L11.830073,43.9184771 C11.7459001,43.9156667 11.6515258,43.8903328 11.5469474,43.8424745 C11.391355,43.7712707 11.2759379,43.6763664 11.2006924,43.5577589 C11.1254469,43.4391514 11.0878248,43.2931262 11.0878248,43.119679 L11.0878248,40.8011099 L11.3939065,40.9411822 L11.3939065,43.2214912 Z M13.9152548,43.8320421 C13.9152548,43.9034615 13.9101535,43.9725453 13.8999507,44.0392957 L12.4575405,43.3792047 C12.4753954,43.5812284 12.5397994,43.7611903 12.6507546,43.9190959 C12.7617098,44.0770016 12.9051842,44.1962236 13.0811821,44.2767656 C13.2214702,44.3409658 13.3381627,44.3701366 13.4312631,44.3642789 C13.5243634,44.3584213 13.5874921,44.3171679 13.6206511,44.2405175 L13.8769946,44.4917389 C13.8004738,44.5919074 13.6984475,44.6485186 13.5709129,44.6615743 C13.4433782,44.6746299 13.2801362,44.6356346 13.0811821,44.5445871 C12.7929537,44.412685 12.566583,44.2210932 12.4020632,43.9698061 C12.2375435,43.718519 12.1552848,43.4372873 12.1552848,43.1261026 C12.1552848,42.814918 12.2337175,42.6072235 12.3905852,42.5030131 C12.5474528,42.3988026 12.7699975,42.4126483 13.0582259,42.5445504 C13.2367745,42.6262597 13.3910892,42.736414 13.5211746,42.8750165 C13.65126,43.0136191 13.7494602,43.165686 13.8157782,43.331222 C13.8820963,43.4967579 13.9152548,43.6636963 13.9152548,43.8320421 Z M13.0582259,42.8123719 C12.8898801,42.7353317 12.7540577,42.722913 12.6507546,42.7751155 C12.5474515,42.8273179 12.4843228,42.9387143 12.4613666,43.1093081 L13.6206511,43.6398321 C13.6002456,43.4519453 13.5415805,43.28545 13.4446541,43.1403411 C13.3477278,42.9952323 13.2189197,42.8859103 13.0582259,42.8123719 Z M15.3041007,43.5723313 C15.4954027,43.6598769 15.6567317,43.7777048 15.7880924,43.9258184 C15.9194532,44.0739321 16.0221171,44.246534 16.0960872,44.4436294 L15.8053095,44.4482974 C15.7236873,44.1584259 15.5540687,43.9545458 15.2964486,43.836651 C15.1051466,43.7491053 14.9552956,43.744933 14.8468911,43.8241338 C14.7384866,43.9033347 14.6842852,44.0564387 14.6842852,44.2834504 C14.6842852,44.5104622 14.7384866,44.7131746 14.8468911,44.8915939 C14.9552956,45.0700131 15.1051466,45.2029936 15.2964486,45.2905392 C15.4443889,45.3582412 15.563632,45.3790143 15.6541817,45.3528592 C15.7447313,45.3267041 15.8040341,45.2562803 15.8320917,45.1415856 L16.1152173,45.3706291 C16.0488993,45.5188285 15.946873,45.6105113 15.8091356,45.6456801 C15.6713981,45.680849 15.5030548,45.6529101 15.3041007,45.5618626 C15.0158723,45.4299605 14.7895016,45.2383687 14.6249818,44.9870816 C14.4604621,44.7357944 14.3782034,44.4545627 14.3782034,44.1433781 C14.3782034,43.8321934 14.4604621,43.6262499 14.6249818,43.5255413 C14.7895016,43.4248326 15.0158723,43.4404292 15.3041007,43.5723313 Z M17.825449,46.5435376 C17.6979143,46.5999551 17.533397,46.5820567 17.3318922,46.4898419 C17.1762999,46.4186381 17.0494048,46.3184812 16.951203,46.1893682 C16.8530013,46.0602552 16.8026259,45.9083937 16.8000752,45.7337793 L16.8000752,44.5591906 L16.417473,44.3841002 L16.417473,44.1201047 L16.8000752,44.2951951 L16.8000752,43.8360725 L17.1061569,43.8919724 L17.1061569,44.4352675 L17.8139709,44.7591848 L17.8139709,45.0231803 L17.1061569,44.699263 L17.1061569,45.8202873 C17.1061569,45.9121123 17.1323011,45.9935821 17.1845904,46.0646991 C17.2368796,46.135816 17.306385,46.1912174 17.3931085,46.2309047 C17.5155419,46.286934 17.6239447,46.2893553 17.7183204,46.2381688 L17.825449,46.5435376 Z" id="Select" fill="#D1D1D1"></path>
                    <path d="M56.0909233,60.2567913 L59.5691248,61.8485225 C60.1454121,62.1122492 60.6125853,62.7932151 60.6125853,63.3695024 L60.6125853,66.8477039 C60.6125853,67.4239912 60.1454121,67.6773717 59.5691248,67.413645 L56.0909233,65.8219137 C55.514636,65.5581871 55.0474628,64.8772212 55.0474628,64.3009339 L55.0474628,60.8227323 C55.0474628,60.246445 55.514636,59.9930646 56.0909233,60.2567913 Z" id="Rectangle-3" fill="#E24660"></path>
                    <path d="M58.9958396,63.8348975 L57.9077053,64.5233517 C57.9043213,64.5267795 57.9054659,64.5338223 57.9010867,64.5362473 C57.88143,64.5469582 57.8554036,64.5435573 57.8296757,64.5305891 C57.8041967,64.5199244 57.7785186,64.4995642 57.7590112,64.4711794 C57.7546817,64.4648189 57.7558761,64.4589459 57.7525419,64.452593 L56.6642583,62.7680937 C56.627234,62.7140763 56.627234,62.654111 56.6642583,62.6339804 C56.7012825,62.6139493 56.7612478,62.6413913 56.7983218,62.695332 L57.8299245,64.2922351 L58.8616765,63.6395363 C58.8987008,63.619356 58.9587158,63.6468207 58.9957401,63.7008879 C59.0328141,63.7547788 59.0328141,63.8147939 58.9958396,63.8348975 Z" id="Shape" stroke="#FFFFFF" fill="#FFFFFF" fill-rule="nonzero"></path>
                    <path d="M4.3281528,28.3721845 C4.77962562,28.5787923 5.10483421,28.9061636 5.30378834,29.3543082 L5.03979284,29.447753 C4.96327202,29.2443889 4.87208608,29.0834163 4.76623229,28.9648303 C4.66037849,28.8462443 4.51562878,28.7449309 4.33197882,28.6608871 C4.13812609,28.5721741 3.98572441,28.5426033 3.87476923,28.5721737 C3.76381404,28.601744 3.70833728,28.6790201 3.70833728,28.8040041 C3.70833728,28.8856263 3.73001785,28.9631403 3.77337965,29.0365486 C3.81674145,29.1099569 3.88879747,29.1894814 3.98954988,29.2751245 C4.09030229,29.3607676 4.22995068,29.4597465 4.40849926,29.5720641 C4.74264016,29.7810925 4.97921347,29.9735273 5.11822628,30.1493743 C5.2572391,30.3252214 5.32674447,30.5126191 5.32674447,30.7115733 C5.32674447,30.8544121 5.28657164,30.9616476 5.20622478,31.0332829 C5.12587793,31.1049182 5.01173609,31.1368551 4.86379584,31.1290944 C4.71585559,31.1213337 4.54496167,31.0730977 4.35110893,30.9843847 C4.09603954,30.8676572 3.87859615,30.7184107 3.69877223,30.5366407 C3.51894831,30.3548707 3.38185057,30.1594965 3.28747489,29.9505122 L3.55147039,29.8570674 C3.62033913,30.0390748 3.72172769,30.2021658 3.85563912,30.3463453 C3.98955055,30.4905248 4.15725616,30.6087201 4.35876097,30.7009349 C4.5577151,30.7919824 4.71585575,30.8280055 4.83318767,30.8090054 C4.95051959,30.7900053 5.00918467,30.7141884 5.00918467,30.5815523 C5.00918467,30.4693218 4.95817155,30.3567036 4.8561438,30.2436946 C4.75411604,30.1306855 4.57301949,29.9916958 4.31284871,29.8267212 C3.97615712,29.6139749 3.73767082,29.4206646 3.59738265,29.2467847 C3.45709449,29.0729047 3.38695146,28.8877657 3.38695146,28.6913623 C3.38695146,28.5561755 3.42521129,28.4487023 3.50173211,28.3689393 C3.57825293,28.2891763 3.68793112,28.2481825 3.83076998,28.2459565 C3.97360884,28.2437306 4.13940145,28.2858061 4.3281528,28.3721845 Z M7.08288844,32.0623595 C6.95535374,32.1187769 6.79083645,32.1008786 6.58933164,32.0086638 C6.43373931,31.93746 6.30684419,31.8373031 6.20864247,31.7081901 C6.11044076,31.5790771 6.06006531,31.4272156 6.05751462,31.2526012 L6.05751462,30.0780125 L5.67491244,29.9029221 L5.67491244,29.6389266 L6.05751462,29.814017 L6.05751462,29.3548944 L6.36359635,29.4107943 L6.36359635,29.9540894 L7.07141037,30.2780067 L7.07141037,30.5420022 L6.36359635,30.2180849 L6.36359635,31.3391092 C6.36359635,31.4309342 6.38974057,31.512404 6.4420298,31.5835209 C6.49431902,31.6546379 6.56382439,31.7100393 6.65054798,31.7497266 C6.77298129,31.8057559 6.88138415,31.8081772 6.97575983,31.7569907 L7.08288844,32.0623595 Z M9.08389779,32.890084 C9.13491167,32.9134295 9.18592479,32.930398 9.23693866,32.94099 L9.21780856,33.1732749 C9.14638913,33.1660981 9.06986946,33.1438337 8.98824725,33.1064808 C8.88877019,33.0609571 8.81033753,33.0033834 8.75294692,32.9337579 C8.6955563,32.8641324 8.65920946,32.7748053 8.6439053,32.6657738 C8.58523934,32.7282008 8.49915471,32.7583112 8.38564883,32.756106 C8.27214295,32.7539008 8.1528998,32.7242003 8.0279158,32.6670038 C7.83916445,32.5806255 7.68357446,32.4654239 7.56114115,32.3213958 C7.43870784,32.1773676 7.37749211,32.0224583 7.37749211,31.8566632 C7.37749211,31.7112736 7.4412585,31.6148353 7.56879319,31.5673453 C7.69632789,31.5198552 7.88125042,31.5311501 8.12356634,31.6012302 L8.63242723,31.749928 L8.63242723,31.6427994 C8.63242723,31.5152647 8.59289207,31.3951459 8.51382056,31.2824396 C8.43474905,31.1697332 8.32507086,31.0812813 8.18478269,31.0170812 C8.057248,30.9587174 7.94693214,30.9388413 7.85383181,30.9574524 C7.76073149,30.9760635 7.68867546,31.0336368 7.63766159,31.1301739 L7.4119263,30.8623516 C7.46294018,30.7428582 7.5579521,30.6728344 7.69696492,30.652278 C7.83597774,30.6317217 7.99858204,30.6640485 8.18478269,30.7492596 C8.41179445,30.8531471 8.59416633,30.9914452 8.7319038,31.1641579 C8.86964127,31.3368706 8.93850897,31.5303532 8.93850897,31.7446115 L8.93850897,32.6858128 C8.93850897,32.7317253 8.94998692,32.7714118 8.97294317,32.8048736 C8.99589941,32.8383353 9.03288392,32.8667385 9.08389779,32.890084 Z M8.04321989,32.4061859 C8.2039136,32.4797243 8.34228667,32.5047882 8.45834324,32.4813784 C8.57439982,32.4579686 8.63242723,32.3850482 8.63242723,32.2626149 L8.63242723,31.9986194 L8.2039128,31.8828645 C8.03301631,31.8352654 7.90548353,31.8209013 7.82131063,31.8397719 C7.73713773,31.8586424 7.69505191,31.912714 7.69505191,32.0019883 C7.69505191,32.0810598 7.72565978,32.1556449 7.78687643,32.225746 C7.84809309,32.2958471 7.93354005,32.3559931 8.04321989,32.4061859 Z M10.8515198,33.7870003 C10.7239851,33.8434178 10.5594678,33.8255194 10.357963,33.7333046 C10.2023707,33.6621008 10.0754756,33.5619439 9.97727387,33.4328309 C9.87907215,33.3037179 9.8286967,33.1518565 9.82614601,32.977242 L9.82614601,31.8026533 L9.44354384,31.6275629 L9.44354384,31.3635674 L9.82614601,31.5386578 L9.82614601,31.0795352 L10.1322277,31.1354351 L10.1322277,31.6787302 L10.8400418,32.0026475 L10.8400418,32.266643 L10.1322277,31.9427257 L10.1322277,33.06375 C10.1322277,33.155575 10.158372,33.2370448 10.2106612,33.3081618 C10.2629504,33.3792788 10.3324558,33.4346801 10.4191794,33.4743675 C10.5416127,33.5303967 10.6500155,33.532818 10.7443912,33.4816315 L10.8515198,33.7870003 Z M12.9252236,33.8139193 C12.9252236,33.8853387 12.9201223,33.9544225 12.9099195,34.0211729 L11.4675093,33.3610819 C11.4853642,33.5631056 11.5497682,33.7430675 11.6607234,33.9009731 C11.7716786,34.0588788 11.915153,34.1781008 12.0911509,34.2586428 C12.231439,34.3228429 12.3481315,34.3520138 12.4412319,34.3461561 C12.5343322,34.3402985 12.5974609,34.2990451 12.6306199,34.2223947 L12.8869634,34.4736161 C12.8104426,34.5737846 12.7084163,34.6303958 12.5808816,34.6434515 C12.4533469,34.6565071 12.290105,34.6175118 12.0911509,34.5264643 C11.8029225,34.3945622 11.5765518,34.2029704 11.412032,33.9516833 C11.2475123,33.7003961 11.1652536,33.4191645 11.1652536,33.1079798 C11.1652536,32.7967951 11.2436863,32.5891007 11.4005539,32.4848903 C11.5574216,32.3806798 11.7799663,32.3945255 12.0681947,32.5264276 C12.2467433,32.6081369 12.401058,32.7182911 12.5311434,32.8568937 C12.6612288,32.9954963 12.759429,33.1475632 12.825747,33.3130992 C12.8920651,33.4786351 12.9252236,33.6455735 12.9252236,33.8139193 Z M12.0681947,32.7942491 C11.8998489,32.7172089 11.7640265,32.7047902 11.6607234,32.7569926 C11.5574203,32.8091951 11.4942916,32.9205915 11.4713353,33.0911853 L12.6306199,33.6217093 C12.6102144,33.4338225 12.5515493,33.2673272 12.4546229,33.1222183 C12.3576966,32.9771094 12.2288885,32.8677875 12.0681947,32.7942491 Z" id="State" fill="#454545"></path>
                </g>
            </g>
        </g>
    </g>
</svg>