<?xml version="1.0" encoding="UTF-8"?>
<svg width="316px" height="318px" viewBox="0 0 316 318" version="1.1" xmlns="http://www.w3.org/2000/svg" xmlns:xlink="http://www.w3.org/1999/xlink">
    <!-- Generator: Sketch 48.2 (47327) - http://www.bohemiancoding.com/sketch -->
    <title>Financial Information</title>
    <desc>Created with Sketch.</desc>
    <defs>
        <path d="M44.1492113,31.2130509 C50.3005099,31.2130509 55.2871226,28.1919854 55.2871226,24.4653123 C55.2871226,20.7386392 50.3005099,17.7175737 44.1492113,17.7175737 C37.9979128,17.7175737 33.0113001,20.7386392 33.0113001,24.4653123 C33.0113001,28.1919854 37.9979128,31.2130509 44.1492113,31.2130509 Z" id="path-1"></path>
        <path d="M44.1492113,31.2130509 C50.3005099,31.2130509 55.2871226,28.1919854 55.2871226,24.4653123 C55.2871226,20.7386392 50.3005099,17.7175737 44.1492113,17.7175737 C37.9979128,17.7175737 33.0113001,20.7386392 33.0113001,24.4653123 C33.0113001,28.1919854 37.9979128,31.2130509 44.1492113,31.2130509 Z" id="path-3"></path>
        <path d="M44.1492113,31.2130509 C50.3005099,31.2130509 55.2871226,28.1919854 55.2871226,24.4653123 C55.2871226,20.7386392 50.3005099,17.7175737 44.1492113,17.7175737 C37.9979128,17.7175737 33.0113001,20.7386392 33.0113001,24.4653123 C33.0113001,28.1919854 37.9979128,31.2130509 44.1492113,31.2130509 Z" id="path-5"></path>
        <path d="M44.1492113,31.2130509 C50.3005099,31.2130509 55.2871226,28.1919854 55.2871226,24.4653123 C55.2871226,20.7386392 50.3005099,17.7175737 44.1492113,17.7175737 C37.9979128,17.7175737 33.0113001,20.7386392 33.0113001,24.4653123 C33.0113001,28.1919854 37.9979128,31.2130509 44.1492113,31.2130509 Z" id="path-7"></path>
        <path d="M44.1492113,31.2130509 C50.3005099,31.2130509 55.2871226,28.1919854 55.2871226,24.4653123 C55.2871226,20.7386392 50.3005099,17.7175737 44.1492113,17.7175737 C37.9979128,17.7175737 33.0113001,20.7386392 33.0113001,24.4653123 C33.0113001,28.1919854 37.9979128,31.2130509 44.1492113,31.2130509 Z" id="path-9"></path>
        <path d="M44.1492113,31.2130509 C50.3005099,31.2130509 55.2871226,28.1919854 55.2871226,24.4653123 C55.2871226,20.7386392 50.3005099,17.7175737 44.1492113,17.7175737 C37.9979128,17.7175737 33.0113001,20.7386392 33.0113001,24.4653123 C33.0113001,28.1919854 37.9979128,31.2130509 44.1492113,31.2130509 Z" id="path-11"></path>
        <path d="M44.1492113,31.2130509 C50.3005099,31.2130509 55.2871226,28.1919854 55.2871226,24.4653123 C55.2871226,20.7386392 50.3005099,17.7175737 44.1492113,17.7175737 C37.9979128,17.7175737 33.0113001,20.7386392 33.0113001,24.4653123 C33.0113001,28.1919854 37.9979128,31.2130509 44.1492113,31.2130509 Z" id="path-13"></path>
        <path d="M44.1492113,31.2130509 C50.3005099,31.2130509 55.2871226,28.1919854 55.2871226,24.4653123 C55.2871226,20.7386392 50.3005099,17.7175737 44.1492113,17.7175737 C37.9979128,17.7175737 33.0113001,20.7386392 33.0113001,24.4653123 C33.0113001,28.1919854 37.9979128,31.2130509 44.1492113,31.2130509 Z" id="path-15"></path>
        <path d="M44.1492113,31.2130509 C50.3005099,31.2130509 55.2871226,28.1919854 55.2871226,24.4653123 C55.2871226,20.7386392 50.3005099,17.7175737 44.1492113,17.7175737 C37.9979128,17.7175737 33.0113001,20.7386392 33.0113001,24.4653123 C33.0113001,28.1919854 37.9979128,31.2130509 44.1492113,31.2130509 Z" id="path-17"></path>
        <path d="M44.1492113,31.2130509 C50.3005099,31.2130509 55.2871226,28.1919854 55.2871226,24.4653123 C55.2871226,20.7386392 50.3005099,17.7175737 44.1492113,17.7175737 C37.9979128,17.7175737 33.0113001,20.7386392 33.0113001,24.4653123 C33.0113001,28.1919854 37.9979128,31.2130509 44.1492113,31.2130509 Z" id="path-19"></path>
        <path d="M44.1492113,31.2130509 C50.3005099,31.2130509 55.2871226,28.1919854 55.2871226,24.4653123 C55.2871226,20.7386392 50.3005099,17.7175737 44.1492113,17.7175737 C37.9979128,17.7175737 33.0113001,20.7386392 33.0113001,24.4653123 C33.0113001,28.1919854 37.9979128,31.2130509 44.1492113,31.2130509 Z" id="path-21"></path>
        <path d="M44.1492113,31.2130509 C50.3005099,31.2130509 55.2871226,28.1919854 55.2871226,24.4653123 C55.2871226,20.7386392 50.3005099,17.7175737 44.1492113,17.7175737 C37.9979128,17.7175737 33.0113001,20.7386392 33.0113001,24.4653123 C33.0113001,28.1919854 37.9979128,31.2130509 44.1492113,31.2130509 Z" id="path-23"></path>
        <path d="M42.8748683,37.3125203 C44.5684708,38.1622081 45.9414069,37.47808 45.9414069,35.7844774 C45.9414069,34.0908749 44.5684708,32.0291308 42.8748683,31.1794431 C41.1812657,30.3297553 39.8083296,31.0138834 39.8083296,32.7074859 C39.8083296,34.4010884 41.1812657,36.4628326 42.8748683,37.3125203 Z" id="path-25"></path>
        <filter x="-260.9%" y="-204.0%" width="621.8%" height="566.3%" filterUnits="objectBoundingBox" id="filter-26">
            <feOffset dx="0" dy="2" in="SourceAlpha" result="shadowOffsetOuter1"></feOffset>
            <feGaussianBlur stdDeviation="5" in="shadowOffsetOuter1" result="shadowBlurOuter1"></feGaussianBlur>
            <feColorMatrix values="0 0 0 0 0   0 0 0 0 0   0 0 0 0 0  0 0 0 0.2 0" type="matrix" in="shadowBlurOuter1"></feColorMatrix>
        </filter>
    </defs>
    <g id="Landing-Page---Tenant" stroke="none" stroke-width="1" fill="none" fill-rule="evenodd" transform="translate(-307.000000, -2771.000000)">
        <g id="Section-2" transform="translate(307.000000, 2004.000000)">
            <g id="Financial-Information" transform="translate(0.000000, 767.000000)">
                <g id="Group-2-Copy-2" transform="translate(68.789259, 0.061814)">
                    <g id="Group-8-Copy-3" transform="translate(0.315858, 0.216748)">
                        <polygon id="Rectangle-Copy-27" fill="#EBEBEB" points="23.8329954 0.354314033 246.768075 102.160016 246.768075 301.6611 226.759544 310.288591 0.217250051 10.0268958"></polygon>
                        <polygon id="Rectangle-Copy-14" fill="#F8F8F8" points="0.217250051 10.2824775 226.869977 113.785884 226.869977 310.828876 181.145083 289.998569 0.217250051 207.575581"></polygon>
                        <polygon id="Rectangle-Copy-3" fill="#FFFFFF" points="50.573408 83.4394404 155.119821 131.193697 155.119821 227.777277 50.573408 180.090537"></polygon>
                        <polygon id="Rectangle-Copy-14" fill="#D7D7D7" points="0.217250051 10.2824775 226.869977 113.785884 226.869977 142.683375 0.217250051 39.4300799"></polygon>
                        <g id="Group-12" transform="translate(10.278574, 29.409501)">
                            <path d="M3.59364771,6.73341781 C5.27405165,7.39628514 6.63628819,6.57140875 6.63628819,4.89100482 C6.63628819,3.21060089 5.27405165,1.3110042 3.59364771,0.648136866 C1.91324378,-0.0147304693 0.551007243,0.810145922 0.551007243,2.49054985 C0.551007243,4.17095378 1.91324378,6.07055047 3.59364771,6.73341781 Z" id="Oval-6" fill="#70D1B8"></path>
                            <path d="M13.779063,11.3283793 C15.4594669,11.9912467 16.8217035,11.1663703 16.8217035,9.48596635 C16.8217035,7.80556242 15.4594669,5.90596573 13.779063,5.2430984 C12.0986591,4.58023106 10.7364225,5.40510745 10.7364225,7.08551138 C10.7364225,8.76591531 12.0986591,10.665512 13.779063,11.3283793 Z" id="Oval-6-Copy" fill="#F6DF71"></path>
                            <path d="M23.9758207,15.9476244 C25.6562246,16.6104918 27.0184612,15.7856154 27.0184612,14.1052115 C27.0184612,12.4248075 25.6562246,10.5252108 23.9758207,9.8623435 C22.2954168,9.19947617 20.9331802,10.0243526 20.9331802,11.7047565 C20.9331802,13.3851604 22.2954168,15.2847571 23.9758207,15.9476244 Z" id="Oval-6-Copy-2" fill="#E24660"></path>
                        </g>
                        <polygon id="Rectangle-Copy-28" fill="#D7D7D7" points="226.869977 113.872983 246.763315 102.220907 246.763315 131.118398 226.869977 143.020586"></polygon>
                        <g id="Group" transform="translate(66.776750, 117.573920)" fill="#E0E0E0">
                            <polygon id="Rectangle-Copy-21" points="0.0741451224 0.14657136 71.9539335 32.97125 71.9539335 41.1231184 0.0741451224 8.37775899"></polygon>
                            <polygon id="Rectangle-Copy-22" points="0.0741451224 17.0897625 71.9539335 49.9144411 71.9539335 58.0663096 0.0741451224 25.3209502"></polygon>
                            <polygon id="Rectangle-Copy-23" points="0.0741451224 34.0329537 71.9539335 66.8576323 71.9539335 75.0095007 0.0741451224 42.2641413"></polygon>
                        </g>
                    </g>
                    <polygon id="Rectangle" fill="#5B5B5B" points="0.315857824 39.5969694 37.2245561 56.2643086 37.2245561 224.441997 0.315857824 207.751166"></polygon>
                    <polygon id="Rectangle-Copy-2" fill="#FFFFFF" points="174.674386 119.029157 227.114535 142.98254 227.114535 311.14457 174.674386 287.225053"></polygon>
                    <polygon id="Rectangle" fill="#4E4E4E" points="0.315857824 83.6561884 37.2245561 100.018712 37.2245561 113.292384 0.315857824 96.9298598"></polygon>
                    <polygon id="Rectangle-Copy" fill="#E24660" points="34.3356508 98.671 37.2245561 99.951722 37.2245561 113.114045 34.3356508 111.833322"></polygon>
                    <path d="M186.75803,224.497934 L211.411254,235.78119 C213.719174,236.837476 215.590113,239.564703 215.590113,241.872623 L215.590113,245.492259 C215.590113,245.801109 215.33974,245.936892 215.03089,245.795538 L190.377666,234.512282 C188.069746,233.455996 186.198808,230.728768 186.198808,228.420848 L186.198808,224.801212 C186.198808,224.492362 186.44918,224.35658 186.75803,224.497934 Z" id="Rectangle-6" fill="#E24660"></path>
                    <path d="M202.168768,197.995844 C209.581172,200.607583 215.590113,196.715875 215.590113,189.303471 C215.590113,181.891067 209.581172,173.764893 202.168768,171.153155 C194.756364,168.541416 188.747423,172.433124 188.747423,179.845528 C188.747423,187.257932 194.756364,195.384105 202.168768,197.995844 Z" id="Oval-7" fill="#F7F7F7"></path>
                </g>
                <g id="Group-2-Copy-3" transform="translate(0.000000, 19.748587)">
                    <g id="Group-8-Copy-3" transform="translate(0.226346, 0.155323)">
                        <polygon id="Rectangle-Copy-27" fill="#EBEBEB" points="17.0788792 0.253903737 176.835605 73.2085312 176.835605 216.172304 162.497362 222.35482 0.155682798 7.18533862"></polygon>
                        <polygon id="Rectangle-Copy-14" fill="#F8F8F8" points="0.155682798 7.36849019 162.576499 81.5397032 162.576499 222.741991 129.809743 207.814858 0.155682798 148.750009"></polygon>
                    </g>
                    <path d="M144.875452,141.885108 C150.187229,143.756697 154.493275,140.967874 154.493275,135.656097 C154.493275,130.34432 150.187229,124.521051 144.875452,122.649462 C139.563675,120.777873 135.257629,123.566696 135.257629,128.878473 C135.257629,134.19025 139.563675,140.013519 144.875452,141.885108 Z" id="Oval-7" fill="#F7F7F7"></path>
                </g>
                <g id="Group-4" transform="translate(147.000000, 186.748587)">
                    <g id="Group-14" transform="translate(0.000000, 35.080188)">
                        <g id="Group-9" transform="translate(0.037205, 0.618791)">
                            <g id="Group" transform="translate(0.066793, 25.166453)">
                                <polygon id="Rectangle-Copy-3" fill="#67C9B9" points="88.2725939 17.7206483 88.2725939 21.2230624 38.7796668 50.3094234 0.0258287368 32.6041774 0.0258287368 29.1099307"></polygon>
                                <polygon id="Rectangle-Copy-4" fill="#68E2C2" points="49.5187559 0.00949252364 88.2725939 17.7147386 38.7796668 46.8010997 0.0258287368 29.0958536"></polygon>
                                <polygon id="Rectangle-Copy-5" fill="#2FC5B0" points="80.0568124 17.0344195 82.9885275 18.3184141 72.5290553 24.4653123 69.5973402 23.1813177"></polygon>
                                <mask id="mask-2" fill="white">
                                    <use xlink:href="#path-1"></use>
                                </mask>
                                <use id="Oval-5" fill="#2FC5B0" xlink:href="#path-1"></use>
                            </g>
                            <g id="Group-Copy" transform="translate(0.000000, 16.777635)">
                                <polygon id="Rectangle-Copy-3" fill="#67C9B9" points="88.2725939 17.7206483 88.2725939 21.2230624 38.7796668 50.3094234 0.0258287368 32.6041774 0.0258287368 29.1099307"></polygon>
                                <polygon id="Rectangle-Copy-4" fill="#68E2C2" points="49.5187559 0.00949252364 88.2725939 17.7147386 38.7796668 46.8010997 0.0258287368 29.0958536"></polygon>
                                <polygon id="Rectangle-Copy-5" fill="#2FC5B0" points="80.0568124 17.0344195 82.9885275 18.3184141 72.5290553 24.4653123 69.5973402 23.1813177"></polygon>
                                <mask id="mask-4" fill="white">
                                    <use xlink:href="#path-3"></use>
                                </mask>
                                <use id="Oval-5" fill="#2FC5B0" xlink:href="#path-3"></use>
                            </g>
                            <g id="Group-Copy-2" transform="translate(0.000000, 8.388818)">
                                <polygon id="Rectangle-Copy-3" fill="#67C9B9" points="88.2725939 17.7206483 88.2725939 21.2230624 38.7796668 50.3094234 0.0258287368 32.6041774 0.0258287368 29.1099307"></polygon>
                                <polygon id="Rectangle-Copy-4" fill="#68E2C2" points="49.5187559 0.00949252364 88.2725939 17.7147386 38.7796668 46.8010997 0.0258287368 29.0958536"></polygon>
                                <polygon id="Rectangle-Copy-5" fill="#2FC5B0" points="80.0568124 17.0344195 82.9885275 18.3184141 72.5290553 24.4653123 69.5973402 23.1813177"></polygon>
                                <mask id="mask-6" fill="white">
                                    <use xlink:href="#path-5"></use>
                                </mask>
                                <use id="Oval-5" fill="#2FC5B0" xlink:href="#path-5"></use>
                            </g>
                            <g id="Group-Copy-3">
                                <polygon id="Rectangle-Copy-3" fill="#67C9B9" points="88.2725939 17.7206483 88.2725939 21.2230624 38.7796668 50.3094234 0.0258287368 32.6041774 0.0258287368 29.1099307"></polygon>
                                <polygon id="Rectangle-Copy-4" fill="#68E2C2" points="49.5187559 0.00949252364 88.2725939 17.7147386 38.7796668 46.8010997 0.0258287368 29.0958536"></polygon>
                                <polygon id="Rectangle-Copy-5" fill="#2FC5B0" points="80.0568124 17.0344195 82.9885275 18.3184141 72.5290553 24.4653123 69.5973402 23.1813177"></polygon>
                                <mask id="mask-8" fill="white">
                                    <use xlink:href="#path-7"></use>
                                </mask>
                                <use id="Oval-5" fill="#2FC5B0" xlink:href="#path-7"></use>
                            </g>
                        </g>
                    </g>
                    <g id="Group-14-Copy-2" transform="translate(45.500000, 54.241465)">
                        <g id="Group-9" transform="translate(0.037205, 0.618791)">
                            <g id="Group" transform="translate(0.066793, 25.166453)">
                                <polygon id="Rectangle-Copy-3" fill="#67C9B9" points="88.2725939 17.7206483 88.2725939 21.2230624 38.7796668 50.3094234 0.0258287368 32.6041774 0.0258287368 29.1099307"></polygon>
                                <polygon id="Rectangle-Copy-4" fill="#68E2C2" points="49.5187559 0.00949252364 88.2725939 17.7147386 38.7796668 46.8010997 0.0258287368 29.0958536"></polygon>
                                <polygon id="Rectangle-Copy-5" fill="#2FC5B0" points="80.0568124 17.0344195 82.9885275 18.3184141 72.5290553 24.4653123 69.5973402 23.1813177"></polygon>
                                <mask id="mask-10" fill="white">
                                    <use xlink:href="#path-9"></use>
                                </mask>
                                <use id="Oval-5" fill="#2FC5B0" xlink:href="#path-9"></use>
                            </g>
                            <g id="Group-Copy" transform="translate(0.000000, 16.777635)">
                                <polygon id="Rectangle-Copy-3" fill="#67C9B9" points="88.2725939 17.7206483 88.2725939 21.2230624 38.7796668 50.3094234 0.0258287368 32.6041774 0.0258287368 29.1099307"></polygon>
                                <polygon id="Rectangle-Copy-4" fill="#68E2C2" points="49.5187559 0.00949252364 88.2725939 17.7147386 38.7796668 46.8010997 0.0258287368 29.0958536"></polygon>
                                <polygon id="Rectangle-Copy-5" fill="#2FC5B0" points="80.0568124 17.0344195 82.9885275 18.3184141 72.5290553 24.4653123 69.5973402 23.1813177"></polygon>
                                <mask id="mask-12" fill="white">
                                    <use xlink:href="#path-11"></use>
                                </mask>
                                <use id="Oval-5" fill="#2FC5B0" xlink:href="#path-11"></use>
                            </g>
                            <g id="Group-Copy-2" transform="translate(0.000000, 8.388818)">
                                <polygon id="Rectangle-Copy-3" fill="#67C9B9" points="88.2725939 17.7206483 88.2725939 21.2230624 38.7796668 50.3094234 0.0258287368 32.6041774 0.0258287368 29.1099307"></polygon>
                                <polygon id="Rectangle-Copy-4" fill="#68E2C2" points="49.5187559 0.00949252364 88.2725939 17.7147386 38.7796668 46.8010997 0.0258287368 29.0958536"></polygon>
                                <polygon id="Rectangle-Copy-5" fill="#2FC5B0" points="80.0568124 17.0344195 82.9885275 18.3184141 72.5290553 24.4653123 69.5973402 23.1813177"></polygon>
                                <mask id="mask-14" fill="white">
                                    <use xlink:href="#path-13"></use>
                                </mask>
                                <use id="Oval-5" fill="#2FC5B0" xlink:href="#path-13"></use>
                            </g>
                            <g id="Group-Copy-3">
                                <polygon id="Rectangle-Copy-3" fill="#67C9B9" points="88.2725939 17.7206483 88.2725939 21.2230624 38.7796668 50.3094234 0.0258287368 32.6041774 0.0258287368 29.1099307"></polygon>
                                <polygon id="Rectangle-Copy-4" fill="#68E2C2" points="49.5187559 0.00949252364 88.2725939 17.7147386 38.7796668 46.8010997 0.0258287368 29.0958536"></polygon>
                                <polygon id="Rectangle-Copy-5" fill="#2FC5B0" points="80.0568124 17.0344195 82.9885275 18.3184141 72.5290553 24.4653123 69.5973402 23.1813177"></polygon>
                                <mask id="mask-16" fill="white">
                                    <use xlink:href="#path-15"></use>
                                </mask>
                                <use id="Oval-5" fill="#2FC5B0" xlink:href="#path-15"></use>
                            </g>
                        </g>
                    </g>
                    <g id="Group-14-Copy" transform="translate(0.000000, 0.737061)">
                        <g id="Group-9" transform="translate(0.037205, 0.618791)">
                            <g id="Group" transform="translate(0.066793, 25.166453)">
                                <polygon id="Rectangle-Copy-3" fill="#67C9B9" points="88.2725939 17.7206483 88.2725939 21.2230624 38.7796668 50.3094234 0.0258287368 32.6041774 0.0258287368 29.1099307"></polygon>
                                <polygon id="Rectangle-Copy-4" fill="#68E2C2" points="49.5187559 0.00949252364 88.2725939 17.7147386 38.7796668 46.8010997 0.0258287368 29.0958536"></polygon>
                                <polygon id="Rectangle-Copy-5" fill="#2FC5B0" points="80.0568124 17.0344195 82.9885275 18.3184141 72.5290553 24.4653123 69.5973402 23.1813177"></polygon>
                                <mask id="mask-18" fill="white">
                                    <use xlink:href="#path-17"></use>
                                </mask>
                                <use id="Oval-5" fill="#2FC5B0" xlink:href="#path-17"></use>
                            </g>
                            <g id="Group-Copy" transform="translate(0.000000, 16.777635)">
                                <polygon id="Rectangle-Copy-3" fill="#67C9B9" points="88.2725939 17.7206483 88.2725939 21.2230624 38.7796668 50.3094234 0.0258287368 32.6041774 0.0258287368 29.1099307"></polygon>
                                <polygon id="Rectangle-Copy-4" fill="#68E2C2" points="49.5187559 0.00949252364 88.2725939 17.7147386 38.7796668 46.8010997 0.0258287368 29.0958536"></polygon>
                                <polygon id="Rectangle-Copy-5" fill="#2FC5B0" points="80.0568124 17.0344195 82.9885275 18.3184141 72.5290553 24.4653123 69.5973402 23.1813177"></polygon>
                                <mask id="mask-20" fill="white">
                                    <use xlink:href="#path-19"></use>
                                </mask>
                                <use id="Oval-5" fill="#2FC5B0" xlink:href="#path-19"></use>
                            </g>
                            <g id="Group-Copy-2" transform="translate(0.000000, 8.388818)">
                                <polygon id="Rectangle-Copy-3" fill="#67C9B9" points="88.2725939 17.7206483 88.2725939 21.2230624 38.7796668 50.3094234 0.0258287368 32.6041774 0.0258287368 29.1099307"></polygon>
                                <polygon id="Rectangle-Copy-4" fill="#68E2C2" points="49.5187559 0.00949252364 88.2725939 17.7147386 38.7796668 46.8010997 0.0258287368 29.0958536"></polygon>
                                <polygon id="Rectangle-Copy-5" fill="#2FC5B0" points="80.0568124 17.0344195 82.9885275 18.3184141 72.5290553 24.4653123 69.5973402 23.1813177"></polygon>
                                <mask id="mask-22" fill="white">
                                    <use xlink:href="#path-21"></use>
                                </mask>
                                <use id="Oval-5" fill="#2FC5B0" xlink:href="#path-21"></use>
                            </g>
                            <g id="Group-Copy-3">
                                <polygon id="Rectangle-Copy-3" fill="#67C9B9" points="88.2725939 17.7206483 88.2725939 21.2230624 38.7796668 50.3094234 0.0258287368 32.6041774 0.0258287368 29.1099307"></polygon>
                                <polygon id="Rectangle-Copy-4" fill="#68E2C2" points="49.5187559 0.00949252364 88.2725939 17.7147386 38.7796668 46.8010997 0.0258287368 29.0958536"></polygon>
                                <polygon id="Rectangle-Copy-5" fill="#2FC5B0" points="80.0568124 17.0344195 82.9885275 18.3184141 72.5290553 24.4653123 69.5973402 23.1813177"></polygon>
                                <mask id="mask-24" fill="white">
                                    <use xlink:href="#path-23"></use>
                                </mask>
                                <use id="Oval-5" fill="#2FC5B0" xlink:href="#path-23"></use>
                            </g>
                        </g>
                    </g>
                </g>
                <polygon id="Rectangle-5-Copy" fill="#FFFFFF" points="18.4617035 53.8199411 143.538296 110.677234 143.538296 215.677234 18.4617035 158.819941"></polygon>
                <g id="Group-15" transform="translate(44.000000, 96.000000)">
                    <g id="Group-17" transform="translate(0.381313, 45.592865)">
                        <path d="M1.44604345,1.79254918 L1.44604345,2.3908185 L1.19302045,2.26387576 L1.19302045,1.66560644 L0.63731575,0.424373718 L0.918715154,0.565553023 L1.19774986,1.20686253 L1.3207143,1.50265971 L1.44367875,1.33024613 L1.72034875,0.967736084 L2.00411285,1.11010177 L1.44604345,1.79254918 Z M2.74189953,1.83495768 C2.92634712,1.92749584 3.07059243,2.05425192 3.17463978,2.21522971 C3.27868714,2.37620751 3.33071004,2.55285874 3.33071004,2.74518871 C3.33071004,2.93751867 3.27868714,3.06196968 3.17463978,3.11854545 C3.07059243,3.17512122 2.92634712,3.15714029 2.74189953,3.06460214 C2.55745194,2.97206398 2.41320662,2.8453079 2.30915927,2.68433011 C2.20511191,2.52335231 2.15308901,2.34670108 2.15308901,2.15437111 C2.15308901,1.96204115 2.20511191,1.83759014 2.30915927,1.78101437 C2.41320662,1.7244386 2.55745194,1.74241952 2.74189953,1.83495768 Z M2.74189953,2.03359256 C2.63469922,1.9798097 2.55232963,1.97434878 2.49478828,2.01720966 C2.43724694,2.06007054 2.4084767,2.14849984 2.4084767,2.28250023 C2.4084767,2.41650062 2.43724694,2.53379823 2.49478828,2.63439659 C2.55232963,2.73499495 2.63469922,2.8121844 2.74189953,2.86596726 C2.84909983,2.91975012 2.93186354,2.92501465 2.99019312,2.881761 C3.0485227,2.83850735 3.07768705,2.75066988 3.07768705,2.61824597 C3.07768705,2.48582206 3.0485227,2.36872083 2.99019312,2.26693877 C2.93186354,2.16515671 2.84909983,2.08737542 2.74189953,2.03359256 Z M4.72588356,2.85397811 L4.72588356,4.03632855 L4.50123697,3.92362238 L4.49177817,3.72733608 C4.41137794,3.83045818 4.27107376,3.8317955 4.07086142,3.7313481 C3.94316693,3.66728322 3.84030347,3.58060013 3.76226795,3.47129623 C3.68423243,3.36199232 3.64521526,3.23482442 3.64521526,3.08978871 L3.64521526,2.31180212 L3.89823825,2.43874486 L3.89823825,3.15051982 C3.89823825,3.25456718 3.91873212,3.33854815 3.95972047,3.40246525 C4.00070883,3.46638235 4.06140221,3.5185087 4.14180244,3.55884584 C4.23796742,3.60709223 4.31718411,3.6164889 4.37945488,3.58703612 C4.44172565,3.55758334 4.47286056,3.48374024 4.47286056,3.36550461 L4.47286056,2.72703537 L4.72588356,2.85397811 Z M5.72851673,3.33335652 C5.78369336,3.36103888 5.82704577,3.39067123 5.85857527,3.42225447 L5.81837536,3.63382668 C5.78211643,3.59514125 5.73245821,3.55998057 5.6693992,3.52834359 C5.618952,3.50303401 5.57126434,3.49250874 5.5263348,3.49676747 C5.48140526,3.5010262 5.44435865,3.52263927 5.41519386,3.56160732 C5.38602907,3.60057537 5.37144689,3.65789394 5.37144689,3.73356475 L5.37144689,4.36021048 L5.1184239,4.23326774 L5.1184239,3.05091731 L5.33361168,3.15887795 L5.35489399,3.38237846 C5.42110594,3.25794977 5.54564561,3.24160929 5.72851673,3.33335652 Z M7.43346605,3.81038488 C7.57692529,3.882359 7.69949439,3.9698639 7.80117704,4.07290221 C7.90285969,4.17594051 7.98838218,4.29845832 8.05774708,4.4404593 L7.86620631,4.51698563 C7.82206501,4.40025124 7.76688921,4.30399366 7.70067725,4.22821 C7.6344653,4.15242635 7.54618401,4.08685315 7.43583076,4.03148844 C7.32705397,3.97691465 7.24271382,3.95627704 7.18280776,3.96957498 C7.12290171,3.98287292 7.09294913,4.02341549 7.09294913,4.09120392 C7.09294913,4.15426293 7.12211348,4.21894714 7.18044306,4.28525851 C7.23877264,4.35156988 7.34281844,4.43569325 7.49258358,4.53763115 C7.63288986,4.63324703 7.74442381,4.72112724 7.82718875,4.80127441 C7.90995369,4.88142158 7.97025296,4.95975576 8.00808837,5.03627929 C8.04592377,5.11280282 8.06484119,5.1936282 8.06484119,5.27875785 C8.06484119,5.37019341 8.03882974,5.43754238 7.98680606,5.48080678 C7.93478238,5.52407118 7.8618715,5.54069671 7.76807123,5.53068387 C7.67427096,5.52067103 7.56588992,5.4848191 7.44292486,5.42312699 C7.12605336,5.26415118 6.90219725,5.04621935 6.77134981,4.76932495 L6.94870238,4.68095094 C6.99914958,4.80084903 7.0641782,4.90283804 7.1437902,4.98692103 C7.22340219,5.07100402 7.32232452,5.1427041 7.44056016,5.20202343 C7.55248989,5.25817907 7.64037706,5.28296091 7.7042243,5.27636971 C7.76807155,5.26977851 7.79999469,5.2310128 7.79999469,5.16007142 C7.79999469,5.10331831 7.77122445,5.04316707 7.71368311,4.97961587 C7.65614177,4.91606468 7.55564298,4.8349032 7.41218375,4.736129 C7.26872451,4.6373548 7.15443178,4.54690815 7.06930212,4.46478636 C6.98417246,4.38266456 6.92229674,4.30275125 6.8836731,4.22504402 C6.84504946,4.14733679 6.82573793,4.06670779 6.82573793,3.98315461 C6.82573793,3.894872 6.85017293,3.82673212 6.89904366,3.77873292 C6.94791439,3.73073373 7.01846059,3.70858658 7.11068439,3.71229083 C7.20290818,3.71599508 7.31050099,3.74869277 7.43346605,3.81038488 Z M9.02018034,4.98479848 C9.15102778,5.0504452 9.25783236,5.14186437 9.34059731,5.2590587 C9.42336225,5.37625304 9.4647441,5.50578965 9.4647441,5.64767241 L9.4647441,6.41383549 L9.21172111,6.28689276 L9.21172111,5.60112951 C9.21172111,5.39303479 9.12738096,5.24667517 8.95869812,5.16204625 C8.87041551,5.11775449 8.79474584,5.11053149 8.73168683,5.14037704 C8.66862783,5.17022259 8.6370988,5.2482032 8.6370988,5.37432121 L8.6370988,5.99860224 L8.3840758,5.87165951 L8.3840758,4.15725138 L8.6370988,4.28419411 L8.6370988,5.00542788 C8.67651068,4.95268313 8.72892769,4.92538163 8.79435141,4.92352254 C8.85977512,4.92166345 8.93505068,4.94208856 9.02018034,4.98479848 Z M10.8693764,6.95301658 C10.9040589,6.97041691 10.9332232,6.98189589 10.9568704,6.98745386 L10.9403174,7.14940766 C10.8977526,7.1469704 10.8488826,7.13191082 10.793706,7.10422846 C10.7259176,7.07021871 10.6719241,7.02973012 10.631724,6.98276147 C10.5915239,6.93579282 10.5651183,6.87761617 10.5525065,6.80822977 C10.5162476,6.84521513 10.4626482,6.86128241 10.3917068,6.85643208 C10.3207655,6.85158174 10.2411547,6.82701106 10.1528721,6.78271929 C10.0377894,6.72498181 9.94477873,6.65151829 9.87383735,6.56232654 C9.80289597,6.47313478 9.76742581,6.37888135 9.76742581,6.27956342 C9.76742581,6.18655139 9.80604888,6.12750028 9.88329616,6.10240834 C9.96054344,6.07731639 10.0756244,6.08973003 10.2285425,6.13964962 L10.5288595,6.23829655 L10.5288595,6.17444963 C10.5288595,6.10193177 10.5075774,6.03410809 10.4650126,5.97097654 C10.4224477,5.90784499 10.3633308,5.85729778 10.28766,5.81933341 C10.131589,5.74103189 10.0299078,5.76095835 9.98261359,5.87911338 L9.78634342,5.67659694 C9.81471997,5.59624507 9.87265457,5.55042966 9.96014894,5.53914934 C10.0476433,5.52786902 10.1552361,5.5542609 10.2829306,5.61832578 C10.4358487,5.69504545 10.5572355,5.79141587 10.6470945,5.90743995 C10.7369536,6.02346402 10.7818825,6.15005082 10.7818825,6.28720416 L10.7818825,6.82162656 C10.7818825,6.85157959 10.7885824,6.87701128 10.8019824,6.89792242 C10.8153825,6.91883355 10.8378469,6.93719809 10.8693764,6.95301658 Z M10.2072602,6.61846528 C10.2923898,6.6611752 10.3672713,6.67824967 10.4319068,6.66968922 C10.4965422,6.66112877 10.5288595,6.6229549 10.5288595,6.55516647 L10.5288595,6.41328442 L10.2711071,6.33599234 C10.1891304,6.31062902 10.128437,6.30224921 10.0890251,6.31085265 C10.0496133,6.31945609 10.0299076,6.34740452 10.0299076,6.39469877 C10.0299076,6.43884008 10.045278,6.48005107 10.0760193,6.51833298 C10.1067605,6.5566149 10.1505071,6.589992 10.2072602,6.61846528 Z M11.805798,6.38235496 C11.8609746,6.41003731 11.904327,6.43966966 11.9358565,6.4712529 L11.8956566,6.68282512 C11.8593977,6.64413968 11.8097394,6.608979 11.7466804,6.57734202 C11.6962332,6.55203244 11.6485456,6.54150717 11.603616,6.5457659 C11.5586865,6.55002463 11.5216399,6.5716377 11.4924751,6.61060575 C11.4633103,6.64957381 11.4487281,6.70689238 11.4487281,6.78256318 L11.4487281,7.40920891 L11.1957051,7.28226618 L11.1957051,6.09991574 L11.4108929,6.20787639 L11.4321752,6.43137689 C11.4983872,6.3069482 11.6229269,6.29060772 11.805798,6.38235496 Z M13.2317126,7.67709424 C13.2317126,7.72281202 13.2285597,7.76458261 13.2222538,7.80240726 L12.3567733,7.36819192 C12.3709615,7.4793576 12.4080082,7.57716073 12.4679142,7.66160425 C12.5278203,7.74604777 12.6050664,7.81199628 12.6996549,7.85945174 C12.7769022,7.89820704 12.8411426,7.91664278 12.892378,7.91475951 C12.9436135,7.91287624 12.9786895,7.89066864 12.9976072,7.84813605 L13.2080656,8.04121787 C13.119783,8.17979722 12.9503144,8.1862083 12.6996549,8.06045132 C12.5136308,7.96712224 12.3682032,7.83977298 12.2633676,7.67839972 C12.158532,7.51702646 12.106115,7.3401775 12.106115,7.14784753 C12.106115,6.95394109 12.1565614,6.82830506 12.2574558,6.77093568 C12.3583502,6.7135663 12.5002309,6.73075497 12.683102,6.8225022 C12.8565143,6.90950389 12.9913009,7.02993804 13.0874658,7.18380826 C13.1836308,7.33767848 13.2317126,7.5021055 13.2317126,7.67709424 Z M12.683102,7.02350177 C12.5916664,6.97762816 12.5179673,6.96745267 12.4620025,6.99297501 C12.4060376,7.01849734 12.3709615,7.07893389 12.3567733,7.17428645 L12.9952425,7.49460924 C12.9826307,7.38896392 12.9491311,7.2949109 12.8947427,7.21244738 C12.8403543,7.12998386 12.7698081,7.06700262 12.683102,7.02350177 Z" id="Your-Share" fill="#454545"></path>
                        <path d="M44.310592,23.6785965 L44.310592,23.8961489 L43.1968179,23.3373636 L43.1968179,21.7766611 L43.4498409,21.9036038 L43.4498409,23.2467539 L44.310592,23.6785965 Z M45.599354,24.3771974 C45.6340364,24.3945977 45.6632008,24.4060767 45.6868479,24.4116347 L45.670295,24.5735885 C45.6277302,24.5711512 45.5788602,24.5560916 45.5236835,24.5284093 C45.4558951,24.4943995 45.4019016,24.4539109 45.3617015,24.4069423 C45.3215014,24.3599736 45.2950959,24.301797 45.2824841,24.2324106 C45.2462251,24.2693959 45.1926258,24.2854632 45.1216844,24.2806129 C45.050743,24.2757625 44.9711322,24.2511919 44.8828496,24.2069001 C44.7677669,24.1491626 44.6747563,24.0756991 44.6038149,23.9865073 C44.5328735,23.8973156 44.4974034,23.8030622 44.4974034,23.7037442 C44.4974034,23.6107322 44.5360264,23.5516811 44.6132737,23.5265891 C44.690521,23.5014972 44.8056019,23.5139108 44.95852,23.5638304 L45.258837,23.6624774 L45.258837,23.5986304 C45.258837,23.5261126 45.2375549,23.4582889 45.1949901,23.3951573 C45.1524253,23.3320258 45.0933084,23.2814786 45.0176376,23.2435142 C44.8615665,23.1652127 44.7598854,23.1851391 44.7125911,23.3032942 L44.516321,23.1007777 C44.5446975,23.0204259 44.6026321,22.9746105 44.6901265,22.9633301 C44.7776209,22.9520498 44.8852137,22.9784417 45.0129082,23.0425066 C45.1658262,23.1192262 45.287213,23.2155967 45.3770721,23.3316207 C45.4669312,23.4476448 45.51186,23.5742316 45.51186,23.711385 L45.51186,24.2458074 C45.51186,24.2757604 45.51856,24.3011921 45.53196,24.3221032 C45.54536,24.3430144 45.5678245,24.3613789 45.599354,24.3771974 Z M44.9372377,24.0426461 C45.0223674,24.085356 45.0972488,24.1024305 45.1618843,24.09387 C45.2265198,24.0853096 45.258837,24.0471357 45.258837,23.9793473 L45.258837,23.8374652 L45.0010846,23.7601731 C44.9191079,23.7348098 44.8584146,23.72643 44.8190027,23.7350334 C44.7795908,23.7436369 44.7598852,23.7715853 44.7598852,23.8188796 C44.7598852,23.8630209 44.7752556,23.9042319 44.8059968,23.9425138 C44.8367381,23.9807957 44.8804846,24.0141728 44.9372377,24.0426461 Z M46.5617872,23.8195859 C46.6926347,23.8852327 46.7994392,23.9766518 46.8822042,24.0938462 C46.9649691,24.2110405 47.006351,24.3405771 47.006351,24.4824599 L47.006351,25.248623 L46.753328,25.1216802 L46.753328,24.435917 C46.753328,24.2278223 46.6689878,24.0814626 46.500305,23.9968337 C46.4120224,23.952542 46.3363527,23.9449248 46.2732937,23.9739822 C46.2102347,24.0030395 46.1787057,24.080626 46.1787057,24.206744 L46.1787057,24.8333897 L45.9256827,24.706447 L45.9256827,23.5240965 L46.1503293,23.6368027 L46.1621528,23.8390048 C46.2015647,23.7846836 46.2559522,23.7567942 46.3253171,23.755336 C46.394682,23.7538777 46.4735046,23.7752942 46.5617872,23.8195859 Z M48.484289,24.2757028 L48.484289,25.9901109 L48.2620072,25.8785911 L48.2478189,25.6610145 C48.2131365,25.7145555 48.1607195,25.7450099 48.0905663,25.7523786 C48.0204132,25.7597473 47.9404083,25.7408906 47.8505492,25.6958079 C47.6881723,25.6143427 47.5600856,25.4960876 47.4662853,25.341039 C47.372485,25.1859905 47.3255856,25.0123038 47.3255856,24.8199738 C47.3255856,24.6276439 47.372485,24.5002283 47.4662853,24.4377233 C47.5600856,24.3752183 47.6881723,24.3846982 47.8505492,24.4661634 C47.9372553,24.5096643 48.0137132,24.5673351 48.0799252,24.6391775 C48.1461371,24.71102 48.1965836,24.7887462 48.231266,24.8723585 L48.231266,24.14876 L48.484289,24.2757028 Z M47.907302,25.5209167 C48.00662,25.570745 48.0854425,25.5748205 48.1437721,25.5331433 C48.2021017,25.4914661 48.231266,25.4091462 48.231266,25.2861812 L48.231266,25.2578047 C48.231266,25.1348397 48.2021017,25.0236502 48.1437721,24.9242328 C48.0854425,24.8248155 48.00662,24.7501938 47.907302,24.7003655 C47.8048311,24.6489555 47.7248262,24.6446809 47.6672849,24.6875418 C47.6097435,24.7304027 47.5809733,24.8164673 47.5809733,24.9457383 C47.5809733,25.0750092 47.6097435,25.1903363 47.6672849,25.2917229 C47.7248262,25.3931095 47.8048311,25.4695067 47.907302,25.5209167 Z M49.1227583,25.9651874 C49.1227583,26.023517 49.1314288,26.0684606 49.14877,26.1000197 C49.1661112,26.1315787 49.1984285,26.1592217 49.2457227,26.1829494 C49.2756757,26.197977 49.3012931,26.2088588 49.3225755,26.215595 C49.3438579,26.2223313 49.3702635,26.2273028 49.401793,26.2305094 L49.3734166,26.4196371 C49.3198164,26.4195458 49.2543937,26.4001228 49.1771464,26.3613675 C49.0715226,26.3083755 48.9938823,26.2426234 48.9442234,26.1641091 C48.8945644,26.0855949 48.8697353,25.9887978 48.8697353,25.8737151 L48.8697353,24.4690828 L49.1227583,24.5960256 L49.1227583,25.9651874 Z M50.1348502,25.6122072 C50.3192978,25.7047454 50.4635431,25.8315014 50.5675905,25.9924792 C50.6716379,26.153457 50.7236608,26.3301083 50.7236608,26.5224382 C50.7236608,26.7147682 50.6716379,26.8392192 50.5675905,26.895795 C50.4635431,26.9523707 50.3192978,26.9343898 50.1348502,26.8418517 C49.9504027,26.7493135 49.8061573,26.6225574 49.70211,26.4615796 C49.5980626,26.3006018 49.5460397,26.1239506 49.5460397,25.9316206 C49.5460397,25.7392907 49.5980626,25.6148397 49.70211,25.5582639 C49.8061573,25.5016881 49.9504027,25.519669 50.1348502,25.6122072 Z M50.1348502,25.8108421 C50.0276499,25.7570592 49.9452803,25.7515983 49.887739,25.7944592 C49.8301977,25.8373201 49.8014274,25.9257494 49.8014274,26.0597497 C49.8014274,26.1937501 49.8301977,26.3110477 49.887739,26.4116461 C49.9452803,26.5122445 50.0276499,26.5894339 50.1348502,26.6432168 C50.2420506,26.6969996 50.3248143,26.7022642 50.3831438,26.6590105 C50.4414734,26.6157569 50.4706378,26.5279194 50.4706378,26.3954955 C50.4706378,26.2630716 50.4414734,26.1459703 50.3831438,26.0441883 C50.3248143,25.9424062 50.2420506,25.8646249 50.1348502,25.8108421 Z M51.6577176,26.3762364 C51.7128942,26.4039187 51.7562466,26.4335511 51.7877762,26.4651343 L51.7475762,26.6767065 C51.7113173,26.6380211 51.6616591,26.6028604 51.5986001,26.5712234 C51.5481529,26.5459139 51.5004652,26.5353886 51.4555357,26.5396473 C51.4106061,26.5439061 51.3735595,26.5655191 51.3443947,26.6044872 C51.3152299,26.6434552 51.3006478,26.7007738 51.3006478,26.7764446 L51.3006478,27.4030903 L51.0476248,27.2761476 L51.0476248,26.0937972 L51.2628126,26.2017578 L51.2840949,26.4252583 C51.3503068,26.3008296 51.4748465,26.2844891 51.6577176,26.3762364 Z M53.1214674,26.6021954 L53.1214674,28.3166035 L52.8991856,28.2050837 L52.8849974,27.987507 C52.8503149,28.0410481 52.7978979,28.0715025 52.7277447,28.0788712 C52.6575916,28.0862399 52.5775867,28.0673832 52.4877276,28.0223005 C52.3253507,27.9408352 52.197264,27.8225801 52.1034637,27.6675316 C52.0096634,27.512483 51.962764,27.3387964 51.962764,27.1464664 C51.962764,26.9541365 52.0096634,26.8267209 52.1034637,26.7642159 C52.197264,26.7017108 52.3253507,26.7111908 52.4877276,26.792656 C52.5744337,26.8361569 52.6508916,26.8938276 52.7171036,26.9656701 C52.7833155,27.0375126 52.833762,27.1152388 52.8684444,27.1988511 L52.8684444,26.4752526 L53.1214674,26.6021954 Z M52.5444804,27.8474093 C52.6437984,27.8972376 52.7226209,27.901313 52.7809505,27.8596359 C52.8392801,27.8179587 52.8684444,27.7356388 52.8684444,27.6126737 L52.8684444,27.5842973 C52.8684444,27.4613323 52.8392801,27.3501427 52.7809505,27.2507254 C52.7226209,27.151308 52.6437984,27.0766864 52.5444804,27.0268581 C52.4420095,26.975448 52.3620046,26.9711735 52.3044633,27.0140344 C52.2469219,27.0568952 52.2181517,27.1429599 52.2181517,27.2722308 C52.2181517,27.4015018 52.2469219,27.5168288 52.3044633,27.6182154 C52.3620046,27.719602 52.4420095,27.7959992 52.5444804,27.8474093 Z M53.6417016,26.9294107 C53.7047606,26.9610477 53.7540247,27.0090164 53.7894954,27.0733182 C53.8249661,27.13762 53.8427012,27.2068171 53.8427012,27.2809114 C53.8427012,27.3707705 53.8194485,27.4414741 53.7729425,27.4930244 C53.7264365,27.5445747 53.6566785,27.5682996 53.5636665,27.5641999 L53.4407021,27.400826 C53.5053375,27.4096068 53.5597251,27.4033936 53.6038664,27.3821865 C53.6480077,27.3609793 53.6771721,27.3279235 53.6913604,27.2830182 L53.6819015,27.2711785 C53.6661368,27.2758811 53.6432783,27.2707187 53.6133252,27.2556911 C53.5739133,27.235918 53.5388373,27.2041321 53.508096,27.1603325 C53.4773548,27.116533 53.4619844,27.068622 53.4619844,27.0165984 C53.4619844,26.9661512 53.4793253,26.9326811 53.5140078,26.9161872 C53.5486902,26.8996934 53.5912544,26.9041012 53.6417016,26.9294107 Z M54.5733938,29.0686883 C54.4535817,29.008578 54.3475653,28.9348953 54.2553415,28.8476378 C54.1631177,28.7603804 54.0933597,28.6631127 54.0460655,28.5558318 L54.2163239,28.4946397 C54.246277,28.5774557 54.2927823,28.6504459 54.3558413,28.7136123 C54.4189003,28.7767788 54.49457,28.8305071 54.5828526,28.8747989 C54.6632528,28.915136 54.7255226,28.9333714 54.7696639,28.9295054 C54.8138053,28.9256395 54.8358756,28.9024244 54.8358756,28.8598596 C54.8358756,28.8220242 54.8153817,28.7813956 54.7743934,28.7379727 C54.733405,28.6945498 54.6624647,28.6372825 54.5615703,28.5661692 C54.3865815,28.4452706 54.2636183,28.3394388 54.1926769,28.2486705 C54.1217356,28.1579023 54.0862654,28.0620724 54.0862654,27.961178 C54.0862654,27.8965425 54.105971,27.8461297 54.1453829,27.8099379 C54.1847948,27.7737462 54.2419412,27.7574879 54.3168237,27.7611626 C54.3917063,27.7648373 54.4803817,27.7923792 54.5828526,27.8437893 C54.7137,27.909436 54.818534,27.9837079 54.8973578,28.0666072 C54.9761816,28.1495065 55.0368749,28.24735 55.0794398,28.3601405 L54.8997225,28.4023988 C54.8713459,28.3187972 54.8315405,28.2479861 54.7803051,28.1899634 C54.7290697,28.1319406 54.664041,28.0831568 54.5852173,28.0436106 C54.5142759,28.008019 54.4555531,27.9931397 54.4090471,27.9989722 C54.3625411,28.0048047 54.3392884,28.0266383 54.3392884,28.0644737 C54.3392884,28.1070386 54.3601764,28.1514119 54.401953,28.197595 C54.4437296,28.2437781 54.5197933,28.3047981 54.6301466,28.380657 C54.797253,28.494448 54.9154868,28.5963307 54.9848517,28.686308 C55.0542166,28.7762853 55.0888986,28.8709315 55.0888986,28.9702494 C55.0888986,29.0758732 55.0431815,29.1388534 54.9517459,29.1591917 C54.8603104,29.1795301 54.7341942,29.1493625 54.5733938,29.0686883 Z M56.7323657,28.5438573 C56.8758249,28.6158314 56.998394,28.7033363 57.1000767,28.8063746 C57.2017593,28.9094129 57.2872818,29.0319307 57.3566467,29.1739317 L57.1651059,29.250458 C57.1209646,29.1337236 57.0657888,29.037466 56.9995769,28.9616824 C56.9333649,28.8858987 56.8450836,28.8203255 56.7347304,28.7649608 C56.6259536,28.710387 56.5416134,28.6897494 56.4817074,28.7030473 C56.4218013,28.7163453 56.3918487,28.7568879 56.3918487,28.8246763 C56.3918487,28.8877353 56.4210131,28.9524195 56.4793427,29.0187309 C56.5376723,29.0850423 56.6417181,29.1691656 56.7914832,29.2711035 C56.9317895,29.3667194 57.0433234,29.4545996 57.1260884,29.5347468 C57.2088533,29.614894 57.2691526,29.6932281 57.306988,29.7697517 C57.3448234,29.8462752 57.3637408,29.9271006 57.3637408,30.0122302 C57.3637408,30.1036658 57.3377294,30.1710148 57.2857057,30.2142792 C57.233682,30.2575435 57.1607711,30.2741691 57.0669708,30.2641562 C56.9731706,30.2541434 56.8647895,30.2182915 56.7418245,30.1565994 C56.424953,29.9976236 56.2010969,29.7796917 56.0702494,29.5027973 L56.247602,29.4144233 C56.2980492,29.5343214 56.3630778,29.6363104 56.4426898,29.7203934 C56.5223018,29.8044764 56.6212241,29.8761765 56.7394598,29.9354958 C56.8513895,29.9916514 56.9392767,30.0164333 57.0031239,30.0098421 C57.0669712,30.0032509 57.0988943,29.9644852 57.0988943,29.8935438 C57.0988943,29.8367907 57.0701241,29.7766394 57.0125827,29.7130882 C56.9550414,29.649537 56.8545426,29.5683756 56.7110834,29.4696014 C56.5676241,29.3708272 56.4533314,29.2803805 56.3682017,29.1982587 C56.2830721,29.1161369 56.2211964,29.0362236 56.1825727,28.9585164 C56.1439491,28.8808092 56.1246375,28.8001802 56.1246375,28.716627 C56.1246375,28.6283444 56.1490725,28.5602045 56.1979433,28.5122053 C56.246814,28.4642061 56.3173602,28.442059 56.409584,28.4457632 C56.5018078,28.4494675 56.6094006,28.4821651 56.7323657,28.5438573 Z M58.31908,29.7182708 C58.4499274,29.7839176 58.556732,29.8753367 58.6394969,29.9925311 C58.7222619,30.1097254 58.7636437,30.239262 58.7636437,30.3811448 L58.7636437,31.1473079 L58.5106207,31.0203651 L58.5106207,30.3346019 C58.5106207,30.1265072 58.4262806,29.9801475 58.2575977,29.8955186 C58.1693151,29.8512269 58.0936455,29.8440039 58.0305865,29.8738494 C57.9675274,29.903695 57.9359984,29.9816756 57.9359984,30.1077936 L57.9359984,30.7320746 L57.6829754,30.6051319 L57.6829754,28.8907237 L57.9359984,29.0176665 L57.9359984,29.7389003 C57.9754103,29.6861555 58.0278273,29.658854 58.093251,29.6569949 C58.1586747,29.6551358 58.2339503,29.6755609 58.31908,29.7182708 Z M60.168276,31.6864889 C60.2029585,31.7038893 60.2321228,31.7153683 60.25577,31.7209262 L60.2392171,31.88288 C60.1966522,31.8804428 60.1477822,31.8653832 60.0926056,31.8377008 C60.0248172,31.8036911 59.9708237,31.7632025 59.9306236,31.7162338 C59.8904235,31.6692652 59.8640179,31.6110885 59.8514061,31.5417021 C59.8151472,31.5786875 59.7615478,31.5947548 59.6906065,31.5899044 C59.6196651,31.5850541 59.5400543,31.5604834 59.4517717,31.5161917 C59.336689,31.4584542 59.2436784,31.3849907 59.172737,31.2957989 C59.1017956,31.2066072 59.0663254,31.1123537 59.0663254,31.0130358 C59.0663254,30.9200238 59.1049485,30.8609727 59.1821958,30.8358807 C59.2594431,30.8107888 59.374524,30.8232024 59.5274421,30.873122 L59.8277591,30.9717689 L59.8277591,30.907922 C59.8277591,30.8354041 59.806477,30.7675805 59.7639122,30.7044489 C59.7213474,30.6413174 59.6622304,30.5907702 59.5865596,30.5528058 C59.4304886,30.4745043 59.3288075,30.4944307 59.2815132,30.6125857 L59.085243,30.4100693 C59.1136196,30.3297174 59.1715542,30.283902 59.2590486,30.2726217 C59.3465429,30.2613414 59.4541357,30.2877333 59.5818302,30.3517981 C59.7347483,30.4285178 59.8561351,30.5248882 59.9459942,30.6409123 C60.0358532,30.7569364 60.0807821,30.8835232 60.0807821,31.0206765 L60.0807821,31.5550989 C60.0807821,31.585052 60.087482,31.6104837 60.1008821,31.6313948 C60.1142821,31.6523059 60.1367465,31.6706705 60.168276,31.6864889 Z M59.5061598,31.3519376 C59.5912895,31.3946476 59.6661709,31.411722 59.7308064,31.4031616 C59.7954419,31.3946011 59.8277591,31.3564273 59.8277591,31.2886388 L59.8277591,31.1467568 L59.5700067,31.0694647 C59.48803,31.0441014 59.4273366,31.0357216 59.3879248,31.044325 C59.3485129,31.0529285 59.3288072,31.0808769 59.3288072,31.1281711 C59.3288072,31.1723124 59.3441776,31.2135234 59.3749189,31.2518054 C59.4056602,31.2900873 59.4494067,31.3234644 59.5061598,31.3519376 Z M61.1046976,31.1158273 C61.1598742,31.1435097 61.2032266,31.173142 61.2347561,31.2047253 L61.1945562,31.4162975 C61.1582973,31.3776121 61.1086391,31.3424514 61.0455801,31.3108144 C60.9951329,31.2855048 60.9474452,31.2749795 60.9025157,31.2792383 C60.8575861,31.283497 60.8205395,31.3051101 60.7913747,31.3440781 C60.7622099,31.3830462 60.7476278,31.4403647 60.7476278,31.5160356 L60.7476278,32.1426813 L60.4946048,32.0157385 L60.4946048,30.8333881 L60.7097925,30.9413488 L60.7310748,31.1648493 C60.7972868,31.0404206 60.9218265,31.0240801 61.1046976,31.1158273 Z M62.5306122,32.4105666 C62.5306122,32.4562844 62.5274593,32.498055 62.5211534,32.5358796 L61.6556729,32.1016643 C61.6698612,32.21283 61.7069078,32.3106331 61.7668138,32.3950766 C61.8267199,32.4795201 61.903966,32.5454687 61.9985545,32.5929241 C62.0758018,32.6316794 62.1400422,32.6501151 62.1912776,32.6482319 C62.2425131,32.6463486 62.2775891,32.624141 62.2965068,32.5816084 L62.5069652,32.7746902 C62.4186826,32.9132696 62.2492141,32.9196807 61.9985545,32.7939237 C61.8125304,32.7005946 61.6671028,32.5732453 61.5622672,32.4118721 C61.4574316,32.2504988 61.4050146,32.0736499 61.4050146,31.8813199 C61.4050146,31.6874135 61.455461,31.5617774 61.5563555,31.5044081 C61.6572499,31.4470387 61.7991305,31.4642273 61.9820016,31.5559746 C62.1554139,31.6429763 62.2902005,31.7634104 62.3863655,31.9172806 C62.4825304,32.0711509 62.5306122,32.2355779 62.5306122,32.4105666 Z M61.9820016,31.7569741 C61.8905661,31.7111005 61.8168669,31.700925 61.7609021,31.7264474 C61.7049372,31.7519697 61.6698612,31.8124063 61.6556729,31.9077588 L62.2941421,32.2280816 C62.2815303,32.1224363 62.2480307,32.0283833 62.1936423,31.9459198 C62.1392539,31.8634562 62.0687077,31.800475 61.9820016,31.7569741 Z" id="Landlord’s-Share" fill="#454545"></path>
                        <path d="M1.49497457,7.27996963 C1.31149711,7.17761047 1.1568836,7.04953312 1.03112939,6.89573373 C0.905375186,6.74193434 0.819822377,6.57429056 0.7744684,6.39279736 L0.916714253,6.38994749 C0.94351433,6.53533205 1.00948276,6.6756274 1.11462153,6.81083775 C1.21976029,6.9460481 1.34654337,7.05913205 1.49497457,7.15009298 L1.49497457,6.32754088 C1.35478955,6.22834782 1.23986017,6.13976455 1.15018299,6.06178841 C1.06050581,5.98381227 0.985775944,5.89581289 0.925991156,5.79778764 C0.866206369,5.69976238 0.836314423,5.59302811 0.836314423,5.47758163 C0.836314423,5.3786275 0.86259872,5.30007709 0.915168102,5.24192806 C0.967737484,5.18377903 1.04401348,5.15401708 1.14399839,5.15264133 C1.24398329,5.15126558 1.36097418,5.18212999 1.49497457,5.24523548 L1.49497457,4.93291306 L1.62794351,4.99962416 L1.62794351,5.31194658 C1.78874398,5.40086705 1.92119622,5.5080338 2.02530421,5.63345006 C2.1294122,5.75886632 2.21032661,5.90614475 2.26804985,6.07528977 L2.14435781,6.11218657 C2.09900383,5.95749344 2.03458153,5.82673523 1.95108898,5.71990801 C1.86759644,5.61308078 1.75988236,5.52141754 1.62794351,5.44491553 L1.62794351,6.28602144 C1.76812853,6.38521449 1.88254253,6.47353919 1.97118894,6.55099819 C2.05983535,6.62845719 2.13404984,6.716198 2.19383462,6.81422326 C2.25361941,6.91224851 2.28351136,7.02001354 2.28351136,7.13752157 C2.28351136,7.29419894 2.22424284,7.39124675 2.10570404,7.4286679 C1.98716524,7.46608906 1.82791332,7.43876027 1.62794351,7.34668073 L1.62794351,7.65900314 L1.49497457,7.59229204 L1.49497457,7.27996963 Z M1.49497457,5.37511213 C1.33623565,5.30165675 1.21151408,5.28031367 1.12080613,5.31108224 C1.03009817,5.34185081 0.984744878,5.41804951 0.984744878,5.53968063 C0.984744878,5.6221424 1.00742153,5.70051856 1.0527755,5.77481146 C1.09812948,5.84910436 1.15585186,5.91723268 1.22594437,5.97919848 C1.29603688,6.04116427 1.38571271,6.11192395 1.49497457,6.19147963 L1.49497457,5.37511213 Z M1.62794351,7.21989638 C1.7804978,7.2902489 1.90367323,7.31442392 1.9974735,7.29242219 C2.09127377,7.27042046 2.1381732,7.19860511 2.1381732,7.07697399 C2.1381732,6.99451221 2.11549655,6.91562067 2.07014258,6.840297 C2.0247886,6.76497333 1.96706622,6.69581425 1.89697371,6.63281769 C1.8268812,6.56982112 1.73720537,6.49957682 1.62794351,6.42208269 L1.62794351,7.21989638 Z M4.0337538,6.51585976 L4.0337538,6.65810561 C3.78224538,6.79786198 3.59413228,6.99158132 3.46940884,7.23926946 C3.34468541,7.4869576 3.27407857,7.79632198 3.25758622,8.16737186 L3.09678656,8.08669797 C3.12977127,7.35490593 3.38539894,6.8502708 3.86367724,6.57277746 L2.56491076,5.92118067 L2.56491076,5.77893482 L4.0337538,6.51585976 Z M5.67267341,7.33811286 L5.67267341,7.48035871 C5.42116499,7.62011507 5.23305188,7.81383441 5.10832845,8.06152256 C4.98360501,8.3092107 4.91299817,8.61857507 4.89650582,8.98962495 L4.73570616,8.90895107 C4.76869087,8.17715902 5.02431854,7.6725239 5.50259684,7.39503056 L4.20383036,6.74343377 L4.20383036,6.60118791 L5.67267341,7.33811286 Z M6.72405579,7.83467296 C6.87661008,7.91121011 7.00081627,8.00702449 7.09667808,8.12211897 C7.1925399,8.23721345 7.266239,8.3746874 7.31777761,8.53454493 L7.17553176,8.53121019 C7.14460859,8.41468023 7.09100924,8.30790555 7.0147321,8.21088296 C6.93845496,8.11386037 6.83847155,8.0343217 6.71477889,7.97226455 C6.57871696,7.90400169 6.4632722,7.88937434 6.36844116,7.92838205 C6.27361012,7.96738977 6.2024879,8.0471522 6.15507238,8.16767174 C6.10765686,8.28819127 6.08394946,8.4350337 6.08394946,8.60820343 C6.08394946,8.66386513 6.08910324,8.73551151 6.09941096,8.82314471 L6.10868787,8.82779898 C6.11693404,8.73092044 6.15094902,8.66037158 6.2107338,8.61615027 C6.27051859,8.57192896 6.3442177,8.55272788 6.43183334,8.55854645 C6.51944897,8.56436503 6.60964019,8.59054535 6.70240969,8.63708821 C6.90650258,8.73948251 7.06781601,8.87865191 7.18635481,9.05460061 C7.30489362,9.2305493 7.36416213,9.41747497 7.36416213,9.61538323 C7.36416213,9.81122995 7.30334748,9.93687862 7.18171636,9.99233302 C7.06008524,10.0477874 6.89619492,10.0238007 6.69004048,9.92037211 C6.44883979,9.79936067 6.26381895,9.61325143 6.13497243,9.3620388 C6.0061259,9.11082617 5.9417036,8.82133141 5.9417036,8.49354585 C5.9417036,8.26883751 5.9752032,8.09443903 6.04220339,7.97034517 C6.10920358,7.84625131 6.20197169,7.77374107 6.32051049,7.75281227 C6.4390493,7.73188348 6.57356305,7.7591701 6.72405579,7.83467296 Z M6.69313278,8.77777211 C6.59211711,8.7270921 6.50295665,8.70503656 6.42564873,8.71160482 C6.34834082,8.71817308 6.28804155,8.74821994 6.24474912,8.80174631 C6.20145668,8.85527268 6.17981079,8.926358 6.17981079,9.01500441 C6.17981079,9.16343561 6.22671022,9.30807918 6.32051049,9.44893945 C6.41431076,9.58979972 6.53645544,9.69797967 6.68694818,9.77348253 C6.84774864,9.85415682 6.97401634,9.87215258 7.06575507,9.82747035 C7.15749379,9.78278811 7.20336247,9.68314057 7.20336247,9.52852474 C7.20336247,9.378032 7.15749379,9.23493633 7.06575507,9.09923343 C6.97401634,8.96353053 6.84981016,8.85637783 6.69313278,8.77777211 Z" id="$776" fill="#454545"></path>
                        <path d="M56.7121979,34.9826908 C56.5287205,34.8803316 56.374107,34.7522543 56.2483528,34.5984549 C56.1225986,34.4446555 56.0370458,34.2770117 55.9916918,34.0955185 L56.1339376,34.0926686 C56.1607377,34.2380532 56.2267061,34.3783485 56.3318449,34.5135589 C56.4369837,34.6487692 56.5637668,34.7618532 56.7121979,34.8528141 L56.7121979,34.030262 C56.5720129,33.931069 56.4570836,33.8424857 56.3674064,33.7645096 C56.2777292,33.6865334 56.2029993,33.598534 56.1432145,33.5005088 C56.0834298,33.4024835 56.0535378,33.2957493 56.0535378,33.1803028 C56.0535378,33.0813486 56.0798221,33.0027982 56.1323915,32.9446492 C56.1849609,32.8865002 56.2612369,32.8567382 56.3612218,32.8553625 C56.4612067,32.8539867 56.5781976,32.8848511 56.7121979,32.9479566 L56.7121979,32.6356342 L56.8451669,32.7023453 L56.8451669,33.0146677 C57.0059674,33.1035882 57.1384196,33.210755 57.2425276,33.3361712 C57.3466356,33.4615875 57.42755,33.6088659 57.4852732,33.7780109 L57.3615812,33.8149077 C57.3162272,33.6602146 57.2518049,33.5294564 57.1683124,33.4226292 C57.0848198,33.3158019 56.9771057,33.2241387 56.8451669,33.1476367 L56.8451669,33.9887426 C56.9853519,34.0879356 57.0997659,34.1762603 57.1884123,34.2537193 C57.2770587,34.3311783 57.3512732,34.4189192 57.411058,34.5169444 C57.4708428,34.6149697 57.5007347,34.7227347 57.5007347,34.8402427 C57.5007347,34.9969201 57.4414662,35.0939679 57.3229274,35.1313891 C57.2043886,35.1688102 57.0451367,35.1414814 56.8451669,35.0494019 L56.8451669,35.3617243 L56.7121979,35.2950132 L56.7121979,34.9826908 Z M56.7121979,33.0778333 C56.553459,33.0043779 56.4287375,32.9830348 56.3380295,33.0138034 C56.2473216,33.044572 56.2019683,33.1207707 56.2019683,33.2424018 C56.2019683,33.3248635 56.2246449,33.4032397 56.2699989,33.4775326 C56.3153529,33.5518255 56.3730752,33.6199538 56.4431677,33.6819196 C56.5132603,33.7438854 56.6029361,33.8146451 56.7121979,33.8942008 L56.7121979,33.0778333 Z M56.8451669,34.9226175 C56.9977212,34.99297 57.1208966,35.0171451 57.2146969,34.9951433 C57.3084972,34.9731416 57.3553966,34.9013263 57.3553966,34.7796951 C57.3553966,34.6972334 57.3327199,34.6183418 57.287366,34.5430181 C57.242012,34.4676945 57.1842896,34.3985354 57.1141971,34.3355388 C57.0441046,34.2725423 56.9544288,34.202298 56.8451669,34.1248038 L56.8451669,34.9226175 Z M58.5119172,33.8477913 L58.5119172,35.8887101 L58.3573022,35.811139 L58.3573022,34.2649884 C58.3573022,34.2052037 58.3593637,34.1124391 58.3634868,33.9866919 C58.2954558,34.0308991 58.214026,34.0585908 58.119195,34.0697677 C58.0243639,34.0809445 57.926442,34.0745931 57.8254264,34.0507132 L57.7852264,33.8913911 C57.8841806,33.9162983 57.9939562,33.9188046 58.1145565,33.8989101 C58.2351569,33.8790156 58.3212251,33.8387051 58.3727637,33.7779774 L58.5119172,33.8477913 Z M59.6931762,34.4095111 C59.9364385,34.5315568 60.1235208,34.7192157 60.2544289,34.9724934 C60.385337,35.2257711 60.45079,35.5152676 60.45079,35.8409916 C60.45079,36.183208 60.3843062,36.4106342 60.2513366,36.5232771 C60.118367,36.6359201 59.9333462,36.6327702 59.6962685,36.5138273 C59.5189757,36.4248787 59.3726083,36.3122768 59.2571618,36.1760181 C59.1417153,36.0397594 59.0613163,35.8891319 59.0159623,35.724131 L59.1705774,35.7213022 C59.199439,35.8574134 59.2556152,35.9804268 59.3391078,36.0903464 C59.4226003,36.2002659 59.540622,36.2934929 59.6931762,36.37003 C59.9117,36.4796643 60.0694057,36.4711717 60.1662983,36.3445518 C60.2631909,36.217932 60.3116365,36.0103171 60.3116365,35.7217008 C60.3116365,35.6701622 60.3054519,35.5959372 60.2930827,35.4990235 L60.2838058,35.4943693 C60.2755596,35.599494 60.2415446,35.6746813 60.1817598,35.7199333 C60.121975,35.7651854 60.0467298,35.7836108 59.9560218,35.77521 C59.8653139,35.7668092 59.7725458,35.7388207 59.6777147,35.6912436 C59.4756834,35.5898836 59.3138546,35.4504556 59.1922235,35.2729555 C59.0705923,35.0954553 59.0097777,34.907754 59.0097777,34.7098457 C59.0097777,34.513999 59.0716231,34.3888674 59.1953158,34.3344473 C59.3190084,34.2800272 59.4849603,34.3050482 59.6931762,34.4095111 Z M59.6962685,34.5564007 C59.5334065,34.4746921 59.4050773,34.4556621 59.3112771,34.49931 C59.2174768,34.542958 59.1705774,34.6420884 59.1705774,34.7967042 C59.1705774,34.9471969 59.2169614,35.0905512 59.3097309,35.2267712 C59.4025004,35.3629913 59.5292835,35.4714368 59.6900839,35.5521111 C59.7910996,35.6027911 59.8812908,35.6253638 59.9606603,35.6198298 C60.0400298,35.6142958 60.1018752,35.5850247 60.1461984,35.5320154 C60.1905216,35.4790062 60.2126828,35.4081795 60.2126828,35.319533 C60.2126828,35.1711018 60.1647527,35.0259411 60.0688908,34.8840466 C59.973029,34.742152 59.8488228,34.6329378 59.6962685,34.5564007 Z M62.3432783,37.229568 L61.9505561,37.0325375 L61.9505561,37.6138901 L61.795941,37.5363191 L61.795941,36.9549665 L60.7816662,36.4461004 L60.7816662,36.328593 L61.7526488,35.4736804 L61.9505561,35.5729714 L61.9505561,36.8995686 L62.3432783,37.096599 L62.3432783,37.229568 Z M60.9486505,36.3969082 L61.795941,36.8219975 L61.795941,35.8881226 L61.8021256,35.6283798 L61.795941,35.625277 C61.7567717,35.6736565 61.7000801,35.7348899 61.6258645,35.808979 L60.9486505,36.3969082 Z" id="$194" fill="#454545"></path>
                        <path d="M11.4316324,17.7431732 L51.267747,37.7291252 C51.6695896,37.9307314 51.9953473,38.4199232 51.9953473,38.8217657 C51.9953473,39.2236082 51.6695896,39.3859319 51.267747,39.1843257 L11.4316324,19.1983737 C11.0297898,18.9967676 10.7040321,18.5075758 10.7040321,18.1057332 C10.7040321,17.7038907 11.0297898,17.5415671 11.4316324,17.7431732 Z" id="Rectangle-4" fill="#F6DF71"></path>
                        <path d="M11.4316324,17.7431732 L42.3109643,33.2354683 C42.7128068,33.4370745 43.0385645,33.9262663 43.0385645,34.3281088 C43.0385645,34.7299514 42.7128068,34.892275 42.3109643,34.6906689 L11.4316324,19.1983737 C11.0297898,18.9967676 10.7040321,18.5075758 10.7040321,18.1057332 C10.7040321,17.7038907 11.0297898,17.5415671 11.4316324,17.7431732 Z" id="Rectangle-4" fill="#68E2C2"></path>
                        <g id="Oval-5">
                            <use fill="black" fill-opacity="1" filter="url(#filter-26)" xlink:href="#path-25"></use>
                            <use fill="#FFFFFF" fill-rule="evenodd" xlink:href="#path-25"></use>
                        </g>
                        <path d="M3.45031263,13.7566693 C3.57837092,13.8209167 3.68041584,13.9031267 3.75645044,14.0033018 C3.83248505,14.103477 3.87050179,14.2069206 3.87050179,14.3136358 C3.87050179,14.3816668 3.85416126,14.4331616 3.82147972,14.4681219 C3.78879818,14.5030821 3.7431114,14.519178 3.68441802,14.5164101 C3.76178657,14.5865738 3.82214647,14.6602091 3.86549953,14.7393189 C3.9088526,14.8184288 3.93052881,14.8986677 3.93052881,14.9800381 C3.93052881,15.0560727 3.91085348,15.112564 3.87150224,15.1495138 C3.83215099,15.1864636 3.77612633,15.2020417 3.70342657,15.1962485 C3.63072682,15.1904554 3.54635635,15.1634664 3.45031263,15.1152809 C3.35426892,15.0670953 3.27023193,15.0095935 3.19819914,14.9427737 C3.12616635,14.8759539 3.07014169,14.8041602 3.03012348,14.7273904 C2.99010526,14.6506207 2.97009645,14.5742196 2.97009645,14.498185 C2.97009645,14.4181486 2.99177266,14.3596598 3.03512573,14.3227168 C3.07847879,14.2857738 3.13950566,14.2730389 3.21820815,14.2845115 C3.15951476,14.227719 3.11349451,14.1659467 3.08014599,14.097192 C3.04679748,14.0284372 3.03012348,13.9600453 3.03012348,13.8920144 C3.03012348,13.7852991 3.06814021,13.7200018 3.14417482,13.6961205 C3.22020943,13.6722392 3.32225434,13.6924219 3.45031263,13.7566693 Z M3.45031263,13.9067368 C3.37161014,13.8672515 3.30958284,13.854807 3.26422886,13.869403 C3.21887489,13.8839991 3.19619824,13.924645 3.19619824,13.991342 C3.19619824,14.0553712 3.21954185,14.1181052 3.26622976,14.179546 C3.31291768,14.2409869 3.37427802,14.29078 3.45031263,14.3289269 C3.52634724,14.3670738 3.58770758,14.3788502 3.6343955,14.3642564 C3.68108342,14.3496626 3.70442702,14.3103518 3.70442702,14.2463226 C3.70442702,14.1796256 3.68175038,14.1162257 3.6363964,14.0561211 C3.59104242,13.9960165 3.52901512,13.9462222 3.45031263,13.9067368 Z M3.45031263,14.9652133 C3.54769029,15.0140681 3.62439072,15.0308729 3.68041622,15.015628 C3.73644172,15.0003832 3.76445405,14.9554111 3.76445405,14.8807105 C3.76445405,14.8046758 3.73610824,14.7307617 3.67941577,14.6589658 C3.62272329,14.5871698 3.54635635,14.52718 3.45031263,14.4789944 C3.35560286,14.4314781 3.27956939,14.4153415 3.22220995,14.4305841 C3.16485051,14.4458266 3.13617122,14.4907976 3.13617122,14.5654982 C3.13617122,14.6401989 3.16451703,14.7134461 3.2212095,14.785242 C3.27790197,14.8570379 3.35426892,14.9170278 3.45031263,14.9652133 Z M4.68887019,15.7366706 C4.52879733,15.6563613 4.4067436,15.5371009 4.32270535,15.3788857 C4.2386671,15.2206706 4.19664861,15.0308488 4.19664861,14.8094146 C4.19664861,14.5879805 4.2386671,14.4403204 4.32270535,14.36643 C4.4067436,14.2925395 4.52879733,14.2957488 4.68887019,14.3760581 C4.84894305,14.4563673 4.97099677,14.5756278 5.05503502,14.7338429 C5.13907327,14.8920581 5.18109177,15.0818799 5.18109177,15.3033141 C5.18109177,15.5247482 5.13907327,15.6724083 5.05503502,15.7462987 C4.97099677,15.8201892 4.84894305,15.8169798 4.68887019,15.7366706 Z M4.68887019,15.5926057 C4.79425149,15.645476 4.87495368,15.6402779 4.93097918,15.5770112 C4.98700468,15.5137445 5.01501701,15.3947398 5.01501701,15.2199936 C5.01501701,15.0452474 4.98700468,14.8981349 4.93097918,14.7786518 C4.87495368,14.6591686 4.79425149,14.5729932 4.68887019,14.5201229 C4.58348889,14.4672527 4.5027867,14.4724508 4.4467612,14.5357175 C4.3907357,14.5989842 4.36272337,14.7179889 4.36272337,14.8927351 C4.36272337,15.0674813 4.3907357,15.2145937 4.4467612,15.3340769 C4.5027867,15.4535601 4.58348889,15.5397355 4.68887019,15.5926057 Z M5.70932956,14.888027 C5.80670722,14.9368818 5.88407461,15.0087119 5.94143405,15.1035194 C5.99879349,15.198327 6.02747278,15.3010877 6.02747278,15.4118048 C6.02747278,15.5225218 5.99879349,15.5965055 5.94143405,15.6337581 C5.88407461,15.6710107 5.80670722,15.6652097 5.70932956,15.6163549 C5.61195191,15.5675001 5.53458452,15.49567 5.47722508,15.4008625 C5.41986564,15.3060549 5.39118635,15.2032942 5.39118635,15.0925771 C5.39118635,14.98186 5.41986564,14.9078763 5.47722508,14.8706238 C5.53458452,14.8333712 5.61195191,14.8391722 5.70932956,14.888027 Z M6.51169076,15.3105841 L6.66375922,15.3868775 L5.82338091,16.2858506 L5.67131245,16.2095571 L6.51169076,15.3105841 Z M5.70932956,15.0140837 C5.65330406,14.9859755 5.60995165,14.9849012 5.57927102,15.0108607 C5.54859038,15.0368203 5.5332503,15.0878166 5.5332503,15.1638512 C5.5332503,15.2398858 5.54859038,15.3062745 5.57927102,15.3630193 C5.60995165,15.419764 5.65330406,15.4621899 5.70932956,15.4902981 C5.76535506,15.5184064 5.80870748,15.5194807 5.83938811,15.4935211 C5.87006874,15.4675616 5.88540883,15.4165653 5.88540883,15.3405307 C5.88540883,15.2644961 5.87006874,15.1981074 5.83938811,15.1413626 C5.80870748,15.0846178 5.76535506,15.042192 5.70932956,15.0140837 Z M6.6257421,15.9800798 C6.72311976,16.0289346 6.80048715,16.1007647 6.85784659,16.1955722 C6.91520603,16.2903797 6.94388532,16.3931405 6.94388532,16.5038576 C6.94388532,16.6145746 6.91520603,16.6885583 6.85784659,16.7258109 C6.80048715,16.7630635 6.72311976,16.7572625 6.6257421,16.7084077 C6.52836445,16.6595529 6.45099706,16.5877228 6.39363762,16.4929152 C6.33627817,16.3981077 6.30759888,16.295347 6.30759888,16.1846299 C6.30759888,16.0739128 6.33627817,15.9999291 6.39363762,15.9626765 C6.45099706,15.925424 6.52836445,15.931225 6.6257421,15.9800798 Z M6.6257421,16.1061365 C6.5697166,16.0780283 6.52636419,16.076954 6.49568355,16.1029135 C6.46500292,16.1288731 6.44966284,16.1798694 6.44966284,16.255904 C6.44966284,16.3319386 6.46500292,16.3983273 6.49568355,16.4550721 C6.52636419,16.5118168 6.5697166,16.5542427 6.6257421,16.5823509 C6.6817676,16.6104592 6.72512002,16.6115335 6.75580065,16.5855739 C6.78648128,16.5596144 6.80182137,16.5086181 6.80182137,16.4325835 C6.80182137,16.3565489 6.78648128,16.2901602 6.75580065,16.2334154 C6.72512002,16.1766706 6.6817676,16.1342448 6.6257421,16.1061365 Z" id="80%" fill="#454545"></path>
                        <path d="M56.3717488,41.516128 C56.5544986,41.4730864 56.6945603,41.4323071 56.7919379,41.3937888 C56.8893156,41.3552705 56.9590129,41.3108697 57.0010321,41.260585 C57.0430512,41.2103004 57.0640604,41.1458078 57.0640604,41.0671053 C57.0640604,40.9884028 57.038716,40.9119927 56.9880262,40.8378726 C56.9373365,40.7637525 56.8693065,40.7052775 56.7839343,40.6624459 C56.6945603,40.6176066 56.6221951,40.6106469 56.5668366,40.6415667 C56.5114781,40.6724865 56.4791305,40.7356258 56.4697929,40.8309866 L56.3297299,40.6766786 C56.3470711,40.566658 56.3954257,40.4958759 56.4747952,40.4643301 C56.5541646,40.4327843 56.6592109,40.4498041 56.789937,40.51539 C56.8779771,40.55956 56.955678,40.6158839 57.023042,40.6843631 C57.090406,40.7528424 57.1420954,40.8274633 57.1781118,40.9082281 C57.2141282,40.9889929 57.2321361,41.0700592 57.2321361,41.1514296 C57.2321361,41.2368018 57.2117938,41.3086321 57.1711086,41.3669226 C57.1304234,41.4252132 57.0640609,41.4746219 56.972019,41.5151502 C56.8799771,41.5556785 56.7559225,41.5888151 56.5998515,41.6145609 C56.6878915,41.6567301 56.7539206,41.6878563 56.7979406,41.7099413 L57.2601487,41.9418331 L57.2601487,42.0919007 L56.3717488,41.6461866 L56.3717488,41.516128 Z M58.0124874,42.4893613 C57.8524145,42.409052 57.7303608,42.2897916 57.6463226,42.1315764 C57.5622843,41.9733613 57.5202658,41.7835395 57.5202658,41.5621053 C57.5202658,41.3406712 57.5622843,41.1930111 57.6463226,41.1191207 C57.7303608,41.0452302 57.8524145,41.0484395 58.0124874,41.1287488 C58.1725603,41.209058 58.294614,41.3283185 58.3786522,41.4865336 C58.4626905,41.6447488 58.504709,41.8345706 58.504709,42.0560047 C58.504709,42.2774389 58.4626905,42.4250989 58.3786522,42.4989894 C58.294614,42.5728799 58.1725603,42.5696705 58.0124874,42.4893613 Z M58.0124874,42.3452964 C58.1178687,42.3981667 58.1985709,42.3929686 58.2545964,42.3297019 C58.3106219,42.2664352 58.3386342,42.1474305 58.3386342,41.9726843 C58.3386342,41.7979381 58.3106219,41.6508256 58.2545964,41.5313425 C58.1985709,41.4118593 58.1178687,41.3256839 58.0124874,41.2728136 C57.9071061,41.2199434 57.8264039,41.2251415 57.7703784,41.2884082 C57.7143529,41.3516749 57.6863406,41.4706796 57.6863406,41.6454258 C57.6863406,41.820172 57.7143529,41.9672844 57.7703784,42.0867676 C57.8264039,42.2062508 57.9071061,42.2924262 58.0124874,42.3452964 Z M59.0329468,41.6407177 C59.1303244,41.6895725 59.2076918,41.7614026 59.2650513,41.8562101 C59.3224107,41.9510176 59.35109,42.0537784 59.35109,42.1644955 C59.35109,42.2752125 59.3224107,42.3491962 59.2650513,42.3864488 C59.2076918,42.4237014 59.1303244,42.4179004 59.0329468,42.3690456 C58.9355691,42.3201908 58.8582017,42.2483607 58.8008423,42.1535531 C58.7434828,42.0587456 58.7148036,41.9559849 58.7148036,41.8452678 C58.7148036,41.7345507 58.7434828,41.660567 58.8008423,41.6233145 C58.8582017,41.5860619 58.9355691,41.5918629 59.0329468,41.6407177 Z M59.835308,42.0632748 L59.9873764,42.1395682 L59.1469981,43.0385412 L58.9949297,42.9622478 L59.835308,42.0632748 Z M59.0329468,41.7667744 C58.9769213,41.7386662 58.9335689,41.7375919 58.9028882,41.7635514 C58.8722076,41.789511 58.8568675,41.8405073 58.8568675,41.9165419 C58.8568675,41.9925765 58.8722076,42.0589652 58.9028882,42.11571 C58.9335689,42.1724547 58.9769213,42.2148806 59.0329468,42.2429888 C59.0889723,42.2710971 59.1323247,42.2721714 59.1630053,42.2462118 C59.193686,42.2202523 59.209026,42.169256 59.209026,42.0932214 C59.209026,42.0171868 59.193686,41.9507981 59.1630053,41.8940533 C59.1323247,41.8373085 59.0889723,41.7948827 59.0329468,41.7667744 Z M59.9493593,42.7327705 C60.046737,42.7816253 60.1241044,42.8534554 60.1814638,42.9482629 C60.2388232,43.0430704 60.2675025,43.1458312 60.2675025,43.2565483 C60.2675025,43.3672653 60.2388232,43.441249 60.1814638,43.4785016 C60.1241044,43.5157542 60.046737,43.5099531 59.9493593,43.4610984 C59.8519817,43.4122436 59.7746143,43.3404135 59.7172548,43.2456059 C59.6598954,43.1507984 59.6312161,43.0480376 59.6312161,42.9373206 C59.6312161,42.8266035 59.6598954,42.7526198 59.7172548,42.7153672 C59.7746143,42.6781147 59.8519817,42.6839157 59.9493593,42.7327705 Z M59.9493593,42.8588272 C59.8933338,42.830719 59.8499814,42.8296447 59.8193008,42.8556042 C59.7886201,42.8815638 59.77328,42.9325601 59.77328,43.0085947 C59.77328,43.0846293 59.7886201,43.151018 59.8193008,43.2077627 C59.8499814,43.2645075 59.8933338,43.3069334 59.9493593,43.3350416 C60.0053848,43.3631498 60.0487372,43.3642242 60.0794179,43.3382646 C60.1100985,43.3123051 60.1254386,43.2613088 60.1254386,43.1852742 C60.1254386,43.1092395 60.1100985,43.0428509 60.0794179,42.9861061 C60.0487372,42.9293613 60.0053848,42.8869355 59.9493593,42.8588272 Z" id="20%" fill="#454545"></path>
                    </g>
                    <g id="Group-16" transform="translate(10.381313, 0.497311)">
                        <path d="M36.361808,46.2870856 L27.7577254,33.4431236 C29.3134871,32.6046478 30.2710635,30.8869702 30.2750041,28.4672103 L42.3881963,34.5444515 C42.3842031,40.2896013 40.0868576,44.3475957 36.361808,46.2870856 Z M21.2480111,45.063511 C9.57260656,39.2059098 0.107821105,24.9926003 0.107821105,13.3171957 C0.107821105,1.64179119 9.57260656,-3.07447024 21.2480111,2.78313101 C32.9234156,8.64073225 42.3882011,22.8540417 42.3882011,34.5294463 C42.3882011,46.2048508 32.9234156,50.9211123 21.2480111,45.063511 Z M21.2480111,32.9503262 C26.2334884,35.4515619 30.2750163,33.4376861 30.2750163,28.4522088 C30.2750163,23.4667315 26.2334884,17.3975515 21.2480111,14.8963158 C16.2625338,12.3950802 12.2210059,14.4089559 12.2210059,19.3944332 C12.2210059,24.3799105 16.2625338,30.4490906 21.2480111,32.9503262 Z" id="Combined-Shape" fill="#68E2C2"></path>
                        <path d="M36.361808,46.2870856 L27.7577254,33.4431236 C29.3134871,32.6046478 30.2710635,30.8869702 30.2750041,28.4672103 L42.3881963,34.5444515 C42.3842031,40.2896013 40.0868576,44.3475957 36.361808,46.2870856 Z" id="Combined-Shape" fill="#F6DF71"></path>
                        <path d="M17.0648461,21.49554 C16.9185925,21.3723047 16.7856367,21.2549108 16.6659746,21.1433546 C16.5463126,21.0317985 16.4432718,20.9177794 16.3568492,20.801294 C16.2704266,20.6848086 16.2031177,20.5637872 16.1549205,20.4382261 C16.1067233,20.312665 16.0826251,20.1767597 16.0826251,20.0305061 C16.0826251,19.8044777 16.1524269,19.6492046 16.2920326,19.5646819 C16.4316383,19.4801592 16.6310721,19.4746823 16.8903399,19.548251 L16.8903399,19.1443936 C16.9202554,19.1527544 16.9667899,19.1677913 17.0299449,19.1895046 C17.0930999,19.2112178 17.1579158,19.2387505 17.2243948,19.2721032 C17.3540286,19.3371411 17.4554075,19.4104396 17.5285343,19.4920009 C17.6016611,19.5735622 17.6382239,19.687468 17.6382239,19.8337216 L17.6382239,19.8985382 C17.8443086,20.0285233 18.0096724,20.1646694 18.1343204,20.3069806 C18.2589684,20.4492917 18.3212914,20.590248 18.3212914,20.7298537 C18.3212914,20.8162763 18.301348,20.8802273 18.2614607,20.9217087 C18.2215733,20.96319 18.1733768,20.991361 18.1168698,21.0062224 C18.0437429,20.9229991 17.945688,20.8330868 17.822702,20.7364828 C17.699716,20.6398788 17.5650982,20.55489 17.4188446,20.4815139 C17.2692671,20.4064702 17.1595785,20.3722133 17.0897756,20.3787422 C17.0199728,20.3852711 16.9850718,20.4201126 16.9850718,20.4832675 C16.9850718,20.5331267 17.0066772,20.5846839 17.0498885,20.6379407 C17.0930998,20.6911975 17.1579157,20.7528 17.2443383,20.8227502 L17.5085907,21.040087 C17.8210416,21.2965633 18.0611931,21.5441874 18.2290524,21.7829666 C18.3969116,22.0217458 18.48084,22.2740895 18.48084,22.5400051 C18.48084,22.7660334 18.4093762,22.9221348 18.2664466,23.0083137 C18.1235169,23.0944927 17.9141115,23.0966288 17.6382239,23.0147219 L17.6382239,23.4135934 C17.6083084,23.4052325 17.5617739,23.3901957 17.4986189,23.3684824 C17.4354639,23.3467691 17.370648,23.3192365 17.3041691,23.2858837 C17.1745352,23.2208459 17.0731563,23.1475474 17.0000295,23.0659861 C16.9269027,22.9844248 16.8903399,22.870519 16.8903399,22.7242654 L16.8903399,22.6744064 C16.7706778,22.6010757 16.6618202,22.524856 16.5637638,22.4457452 C16.4657074,22.3666344 16.3809481,22.2858854 16.3094832,22.203496 C16.2380184,22.1211065 16.1823431,22.0383297 16.1424558,21.9551631 C16.1025684,21.8719964 16.0826251,21.790527 16.0826251,21.7107523 C16.0826251,21.6143579 16.1108782,21.5462661 16.1673853,21.5064751 C16.2238923,21.4666841 16.2853844,21.4451835 16.3518633,21.4419729 C16.4449338,21.5617936 16.5587772,21.6820633 16.6933971,21.8027858 C16.8280169,21.9235083 16.9750993,22.0238914 17.1346487,22.103938 C17.297522,22.1856522 17.4121964,22.2182557 17.4786753,22.2017493 C17.5451543,22.1852428 17.5783932,22.1437508 17.5783932,22.0772719 C17.5783932,22.0107929 17.551802,21.9467626 17.4986189,21.885179 C17.4454358,21.8235953 17.3706481,21.7520041 17.2742537,21.6704031 L17.0648461,21.49554 Z M20.8142383,21.5468033 C20.8707454,21.6117165 20.9214348,21.687837 20.9663081,21.7751671 C21.0111814,21.8624972 21.0336177,21.954358 21.0336177,22.0507525 C21.0336177,22.1039356 21.0286318,22.1554475 21.01866,22.2052897 C21.0086881,22.2551319 20.9920687,22.3008071 20.968801,22.3423168 L19.9317351,24.1703723 C19.8851999,24.1503493 19.8411583,24.1299154 19.7996089,24.1090699 L19.6824404,24.050286 C19.5328629,23.9752423 19.4115407,23.8861213 19.3184702,23.7829203 C19.2253997,23.6797194 19.1788651,23.5583179 19.1788651,23.4187121 C19.1788651,23.3489093 19.1954846,23.2816287 19.2287241,23.2168684 C19.2619635,23.1521081 19.3068361,23.0773969 19.3633432,22.9927326 L20.0912837,21.8671613 L18.8697397,21.2543073 C18.8497961,21.2077381 18.8298527,21.1495359 18.809909,21.0796991 C18.7899653,21.0098622 18.7799936,20.9417054 18.7799936,20.8752264 C18.7799936,20.7489165 18.8082468,20.673346 18.8647538,20.6485127 C18.9212609,20.6236794 18.9927247,20.632942 19.0791473,20.6763005 L20.8142383,21.5468033 Z M23.2174392,22.7524996 C23.2739463,22.8174128 23.3246357,22.8935334 23.3695089,22.9808634 C23.4143822,23.0681935 23.4368185,23.1600543 23.4368185,23.2564488 C23.4368185,23.3096319 23.4318327,23.3611438 23.4218608,23.410986 C23.411889,23.4608282 23.3952695,23.5065034 23.3720019,23.5480131 L22.334936,25.3760686 C22.2884007,25.3560456 22.2443591,25.3356117 22.2028098,25.3147662 L22.0856413,25.2559823 C21.9360637,25.1809386 21.8147415,25.0918176 21.721671,24.9886166 C21.6286005,24.8854157 21.582066,24.7640142 21.582066,24.6244084 C21.582066,24.5546056 21.5986855,24.487325 21.6319249,24.4225647 C21.6651644,24.3578044 21.710037,24.2830932 21.7665441,24.1984289 L22.4944846,23.0728576 L21.2729406,22.4600036 C21.2529969,22.4134344 21.2330535,22.3552322 21.2131098,22.2853954 C21.1931662,22.2155585 21.1831945,22.1474017 21.1831945,22.0809228 C21.1831945,21.9546128 21.2114476,21.8790423 21.2679547,21.854209 C21.3244618,21.8293758 21.3959255,21.8386383 21.4823481,21.8819969 L23.2174392,22.7524996 Z M25.8948642,24.4647315 C25.8948642,24.5345344 25.8790757,24.5939221 25.8474982,24.6428965 C25.8159207,24.6918709 25.7785269,24.7221377 25.7353156,24.7336979 C25.645569,24.6487843 25.551669,24.5709282 25.4536126,24.5001272 C25.3555562,24.4293262 25.26498,24.3730811 25.1818814,24.3313902 C24.9824446,24.2313319 24.8287144,24.2065561 24.7206862,24.2570622 C24.6126579,24.3075682 24.5403632,24.4217039 24.5037998,24.5994727 C24.5702787,24.5862903 24.658362,24.5881023 24.7680522,24.604909 C24.8777424,24.6217157 24.9907549,24.6593021 25.107093,24.7176695 C25.412896,24.8710922 25.6563714,25.0813281 25.8375264,25.3483835 C26.0186815,25.6154389 26.1092576,25.9134974 26.1092576,26.2425681 C26.1092576,26.3854978 26.0843284,26.5092704 26.0344692,26.6138897 C25.98461,26.718509 25.9098224,26.7948312 25.810104,26.8428584 C25.7103856,26.8908857 25.5865705,26.9068787 25.4386549,26.8908378 C25.2907393,26.874797 25.1187277,26.8175821 24.9226149,26.7191914 C24.5303893,26.5224101 24.2220979,26.2364451 23.9977316,25.8612878 C23.7733652,25.4861305 23.6611837,25.0559103 23.6611837,24.5706142 C23.6611837,24.2947267 23.6952537,24.0691753 23.7633946,23.8939533 C23.8315355,23.7187313 23.9279284,23.5925875 24.0525764,23.5155183 C24.1772244,23.438449 24.3259687,23.4083719 24.4988139,23.4252862 C24.6716591,23.4422005 24.8627831,23.5031874 25.0721917,23.6082486 C25.3381074,23.7416596 25.541696,23.8803638 25.6829637,24.0243652 C25.8242314,24.1683667 25.8948642,24.315154 25.8948642,24.4647315 Z M24.917629,25.2707808 C24.854474,25.2390956 24.7871651,25.2186221 24.7157003,25.2093594 C24.6442355,25.2000968 24.5868982,25.2078933 24.543687,25.2327492 L24.543687,25.3573966 C24.543687,25.5368897 24.5810808,25.6836203 24.6558696,25.7975929 C24.7306583,25.9115655 24.8212345,25.9952328 24.9276008,26.0485972 C25.037291,26.1036293 25.1195574,26.1083398 25.1744025,26.0627291 C25.2292476,26.0171183 25.2566698,25.936145 25.2566698,25.8198069 C25.2566698,25.7034688 25.2275857,25.5966391 25.1694166,25.4993145 C25.1112476,25.40199 25.0273192,25.3258128 24.917629,25.2707808 Z M16.4483902,24.7168725 L16.4483902,25.1799623 L16.3047965,25.1079207 L16.3047965,24.6448309 L15.8811949,23.7107496 L16.0517125,23.796299 L16.3765934,24.5336681 L16.7014742,24.1222873 L16.8719918,24.2078367 L16.4483902,24.7168725 Z M17.4355972,24.7598383 C17.5708153,24.8276778 17.6770138,24.9222408 17.7541958,25.0435302 C17.8313779,25.1648195 17.8699683,25.2984561 17.8699683,25.4444438 C17.8699683,25.5904315 17.8313779,25.685346 17.7541958,25.7291903 C17.6770138,25.7730346 17.5708153,25.7610371 17.4355972,25.6931976 C17.3003791,25.6253581 17.1941806,25.530795 17.1169986,25.4095057 C17.0398166,25.2882163 17.0012261,25.1545798 17.0012261,25.0085921 C17.0012261,24.8626044 17.0398166,24.7676898 17.1169986,24.7238455 C17.1941806,24.6800013 17.3003791,24.6919987 17.4355972,24.7598383 Z M17.4355972,24.8836879 C17.3446541,24.8380613 17.2734562,24.8328544 17.2220015,24.868067 C17.1705468,24.9032796 17.1448199,24.9741344 17.1448199,25.0806337 C17.1448199,25.1871329 17.1705468,25.2838024 17.2220015,25.3706451 C17.2734562,25.4574878 17.3446541,25.5237214 17.4355972,25.569348 C17.5265404,25.6149746 17.5977382,25.6201815 17.6491929,25.5849689 C17.7006476,25.5497563 17.7263745,25.4789014 17.7263745,25.3724022 C17.7263745,25.2659029 17.7006476,25.1692334 17.6491929,25.0823908 C17.5977382,24.9955481 17.5265404,24.9293144 17.4355972,24.8836879 Z M18.9253823,25.5252191 L18.9253823,26.42268 L18.7997378,26.3596436 L18.7907632,26.218727 C18.7309321,26.2916188 18.6238362,26.2893423 18.4694722,26.2118971 C18.3725459,26.1632688 18.293271,26.0965727 18.231645,26.0118068 C18.1700191,25.9270408 18.1392066,25.8290165 18.1392066,25.7177308 L18.1392066,25.1307913 L18.2828003,25.2028329 L18.2828003,25.752079 C18.2828003,25.8394323 18.3007493,25.9103616 18.336648,25.964869 C18.3725466,26.0193764 18.4251971,26.0640396 18.4946011,26.0988599 C18.5771679,26.140284 18.6456734,26.1495249 18.7001196,26.1265827 C18.7545659,26.1036406 18.7817886,26.0419124 18.7817886,25.9413963 L18.7817886,25.4531775 L18.9253823,25.5252191 Z M19.6828393,25.8872894 C19.7259176,25.908902 19.7588242,25.9313944 19.78156,25.9547672 L19.7528413,26.0803628 C19.7241224,26.0503983 19.6864294,26.0237097 19.6397612,26.000296 C19.6014693,25.9810848 19.5640755,25.9733928 19.5275786,25.9772196 C19.4910816,25.9810464 19.4611666,25.9995428 19.4378325,26.0327092 C19.4144984,26.0658757 19.4028315,26.1141686 19.4028315,26.1775895 L19.4028315,26.6622184 L19.2592378,26.5901768 L19.2592378,25.6927159 L19.3759077,25.7512497 L19.3956518,25.908339 C19.4459099,25.8234646 19.5416381,25.8164481 19.6828393,25.8872894 Z M21.0487748,26.3033469 C21.1684368,26.3633819 21.2647633,26.4443167 21.3377572,26.5461539 C21.410751,26.647991 21.4472474,26.7539525 21.4472474,26.8640416 C21.4472474,26.9741307 21.410751,27.0434715 21.3377572,27.0720659 C21.2647633,27.1006604 21.1684368,27.0849404 21.0487748,27.0249055 L20.7741518,26.8871259 L20.7741518,27.3502157 L20.630558,27.2781741 L20.630558,26.0935257 L21.0487748,26.3033469 Z M21.0272357,26.8794801 C21.1193755,26.925707 21.1872827,26.9409298 21.2309593,26.9251491 C21.274636,26.9093683 21.296474,26.863785 21.296474,26.7883979 C21.296474,26.7130108 21.274636,26.6455152 21.2309593,26.5859088 C21.1872827,26.5263025 21.1193755,26.4733867 21.0272357,26.4271598 L20.7741518,26.3001865 L20.7741518,26.7525067 L21.0272357,26.8794801 Z M22.4344544,28.0790913 C22.4583868,28.0910983 22.4823189,28.1001136 22.5062513,28.1061375 L22.4972767,28.214715 C22.4637713,28.2098714 22.4278732,28.1978442 22.3895814,28.178633 C22.3429132,28.1552193 22.3061176,28.1265877 22.2791937,28.0927373 C22.2522697,28.0588869 22.2352181,28.0162289 22.2280384,27.964762 C22.2005161,27.9928356 22.1601308,28.0051816 22.1068812,28.0018001 C22.0536316,27.9984186 21.9976904,27.9820196 21.939056,27.9526024 C21.8505061,27.9081766 21.7775133,27.8509144 21.7200755,27.7808142 C21.6626378,27.710714 21.6339193,27.6367748 21.6339193,27.5589945 C21.6339193,27.4907871 21.6638344,27.446863 21.7236654,27.4272207 C21.7834964,27.4075785 21.8702501,27.4167008 21.983929,27.4545881 L22.2226536,27.534869 L22.2226536,27.4846112 C22.2226536,27.4247802 22.2041063,27.3676108 22.1670111,27.3131013 C22.1299158,27.2585919 22.0784619,27.2148282 22.0126478,27.181809 C21.9528168,27.1517915 21.9010637,27.140186 21.8573871,27.1469921 C21.8137104,27.1537982 21.7799064,27.179318 21.755974,27.2235522 L21.6500736,27.0932398 C21.674006,27.0382361 21.7185794,27.00735 21.7837953,27.0005805 C21.8490111,26.9938111 21.9252945,27.0123389 22.0126478,27.0561644 C22.119147,27.1095956 22.2047041,27.1782469 22.2693216,27.2621204 C22.3339391,27.345994 22.3662474,27.4381875 22.3662474,27.5387036 L22.3662474,27.9802544 C22.3662474,28.0017935 22.3716321,28.0206492 22.3824017,28.0368219 C22.3931713,28.0529947 22.410522,28.0670843 22.4344544,28.0790913 Z M21.9462357,27.83056 C22.0216228,27.868382 22.0865385,27.8830015 22.1409847,27.8744188 C22.1954309,27.8658361 22.2226536,27.8328263 22.2226536,27.7753885 L22.2226536,27.6515389 L22.0216224,27.588374 C21.9414488,27.5625101 21.8816187,27.5531344 21.8421302,27.5602468 C21.8026417,27.5673593 21.7828978,27.591856 21.7828978,27.6337377 C21.7828978,27.6708329 21.797257,27.7064563 21.8259759,27.7406089 C21.8546948,27.7747616 21.894781,27.804745 21.9462357,27.83056 Z M23.0554973,28.6455501 C23.0207954,28.7142967 22.9819058,28.7555132 22.9388274,28.7692009 C22.8957491,28.7828886 22.8401071,28.7726227 22.7718997,28.7384027 C22.7264281,28.7155894 22.688436,28.6905456 22.6579222,28.6632705 C22.6274083,28.6359954 22.5995873,28.6028918 22.5744583,28.5639588 L22.6247161,28.4671187 C22.6594181,28.5323936 22.7078805,28.5806395 22.7701048,28.6118577 C22.8048068,28.6292678 22.8356193,28.6342563 22.8625433,28.6268233 C22.8894672,28.6193903 22.9131001,28.5932549 22.9334427,28.5484163 L22.9801106,28.4551599 L22.604972,27.3712853 L22.7683099,27.4532326 L22.9926751,28.1509421 L23.0483177,28.3386063 L23.1129348,28.1933277 L23.3229407,27.7314933 L23.477304,27.808938 L23.0554973,28.6455501 Z M24.0534739,28.0800558 C24.188692,28.1478953 24.2948905,28.2424583 24.3720725,28.3637477 C24.4492545,28.485037 24.4878449,28.6186736 24.4878449,28.7646613 C24.4878449,28.910649 24.4492545,29.0055635 24.3720725,29.0494078 C24.2948905,29.0932521 24.188692,29.0812546 24.0534739,29.0134151 C23.9182557,28.9455756 23.8120573,28.8510125 23.7348752,28.7297232 C23.6576932,28.6084338 23.6191028,28.4747973 23.6191028,28.3288096 C23.6191028,28.1828219 23.6576932,28.0879073 23.7348752,28.044063 C23.8120573,28.0002188 23.9182557,28.0122162 24.0534739,28.0800558 Z M24.0534739,28.2039054 C23.9625307,28.1582788 23.8913329,28.1530719 23.8398782,28.1882845 C23.7884235,28.2234971 23.7626965,28.2943519 23.7626965,28.4008512 C23.7626965,28.5073504 23.7884235,28.6040199 23.8398782,28.6908626 C23.8913329,28.7777053 23.9625307,28.8439389 24.0534739,28.8895655 C24.144417,28.9351921 24.2156149,28.940399 24.2670696,28.9051864 C24.3185242,28.8699738 24.3442512,28.7991189 24.3442512,28.6926197 C24.3442512,28.5861204 24.3185242,28.4894509 24.2670696,28.4026083 C24.2156149,28.3157656 24.144417,28.2495319 24.0534739,28.2039054 Z M25.543259,28.8454366 L25.543259,29.7428975 L25.4176144,29.6798611 L25.4086398,29.5389445 C25.3488088,29.6118363 25.2417129,29.6095598 25.0873488,29.5321146 C24.9904226,29.4834863 24.9111476,29.4167902 24.8495217,29.3320243 C24.7878957,29.2472583 24.7570832,29.149234 24.7570832,29.0379483 L24.7570832,28.4510088 L24.900677,28.5230504 L24.900677,29.0722965 C24.900677,29.1596498 24.918626,29.2305791 24.9545246,29.2850865 C24.9904232,29.3395939 25.0430737,29.3842571 25.1124777,29.4190774 C25.1950445,29.4605015 25.26355,29.4697424 25.3179963,29.4468002 C25.3724425,29.4238581 25.3996652,29.3621299 25.3996652,29.2616138 L25.3996652,28.773395 L25.543259,28.8454366 Z M26.4263605,30.1231311 C26.3665295,30.1469616 26.2893486,30.1351632 26.1948156,30.0877355 C26.1218217,30.0511142 26.0622907,30.0015033 26.0162208,29.9389014 C25.970151,29.8762994 25.9465181,29.8040143 25.9453214,29.7220437 L25.9453214,29.1710027 L25.7658293,29.0809507 L25.7658293,28.9571011 L25.9453214,29.0471531 L25.9453214,28.8317625 L26.0889152,28.8643158 L26.0889152,29.1191947 L26.4209757,29.2857909 L26.4209757,29.4096406 L26.0889152,29.2430443 L26.0889152,29.7689564 C26.0889152,29.8120348 26.1011804,29.8507957 26.1257111,29.8852403 C26.1502418,29.919685 26.1828492,29.9471128 26.2235343,29.9675247 C26.2809721,29.9963415 26.3318277,29.9997188 26.3761027,29.9776568 L26.4263605,30.1231311 Z" id="$776-Your-Payout" fill="#454545"></path>
                    </g>
                </g>
            </g>
        </g>
    </g>
</svg>