<?xml version="1.0" encoding="UTF-8"?>
<svg width="104px" height="30px" viewBox="0 0 104 30" version="1.1" xmlns="http://www.w3.org/2000/svg" xmlns:xlink="http://www.w3.org/1999/xlink">
    <!-- Generator: Sketch 47 (45396) - http://www.bohemiancoding.com/sketch -->
    <title>Group Copy</title>
    <desc>Created with Sketch.</desc>
    <defs></defs>
    <g id="Web-UI" stroke="none" stroke-width="1" fill="none" fill-rule="evenodd">
        <g id="Tenant-Wizard---Send-Invitation" transform="translate(-668.000000, -338.000000)" fill="#E24660">
            <g id="Popup" transform="translate(398.000000, 284.000000)">
                <g id="Content" transform="translate(107.000000, 54.000000)">
                    <g id="Group-Copy" transform="translate(163.500000, 0.288807)">
                        <g id="Group-3">
                            <path d="M13.3063747,18.1853532 L13.2324504,6.68654137 L13.2324504,6.68654137 L13.2324504,6.68654137 C10.2508999,6.68654137 7.83387572,9.10356559 7.83387572,12.0851161 C7.83387572,12.0966742 7.83391283,12.1082323 7.83398707,12.1197902 L7.87301381,18.1959159 C7.87301381,21.0816474 5.59237641,23.4347074 2.73519925,23.5509984 C1.21355807,23.557186 0,24.7707441 0,26.2677438 C0,27.7647436 1.21355807,28.9783016 2.71055781,28.9783016 C2.77693154,28.9783016 2.84274805,28.975916 2.9079263,28.9712257 C8.6859587,28.763624 13.3063747,24.0140666 13.3063747,18.1853532 Z" id="Combined-Shape-Copy" opacity="0.7" transform="translate(6.653187, 17.832421) scale(-1, 1) translate(-6.653187, -17.832421) "></path>
                            <path d="M21.4626896,18.1853532 L21.3887653,6.68654137 L21.3887653,6.68654137 L21.3887653,6.68654137 C18.4072148,6.68654137 15.9901906,9.10356559 15.9901906,12.0851161 C15.9901906,12.0966742 15.9902277,12.1082323 15.9903019,12.1197902 L16.0293287,18.1959159 C16.0293287,21.0816474 13.7486913,23.4347074 10.8915141,23.5509984 C9.36987295,23.557186 8.15631488,24.7707441 8.15631488,26.2677438 C8.15631488,27.7647436 9.36987295,28.9783016 10.8668727,28.9783016 C10.9332464,28.9783016 10.9990629,28.975916 11.0642412,28.9712257 C16.8422736,28.763624 21.4626896,24.0140666 21.4626896,18.1853532 Z" id="Combined-Shape"></path>
                            <circle id="Oval-Copy" cx="18.7833705" cy="2.70591564" r="2.6793191"></circle>
                            <circle id="Oval-Copy-3" opacity="0.7" cx="2.6793191" cy="2.70591564" r="2.6793191"></circle>
                        </g>
                        <path d="M35.9923663,22.0477928 C35.8216644,22.0788296 35.5694948,22.1215044 35.2358502,22.1758187 C34.9022055,22.2301329 34.5646863,22.2572896 34.2232824,22.2572896 C33.8818786,22.2572896 33.5753956,22.2340124 33.3038244,22.1874574 C33.0322531,22.1409023 32.8033608,22.0477935 32.6171405,21.9081283 C32.4309202,21.7684631 32.2873776,21.5783661 32.1865083,21.3378316 C32.0856389,21.097297 32.035205,20.783055 32.035205,20.3950961 L32.035205,6.89419303 C32.205907,6.86315632 32.4580765,6.82048148 32.7917212,6.76616723 C33.1253658,6.71185298 33.462885,6.68469626 33.8042889,6.68469626 C34.1456927,6.68469626 34.4521757,6.70797345 34.7237469,6.75452852 C34.9953182,6.80108359 35.2242105,6.89419234 35.4104308,7.03385755 C35.5966511,7.17352276 35.7401937,7.36361978 35.8410631,7.60415432 C35.9419324,7.84468885 35.9923663,8.15893086 35.9923663,8.54688979 L35.9923663,22.0477928 Z M44.4653468,22.443509 C43.5497638,22.443509 42.7001465,22.3154844 41.9164694,22.0594316 C41.1327924,21.8033787 40.449995,21.4193051 39.8680566,20.9071993 C39.2861182,20.3950935 38.8283335,19.7510914 38.4946888,18.9751735 C38.1610442,18.1992557 37.9942243,17.2914454 37.9942243,16.2517155 C37.9942243,15.2275039 38.1610442,14.3468504 38.4946888,13.6097284 C38.8283335,12.8726065 39.2667205,12.2673996 39.809863,11.7940897 C40.3530055,11.3207799 40.9737305,10.9716221 41.6720565,10.7466059 C42.3703826,10.5215897 43.0842163,10.4090833 43.8135791,10.4090833 C44.636052,10.4090833 45.3848015,10.5332283 46.05985,10.781522 C46.7348986,11.0298157 47.3168282,11.3712145 47.8056565,11.8057285 C48.2944847,12.2402425 48.6746788,12.7600996 48.94625,13.3653155 C49.2178212,13.9705315 49.3536048,14.6300517 49.3536048,15.3438962 C49.3536048,15.8715203 49.2061827,16.2749915 48.9113339,16.5543219 C48.6164851,16.8336524 48.2052548,17.0121108 47.6776307,17.0897026 L41.9281082,17.9509671 C42.0988101,18.4630729 42.4479679,18.8471464 42.975592,19.1031993 C43.5032161,19.3592522 44.108423,19.4872768 44.7912307,19.4872768 C45.4274833,19.4872768 46.0288106,19.4058066 46.5952307,19.2428639 C47.1616507,19.0799211 47.6233149,18.8898241 47.9802371,18.6725671 C48.2285308,18.8277507 48.4380255,19.0450044 48.6087274,19.3243348 C48.7794294,19.6036652 48.864779,19.8985096 48.864779,20.2088767 C48.864779,20.9072028 48.5388984,21.42706 47.8871274,21.7684638 C47.39054,22.0322759 46.8318875,22.2107343 46.2111533,22.3038445 C45.590419,22.3969546 45.0084893,22.443509 44.4653468,22.443509 Z M43.8135791,13.2954833 C43.4411385,13.2954833 43.1191375,13.3575558 42.8475662,13.4817026 C42.575995,13.6058495 42.3548617,13.7649103 42.1841598,13.9588897 C42.0134578,14.1528692 41.8854333,14.3701229 41.8000823,14.6106575 C41.7147314,14.851192 41.6642975,15.0956024 41.6487791,15.3438962 L45.6292178,14.6921284 C45.5826627,14.3817613 45.4119633,14.0713988 45.1171146,13.7610317 C44.8222658,13.4506645 44.3877583,13.2954833 43.8135791,13.2954833 Z M55.2195144,18.1837413 C55.2195144,18.5872186 55.347539,18.8743039 55.6035919,19.0450058 C55.8596447,19.2157077 56.2204411,19.3010574 56.6859918,19.3010574 C56.9187672,19.3010574 57.1592981,19.2816597 57.4075918,19.2428639 C57.6558855,19.204068 57.8731393,19.1536341 58.0593596,19.0915606 C58.1990248,19.2622626 58.3192902,19.4523596 58.4201596,19.6618574 C58.5210289,19.8713552 58.5714628,20.1235247 58.5714628,20.4183735 C58.5714628,21.0080711 58.3503295,21.4891329 57.9080563,21.8615735 C57.4657832,22.2340141 56.6859974,22.4202316 55.5686757,22.4202316 C54.2030603,22.4202316 53.1517074,22.1098691 52.4145854,21.4891348 C51.6774635,20.8684005 51.308908,19.8597224 51.308908,18.4630703 L51.308908,8.50033495 C51.47961,8.45377988 51.7240204,8.40334598 52.0421467,8.34903173 C52.3602731,8.29471748 52.6977923,8.26756076 53.0547145,8.26756076 C53.7375222,8.26756076 54.2690179,8.38782622 54.6492177,8.62836076 C55.0294174,8.86889529 55.2195144,9.37711386 55.2195144,10.1530317 L55.2195144,11.6427865 L58.2688563,11.6427865 C58.3619665,11.8134885 58.4511957,12.0268627 58.5365467,12.2829155 C58.6218976,12.5389684 58.6645725,12.8221742 58.6645725,13.1325413 C58.6645725,13.6756838 58.544307,14.0675165 58.3037725,14.308051 C58.0632379,14.5485855 57.7412369,14.668851 57.3377596,14.668851 L55.2195144,14.668851 L55.2195144,18.1837413 Z M73.3759013,16.8569284 C73.3759013,17.6949197 73.2323587,18.4591873 72.9452691,19.1497542 C72.6581795,19.8403211 72.2430696,20.4300098 71.6999271,20.918838 C71.1567846,21.4076663 70.4972644,21.7839808 69.7213465,22.0477928 C68.9454287,22.3116049 68.0686547,22.443509 67.0909982,22.443509 C66.1133417,22.443509 65.2365677,22.3116049 64.4606498,22.0477928 C63.684732,21.7839808 63.0252117,21.4076663 62.4820692,20.918838 C61.9389267,20.4300098 61.5238169,19.8403211 61.2367273,19.1497542 C60.9496377,18.4591873 60.806095,17.6949197 60.806095,16.8569284 L60.806095,7.96495431 C60.9767969,7.9339176 61.2483641,7.89124276 61.6208047,7.83692851 C61.9932453,7.78261426 62.3501621,7.75545754 62.691566,7.75545754 C63.0484882,7.75545754 63.3627302,7.78261426 63.6343014,7.83692851 C63.9058727,7.89124276 64.134765,7.98823103 64.3209853,8.12789625 C64.5072056,8.26756146 64.6468687,8.46153801 64.7399788,8.70983172 C64.833089,8.95812543 64.8796434,9.28400604 64.8796434,9.68748332 L64.8796434,16.7870961 C64.8796434,17.5319773 65.0852585,18.1139069 65.496495,18.5329026 C65.9077314,18.9518982 66.4392272,19.1613929 67.0909982,19.1613929 C67.7582875,19.1613929 68.2936628,18.9518982 68.6971401,18.5329026 C69.1006174,18.1139069 69.302353,17.5319773 69.302353,16.7870961 L69.302353,7.96495431 C69.4730549,7.9339176 69.7446221,7.89124276 70.1170626,7.83692851 C70.4895032,7.78261426 70.8464201,7.75545754 71.1878239,7.75545754 C71.5447461,7.75545754 71.8589881,7.78261426 72.1305594,7.83692851 C72.4021306,7.89124276 72.631023,7.98823103 72.8172433,8.12789625 C73.0034635,8.26756146 73.1431267,8.46153801 73.2362368,8.70983172 C73.3293469,8.95812543 73.3759013,9.28400604 73.3759013,9.68748332 L73.3759013,16.8569284 Z M80.0565206,22.0477928 C79.8858187,22.0788296 79.6336491,22.1215044 79.3000045,22.1758187 C78.9663598,22.2301329 78.6288406,22.2572896 78.2874367,22.2572896 C77.9460329,22.2572896 77.6395499,22.2340124 77.3679787,22.1874574 C77.0964074,22.1409023 76.8675151,22.0477935 76.6812948,21.9081283 C76.4950745,21.7684631 76.3515319,21.5783661 76.2506626,21.3378316 C76.1497933,21.097297 76.0993593,20.783055 76.0993593,20.3950961 L76.0993593,6.89419303 C76.2700613,6.86315632 76.5222308,6.82048148 76.8558755,6.76616723 C77.1895201,6.71185298 77.5270393,6.68469626 77.8684432,6.68469626 C78.2098471,6.68469626 78.51633,6.70797345 78.7879013,6.75452852 C79.0594725,6.80108359 79.2883648,6.89419234 79.4745851,7.03385755 C79.6608054,7.17352276 79.804348,7.36361978 79.9052174,7.60415432 C80.0060867,7.84468885 80.0565206,8.15893086 80.0565206,8.54688979 L80.0565206,22.0477928 Z M88.5295011,22.443509 C87.6139181,22.443509 86.7643008,22.3154844 85.9806237,22.0594316 C85.1969467,21.8033787 84.5141493,21.4193051 83.9322109,20.9071993 C83.3502725,20.3950935 82.8924878,19.7510914 82.5588431,18.9751735 C82.2251985,18.1992557 82.0583786,17.2914454 82.0583786,16.2517155 C82.0583786,15.2275039 82.2251985,14.3468504 82.5588431,13.6097284 C82.8924878,12.8726065 83.3308748,12.2673996 83.8740173,11.7940897 C84.4171598,11.3207799 85.0378848,10.9716221 85.7362108,10.7466059 C86.4345369,10.5215897 87.1483706,10.4090833 87.8777334,10.4090833 C88.7002063,10.4090833 89.4489558,10.5332283 90.1240043,10.781522 C90.7990529,11.0298157 91.3809825,11.3712145 91.8698108,11.8057285 C92.358639,12.2402425 92.7388331,12.7600996 93.0104043,13.3653155 C93.2819756,13.9705315 93.4177591,14.6300517 93.4177591,15.3438962 C93.4177591,15.8715203 93.270337,16.2749915 92.9754882,16.5543219 C92.6806394,16.8336524 92.2694091,17.0121108 91.741785,17.0897026 L85.9922625,17.9509671 C86.1629644,18.4630729 86.5121222,18.8471464 87.0397463,19.1031993 C87.5673704,19.3592522 88.1725773,19.4872768 88.855385,19.4872768 C89.4916376,19.4872768 90.0929649,19.4058066 90.659385,19.2428639 C91.225805,19.0799211 91.6874692,18.8898241 92.0443914,18.6725671 C92.2926851,18.8277507 92.5021798,19.0450044 92.6728817,19.3243348 C92.8435837,19.6036652 92.9289333,19.8985096 92.9289333,20.2088767 C92.9289333,20.9072028 92.6030527,21.42706 91.9512817,21.7684638 C91.4546943,22.0322759 90.8960418,22.2107343 90.2753076,22.3038445 C89.6545733,22.3969546 89.0726436,22.443509 88.5295011,22.443509 Z M87.8777334,13.2954833 C87.5052928,13.2954833 87.1832918,13.3575558 86.9117205,13.4817026 C86.6401493,13.6058495 86.419016,13.7649103 86.2483141,13.9588897 C86.0776121,14.1528692 85.9495876,14.3701229 85.8642366,14.6106575 C85.7788857,14.851192 85.7284518,15.0956024 85.7129334,15.3438962 L89.6933721,14.6921284 C89.646817,14.3817613 89.4761176,14.0713988 89.1812689,13.7610317 C88.8864201,13.4506645 88.4519126,13.2954833 87.8777334,13.2954833 Z M99.2836687,18.1837413 C99.2836687,18.5872186 99.4116933,18.8743039 99.6677462,19.0450058 C99.923799,19.2157077 100.284595,19.3010574 100.750146,19.3010574 C100.982921,19.3010574 101.223452,19.2816597 101.471746,19.2428639 C101.72004,19.204068 101.937294,19.1536341 102.123514,19.0915606 C102.263179,19.2622626 102.383445,19.4523596 102.484314,19.6618574 C102.585183,19.8713552 102.635617,20.1235247 102.635617,20.4183735 C102.635617,21.0080711 102.414484,21.4891329 101.972211,21.8615735 C101.529937,22.2340141 100.750152,22.4202316 99.63283,22.4202316 C98.2672146,22.4202316 97.2158617,22.1098691 96.4787397,21.4891348 C95.7416178,20.8684005 95.3730623,19.8597224 95.3730623,18.4630703 L95.3730623,8.50033495 C95.5437643,8.45377988 95.7881747,8.40334598 96.106301,8.34903173 C96.4244274,8.29471748 96.7619466,8.26756076 97.1188688,8.26756076 C97.8016765,8.26756076 98.3331722,8.38782622 98.713372,8.62836076 C99.0935717,8.86889529 99.2836687,9.37711386 99.2836687,10.1530317 L99.2836687,11.6427865 L102.333011,11.6427865 C102.426121,11.8134885 102.51535,12.0268627 102.600701,12.2829155 C102.686052,12.5389684 102.728727,12.8221742 102.728727,13.1325413 C102.728727,13.6756838 102.608461,14.0675165 102.367927,14.308051 C102.127392,14.5485855 101.805391,14.668851 101.401914,14.668851 L99.2836687,14.668851 L99.2836687,18.1837413 Z" id="letUlet"></path>
                    </g>
                </g>
            </g>
        </g>
    </g>
</svg>