<?xml version="1.0" encoding="UTF-8"?>
<svg width="19px" height="22px" viewBox="0 0 19 22" version="1.1" xmlns="http://www.w3.org/2000/svg" xmlns:xlink="http://www.w3.org/1999/xlink">
    <!-- Generator: Sketch 48.2 (47327) - http://www.bohemiancoding.com/sketch -->
    <title>Shape</title>
    <desc>Created with Sketch.</desc>
    <defs></defs>
    <g id="Landlord---Finetune" stroke="none" stroke-width="1" fill="none" fill-rule="evenodd" transform="translate(-1164.000000, -939.000000)">
        <g id="Group-19-Copy" transform="translate(1141.398604, 923.548229)" fill="#FFFFFF" fill-rule="nonzero">
            <g id="Group-Copy-4" transform="translate(0.500000, 0.057982)">
                <g id="Group" transform="translate(0.202793, 0.000000)">
                    <path d="M38.6159074,37.3328964 L23.9163483,37.3328964 C23.1045652,37.3328964 22.4463924,36.7269218 22.4463924,35.9787632 L22.4463924,17.0212368 C22.4463924,16.2734167 23.1045652,15.6671036 23.9163483,15.6671036 L38.6159074,15.6671036 C39.4276906,15.6671036 40.0858634,16.2737552 40.0858634,17.0212368 L40.0858634,35.9787632 C40.0858634,36.7269218 39.4276906,37.3328964 38.6159074,37.3328964 Z M38.6159074,17.6983034 C38.6159074,17.3242241 38.2870048,17.0212368 37.8809295,17.0212368 L24.6513263,17.0212368 C24.245251,17.0212368 23.9163483,17.3238855 23.9163483,17.6983034 L23.9163483,35.3010196 C23.9163483,35.6761145 24.245251,35.9791018 24.6513263,35.9791018 L37.8809295,35.9791018 C38.2870048,35.9791018 38.6159074,35.6761145 38.6159074,35.3010196 L38.6159074,17.6983034 Z M36.4109736,33.2704968 L26.1212822,33.2704968 C25.7155744,33.2704968 25.3863042,32.9675095 25.3863042,32.5934302 C25.3863042,32.220028 25.7152069,31.9163636 26.1212822,31.9163636 L36.4109736,31.9163636 C36.8166814,31.9163636 37.1459515,32.220028 37.1459515,32.5934302 C37.1459515,32.9675095 36.8170489,33.2704968 36.4109736,33.2704968 Z M36.4109736,29.2080972 L26.1212822,29.2080972 C25.7155744,29.2080972 25.3863042,28.9051099 25.3863042,28.5310306 C25.3863042,28.1569513 25.7152069,27.8539639 26.1212822,27.8539639 L36.4109736,27.8539639 C36.8166814,27.8539639 37.1459515,28.1566127 37.1459515,28.5310306 C37.1459515,28.9054484 36.8170489,29.2080972 36.4109736,29.2080972 Z M36.4109736,25.145359 L26.1212822,25.145359 C25.7155744,25.145359 25.3863042,24.8427102 25.3863042,24.4689694 C25.3863042,24.0948901 25.7152069,23.7915643 26.1212822,23.7915643 L36.4109736,23.7915643 C36.8166814,23.7915643 37.1459515,24.0948901 37.1459515,24.4689694 C37.1459515,24.8427102 36.8170489,25.145359 36.4109736,25.145359 Z M32.0011058,21.0832979 L26.1212822,21.0832979 C25.7155744,21.0832979 25.3863042,20.7803106 25.3863042,20.4055542 C25.3863042,20.032152 25.7152069,19.7291647 26.1212822,19.7291647 L32.0011058,19.7291647 C32.4071812,19.7291647 32.7360838,20.0324905 32.7360838,20.4055542 C32.7360838,20.7803106 32.4071812,21.0832979 32.0011058,21.0832979 Z" id="Shape"></path>
                </g>
            </g>
        </g>
    </g>
</svg>