<?xml version="1.0" encoding="UTF-8"?>
<svg width="126px" height="139px" viewBox="0 0 126 139" version="1.1" xmlns="http://www.w3.org/2000/svg" xmlns:xlink="http://www.w3.org/1999/xlink">
    <!-- Generator: Sketch 48.2 (47327) - http://www.bohemiancoding.com/sketch -->
    <title>Group 20</title>
    <desc>Created with Sketch.</desc>
    <defs></defs>
    <g id="Tenant-Wizard---Property-Info-Copy-2" stroke="none" stroke-width="1" fill="none" fill-rule="evenodd" transform="translate(-1206.000000, -412.000000)">
        <g id="Group-20" transform="translate(1206.270071, 412.000000)">
            <polygon id="Rectangle-4" fill="#E3E3E3" points="68.010158 0.015991922 125.593003 33.8515253 125.593003 128.550353 117.558914 133.099364 68.010158 95.5978244 60.0593424 4.73339755"></polygon>
            <polygon id="Rectangle-4" fill="#E24660" points="117.558914 116.515004 125.593003 111.548482 125.593003 128.550353 117.558914 133.099364 68.010158 95.5978244"></polygon>
            <polygon id="Rectangle-4-Copy" fill="#F3F3F3" points="60.0593424 4.68646946 117.642187 38.4005364 117.642187 133.099364 60.0593424 99.3852972"></polygon>
            <polygon id="Rectangle-4-Copy" fill="#F65873" points="60.0593424 82.7623261 117.642187 116.476393 117.642187 133.099364 60.0593424 99.3852972"></polygon>
            <polygon id="Rectangle-10" fill="#E6E6E6" points="68.5804733 24.9470717 109.121056 48.6925042 109.121056 55.4567062 68.5804733 31.7112737"></polygon>
            <polygon id="Rectangle-10-Copy" fill="#E6E6E6" points="68.5804733 36.0480435 109.121056 59.793476 109.121056 66.557678 68.5804733 42.8122455"></polygon>
            <polygon id="Rectangle-10-Copy-2" fill="#E6E6E6" points="68.5804733 48.5823389 109.121056 72.3277714 109.121056 79.0919734 68.5804733 55.3465409"></polygon>
            <polygon id="Rectangle-10-Copy-3" fill="#E6E6E6" points="68.5804733 62.4981427 109.121056 86.2435752 109.121056 93.0077772 68.5804733 69.2623447"></polygon>
            <polygon id="Rectangle-10-Copy-4" fill="#E6E6E6" points="68.5804733 75.4523935 109.121056 99.197826 109.121056 105.962028 68.5804733 82.2165954"></polygon>
            <g id="Group-9-Copy" transform="translate(60.052258, 35.113452)" fill="#000000" opacity="0.0434782609">
                <polygon id="Rectangle-4-Copy-3" points="0.0273714459 0.00203764732 22.3981836 14.5953752 22.3981836 52.117691 0.0273714459 39.3336962"></polygon>
            </g>
            <g id="Group-9" transform="translate(24.908465, 25.365757)">
                <polygon id="Rectangle-4-Copy-2" fill="#E3E3E3" points="5.77365115 0.0824716069 47.5650038 24.5508088 47.5650038 63.8824673 41.8057875 67.4188968 5.77365115 39.4141301 0.0740060631 3.58529823"></polygon>
                <polygon id="Rectangle-4-Copy-3" fill="#F2F2F2" points="0.00326343456 3.60479375 41.794616 28.0731309 41.794616 67.4047894 0.00326343456 42.9364523"></polygon>
            </g>
            <polygon id="Rectangle-10-Copy-5" fill="#E6E6E6" points="30.5541516 38.3832823 60.1188933 55.6319625 60.1188933 62.3961645 30.5541516 45.1474843"></polygon>
            <polygon id="Rectangle-10-Copy-6" fill="#E6E6E6" points="30.5541516 48.5823389 60.1188933 65.8310191 60.1188933 72.5952211 30.5541516 55.3465409"></polygon>
            <polygon id="Rectangle-10-Copy-7" fill="#E6E6E6" points="30.5541516 59.1867673 60.1188933 76.4354475 60.1188933 83.1996495 30.5541516 65.9509693"></polygon>
            <g id="Group-12" transform="translate(0.011494, 60.588780)">
                <path d="M23.4313403,43.9476728 C30.623788,47.099723 36.1478932,44.131931 36.1478932,36.649349 C36.1478932,28.4329812 29.4872111,17.884283 21.2708433,13.088172 C13.0544755,8.29206108 6.39379342,11.0647271 6.39379342,19.2810948 C6.39379342,19.6363151 6.40624299,19.9958947 6.43072961,20.3591804 C5.59045624,17.5874168 5.13164293,14.8538066 5.13164293,12.2808563 C5.13164293,0.584095131 14.6137414,-3.36305193 26.3105026,3.46465662 C38.0072638,10.2923652 47.4893622,25.309415 47.4893622,37.0061762 C47.4893622,48.7029374 38.0072638,52.6500844 26.3105026,45.8223759 C25.3339343,45.2523272 24.3728037,44.6251934 23.4313403,43.9476728 Z" id="Combined-Shape" fill="#A9A9A9"></path>
                <polygon id="Path-9" fill="#A9A9A9" points="37.6533861 51.0282728 43.5564679 47.0057698 43.0910682 40.7519085"></polygon>
                <polygon id="Path-10" fill="#A9A9A9" points="9.75977855 1.76552953 4.59399183 5.17931045 8.57183272 10.73626"></polygon>
                <path d="M21.2708433,49.2343738 C9.57408212,42.4066652 0.0919836791,27.3896154 0.0919836791,15.6928542 C0.0919836791,3.99609304 9.57408212,0.0489459792 21.2708433,6.87665452 C32.9676045,13.7043631 42.4497029,28.7214129 42.4497029,40.4181741 C42.4497029,52.1149353 32.9676045,56.0620823 21.2708433,49.2343738 Z M21.2708433,42.932564 C29.4872111,47.728675 36.1478932,44.956009 36.1478932,36.7396412 C36.1478932,28.5232735 29.4872111,17.9745752 21.2708433,13.1784643 C13.0544755,8.38235332 6.39379342,11.1550193 6.39379342,19.3713871 C6.39379342,27.5877549 13.0544755,38.1364531 21.2708433,42.932564 Z" id="Combined-Shape" fill="#C8C8C8"></path>
                <path d="M12.7648389,10.8832395 C12.0233832,12.2188682 11.6137217,13.9217228 11.6137217,15.9593892 C11.6137217,24.1757569 18.2744039,34.7244552 26.4907716,39.5205661 C29.6537229,41.3668644 32.5861338,42.0915291 34.9967761,41.8157909 C32.7485017,45.8657429 27.4495447,46.5392353 21.2708433,42.932564 C13.0544755,38.1364531 6.39379342,27.5877549 6.39379342,19.3713871 C6.39379342,14.3179706 8.91337921,11.3237837 12.7648389,10.8832395 Z" id="Combined-Shape" fill="#DADADA"></path>
                <path d="M10.4363811,11.535942 C13.149597,10.2374687 17.0000617,10.6854962 21.2708433,13.1784643 C29.4872111,17.9745752 36.1478932,28.5232735 36.1478932,36.7396412 C36.1478932,39.1324439 35.5829917,41.0635589 34.5792774,42.4804986 C31.8660615,43.7789719 28.0155968,43.3309444 23.7448152,40.8379763 C15.5284474,36.0418654 8.86776533,25.4931671 8.86776533,17.2767994 C8.86776533,14.8839967 9.43266685,12.9528817 10.4363811,11.535942 Z" id="Combined-Shape" fill="#DBFFFB" opacity="0.384341033"></path>
                <polygon id="Rectangle-8" fill="#969696" points="47.2856115 34.9051439 62.6759826 44.3715955 62.6759826 53.1498587 57.618738 56.2244122 47.2856115 44.0275013 42.3085178 38.0103979"></polygon>
                <path d="M42.2459522,37.9944743 L57.6363234,47.4609259 L57.6363234,56.2391891 L41.1640708,46.6670325 C41.5155699,46.2049078 41.8529479,45.0537259 42.1762049,43.2134869 C42.4994619,41.3732478 42.522711,39.633577 42.2459522,37.9944743 Z" id="Rectangle-8-Copy" fill="#C8C8C8"></path>
                <g id="Group-10" transform="translate(50.001386, 36.357586)">
                    <polygon id="Rectangle-9-Copy" fill="#DEC34D" points="7.23139866 0.0658429047 42.5866984 20.3378206 42.5866984 36.818242 34.483695 41.5436616 8.51035285 16.3056946 0.0536344783 4.5675834"></polygon>
                    <polygon id="Rectangle-9" fill="#F2D44E" points="0.0536344783 4.31222616 34.6155174 24.3699465 34.6155174 41.5436616 0.0536344783 21.4859412"></polygon>
                </g>
            </g>
        </g>
    </g>
</svg>