<?xml version="1.0" encoding="UTF-8"?>
<svg width="172px" height="140px" viewBox="0 0 172 140" version="1.1" xmlns="http://www.w3.org/2000/svg" xmlns:xlink="http://www.w3.org/1999/xlink">
    <!-- Generator: Sketch 48.2 (47327) - http://www.bohemiancoding.com/sketch -->
    <title>Group</title>
    <desc>Created with Sketch.</desc>
    <defs></defs>
    <g id="Tenant-Wizard---Create-Your-Proposal---Hide-Name" stroke="none" stroke-width="1" fill="none" fill-rule="evenodd" transform="translate(-1183.000000, -404.000000)">
        <g id="Group-2" transform="translate(1183.077300, 404.000000)">
            <g id="Group" transform="translate(0.098320, 0.098320)">
                <polygon id="Rectangle-12" fill="#E9E9E9" points="1.13686838e-13 51.5498899 83.5146683 4.10467256 97.2015532 9.79613321 83.5146683 86.3539671 13.7701284 139.329703 1.13686838e-13 133.799184"></polygon>
                <polygon id="Rectangle-12" fill="#E6536C" points="1.13686838e-13 51.5498899 83.5146683 4.10467256 97.2015532 9.79613321 83.5146683 86.3539671 13.7701284 73.951419 1.13686838e-13 68.4209008"></polygon>
                <polygon id="Rectangle-12-Copy" fill="#F7F7F7" points="13.7220442 57.176271 97.2367125 9.73105364 97.2367125 91.9803482 13.7220442 139.425566"></polygon>
                <polygon id="Rectangle-12-Copy" fill="#F65873" points="13.7220442 57.176271 97.2367125 9.73105364 97.2367125 26.8061104 13.7220442 74.2513278"></polygon>
                <polygon id="Rectangle-13" fill="#DADADA" points="22.5785656 113.279337 33.0105306 107.2995 33.0105306 117.731465 22.5785656 123.711302"></polygon>
                <polygon id="Rectangle-13-Copy-4" fill="#DADADA" points="36.8194829 105.116123 47.251448 99.1362872 47.251448 109.568252 36.8194829 115.548088"></polygon>
                <g id="Group-21" transform="translate(11.305500, 28.116803)">
                    <g id="Group-17" transform="translate(0.000000, 0.000000)" fill="#E6E6E6">
                        <polygon id="Combined-Shape" points="19.9336495 29.0280513 18.4074634 13.3830497 7.79859686 7.62535082 7.84842402 12.5783804 3.19604338 15.230175 0.0903262433 2.69076827 3.19604338 0.173935834 23.0100169 10.9274779 23.0100169 26.4956"></polygon>
                    </g>
                    <polygon id="Combined-Shape-Copy-10" fill="#D8D8D8" points="15.3272651 26.5048014 15.3272651 15.8901728 4.71839848 10.1324739 4.71839848 14.3726229 0.115845001 17.0083422 0.115845001 2.68105892 19.9298185 13.434601 19.9298185 29.0027231"></polygon>
                </g>
                <g id="Group-21-Copy" transform="translate(60.733117, 0.000000)">
                    <g id="Group-17" transform="translate(0.000000, 0.000000)" fill="#E6E6E6">
                        <polygon id="Combined-Shape" points="19.9336495 29.0280513 18.4074634 13.3830497 7.79859686 7.62535082 7.84842402 12.5783804 3.19604338 15.230175 0.0903262433 2.69076827 3.19604338 0.173935834 23.0100169 10.9274779 23.0100169 26.4956"></polygon>
                    </g>
                    <polygon id="Combined-Shape-Copy-10" fill="#D8D8D8" points="15.3272651 26.5048014 15.3272651 15.8901728 4.71839848 10.1324739 4.71839848 14.3726229 0.115845001 17.0083422 0.115845001 2.68105892 19.9298185 13.434601 19.9298185 29.0027231"></polygon>
                </g>
                <polygon id="Rectangle-13-Copy-8" fill="#DADADA" points="50.6646253 97.1797775 61.0965903 91.1999412 61.0965903 101.631906 50.6646253 107.611742"></polygon>
                <polygon id="Rectangle-13-Copy-12" fill="#DADADA" points="64.3064257 89.3599916 74.7383907 83.3801553 74.7383907 93.8121204 64.3064257 99.7919566"></polygon>
                <polygon id="Rectangle-13-Copy-16" fill="#DADADA" points="77.9482261 81.5402057 88.3801912 75.5603695 88.3801912 85.9923345 77.9482261 91.9721708"></polygon>
                <polygon id="Rectangle-13-Copy" fill="#DADADA" points="22.5785656 100.707481 33.0105306 94.727645 33.0105306 105.15961 22.5785656 111.139446"></polygon>
                <polygon id="Rectangle-13-Copy-5" fill="#DADADA" points="36.8194829 92.5442682 47.251448 86.5644319 47.251448 96.996397 36.8194829 102.976233"></polygon>
                <polygon id="Rectangle-13-Copy-9" fill="#DADADA" points="50.6646253 84.6079222 61.0965903 78.6280859 61.0965903 89.0600509 50.6646253 95.0398872"></polygon>
                <polygon id="Rectangle-13-Copy-13" fill="#DADADA" points="64.3064257 76.7881363 74.7383907 70.8083001 74.7383907 81.2402651 64.3064257 87.2201013"></polygon>
                <polygon id="Rectangle-13-Copy-17" fill="#DADADA" points="77.9482261 68.9683504 88.3801912 62.9885142 88.3801912 73.4204792 77.9482261 79.4003155"></polygon>
                <polygon id="Rectangle-13-Copy-2" fill="#DADADA" points="22.5785656 88.135626 33.0105306 82.1557897 33.0105306 92.5877548 22.5785656 98.567591"></polygon>
                <polygon id="Rectangle-13-Copy-6" fill="#DADADA" points="36.8194829 79.9724129 47.251448 73.9925766 47.251448 84.4245417 36.8194829 90.4043779"></polygon>
                <polygon id="Rectangle-13-Copy-10" fill="#68E2C2" points="50.6646253 72.0360669 61.0965903 66.0562306 61.0965903 76.4881956 50.6646253 82.4680319"></polygon>
                <polygon id="Rectangle-13-Copy-14" fill="#68E2C2" points="64.3064257 64.216281 74.7383907 58.2364448 74.7383907 68.6684098 64.3064257 74.648246"></polygon>
                <polygon id="Rectangle-13-Copy-18" fill="#68E2C2" points="77.9482261 56.3964951 88.3801912 50.4166589 88.3801912 60.8486239 77.9482261 66.8284602"></polygon>
                <polygon id="Rectangle-13-Copy-3" fill="#DADADA" points="22.5785656 75.5637707 33.0105306 69.5839344 33.0105306 80.0158995 22.5785656 85.9957357"></polygon>
                <polygon id="Rectangle-13-Copy-7" fill="#DADADA" points="36.8194829 67.4005576 47.251448 61.4207213 47.251448 71.8526864 36.8194829 77.8325226"></polygon>
                <polygon id="Rectangle-13-Copy-11" fill="#DADADA" points="50.6646253 59.4642116 61.0965903 53.4843753 61.0965903 63.9163404 50.6646253 69.8961766"></polygon>
                <polygon id="Rectangle-13-Copy-15" fill="#DADADA" points="64.3064257 51.6444257 74.7383907 45.6645895 74.7383907 56.0965545 64.3064257 62.0763907"></polygon>
                <polygon id="Rectangle-13-Copy-19" fill="#DADADA" points="77.9482261 43.8246398 88.3801912 37.8448036 88.3801912 48.2767686 77.9482261 54.2566049"></polygon>
                <polygon id="Combined-Shape-Copy-11" fill="#56C3A7" points="113.162534 55.9803784 93.7187565 53.0863254 103.039544 44.7166894 113.162534 45.2247014 103.844585 38.7022044 113.162534 30.3565597 171.369727 64.2002002 171.369727 104.692161 162.032929 112.700387 113.162534 70.8485201"></polygon>
                <polygon id="Combined-Shape-Copy-12" fill="#68E2C2" points="103.760649 64.3660334 93.6376584 53.1023444 103.760649 53.6103564 103.760649 38.7422147 161.967842 72.5858552 161.967842 113.077816 103.760649 79.2341751"></polygon>
                <polygon id="Rectangle-14" fill="#FFFFFF" points="124.081241 63.3552363 155.969837 81.7561415 155.969837 87.3835408 124.081241 68.9826356"></polygon>
                <polygon id="Rectangle-14-Copy" fill="#FFFFFF" points="124.081241 71.8096474 147.932208 85.5725419 147.932208 91.1999412 124.081241 77.4370467"></polygon>
            </g>
        </g>
    </g>
</svg>