<?xml version="1.0" encoding="UTF-8"?>
<svg width="146px" height="139px" viewBox="0 0 146 139" version="1.1" xmlns="http://www.w3.org/2000/svg" xmlns:xlink="http://www.w3.org/1999/xlink">
    <!-- Generator: Sketch 48.2 (47327) - http://www.bohemiancoding.com/sketch -->
    <title>Group 3</title>
    <desc>Created with Sketch.</desc>
    <defs>
        <path d="M23.7880398,16.8179062 C27.1024214,16.8179062 29.7892586,15.1901257 29.7892586,13.1821567 C29.7892586,11.1741877 27.1024214,9.5464072 23.7880398,9.5464072 C20.4736582,9.5464072 17.786821,11.1741877 17.786821,13.1821567 C17.786821,15.1901257 20.4736582,16.8179062 23.7880398,16.8179062 Z" id="path-1"></path>
        <path d="M23.7880398,16.8179062 C27.1024214,16.8179062 29.7892586,15.1901257 29.7892586,13.1821567 C29.7892586,11.1741877 27.1024214,9.5464072 23.7880398,9.5464072 C20.4736582,9.5464072 17.786821,11.1741877 17.786821,13.1821567 C17.786821,15.1901257 20.4736582,16.8179062 23.7880398,16.8179062 Z" id="path-3"></path>
        <path d="M23.7880398,16.8179062 C27.1024214,16.8179062 29.7892586,15.1901257 29.7892586,13.1821567 C29.7892586,11.1741877 27.1024214,9.5464072 23.7880398,9.5464072 C20.4736582,9.5464072 17.786821,11.1741877 17.786821,13.1821567 C17.786821,15.1901257 20.4736582,16.8179062 23.7880398,16.8179062 Z" id="path-5"></path>
        <path d="M23.7880398,16.8179062 C27.1024214,16.8179062 29.7892586,15.1901257 29.7892586,13.1821567 C29.7892586,11.1741877 27.1024214,9.5464072 23.7880398,9.5464072 C20.4736582,9.5464072 17.786821,11.1741877 17.786821,13.1821567 C17.786821,15.1901257 20.4736582,16.8179062 23.7880398,16.8179062 Z" id="path-7"></path>
    </defs>
    <g id="Tenant-Wizard---Financial-Propsal-Copy-2" stroke="none" stroke-width="1" fill="none" fill-rule="evenodd" transform="translate(-1195.000000, -414.000000)">
        <g id="Group-3" transform="translate(1195.103423, 414.000000)">
            <g id="Group-19" transform="translate(0.000000, 0.073237)">
                <polygon id="Path-14" fill="#59D4B4" points="8.99205053 102.105785 21.6273631 109.903592 24.1118347 92.0967757"></polygon>
                <path d="M58.9517418,10.9143891 L69.4965275,17.4048873 L40.6306377,58.2883439 C65.722086,32.1304595 78.2678101,19.0515173 78.2678101,19.0515173 C78.2678101,19.0515173 81.7840089,21.2205818 88.8164063,25.5587106 C72.2521112,66.0577893 56.3987501,90.6366615 41.2563231,99.2953272 C18.5426825,112.283326 0.129638695,104.399135 0.129638695,81.6854948 C0.129638695,58.9718542 18.5426825,30.0299572 41.2563231,17.0419585 C47.5914111,13.4194606 53.5919494,11.4206404 58.9517418,10.9143891 Z" id="Combined-Shape" fill="#59D4B4"></path>
                <path d="M69.5120108,17.4076985 L51.1909066,64.7816533 L88.8280791,25.5448267 C91.4644767,29.4622368 92.9432764,34.7081726 92.9432764,41.1451004 C92.9432764,63.858741 74.5302326,92.800638 51.816592,105.788637 C29.1029514,118.776635 10.6899076,110.892445 10.6899076,88.1788042 C10.6899076,65.4651636 29.1029514,36.5232666 51.816592,23.5352679 C58.15168,19.91277 64.1522184,17.9139498 69.5120108,17.4076985 Z" id="Combined-Shape-Copy-7" fill="#68E2C2"></path>
                <g id="Group-16" transform="translate(60.908301, 0.008284)">
                    <path d="M18.3453678,0.330547393 C26.7564657,-0.726385482 33.5896061,1.94165501 37.6614361,7.86490239 L10.1538258,54.304218 L0.0242636635,48.2762267 L18.3453678,0.330547393 Z" id="Combined-Shape" fill="#DEDEDE"></path>
                    <path d="M42.1833434,8.85075465 C41.9625359,8.85075465 38.3604278,6.70560468 31.3770188,2.41530474 L28.8870206,9.4938062 C37.9720432,9.06510517 42.4041508,8.85075465 42.1833434,8.85075465 Z" id="Path-15" fill="#DEDEDE"></path>
                    <path d="M28.3895385,6.48198913 C36.8006364,5.42505625 43.6337767,8.09309675 47.7056068,14.0163441 L10.0684343,54.4276685 L28.3895385,6.48198913 Z" id="Combined-Shape-Copy-9" fill="#ECECEC"></path>
                </g>
            </g>
            <g id="Group-4" transform="translate(60.697231, 36.969967)">
                <g id="Group-3" transform="translate(26.588432, 0.000000)">
                    <path d="M18.1366253,11.1002898 C18.1366253,11.1002898 12.7273409,14.3369323 1.90877203,20.8102171 L19.2744683,32.6428469 C18.5159063,18.2811422 18.1366253,11.1002898 18.1366253,11.1002898 Z" id="Path-11" fill="#58C3E5"></path>
                    <g id="Group-2-Copy-2" transform="translate(37.212472, 70.761932)">
                        <path d="M2.61543784,5.4769141 C4.01945395,4.77490591 5.1576339,3.06763588 5.1576339,1.66361976 C5.1576339,0.259603647 4.01945395,-0.309486212 2.61543784,0.392521985 C1.21142172,1.09453018 0.0732417783,2.80180021 0.0732417783,4.20581633 C0.0732417783,5.60983244 1.21142172,6.1789223 2.61543784,5.4769141 Z" id="Oval-14" fill="#4F4F4F"></path>
                        <polygon id="Path-28" fill="#4F4F4F" points="4.4040095 0.231276794 7.43548388 2.0568072 6.57509447 3.65922631 3.41377898 2.16430166"></polygon>
                        <polygon id="Path-27" fill="#4F4F4F" points="0.920861065 5.68676228 3.51535567 7.35877983 4.7144345 5.6897237 1.61101476 4.01474474"></polygon>
                        <path d="M5.46234959,7.27100467 C6.88554505,6.55940679 8.03927293,4.82881486 8.03927293,3.4056194 C8.03927293,1.98242394 6.88554505,1.40556012 5.46234959,2.11715799 C4.03915413,2.82875586 2.88542625,4.55934779 2.88542625,5.98254325 C2.88542625,7.40573871 4.03915413,7.98260254 5.46234959,7.27100467 Z" id="Oval-14-Copy" fill="#595959"></path>
                    </g>
                    <polygon id="Path-12" fill="#58C3E5" points="45.2364544 74.974094 29.5353888 84.3074275 24.6325003 67.5803474 43.3009202 67.5803474"></polygon>
                    <path d="M22.6136968,11.0425979 L43.1992398,22.4325009 C46.0387915,24.0036141 47.8011391,26.9928368 47.8011391,30.2380565 L47.8011391,70.9373645 C47.8011391,73.4007433 45.804176,75.3977063 43.3407973,75.3977063 C42.5853988,75.3977063 41.8423752,75.2058545 41.1814051,74.8401423 L20.5958621,63.4502393 C17.7563104,61.8791261 15.9939628,58.8899034 15.9939628,55.6446837 L15.9939628,14.9453757 C15.9939628,12.4819969 17.9909259,10.4850339 20.4543046,10.4850339 C21.2097031,10.4850339 21.9527267,10.6768857 22.6136968,11.0425979 Z" id="Rectangle-11-Copy" fill="#58C3E5"></path>
                    <path d="M15.3486462,15.3602432 L35.9341892,26.7501461 C38.7737409,28.3212593 40.5360885,31.3104821 40.5360885,34.5557017 L40.5360885,75.2550097 C40.5360885,77.7183885 38.5391254,79.7153515 36.0757466,79.7153515 C35.3203482,79.7153515 34.5773245,79.5234998 33.9163545,79.1577875 L13.3308115,67.7678846 C10.4912598,66.1967714 8.7289122,63.2075486 8.7289122,59.962329 L8.7289122,19.2630209 C8.7289122,16.7996422 10.7258753,14.8026791 13.189254,14.8026791 C13.9446525,14.8026791 14.6876761,14.9945309 15.3486462,15.3602432 Z" id="Rectangle-11-Copy-2" fill="#C1CDD1"></path>
                    <path d="M13.9696504,16.1882308 L34.5551933,27.5781337 C37.394745,29.1492469 39.1570926,32.1384697 39.1570926,35.3836893 L39.1570926,76.0829974 C39.1570926,78.5463761 37.1601296,80.5433392 34.6967508,80.5433392 C33.9413523,80.5433392 33.1983287,80.3514874 32.5373586,79.9857751 L11.9518157,68.5958722 C9.11226397,67.024759 7.34991637,64.0355362 7.34991637,60.7903166 L7.34991637,20.0910086 C7.34991637,17.6276298 9.34687942,15.6306668 11.8102582,15.6306668 C12.5656567,15.6306668 13.3086803,15.8225185 13.9696504,16.1882308 Z" id="Rectangle-11-Copy-4" fill="#58C3E5"></path>
                    <g id="Group-2" transform="translate(19.274468, 79.715352)">
                        <path d="M2.61543784,5.4769141 C4.01945395,4.77490591 5.1576339,3.06763588 5.1576339,1.66361976 C5.1576339,0.259603647 4.01945395,-0.309486212 2.61543784,0.392521985 C1.21142172,1.09453018 0.0732417783,2.80180021 0.0732417783,4.20581633 C0.0732417783,5.60983244 1.21142172,6.1789223 2.61543784,5.4769141 Z" id="Oval-14" fill="#4F4F4F"></path>
                        <polygon id="Path-28" fill="#4F4F4F" points="4.4040095 0.231276794 7.43548388 2.0568072 6.57509447 3.65922631 3.41377898 2.16430166"></polygon>
                        <polygon id="Path-27" fill="#4F4F4F" points="0.920861065 5.68676228 3.51535567 7.35877983 4.7144345 5.6897237 1.61101476 4.01474474"></polygon>
                        <path d="M5.46234959,7.27100467 C6.88554505,6.55940679 8.03927293,4.82881486 8.03927293,3.4056194 C8.03927293,1.98242394 6.88554505,1.40556012 5.46234959,2.11715799 C4.03915413,2.82875586 2.88542625,4.55934779 2.88542625,5.98254325 C2.88542625,7.40573871 4.03915413,7.98260254 5.46234959,7.27100467 Z" id="Oval-14-Copy" fill="#595959"></path>
                    </g>
                    <g id="Group-2-Copy" transform="translate(2.619694, 70.946819)">
                        <path d="M2.61543784,5.4769141 C4.01945395,4.77490591 5.1576339,3.06763588 5.1576339,1.66361976 C5.1576339,0.259603647 4.01945395,-0.309486212 2.61543784,0.392521985 C1.21142172,1.09453018 0.0732417783,2.80180021 0.0732417783,4.20581633 C0.0732417783,5.60983244 1.21142172,6.1789223 2.61543784,5.4769141 Z" id="Oval-14" fill="#4F4F4F"></path>
                        <polygon id="Path-28" fill="#4F4F4F" points="4.4040095 0.231276794 7.43548388 2.0568072 6.57509447 3.65922631 3.41377898 2.16430166"></polygon>
                        <polygon id="Path-27" fill="#4F4F4F" points="0.920861065 5.68676228 3.51535567 7.35877983 4.7144345 5.6897237 1.61101476 4.01474474"></polygon>
                        <path d="M5.46234959,7.27100467 C6.88554505,6.55940679 8.03927293,4.82881486 8.03927293,3.4056194 C8.03927293,1.98242394 6.88554505,1.40556012 5.46234959,2.11715799 C4.03915413,2.82875586 2.88542625,4.55934779 2.88542625,5.98254325 C2.88542625,7.40573871 4.03915413,7.98260254 5.46234959,7.27100467 Z" id="Oval-14-Copy" fill="#595959"></path>
                    </g>
                    <path d="M6.71010868,20.5039233 L27.2956517,31.8938262 C30.1352034,33.4649394 31.897551,36.4541622 31.897551,39.6993818 L31.897551,80.3986899 C31.897551,82.8620686 29.9005879,84.8590317 27.4372091,84.8590317 C26.6818107,84.8590317 25.938787,84.6671799 25.277817,84.3014677 L4.69227398,72.9115647 C1.8527223,71.3404515 0.0903747035,68.3512287 0.0903747035,65.1060091 L0.0903747035,24.4067011 C0.0903747035,21.9433223 2.08733775,19.9463593 4.55071651,19.9463593 C5.306115,19.9463593 6.04913862,20.138211 6.71010868,20.5039233 Z" id="Rectangle-11-Copy-3" fill="#67D5F8"></path>
                    <path d="M6.71010868,20.5039233 L27.2956517,31.8938262 C30.1352034,33.4649394 31.897551,36.4541622 31.897551,39.6993818 L31.897551,80.3986899 C31.897551,82.8620686 29.9005879,84.8590317 27.4372091,84.8590317 C26.6818107,84.8590317 25.938787,84.6671799 25.277817,84.3014677 L4.69227398,72.9115647 C1.8527223,71.3404515 0.0903747035,68.3512287 0.0903747035,65.1060091 L0.0903747035,24.4067011 C0.0903747035,21.9433223 2.08733775,19.9463593 4.55071651,19.9463593 C5.306115,19.9463593 6.04913862,20.138211 6.71010868,20.5039233 Z" id="Rectangle-11-Copy-3" fill="#67D5F8"></path>
                    <path d="M8.03944961,31.1804051 L22.8624654,39.6334118 C25.5847212,41.1858116 27.2653429,44.078893 27.2653429,47.2126801 L27.2653429,47.2126801 C27.2653429,48.8387887 25.9471215,50.1570102 24.3210129,50.1570102 C23.8094981,50.1570102 23.3068076,50.0237501 22.8624654,49.7703585 L8.03944961,41.3173518 C5.31719378,39.764952 3.63657206,36.8718707 3.63657206,33.7380835 L3.63657206,33.7380835 C3.63657206,32.1119749 4.95479353,30.7937534 6.58090212,30.7937534 C7.09241686,30.7937534 7.59510738,30.9270135 8.03944961,31.1804051 Z" id="Rectangle-11" fill="#5FC8E9"></path>
                    <path d="M8.03944961,44.9853212 L22.8624654,53.4383279 C25.5847212,54.9907277 27.2653429,57.883809 27.2653429,61.0175962 L27.2653429,61.0175962 C27.2653429,62.6437048 25.9471215,63.9619262 24.3210129,63.9619262 C23.8094981,63.9619262 23.3068076,63.8286662 22.8624654,63.5752746 L8.03944961,55.1222679 C5.31719378,53.5698681 3.63657206,50.6767867 3.63657206,47.5429995 L3.63657206,47.5429995 C3.63657206,45.9168909 4.95479353,44.5986695 6.58090212,44.5986695 C7.09241686,44.5986695 7.59510738,44.7319295 8.03944961,44.9853212 Z" id="Rectangle-11-Copy-5" fill="#5FC8E9"></path>
                    <g id="Group" transform="translate(22.976174, 0.053292)">
                        <path d="M2.6891471,3.67191303 L2.6891471,15.1100486 C2.6891471,15.8430624 2.094922,16.4372875 1.36190819,16.4372875 C0.628894385,16.4372875 0.0346692844,15.8430624 0.0346692844,15.1100486 L0.0346692844,1.38826876 C0.0346692844,0.369951766 1.13409771,-0.269028742 2.0189017,0.235046033 L14.0618428,7.09593594 C14.4762216,7.33200847 14.7320882,7.77225191 14.7320882,8.24915867 L14.7320882,20.7033538 C14.7320882,21.4363676 14.1378631,22.0305927 13.4048493,22.0305927 C12.6718355,22.0305927 12.0776104,21.4363676 12.0776104,20.7033538 L12.0776104,9.02054112 L2.6891471,3.67191303 Z" id="Path-13" fill="#C1CDD1" fill-rule="nonzero"></path>
                        <path d="M12.1101955,5.95930729 C11.9509398,5.89325276 11.7763073,5.85679471 11.5931595,5.85679471 C10.8473144,5.85679471 10.2426875,6.46142164 10.2426875,7.20726674 C10.2426875,7.6438962 10.4499002,8.03212856 10.7713524,8.27899069 L3.92964021,4.32892634 C3.28912834,3.95912664 3.06967277,3.14010729 3.43947247,2.49959542 C3.80927217,1.85908355 4.62829152,1.63962798 5.26880339,2.00942768 L12.1101955,5.95930729 Z" id="Combined-Shape" fill="#636363"></path>
                        <path d="M13.4014856,7.95372454 L13.4014856,7.95372454 C13.7659619,7.69028149 14.274991,7.77218508 14.5384341,8.13666133 C14.6387678,8.27547407 14.6927757,8.44239011 14.6927757,8.61366716 L14.6927757,20.7381271 C14.6927757,21.4512869 14.1146454,22.0294172 13.4014856,22.0294172 L13.4014856,22.0294172 C12.6883258,22.0294172 12.1101955,21.4512869 12.1101955,20.7381271 L12.1101955,10.4803534 C12.1101955,9.47971674 12.5905123,8.53989519 13.4014856,7.95372454 Z" id="Rectangle-23" fill="#B4C3C8"></path>
                    </g>
                    <path d="M15.5589132,78.924035 L4.69227398,72.9115647 C1.8527223,71.3404515 0.0903747035,68.3512287 0.0903747035,65.1060091 L0.0903747035,35.1650001 L12.1054221,41.8128803 C14.252931,43.0010888 15.5857672,45.2617917 15.5857672,47.716101 L15.5857672,78.4963569 C15.5857672,78.6412308 15.5766344,78.7839716 15.5589132,78.924035 Z" id="Combined-Shape" fill="#000000" opacity="0.15"></path>
                </g>
                <g id="Group-3-Copy" transform="translate(0.000000, 27.327658)">
                    <path d="M13.7164486,8.39497715 C13.7164486,8.39497715 9.62549065,10.8427997 1.4435747,15.7384447 L14.5769816,24.6872792 C14.003293,13.8257445 13.7164486,8.39497715 13.7164486,8.39497715 Z" id="Path-11" fill="#EFCD39"></path>
                    <g id="Group-2-Copy-2" transform="translate(28.143216, 53.516153)">
                        <path d="M1.9780151,4.14210525 C3.03985073,3.61118733 3.90063858,2.32000547 3.90063858,1.25816984 C3.90063858,0.196334214 3.03985073,-0.234059626 1.9780151,0.296858294 C0.916179473,0.827776213 0.0553916218,2.11895808 0.0553916218,3.1807937 C0.0553916218,4.24262933 0.916179473,4.67302317 1.9780151,4.14210525 Z" id="Oval-14" fill="#4F4F4F"></path>
                        <polygon id="Path-28" fill="#4F4F4F" points="3.33068412 0.174911055 5.62334122 1.55553141 4.97264204 2.76741614 2.58178813 1.6368278"></polygon>
                        <polygon id="Path-27" fill="#4F4F4F" points="0.696432951 4.30081018 2.65860901 5.56533113 3.56545374 4.30304985 1.21838549 3.03628922"></polygon>
                        <path d="M4.13109034,5.49894814 C5.207431,4.96077769 6.07997752,3.65195784 6.07997752,2.57561717 C6.07997752,1.4992765 5.207431,1.06300333 4.13109034,1.60117377 C3.05474967,2.13934422 2.18220315,3.44816407 2.18220315,4.52450474 C2.18220315,5.60084541 3.05474967,6.03711858 4.13109034,5.49894814 Z" id="Oval-14-Copy" fill="#595959"></path>
                    </g>
                    <polygon id="Path-12" fill="#EFCD39" points="34.2116293 56.7017453 22.3371568 63.7604008 18.6291782 51.1099693 32.7478148 51.1099693"></polygon>
                    <path d="M17.1023884,8.35134565 L32.6709155,16.9653527 C34.8184245,18.1535613 36.1512606,20.4142641 36.1512606,22.8685734 L36.1512606,53.6488293 C36.1512606,55.5118445 34.6409884,57.0221167 32.7779732,57.0221167 C32.2066771,57.0221167 31.6447398,56.8770222 31.1448584,56.6004397 L15.5763313,47.9864326 C13.4288224,46.798224 12.0959862,44.5375212 12.0959862,42.0832119 L12.0959862,11.302956 C12.0959862,9.43994083 13.6062584,7.92966863 15.4692736,7.92966863 C16.0405697,7.92966863 16.602507,8.07476316 17.1023884,8.35134565 Z" id="Rectangle-11-Copy" fill="#EFCD39"></path>
                    <path d="M11.6079432,11.6167138 L27.1764703,20.2307209 C29.3239793,21.4189295 30.6568154,23.6796323 30.6568154,26.1339416 L30.6568154,56.9141975 C30.6568154,58.7772127 29.1465432,60.2874849 27.2835281,60.2874849 C26.7122319,60.2874849 26.1502946,60.1423904 25.6504132,59.8658079 L10.0818861,51.2518008 C7.93437718,50.0635922 6.60154101,47.8028894 6.60154101,45.3485801 L6.60154101,14.5683242 C6.60154101,12.705309 8.11181321,11.1950368 9.97482839,11.1950368 C10.5461246,11.1950368 11.1080618,11.3401313 11.6079432,11.6167138 Z" id="Rectangle-11-Copy-2" fill="#C1CDD1"></path>
                    <path d="M10.56503,12.242908 L26.1335572,20.8569151 C28.2810661,22.0451237 29.6139023,24.3058265 29.6139023,26.7601358 L29.6139023,57.5403917 C29.6139023,59.4034069 28.1036301,60.9136791 26.2406149,60.9136791 C25.6693187,60.9136791 25.1073815,60.7685846 24.6075001,60.4920021 L9.03897294,51.877995 C6.89146401,50.6897864 5.55862784,48.4290836 5.55862784,45.9747743 L5.55862784,15.1945184 C5.55862784,13.3315032 7.06890004,11.821231 8.93191522,11.821231 C9.50321138,11.821231 10.0651486,11.9663255 10.56503,12.242908 Z" id="Rectangle-11-Copy-4" fill="#EFCD39"></path>
                    <g id="Group-2" transform="translate(14.576982, 60.287485)">
                        <path d="M1.9780151,4.14210525 C3.03985073,3.61118733 3.90063858,2.32000547 3.90063858,1.25816984 C3.90063858,0.196334214 3.03985073,-0.234059626 1.9780151,0.296858294 C0.916179473,0.827776213 0.0553916218,2.11895808 0.0553916218,3.1807937 C0.0553916218,4.24262933 0.916179473,4.67302317 1.9780151,4.14210525 Z" id="Oval-14" fill="#4F4F4F"></path>
                        <polygon id="Path-28" fill="#4F4F4F" points="3.33068412 0.174911055 5.62334122 1.55553141 4.97264204 2.76741614 2.58178813 1.6368278"></polygon>
                        <polygon id="Path-27" fill="#4F4F4F" points="0.696432951 4.30081018 2.65860901 5.56533113 3.56545374 4.30304985 1.21838549 3.03628922"></polygon>
                        <path d="M4.13109034,5.49894814 C5.207431,4.96077769 6.07997752,3.65195784 6.07997752,2.57561717 C6.07997752,1.4992765 5.207431,1.06300333 4.13109034,1.60117377 C3.05474967,2.13934422 2.18220315,3.44816407 2.18220315,4.52450474 C2.18220315,5.60084541 3.05474967,6.03711858 4.13109034,5.49894814 Z" id="Oval-14-Copy" fill="#595959"></path>
                    </g>
                    <g id="Group-2-Copy" transform="translate(1.981234, 53.655980)">
                        <path d="M1.9780151,4.14210525 C3.03985073,3.61118733 3.90063858,2.32000547 3.90063858,1.25816984 C3.90063858,0.196334214 3.03985073,-0.234059626 1.9780151,0.296858294 C0.916179473,0.827776213 0.0553916218,2.11895808 0.0553916218,3.1807937 C0.0553916218,4.24262933 0.916179473,4.67302317 1.9780151,4.14210525 Z" id="Oval-14" fill="#4F4F4F"></path>
                        <polygon id="Path-28" fill="#4F4F4F" points="3.33068412 0.174911055 5.62334122 1.55553141 4.97264204 2.76741614 2.58178813 1.6368278"></polygon>
                        <polygon id="Path-27" fill="#4F4F4F" points="0.696432951 4.30081018 2.65860901 5.56533113 3.56545374 4.30304985 1.21838549 3.03628922"></polygon>
                        <path d="M4.13109034,5.49894814 C5.207431,4.96077769 6.07997752,3.65195784 6.07997752,2.57561717 C6.07997752,1.4992765 5.207431,1.06300333 4.13109034,1.60117377 C3.05474967,2.13934422 2.18220315,3.44816407 2.18220315,4.52450474 C2.18220315,5.60084541 3.05474967,6.03711858 4.13109034,5.49894814 Z" id="Oval-14-Copy" fill="#595959"></path>
                    </g>
                    <path d="M5.0747512,15.5067994 L20.6432783,24.1208065 C22.7907872,25.309015 24.1236234,27.5697179 24.1236234,30.0240272 L24.1236234,60.8042831 C24.1236234,62.6672982 22.6133512,64.1775704 20.750336,64.1775704 C20.1790399,64.1775704 19.6171026,64.0324759 19.1172212,63.7558934 L3.54869409,55.1418863 C1.40118516,53.9536778 0.0683489875,51.6929749 0.0683489875,49.2386656 L0.0683489875,18.4584097 C0.0683489875,16.5953946 1.57862119,15.0851224 3.44163637,15.0851224 C4.01293253,15.0851224 4.57486978,15.2302169 5.0747512,15.5067994 Z" id="Rectangle-11-Copy-3" fill="#FADB51"></path>
                    <path d="M6.08011114,23.5812571 L17.2905282,29.9741351 C19.3493281,31.148191 20.6203563,33.3361836 20.6203563,35.7062183 L20.6203563,35.7062183 C20.6203563,36.936019 19.6234058,37.9329694 18.3936051,37.9329694 C18.0067544,37.9329694 17.6265774,37.8321869 17.2905282,37.6405508 L6.08011114,31.2476728 C4.02131125,30.0736169 2.75028309,27.8856243 2.75028309,25.5155896 L2.75028309,25.5155896 C2.75028309,24.2857889 3.74723355,23.2888385 4.97703428,23.2888385 C5.36388494,23.2888385 5.744062,23.389621 6.08011114,23.5812571 Z" id="Rectangle-11" fill="#EFCD39"></path>
                    <path d="M6.08011114,34.0217012 L17.2905282,40.4145791 C19.3493281,41.588635 20.6203563,43.7766276 20.6203563,46.1466623 L20.6203563,46.1466623 C20.6203563,47.376463 19.6234058,48.3734135 18.3936051,48.3734135 C18.0067544,48.3734135 17.6265774,48.272631 17.2905282,48.0809948 L6.08011114,41.6881168 C4.02131125,40.5140609 2.75028309,38.3260683 2.75028309,35.9560337 L2.75028309,35.9560337 C2.75028309,34.726233 3.74723355,33.7292825 4.97703428,33.7292825 C5.36388494,33.7292825 5.744062,33.830065 6.08011114,34.0217012 Z" id="Rectangle-11-Copy-5" fill="#EFCD39"></path>
                    <g id="Group" transform="translate(17.376524, 0.040304)">
                        <path d="M2.03376027,2.77701092 L2.03376027,11.4274956 C2.03376027,11.9818625 1.58435704,12.4312658 1.02999006,12.4312658 C0.475623076,12.4312658 0.0262198424,11.9818625 0.0262198424,11.4274956 L0.0262198424,1.04992614 C0.0262198424,0.279788787 0.85770052,-0.203462268 1.52686407,0.177761672 L10.6347538,5.36654638 C10.948142,5.54508437 11.14165,5.87803366 11.14165,6.23871085 L11.14165,15.6576256 C11.14165,16.2119926 10.6922467,16.6613958 10.1378797,16.6613958 C9.58351276,16.6613958 9.13410952,16.2119926 9.13410952,15.6576256 L9.13410952,6.82209544 L2.03376027,2.77701092 Z" id="Path-13" fill="#C1CDD1" fill-rule="nonzero"></path>
                        <path d="M9.1587532,4.50693174 C9.03831056,4.45697572 8.90623869,4.42940307 8.76772689,4.42940307 C8.20365579,4.42940307 7.74638582,4.88667304 7.74638582,5.45074413 C7.74638582,5.78096023 7.90309754,6.07457434 8.14620684,6.26127234 L2.97192599,3.2738999 C2.48751679,2.99422612 2.32154594,2.37481448 2.60121972,1.89040528 C2.8808935,1.40599608 3.50030514,1.24002523 3.98471434,1.51969901 L9.1587532,4.50693174 Z" id="Combined-Shape" fill="#636363"></path>
                        <path d="M10.1353359,6.0152786 L10.1353359,6.0152786 C10.4109836,5.8160407 10.7959545,5.87798312 10.9951924,6.15363085 C11.0710732,6.25861278 11.1119185,6.38484879 11.1119185,6.51438297 L11.1119185,15.6839241 C11.1119185,16.2232758 10.6746876,16.6605068 10.1353359,16.6605068 L10.1353359,16.6605068 C9.59598416,16.6605068 9.1587532,16.2232758 9.1587532,15.6839241 L9.1587532,7.92612884 C9.1587532,7.16936285 9.52200934,6.45859038 10.1353359,6.0152786 Z" id="Rectangle-23" fill="#B4C3C8"></path>
                    </g>
                </g>
            </g>
            <g id="Group-2" transform="translate(98.197231, 98.284574)">
                <g id="Group" transform="translate(0.064117, 13.576431)">
                    <polygon id="Rectangle-Copy-3" fill="#67C9B9" points="47.5621628 9.54806381 47.5621628 11.4351998 20.8948751 27.1072241 0.0139167836 17.5674592 0.0139167836 15.6847239"></polygon>
                    <polygon id="Rectangle-Copy-4" fill="#68E2C2" points="26.6812045 0.00511466736 47.5621628 9.54487959 20.8948751 25.2169039 0.0139167836 15.677139"></polygon>
                    <polygon id="Rectangle-Copy-5" fill="#2FC5B0" points="43.1354169 9.17831679 44.7150546 9.87014603 39.0793856 13.1821567 37.499748 12.4903275"></polygon>
                    <mask id="mask-2" fill="white">
                        <use xlink:href="#path-1"></use>
                    </mask>
                    <use id="Oval-5" fill="#2FC5B0" xlink:href="#path-1"></use>
                </g>
                <g id="Group-Copy" transform="translate(0.028128, 9.056452)">
                    <polygon id="Rectangle-Copy-3" fill="#67C9B9" points="47.5621628 9.54806381 47.5621628 11.4351998 20.8948751 27.1072241 0.0139167836 17.5674592 0.0139167836 15.6847239"></polygon>
                    <polygon id="Rectangle-Copy-4" fill="#68E2C2" points="26.6812045 0.00511466736 47.5621628 9.54487959 20.8948751 25.2169039 0.0139167836 15.677139"></polygon>
                    <polygon id="Rectangle-Copy-5" fill="#2FC5B0" points="43.1354169 9.17831679 44.7150546 9.87014603 39.0793856 13.1821567 37.499748 12.4903275"></polygon>
                    <mask id="mask-4" fill="white">
                        <use xlink:href="#path-3"></use>
                    </mask>
                    <use id="Oval-5" fill="#2FC5B0" xlink:href="#path-3"></use>
                </g>
                <g id="Group-Copy-2" transform="translate(0.028128, 4.536472)">
                    <polygon id="Rectangle-Copy-3" fill="#67C9B9" points="47.5621628 9.54806381 47.5621628 11.4351998 20.8948751 27.1072241 0.0139167836 17.5674592 0.0139167836 15.6847239"></polygon>
                    <polygon id="Rectangle-Copy-4" fill="#68E2C2" points="26.6812045 0.00511466736 47.5621628 9.54487959 20.8948751 25.2169039 0.0139167836 15.677139"></polygon>
                    <polygon id="Rectangle-Copy-5" fill="#2FC5B0" points="43.1354169 9.17831679 44.7150546 9.87014603 39.0793856 13.1821567 37.499748 12.4903275"></polygon>
                    <mask id="mask-6" fill="white">
                        <use xlink:href="#path-5"></use>
                    </mask>
                    <use id="Oval-5" fill="#2FC5B0" xlink:href="#path-5"></use>
                </g>
                <g id="Group-Copy-3" transform="translate(0.028128, 0.016493)">
                    <polygon id="Rectangle-Copy-3" fill="#67C9B9" points="47.5621628 9.54806381 47.5621628 11.4351998 20.8948751 27.1072241 0.0139167836 17.5674592 0.0139167836 15.6847239"></polygon>
                    <polygon id="Rectangle-Copy-4" fill="#68E2C2" points="26.6812045 0.00511466736 47.5621628 9.54487959 20.8948751 25.2169039 0.0139167836 15.677139"></polygon>
                    <polygon id="Rectangle-Copy-5" fill="#2FC5B0" points="43.1354169 9.17831679 44.7150546 9.87014603 39.0793856 13.1821567 37.499748 12.4903275"></polygon>
                    <mask id="mask-8" fill="white">
                        <use xlink:href="#path-7"></use>
                    </mask>
                    <use id="Oval-5" fill="#2FC5B0" xlink:href="#path-7"></use>
                </g>
            </g>
        </g>
    </g>
</svg>