<?xml version="1.0" encoding="UTF-8"?>
<svg width="137px" height="111px" viewBox="0 0 137 111" version="1.1" xmlns="http://www.w3.org/2000/svg" xmlns:xlink="http://www.w3.org/1999/xlink">
    <!-- Generator: Sketch 48.2 (47327) - http://www.bohemiancoding.com/sketch -->
    <title>Group 2</title>
    <desc>Created with Sketch.</desc>
    <defs>
        <path d="M49.9093569,35.2854162 C56.8632151,35.2854162 62.5004309,31.8701924 62.5004309,27.6573005 C62.5004309,23.4444085 56.8632151,20.0291848 49.9093569,20.0291848 C42.9554988,20.0291848 37.3182829,23.4444085 37.3182829,27.6573005 C37.3182829,31.8701924 42.9554988,35.2854162 49.9093569,35.2854162 Z" id="path-1"></path>
        <path d="M49.9093569,35.2854162 C56.8632151,35.2854162 62.5004309,31.8701924 62.5004309,27.6573005 C62.5004309,23.4444085 56.8632151,20.0291848 49.9093569,20.0291848 C42.9554988,20.0291848 37.3182829,23.4444085 37.3182829,27.6573005 C37.3182829,31.8701924 42.9554988,35.2854162 49.9093569,35.2854162 Z" id="path-3"></path>
        <path d="M49.9093569,35.2854162 C56.8632151,35.2854162 62.5004309,31.8701924 62.5004309,27.6573005 C62.5004309,23.4444085 56.8632151,20.0291848 49.9093569,20.0291848 C42.9554988,20.0291848 37.3182829,23.4444085 37.3182829,27.6573005 C37.3182829,31.8701924 42.9554988,35.2854162 49.9093569,35.2854162 Z" id="path-5"></path>
    </defs>
    <g id="Landlord---Finetune" stroke="none" stroke-width="1" fill="none" fill-rule="evenodd" transform="translate(-1200.000000, -420.000000)">
        <g id="Group-2" transform="translate(1200.601396, 420.000000)">
            <g id="Group-Copy-4" transform="translate(0.250167, 51.384038)">
                <polygon id="Rectangle-Copy-3" fill="#67C9B9" points="99.7895152 20.0326605 99.7895152 23.9920343 43.8392481 56.8732916 0.0291986109 36.8580429 0.0291986109 32.907902"></polygon>
                <polygon id="Rectangle-Copy-4" fill="#68E2C2" points="55.9794657 0.0107310128 99.7895152 20.0259797 43.8392481 52.907237 0.0291986109 32.8919883"></polygon>
                <polygon id="Rectangle-Copy-5" fill="#2FC5B0" points="90.5018211 19.2568994 93.8160369 20.7084167 81.9919178 27.6573005 78.677702 26.2057831"></polygon>
                <mask id="mask-2" fill="white">
                    <use xlink:href="#path-1"></use>
                </mask>
                <use id="Oval-5" fill="#2FC5B0" xlink:href="#path-1"></use>
            </g>
            <g id="Group-Copy-5" transform="translate(0.174660, 41.900731)">
                <polygon id="Rectangle-Copy-3" fill="#67C9B9" points="99.7895152 20.0326605 99.7895152 23.9920343 43.8392481 56.8732916 0.0291986109 36.8580429 0.0291986109 32.907902"></polygon>
                <polygon id="Rectangle-Copy-4" fill="#68E2C2" points="55.9794657 0.0107310128 99.7895152 20.0259797 43.8392481 52.907237 0.0291986109 32.8919883"></polygon>
                <polygon id="Rectangle-Copy-5" fill="#2FC5B0" points="90.5018211 19.2568994 93.8160369 20.7084167 81.9919178 27.6573005 78.677702 26.2057831"></polygon>
                <mask id="mask-4" fill="white">
                    <use xlink:href="#path-3"></use>
                </mask>
                <use id="Oval-5" fill="#2FC5B0" xlink:href="#path-3"></use>
            </g>
            <g id="Group-Copy-6" transform="translate(0.174660, 32.417425)">
                <polygon id="Rectangle-Copy-3" fill="#67C9B9" points="99.7895152 20.0326605 99.7895152 23.9920343 43.8392481 56.8732916 0.0291986109 36.8580429 0.0291986109 32.907902"></polygon>
                <polygon id="Rectangle-Copy-4" fill="#68E2C2" points="55.9794657 0.0107310128 99.7895152 20.0259797 43.8392481 52.907237 0.0291986109 32.8919883"></polygon>
                <polygon id="Rectangle-Copy-5" fill="#2FC5B0" points="90.5018211 19.2568994 93.8160369 20.7084167 81.9919178 27.6573005 78.677702 26.2057831"></polygon>
                <mask id="mask-6" fill="white">
                    <use xlink:href="#path-5"></use>
                </mask>
                <use id="Oval-5" fill="#2FC5B0" xlink:href="#path-5"></use>
            </g>
            <g id="Group-3" transform="translate(50.531999, 0.096768)">
                <path d="M50.2945197,9.89991376 C57.2395692,17.3766274 62.5002317,22.960136 66.0765071,26.6504396 C69.6527826,30.3407431 76.1490388,35.5140178 85.5652757,42.1702637 L79.3533729,101.694925 L64.4632985,110.602719 L22.7301169,68.4811694 L0.22307514,8.79456137 L15.0237637,0.0280747645 C24.6282714,4.76662798 31.3830271,7.50963732 35.2880308,8.25710278 C39.1930345,9.00456823 44.1951974,9.55217189 50.2945197,9.89991376 Z" id="Polygon-Copy-2" fill="#D4BB4C"></path>
                <path d="M50.2945197,9.89991376 C58.431661,18.6067286 63.6923235,24.1902372 66.0765071,26.6504396 C69.6527826,30.3407431 76.1490388,35.5140178 85.5652757,42.1702637 L70.6871331,50.9314198 L22.7301169,68.4811694 L35.425016,18.6441139 L50.2945197,9.89991376 Z" id="Polygon-Copy-2" fill="#E5CB58"></path>
                <path d="M35.3889622,18.6371379 C42.3340117,26.1138515 47.5946742,31.6973601 51.1709496,35.3876637 C54.7472251,39.0779672 61.2434813,44.2512419 70.6597182,50.9074878 L64.4478154,110.432149 L35.3889622,109.762113 L7.82455942,77.2183935 L0.11820619,8.76529886 C9.72271393,13.5038521 16.4774696,16.2468614 20.3824733,16.9943269 C24.2874769,17.7417923 29.2896399,18.289396 35.3889622,18.6371379 Z" id="Polygon" fill="#FADB51"></path>
                <path d="M35.3889622,28.6205803 C40.8566222,34.5068059 44.9982073,38.9025595 47.8137176,41.8078412 C50.6292278,44.7131228 55.7435643,48.7859098 63.156727,54.0262021 L58.2662546,100.888447 L35.3889622,100.360945 L13.6882124,74.7401057 L7.62119741,20.8487338 C15.1825809,24.5792756 20.5004274,26.7387767 23.574737,27.3272372 C26.6490466,27.9156976 30.5871216,28.346812 35.3889622,28.6205803 Z" id="Polygon-Copy" fill="#EACE54"></path>
                <path d="M35.3889622,109.762113 L64.4478154,110.432149 L70.6597182,50.9074878 C61.2434813,44.2512419 54.7472251,39.0779672 51.1709496,35.3876637 C47.5946742,31.6973601 42.3340117,26.1138515 35.3889622,18.6371379 L35.3889622,109.762113 Z" id="Combined-Shape" fill="#000000" opacity="0.03"></path>
            </g>
        </g>
    </g>
</svg>