<?xml version="1.0" encoding="UTF-8"?>
<svg width="117px" height="146px" viewBox="0 0 117 146" version="1.1" xmlns="http://www.w3.org/2000/svg" xmlns:xlink="http://www.w3.org/1999/xlink">
    <!-- Generator: Sketch 48.2 (47327) - http://www.bohemiancoding.com/sketch -->
    <title>Group 4</title>
    <desc>Created with Sketch.</desc>
    <defs></defs>
    <g id="Landlord---Review" stroke="none" stroke-width="1" fill="none" fill-rule="evenodd" transform="translate(-1215.000000, -414.000000)">
        <g id="Group-4" transform="translate(1215.628556, 414.000000)">
            <g id="Group-3" transform="translate(41.444912, 0.000000)">
                <path d="M28.2705966,17.3026575 C28.2705966,17.3026575 19.8388352,22.3477974 2.97531228,32.4380773 L30.0442176,50.882275 C28.8618036,28.4958633 28.2705966,17.3026575 28.2705966,17.3026575 Z" id="Path-11" fill="#58C3E5"></path>
                <g id="Group-2-Copy-2" transform="translate(58.005211, 110.300676)">
                    <path d="M4.07683275,8.53717968 C6.26535307,7.4429193 8.03949934,4.78169973 8.03949934,2.5931794 C8.03949934,0.404659072 6.26535307,-0.482413884 4.07683275,0.611846498 C1.88831242,1.70610688 0.114166154,4.36732645 0.114166154,6.55584678 C0.114166154,8.74436711 1.88831242,9.63144007 4.07683275,8.53717968 Z" id="Oval-14" fill="#4F4F4F"></path>
                    <polygon id="Path-28" fill="#4F4F4F" points="6.86478182 0.360504385 11.5901146 3.20606319 10.2489763 5.70384562 5.32125281 3.37362095"></polygon>
                    <polygon id="Path-27" fill="#4F4F4F" points="1.43539888 8.86428206 5.47958622 11.4705516 7.34865905 8.8688982 2.51118097 6.25801256"></polygon>
                    <path d="M8.51447714,11.3337314 C10.7328934,10.224523 12.5312751,7.52695028 12.5312751,5.30853401 C12.5312751,3.09011773 10.7328934,2.19092705 8.51447714,3.30013541 C6.29606087,4.40934377 4.49767915,7.10691653 4.49767915,9.3253328 C4.49767915,11.5437491 6.29606087,12.4429398 8.51447714,11.3337314 Z" id="Oval-14-Copy" fill="#595959"></path>
                </g>
                <polygon id="Path-12" fill="#58C3E5" points="70.5126522 116.866414 46.038502 131.414816 38.396089 105.341358 67.4956242 105.341358"></polygon>
                <path d="M35.2492643,17.2127298 L67.3371292,34.9668238 C71.763301,37.415808 74.5103731,42.0752807 74.5103731,47.1337904 L74.5103731,110.574133 C74.5103731,114.413942 71.3975925,117.526723 67.5577829,117.526723 C66.3803,117.526723 65.2221066,117.227673 64.1918147,116.657616 L32.1039498,98.9035219 C27.677778,96.4545378 24.9307059,91.7950651 24.9307059,86.7365554 L24.9307059,23.2962131 C24.9307059,19.4564035 28.0434865,16.3436228 31.8832961,16.3436228 C33.060779,16.3436228 34.2189724,16.6426732 35.2492643,17.2127298 Z" id="Rectangle-11-Copy" fill="#58C3E5"></path>
                <path d="M23.9248138,23.9428907 L56.0126787,41.6969848 C60.4388505,44.1459689 63.1859226,48.8054416 63.1859226,53.8639513 L63.1859226,117.304294 C63.1859226,121.144103 60.073142,124.256884 56.2333324,124.256884 C55.0558495,124.256884 53.8976561,123.957834 52.8673642,123.387777 L20.7794993,105.633683 C16.3533275,103.184699 13.6062554,98.525226 13.6062554,93.4667163 L13.6062554,30.026374 C13.6062554,26.1865644 16.719036,23.0737837 20.5588456,23.0737837 C21.7363285,23.0737837 22.8945219,23.3728341 23.9248138,23.9428907 Z" id="Rectangle-11-Copy-2" fill="#C1CDD1"></path>
                <path d="M21.7752941,25.2335224 L53.8631589,42.9876165 C58.2893307,45.4366006 61.0364029,50.0960733 61.0364029,55.154583 L61.0364029,118.594925 C61.0364029,122.434735 57.9236222,125.547516 54.0838126,125.547516 C52.9063298,125.547516 51.7481363,125.248465 50.7178444,124.678409 L18.6299796,106.924315 C14.2038077,104.47533 11.4567356,99.8158577 11.4567356,94.757348 L11.4567356,31.3170057 C11.4567356,27.4771961 14.5695163,24.3644155 18.4093258,24.3644155 C19.5868087,24.3644155 20.7450022,24.6634658 21.7752941,25.2335224 Z" id="Rectangle-11-Copy-4" fill="#58C3E5"></path>
                <g id="Group-2" transform="translate(30.044218, 124.256884)">
                    <path d="M4.07683275,8.53717968 C6.26535307,7.4429193 8.03949934,4.78169973 8.03949934,2.5931794 C8.03949934,0.404659072 6.26535307,-0.482413884 4.07683275,0.611846498 C1.88831242,1.70610688 0.114166154,4.36732645 0.114166154,6.55584678 C0.114166154,8.74436711 1.88831242,9.63144007 4.07683275,8.53717968 Z" id="Oval-14" fill="#4F4F4F"></path>
                    <polygon id="Path-28" fill="#4F4F4F" points="6.86478182 0.360504385 11.5901146 3.20606319 10.2489763 5.70384562 5.32125281 3.37362095"></polygon>
                    <polygon id="Path-27" fill="#4F4F4F" points="1.43539888 8.86428206 5.47958622 11.4705516 7.34865905 8.8688982 2.51118097 6.25801256"></polygon>
                    <path d="M8.51447714,11.3337314 C10.7328934,10.224523 12.5312751,7.52695028 12.5312751,5.30853401 C12.5312751,3.09011773 10.7328934,2.19092705 8.51447714,3.30013541 C6.29606087,4.40934377 4.49767915,7.10691653 4.49767915,9.3253328 C4.49767915,11.5437491 6.29606087,12.4429398 8.51447714,11.3337314 Z" id="Oval-14-Copy" fill="#595959"></path>
                </g>
                <g id="Group-2-Copy" transform="translate(4.083467, 110.588870)">
                    <path d="M4.07683275,8.53717968 C6.26535307,7.4429193 8.03949934,4.78169973 8.03949934,2.5931794 C8.03949934,0.404659072 6.26535307,-0.482413884 4.07683275,0.611846498 C1.88831242,1.70610688 0.114166154,4.36732645 0.114166154,6.55584678 C0.114166154,8.74436711 1.88831242,9.63144007 4.07683275,8.53717968 Z" id="Oval-14" fill="#4F4F4F"></path>
                    <polygon id="Path-28" fill="#4F4F4F" points="6.86478182 0.360504385 11.5901146 3.20606319 10.2489763 5.70384562 5.32125281 3.37362095"></polygon>
                    <polygon id="Path-27" fill="#4F4F4F" points="1.43539888 8.86428206 5.47958622 11.4705516 7.34865905 8.8688982 2.51118097 6.25801256"></polygon>
                    <path d="M8.51447714,11.3337314 C10.7328934,10.224523 12.5312751,7.52695028 12.5312751,5.30853401 C12.5312751,3.09011773 10.7328934,2.19092705 8.51447714,3.30013541 C6.29606087,4.40934377 4.49767915,7.10691653 4.49767915,9.3253328 C4.49767915,11.5437491 6.29606087,12.4429398 8.51447714,11.3337314 Z" id="Oval-14-Copy" fill="#595959"></path>
                </g>
                <path d="M10.4594307,31.9606395 L42.5472955,49.7147336 C46.9734674,52.1637177 49.7205395,56.8231904 49.7205395,61.8817001 L49.7205395,125.322042 C49.7205395,129.161852 46.6077588,132.274633 42.7679493,132.274633 C41.5904664,132.274633 40.4322729,131.975582 39.401981,131.405526 L7.31411619,113.651432 C2.88794436,111.202448 0.140872226,106.542975 0.140872226,101.484465 L0.140872226,38.0441228 C0.140872226,34.2043132 3.2536529,31.0915325 7.09346246,31.0915325 C8.27094533,31.0915325 9.4291388,31.3905829 10.4594307,31.9606395 Z" id="Rectangle-11-Copy-3" fill="#67D5F8"></path>
                <path d="M10.4594307,31.9606395 L42.5472955,49.7147336 C46.9734674,52.1637177 49.7205395,56.8231904 49.7205395,61.8817001 L49.7205395,125.322042 C49.7205395,129.161852 46.6077588,132.274633 42.7679493,132.274633 C41.5904664,132.274633 40.4322729,131.975582 39.401981,131.405526 L7.31411619,113.651432 C2.88794436,111.202448 0.140872226,106.542975 0.140872226,101.484465 L0.140872226,38.0441228 C0.140872226,34.2043132 3.2536529,31.0915325 7.09346246,31.0915325 C8.27094533,31.0915325 9.4291388,31.3905829 10.4594307,31.9606395 Z" id="Rectangle-11-Copy-3" fill="#67D5F8"></path>
                <path d="M12.5315505,48.6026832 L35.6370342,61.7788689 C39.8803702,64.1986834 42.5000516,68.708295 42.5000516,73.5931085 L42.5000516,73.5931085 C42.5000516,76.1278171 40.4452643,78.1826044 37.9105557,78.1826044 C37.1132284,78.1826044 36.3296559,77.9748843 35.6370342,77.5799083 L12.5315505,64.4037226 C8.28821447,61.9839081 5.66853314,57.4742965 5.66853314,52.589483 L5.66853314,52.589483 C5.66853314,50.0547744 7.72332044,47.9999871 10.258029,47.9999871 C11.0553563,47.9999871 11.8389289,48.2077072 12.5315505,48.6026832 Z" id="Rectangle-11" fill="#5FC8E9"></path>
                <path d="M12.5315505,70.1211965 L35.6370342,83.2973821 C39.8803702,85.7171966 42.5000516,90.2268082 42.5000516,95.1116217 L42.5000516,95.1116217 C42.5000516,97.6463303 40.4452643,99.7011176 37.9105557,99.7011176 C37.1132284,99.7011176 36.3296559,99.4933975 35.6370342,99.0984215 L12.5315505,85.9222358 C8.28821447,83.5024214 5.66853314,78.9928098 5.66853314,74.1079962 L5.66853314,74.1079962 C5.66853314,71.5732876 7.72332044,69.5185003 10.258029,69.5185003 C11.0553563,69.5185003 11.8389289,69.7262204 12.5315505,70.1211965 Z" id="Rectangle-11-Copy-5" fill="#5FC8E9"></path>
                <g id="Group" transform="translate(35.814278, 0.083070)">
                    <path d="M4.1917276,5.72362114 L4.1917276,23.5528981 C4.1917276,24.6954887 3.2654749,25.6217414 2.1228843,25.6217414 C0.980293695,25.6217414 0.0540409991,24.6954887 0.0540409991,23.5528981 L0.0540409991,2.16397402 C0.0540409991,0.576665005 1.76778305,-0.419350508 3.14697771,0.366379713 L21.9189997,11.0608418 C22.5649157,11.4288215 22.9637496,12.1150542 22.9637496,12.8584361 L22.9637496,32.2715033 C22.9637496,33.4140939 22.0374969,34.3403466 20.8949063,34.3403466 C19.7523157,34.3403466 18.826063,33.4140939 18.826063,32.2715033 L18.826063,14.0608341 L4.1917276,5.72362114 Z" id="Path-13" fill="#C1CDD1" fill-rule="nonzero"></path>
                    <path d="M18.8768554,9.28911357 C18.6286144,9.18615059 18.3564046,9.12932135 18.0709217,9.12932135 C16.9083303,9.12932135 15.9658637,10.071788 15.9658637,11.2343794 C15.9658637,11.9149788 16.2888579,12.5201388 16.7899238,12.9049369 L6.12535525,6.74774541 C5.12695272,6.17131744 4.78487475,4.89466507 5.36130272,3.89626254 C5.93773069,2.89786001 7.21438306,2.55578204 8.21278559,3.13221001 L18.8768554,9.28911357 Z" id="Combined-Shape" fill="#636363"></path>
                    <path d="M20.8896632,12.397926 L20.8896632,12.397926 C21.4577932,11.9872822 22.2512461,12.11495 22.6618898,12.68308 C22.8182857,12.8994554 22.902471,13.159637 22.902471,13.4266163 L22.902471,32.3257064 C22.902471,33.4373495 22.0013062,34.3385142 20.8896632,34.3385142 L20.8896632,34.3385142 C19.7780201,34.3385142 18.8768554,33.4373495 18.8768554,32.3257064 L18.8768554,16.3363271 C18.8768554,14.7765774 19.6255527,13.3116237 20.8896632,12.397926 Z" id="Rectangle-23" fill="#B4C3C8"></path>
                </g>
                <path d="M24.252569,123.023413 L7.31411619,113.651432 C2.88794436,111.202448 0.140872226,106.542975 0.140872226,101.484465 L0.140872226,54.8136996 L18.8694147,65.1761312 C22.2168598,67.0282599 24.2944279,70.5521469 24.2944279,74.3778194 L24.2944279,122.356767 C24.2944279,122.58259 24.2801921,122.805089 24.252569,123.023413 Z" id="Combined-Shape" fill="#000000" opacity="0.15"></path>
            </g>
            <g id="Group-3-Copy" transform="translate(0.000000, 42.597185)">
                <path d="M21.380614,13.0857317 C21.380614,13.0857317 15.0038035,16.9012928 2.25018256,24.5324151 L22.7219761,38.481476 C21.8277347,21.5509798 21.380614,13.0857317 21.380614,13.0857317 Z" id="Path-11" fill="#EFCD39"></path>
                <g id="Group-2-Copy-2" transform="translate(43.868442, 83.418692)">
                    <path d="M3.08324542,6.45653668 C4.73838942,5.62896451 6.08014875,3.61632539 6.08014875,1.96118139 C6.08014875,0.306037384 4.73838942,-0.364842143 3.08324542,0.462730024 C1.42810142,1.29030219 0.0863420932,3.30294131 0.0863420932,4.95808531 C0.0863420932,6.61322932 1.42810142,7.28410885 3.08324542,6.45653668 Z" id="Oval-14" fill="#4F4F4F"></path>
                    <polygon id="Path-28" fill="#4F4F4F" points="5.1917281 0.272643879 8.76542402 2.4246959 7.75114194 4.31373004 4.02438102 2.55141724"></polygon>
                    <polygon id="Path-27" fill="#4F4F4F" points="1.08556993 6.70391914 4.14412613 8.67500037 5.55767695 6.70741025 1.89916725 4.73283791"></polygon>
                    <path d="M6.4393671,8.57152539 C8.11712094,7.7326483 9.47720917,5.69251584 9.47720917,4.01476199 C9.47720917,2.33700815 8.11712094,1.65696417 6.4393671,2.49584126 C4.76161326,3.33471835 3.40152503,5.37485082 3.40152503,7.05260466 C3.40152503,8.73035851 4.76161326,9.41040248 6.4393671,8.57152539 Z" id="Oval-14-Copy" fill="#595959"></path>
                </g>
                <polygon id="Path-12" fill="#EFCD39" points="53.327626 88.3842577 34.8182055 99.3869883 29.038367 79.6680363 51.0458944 79.6680363"></polygon>
                <path d="M26.6584723,13.0177208 L50.9260271,26.4448669 C54.2734723,28.2969957 56.3510404,31.8208827 56.3510404,35.6465551 L56.3510404,83.6255028 C56.3510404,86.5294913 53.9968926,88.883639 51.0929041,88.883639 C50.2023921,88.883639 49.3264683,88.6574719 48.5472745,88.2263469 L24.2797197,74.7992008 C20.9322745,72.947072 18.8547064,69.423185 18.8547064,65.5975125 L18.8547064,17.6185649 C18.8547064,14.7145764 21.2088542,12.3604286 24.1128427,12.3604286 C25.0033547,12.3604286 25.8792785,12.5865958 26.6584723,13.0177208 Z" id="Rectangle-11-Copy" fill="#EFCD39"></path>
                <path d="M18.0939659,18.1076372 L42.3615207,31.5347833 C45.7089659,33.386912 47.786534,36.9107991 47.786534,40.7364715 L47.786534,88.7154192 C47.786534,91.6194077 45.4323862,93.9735554 42.5283977,93.9735554 C41.6378857,93.9735554 40.7619619,93.7473883 39.9827681,93.3162633 L15.7152133,79.8891172 C12.3677681,78.0369884 10.2902001,74.5131014 10.2902001,70.6874289 L10.2902001,22.7084813 C10.2902001,19.8044928 12.6443478,17.450345 15.5483363,17.450345 C16.4388483,17.450345 17.3147721,17.6765122 18.0939659,18.1076372 Z" id="Rectangle-11-Copy-2" fill="#C1CDD1"></path>
                <path d="M16.4683174,19.0837219 L40.7358723,32.5108681 C44.0833174,34.3629968 46.1608855,37.8868838 46.1608855,41.7125563 L46.1608855,89.691504 C46.1608855,92.5954924 43.8067377,94.9496402 40.9027493,94.9496402 C40.0122372,94.9496402 39.1363134,94.7234731 38.3571196,94.2923481 L14.0895648,80.8652019 C10.7421196,79.0130732 8.66455156,75.4891862 8.66455156,71.6635137 L8.66455156,23.684566 C8.66455156,20.7805776 11.0186993,18.4264298 13.9226878,18.4264298 C14.8131998,18.4264298 15.6891236,18.6525969 16.4683174,19.0837219 Z" id="Rectangle-11-Copy-4" fill="#EFCD39"></path>
                <g id="Group-2" transform="translate(22.721976, 93.973555)">
                    <path d="M3.08324542,6.45653668 C4.73838942,5.62896451 6.08014875,3.61632539 6.08014875,1.96118139 C6.08014875,0.306037384 4.73838942,-0.364842143 3.08324542,0.462730024 C1.42810142,1.29030219 0.0863420932,3.30294131 0.0863420932,4.95808531 C0.0863420932,6.61322932 1.42810142,7.28410885 3.08324542,6.45653668 Z" id="Oval-14" fill="#4F4F4F"></path>
                    <polygon id="Path-28" fill="#4F4F4F" points="5.1917281 0.272643879 8.76542402 2.4246959 7.75114194 4.31373004 4.02438102 2.55141724"></polygon>
                    <polygon id="Path-27" fill="#4F4F4F" points="1.08556993 6.70391914 4.14412613 8.67500037 5.55767695 6.70741025 1.89916725 4.73283791"></polygon>
                    <path d="M6.4393671,8.57152539 C8.11712094,7.7326483 9.47720917,5.69251584 9.47720917,4.01476199 C9.47720917,2.33700815 8.11712094,1.65696417 6.4393671,2.49584126 C4.76161326,3.33471835 3.40152503,5.37485082 3.40152503,7.05260466 C3.40152503,8.73035851 4.76161326,9.41040248 6.4393671,8.57152539 Z" id="Oval-14-Copy" fill="#595959"></path>
                </g>
                <g id="Group-2-Copy" transform="translate(3.088262, 83.636649)">
                    <path d="M3.08324542,6.45653668 C4.73838942,5.62896451 6.08014875,3.61632539 6.08014875,1.96118139 C6.08014875,0.306037384 4.73838942,-0.364842143 3.08324542,0.462730024 C1.42810142,1.29030219 0.0863420932,3.30294131 0.0863420932,4.95808531 C0.0863420932,6.61322932 1.42810142,7.28410885 3.08324542,6.45653668 Z" id="Oval-14" fill="#4F4F4F"></path>
                    <polygon id="Path-28" fill="#4F4F4F" points="5.1917281 0.272643879 8.76542402 2.4246959 7.75114194 4.31373004 4.02438102 2.55141724"></polygon>
                    <polygon id="Path-27" fill="#4F4F4F" points="1.08556993 6.70391914 4.14412613 8.67500037 5.55767695 6.70741025 1.89916725 4.73283791"></polygon>
                    <path d="M6.4393671,8.57152539 C8.11712094,7.7326483 9.47720917,5.69251584 9.47720917,4.01476199 C9.47720917,2.33700815 8.11712094,1.65696417 6.4393671,2.49584126 C4.76161326,3.33471835 3.40152503,5.37485082 3.40152503,7.05260466 C3.40152503,8.73035851 4.76161326,9.41040248 6.4393671,8.57152539 Z" id="Oval-14-Copy" fill="#595959"></path>
                </g>
                <path d="M7.91030533,24.1713363 L32.1778602,37.5984825 C35.5253053,39.4506112 37.6028734,42.9744982 37.6028734,46.8001707 L37.6028734,94.7791184 C37.6028734,97.6831068 35.2487256,100.037255 32.3447372,100.037255 C31.4542251,100.037255 30.5783014,99.8110874 29.7991076,99.3799625 L5.53155272,85.9528163 C2.18410756,84.1006876 0.106539481,80.5768006 0.106539481,76.7511281 L0.106539481,28.7721804 C0.106539481,25.868192 2.46068726,23.5140442 5.36467571,23.5140442 C6.25518777,23.5140442 7.13111154,23.7402113 7.91030533,24.1713363 Z" id="Rectangle-11-Copy-3" fill="#FADB51"></path>
                <path d="M9.47741745,36.757456 L26.9517366,46.722401 C30.1609059,48.5524692 32.1421303,51.9630186 32.1421303,55.6573273 L32.1421303,55.6573273 C32.1421303,57.5742882 30.5881265,59.1282919 28.6711657,59.1282919 C28.0681594,59.1282919 27.4755557,58.9711965 26.9517366,58.6724822 L9.47741745,48.7075372 C6.26824815,46.877469 4.28702376,43.4669197 4.28702376,39.7726109 L4.28702376,39.7726109 C4.28702376,37.8556501 5.84102755,36.3016463 7.75798837,36.3016463 C8.36099466,36.3016463 8.95359841,36.4587418 9.47741745,36.757456 Z" id="Rectangle-11" fill="#EFCD39"></path>
                <path d="M9.47741745,53.0315741 L26.9517366,62.9965191 C30.1609059,64.8265873 32.1421303,68.2371366 32.1421303,71.9314454 L32.1421303,71.9314454 C32.1421303,73.8484062 30.5881265,75.40241 28.6711657,75.40241 C28.0681594,75.40241 27.4755557,75.2453145 26.9517366,74.9466003 L9.47741745,64.9816553 C6.26824815,63.1515871 4.28702376,59.7410377 4.28702376,56.046729 L4.28702376,56.046729 C4.28702376,54.1297681 5.84102755,52.5757644 7.75798837,52.5757644 C8.36099466,52.5757644 8.95359841,52.7328598 9.47741745,53.0315741 Z" id="Rectangle-11-Copy-5" fill="#EFCD39"></path>
                <g id="Group" transform="translate(27.085784, 0.062824)">
                    <path d="M3.17013862,4.32868596 L3.17013862,17.8126918 C3.17013862,18.6768154 2.46962806,19.3773259 1.60550449,19.3773259 C0.741380928,19.3773259 0.0408703701,18.6768154 0.0408703701,17.8126918 L0.0408703701,1.63658001 C0.0408703701,0.436122806 1.33694692,-0.31714829 2.38001047,0.277087298 L16.5769997,8.36514319 C17.065496,8.64344058 17.3671279,9.1624277 17.3671279,9.7246359 L17.3671279,24.4064378 C17.3671279,25.2705613 16.6666173,25.9710719 15.8024938,25.9710719 C14.9383702,25.9710719 14.2378596,25.2705613 14.2378596,24.4064378 L14.2378596,10.6339909 L3.17013862,4.32868596 Z" id="Path-13" fill="#C1CDD1" fill-rule="nonzero"></path>
                    <path d="M14.2762731,7.02521262 C14.0885323,6.94734332 13.8826643,6.90436424 13.666758,6.90436424 C12.7875081,6.90436424 12.0747352,7.61713713 12.0747352,8.49638705 C12.0747352,9.01111379 12.3190108,9.46878693 12.6979592,9.75980379 L4.63251124,5.10321527 C3.87743488,4.66727173 3.61872661,3.70175933 4.05467015,2.94668297 C4.49061369,2.19160661 5.45612609,1.93289834 6.21120245,2.36884188 L14.2762731,7.02521262 Z" id="Combined-Shape" fill="#636363"></path>
                    <path d="M15.7985285,9.37635926 L15.7985285,9.37635926 C16.2281964,9.06579574 16.8282725,9.16234893 17.1388361,9.59201684 C17.2571158,9.75565818 17.3207838,9.95242948 17.3207838,10.1543418 L17.3207838,24.4474308 C17.3207838,25.2881492 16.6392469,25.9696861 15.7985285,25.9696861 L15.7985285,25.9696861 C14.9578101,25.9696861 14.2762731,25.2881492 14.2762731,24.4474308 L14.2762731,12.354911 C14.2762731,11.1752965 14.8425013,10.0673747 15.7985285,9.37635926 Z" id="Rectangle-23" fill="#B4C3C8"></path>
                </g>
            </g>
        </g>
    </g>
</svg>