<?xml version="1.0" encoding="UTF-8"?>
<svg width="149px" height="136px" viewBox="0 0 149 136" version="1.1" xmlns="http://www.w3.org/2000/svg" xmlns:xlink="http://www.w3.org/1999/xlink">
    <!-- Generator: Sketch 48.2 (47327) - http://www.bohemiancoding.com/sketch -->
    <title>Group 12</title>
    <desc>Created with Sketch.</desc>
    <defs>
        <polygon id="path-1" points="0.0245397852 15.5261178 26.0227034 0.0469159903 41.302531 9.18258554 15.3043674 24.6617873"></polygon>
        <rect id="path-3" x="4.4678877" y="4.07560526" width="3.5229498" height="14.0223709" rx="1.7614749"></rect>
        <rect id="path-4" x="4.4678877" y="4.07560526" width="3.5229498" height="14.0223709" rx="1.7614749"></rect>
        <rect id="path-5" x="4.4678877" y="4.07560526" width="3.5229498" height="14.0223709" rx="1.7614749"></rect>
        <path d="M0.0017814314,1.93946907 L3.61406918,0.0334560601 C3.69552273,1.41344442 3.29415743,2.27803251 2.40997327,2.62722033 C1.52578911,2.97640814 0.723058496,2.74715772 0.0017814314,1.93946907 Z" id="path-6"></path>
        <path d="M0.0017814314,1.93946907 L3.61406918,0.0334560601 C3.69552273,1.41344442 3.29415743,2.27803251 2.40997327,2.62722033 C1.52578911,2.97640814 0.723058496,2.74715772 0.0017814314,1.93946907 Z" id="path-8"></path>
    </defs>
    <g id="Landlord---Review-Proposal" stroke="none" stroke-width="1" fill="none" fill-rule="evenodd" transform="translate(-1194.000000, -446.000000)">
        <g id="Group-12" transform="translate(1193.601396, 446.000000)">
            <g id="Group-7">
                <polygon id="Rectangle-21" fill="#E7EDF2" points="10.9567343 38.0036101 67.5151551 71.2294236 67.5151551 127.787844 10.9567343 94.5620309"></polygon>
                <polygon id="Rectangle-21-Copy-4" fill="#556372" transform="translate(34.018669, 99.221595) scale(-1, 1) translate(-34.018669, -99.221595) " points="28.8143763 93.4993318 39.2229617 87.2617025 39.2229617 104.943858 28.8143763 111.181488"></polygon>
                <polygon id="Rectangle-21-Copy" fill="#D7DDE3" points="67.4368193 71.2478076 123.99524 37.353628 123.99524 93.9120488 67.4368193 127.806228"></polygon>
                <g id="Group-2" transform="translate(79.500527, 67.207747)">
                    <polygon id="Rectangle-21-Copy-9" fill="#BDC6CC" points="0.00271649216 16.7678622 10.5348872 10.4561709 16.2040651 13.6240823 5.67189436 19.9357736"></polygon>
                    <polygon id="Rectangle-21-Copy-4" fill="#FFE68D" points="0.00271649216 6.2815716 10.4113018 0.043942329 10.4113018 10.4525277 0.00271649216 16.6901569"></polygon>
                    <g id="Group" transform="translate(0.002716, 4.756881)">
                        <polygon id="Rectangle-21-Copy-6" fill="#E7EDF2" points="0.00387120412 6.30334662 5.59388995 9.58725939 5.59388995 15.1772781 0.00387120412 11.8933654"></polygon>
                        <polygon id="Rectangle-21-Copy-8" fill="#DBE3E9" points="10.4152781 0.0328698043 16.0052968 3.31678257 16.0052968 8.90680132 10.4152781 5.62288855"></polygon>
                        <polygon id="Rectangle-21-Copy-7" fill="#F1F8FF" points="5.58614754 9.62487253 16.0440449 3.33237776 16.0440449 8.92239651 5.58614754 15.2148913"></polygon>
                    </g>
                </g>
                <g id="Group-2-Copy-4" transform="translate(24.152097, 64.589130) scale(-1, 1) translate(-24.152097, -64.589130) translate(15.152097, 54.089130)">
                    <polygon id="Rectangle-21-Copy-9" fill="#BDC6CC" points="0.00271649216 16.7678622 10.5348872 10.4561709 16.2040651 13.6240823 5.67189436 19.9357736"></polygon>
                    <polygon id="Rectangle-21-Copy-4" fill="#FFE68D" points="0.0810522551 6.2815716 10.4896376 0.043942329 10.4896376 10.4525277 0.0810522551 16.6901569"></polygon>
                    <g id="Group" transform="translate(0.002716, 4.756881)">
                        <polygon id="Rectangle-21-Copy-6" fill="#E7EDF2" points="0.00387120412 6.42514381 5.59388995 9.58725939 5.59388995 15.1772781 0.00387120412 12.0151626"></polygon>
                        <polygon id="Rectangle-21-Copy-8" fill="#DBE3E9" points="10.4152781 0.0328698043 16.0052968 3.31678257 16.0052968 8.90680132 10.4152781 5.62288855"></polygon>
                        <polygon id="Rectangle-21-Copy-7" fill="#F1F8FF" points="5.58614754 9.62487253 16.0440449 3.33237776 16.0440449 8.92239651 5.58614754 15.2148913"></polygon>
                    </g>
                </g>
                <polygon id="Rectangle-21-Copy-9" fill="#BDC6CC" transform="translate(48.503773, 82.403719) scale(-1, 1) translate(-48.503773, -82.403719) " points="40.4030991 83.9756094 50.9352699 77.6639182 56.6044477 80.8318296 46.072277 87.1435208"></polygon>
                <polygon id="Rectangle-21-Copy-4" fill="#FFE68D" transform="translate(51.321819, 75.574797) scale(-1, 1) translate(-51.321819, -75.574797) " points="46.1175266 73.4893188 56.526112 67.2516896 56.526112 77.6602749 46.1175266 83.8979042"></polygon>
                <g id="Group" transform="translate(48.104448, 79.964629) scale(-1, 1) translate(-48.104448, -79.964629) translate(39.604448, 71.964629)">
                    <polygon id="Rectangle-21-Copy-6" fill="#E7EDF2" points="0.00387120412 6.43941274 5.59388995 9.58725939 5.59388995 15.1772781 0.00387120412 12.0294315"></polygon>
                    <polygon id="Rectangle-21-Copy-8" fill="#DBE3E9" points="10.4152781 0.0328698043 16.0052968 3.31678257 16.0052968 8.90680132 10.4152781 5.62288855"></polygon>
                    <polygon id="Rectangle-21-Copy-7" fill="#F1F8FF" points="5.58614754 9.62487253 16.0440449 3.33237776 16.0440449 8.92239651 5.58614754 15.2148913"></polygon>
                </g>
                <g id="Group-2-Copy-2" transform="translate(79.500527, 90.353342)">
                    <polygon id="Rectangle-21-Copy-9" fill="#BDC6CC" points="0.00271649216 16.7678622 10.5348872 10.4561709 16.2040651 13.6240823 5.67189436 19.9357736"></polygon>
                    <polygon id="Rectangle-21-Copy-4" fill="#556372" points="0.00271649216 6.2815716 10.4113018 0.043942329 10.4113018 10.4525277 0.00271649216 16.6901569"></polygon>
                    <g id="Group" transform="translate(0.002716, 4.756881)">
                        <polygon id="Rectangle-21-Copy-6" fill="#E7EDF2" points="0.00387120412 6.30334662 5.59388995 9.58725939 5.59388995 15.1772781 0.00387120412 11.8933654"></polygon>
                        <polygon id="Rectangle-21-Copy-8" fill="#DBE3E9" points="10.4152781 0.0328698043 16.0052968 3.31678257 16.0052968 8.90680132 10.4152781 5.62288855"></polygon>
                        <polygon id="Rectangle-21-Copy-7" fill="#F1F8FF" points="5.58614754 9.62487253 16.0440449 3.33237776 16.0440449 8.92239651 5.58614754 15.2148913"></polygon>
                    </g>
                </g>
                <g id="Group-2-Copy" transform="translate(100.298192, 54.089130)">
                    <polygon id="Rectangle-21-Copy-9" fill="#BDC6CC" points="0.00271649216 16.7678622 10.5348872 10.4561709 16.2040651 13.6240823 5.67189436 19.9357736"></polygon>
                    <polygon id="Rectangle-21-Copy-4" fill="#556372" points="0.00271649216 6.2815716 10.4113018 0.043942329 10.4113018 10.4525277 0.00271649216 16.6901569"></polygon>
                    <g id="Group" transform="translate(0.002716, 4.756881)">
                        <polygon id="Rectangle-21-Copy-6" fill="#E7EDF2" points="0.00387120412 6.30334662 5.59388995 9.58725939 5.59388995 15.1772781 0.00387120412 11.8933654"></polygon>
                        <polygon id="Rectangle-21-Copy-8" fill="#DBE3E9" points="10.4152781 0.0328698043 16.0052968 3.31678257 16.0052968 8.90680132 10.4152781 5.62288855"></polygon>
                        <polygon id="Rectangle-21-Copy-7" fill="#F1F8FF" points="5.58614754 9.62487253 16.0440449 3.33237776 16.0440449 8.92239651 5.58614754 15.2148913"></polygon>
                    </g>
                </g>
                <g id="Group-2-Copy-3" transform="translate(100.298192, 77.234725)">
                    <polygon id="Rectangle-21-Copy-9" fill="#BDC6CC" points="0.00271649216 16.7678622 10.5348872 10.4561709 16.2040651 13.6240823 5.67189436 19.9357736"></polygon>
                    <polygon id="Rectangle-21-Copy-4" fill="#FFE380" points="0.00271649216 6.2815716 10.4113018 0.043942329 10.4113018 10.4525277 0.00271649216 16.6901569"></polygon>
                    <g id="Group" transform="translate(0.002716, 4.756881)">
                        <polygon id="Rectangle-21-Copy-6" fill="#E7EDF2" points="0.00387120412 6.30334662 5.59388995 9.58725939 5.59388995 15.1772781 0.00387120412 11.8933654"></polygon>
                        <polygon id="Rectangle-21-Copy-8" fill="#DBE3E9" points="10.4152781 0.0328698043 16.0052968 3.31678257 16.0052968 8.90680132 10.4152781 5.62288855"></polygon>
                        <polygon id="Rectangle-21-Copy-7" fill="#F1F8FF" points="5.58614754 9.62487253 16.0440449 3.33237776 16.0440449 8.92239651 5.58614754 15.2148913"></polygon>
                    </g>
                </g>
                <polygon id="Rectangle-21-Copy-2" fill="#F4F9FC" points="10.9567343 38.3162665 67.5151551 4.42208686 124.073576 37.4817028 67.5151551 71.3758824"></polygon>
                <polygon id="Path-26" fill="#5BC3A8" points="57.7300727 19.7089528 57.7300727 16.7189984 60.1566084 16.5715017 60.1566084 19.7089528"></polygon>
                <path d="M61.3682242,15.0919039 L61.3682242,15.0919039 C66.4538346,12.0431699 72.796028,12.0053583 77.9176282,14.9932378 L104.717746,30.6281019 C107.429999,32.2103978 108.346011,35.6918182 106.763715,38.4040718 C106.281149,39.2312507 105.597464,39.923137 104.776098,40.4155316 L104.776098,40.4155316 C99.6904872,43.4642656 93.3482938,43.5020772 88.2266936,40.5141977 L61.426576,24.8793336 C58.7143223,23.2970377 57.7983106,19.8156173 59.3806066,17.1033637 C59.8631727,16.2761848 60.546858,15.5842985 61.3682242,15.0919039 Z" id="Rectangle-21-Copy-2" fill="#5BC3A8"></path>
                <polygon id="Path-25" fill="#5BC3A8" points="108.454007 35.66051 108.454007 32.0197321 105.062651 32.0197321 104.838557 35.8973743"></polygon>
                <path d="M61.3682242,11.9771014 L61.3682242,11.9771014 C66.4538346,8.92836735 72.796028,8.89055575 77.9176282,11.8784353 L104.717746,27.5132994 C107.429999,29.0955953 108.346011,32.5770156 106.763715,35.2892693 C106.281149,36.1164482 105.597464,36.8083345 104.776098,37.3007291 L104.776098,37.3007291 C99.6904872,40.3494631 93.3482938,40.3872747 88.2266936,37.3993952 L61.426576,21.7645311 C58.7143223,20.1822351 57.7983106,16.7008148 59.3806066,13.9885611 C59.8631727,13.1613823 60.546858,12.469496 61.3682242,11.9771014 Z" id="Rectangle-21-Copy-13" fill="#5FD0B2"></path>
                <g id="Group-6" transform="translate(24.743829, 21.620671)">
                    <mask id="mask-2" fill="white">
                        <use xlink:href="#path-1"></use>
                    </mask>
                    <use id="Mask" fill="#C6C6C6" xlink:href="#path-1"></use>
                    <g mask="url(#mask-2)">
                        <g transform="translate(11.907036, -0.391679)">
                            <polygon id="Rectangle" fill="#D8D8D8" points="14.1004373 0.049744109 29.6892541 9.52835343 29.6892541 13.6825567 14.1004373 4.40335683"></polygon>
                            <polygon id="Rectangle-Copy-2" fill="#D8D8D8" points="10.575328 6.52472601 25.8508018 15.5818625 26.1641448 20.1575386 10.575328 10.8783387"></polygon>
                            <polygon id="Rectangle-Copy-2" fill="#D8D8D8" points="3.59556308 19.3056614 18.8710368 28.362798 19.1843799 32.938474 3.59556308 23.6592742"></polygon>
                            <polygon id="Rectangle-Copy-3" fill="#D8D8D8" points="7.11155366 12.8243662 22.3870274 21.8815028 22.7003705 26.4571788 7.11155366 17.1779789"></polygon>
                            <polygon id="Rectangle-21-Copy-10" fill="#B7B7B7" points="10.5709742 6.46093099 14.1156675 4.33396558 29.395495 13.4696351 25.8508018 15.5966005"></polygon>
                            <polygon id="Rectangle-21-Copy-12" fill="#B7B7B7" points="3.59556308 19.2932626 7.14025635 17.1662972 22.4200839 26.3019667 18.8753906 28.4289321"></polygon>
                            <polygon id="Rectangle-21-Copy-12" fill="#B7B7B7" points="0.0544016911 25.7316658 3.59909496 23.6047004 18.8789225 32.7403699 15.3342293 34.8673353"></polygon>
                            <polygon id="Rectangle-21-Copy-11" fill="#B7B7B7" points="7.05957319 12.8554543 10.6042665 10.7284889 25.884094 19.8641585 22.3394008 21.9911239"></polygon>
                        </g>
                    </g>
                </g>
                <g id="Group-4" transform="translate(42.056032, 32.117663)">
                    <polygon id="Rectangle-21-Copy-3" fill="#82E1FF" points="0.000299503915 15.3551399 25.5759239 0.0282478986 51.1515482 14.9777515 25.5759239 30.3046435"></polygon>
                    <path d="M46.340789,17.8607305 L25.5759239,5.72321937 L4.81105878,18.1671324 L0.000299503915,15.3551399 L25.5759239,0.0282478986 L51.1515482,14.9777515 L46.340789,17.8607305 Z" id="Combined-Shape" fill="#67D5F8"></path>
                </g>
                <g id="Group-2" transform="translate(8.936594, 99.408392) scale(-1, 1) translate(-8.936594, -99.408392) translate(0.936594, 92.408392)">
                    <path d="M0.0237799181,12.4849055 C0.0180497629,12.4117292 0.0151305844,12.3359837 0.0151305844,12.2577158 C0.0151305844,11.5209172 0.273827233,10.687608 0.700953449,9.9085075 C0.267171039,9.47645045 0.0151305844,8.79620246 0.0151305844,7.89817213 C0.0151305844,5.43047455 1.91827665,2.25277932 4.26592629,0.800591181 C6.1912157,-0.390337138 7.8175536,-0.0509277661 8.34041959,1.47081248 C8.58174615,1.2823887 8.82898762,1.10914234 9.08074197,0.953414383 C11.7398912,-0.691458415 13.8955576,0.241005934 13.8955576,3.0361318 C13.8955576,3.3356628 13.8708027,3.64442902 13.8233259,3.95903562 L0.0237799181,12.4849055 Z" id="Combined-Shape-Copy" fill="#66D5B8"></path>
                    <polygon id="Path-2" fill="#66D5B8" points="0.0151305844 12.4742215 1.79022259 13.402994 10.0211945 4.21677776"></polygon>
                    <polygon id="Path-3-Copy" fill="#66D5B8" points="7.43084585 0.326383235 9.22283922 1.26933528 9.22283922 3.26265955"></polygon>
                    <path d="M1.79039188,13.4145344 C1.78466173,13.3413581 1.78174255,13.2656126 1.78174255,13.1873447 C1.78174255,12.4505462 2.0404392,11.6172369 2.46756541,10.8381364 C2.033783,10.4060794 1.78174255,9.7258314 1.78174255,8.82780108 C1.78174255,6.36010349 3.68488861,3.18240826 6.03253825,1.73022012 C7.95782766,0.539291804 9.58416557,0.878701176 10.1070316,2.40044142 C10.3483581,2.21201765 10.5955996,2.03877128 10.8473539,1.88304333 C13.5065032,0.238170527 15.6621696,1.17063488 15.6621696,3.96576074 C15.6621696,4.26529174 15.6374146,4.57405796 15.5899379,4.88866456 L1.79039188,13.4145344 Z" id="Combined-Shape" fill="#68E2C2"></path>
                </g>
                <g id="Group-2-Copy" transform="translate(45.840750, 121.181488) scale(-1, 1) translate(-45.840750, -121.181488) translate(33.840750, 111.181488)">
                    <path d="M0.0352987592,18.5325143 C0.0267929532,18.4238919 0.0224597432,18.3114557 0.0224597432,18.1952753 C0.0224597432,17.1015763 0.406467403,15.8646173 1.04049084,14.7081255 C0.396586991,14.0667828 0.0224597432,13.057027 0.0224597432,11.7239965 C0.0224597432,8.06096188 2.84747765,3.34401129 6.33231385,1.18839246 C9.1902012,-0.579413965 11.6043268,-0.075596852 12.3804658,2.18326469 C12.7386894,1.90356963 13.1056931,1.64640383 13.4793956,1.41524225 C17.4266199,-1.02639647 20.6264774,0.357747676 20.6264774,4.50681473 C20.6264774,4.95143665 20.5897313,5.40976726 20.5192571,5.87676729 L0.0352987592,18.5325143 Z" id="Combined-Shape-Copy" fill="#66D5B8"></path>
                    <polygon id="Path-2" fill="#66D5B8" points="0.0224597432 18.5166551 2.65739502 19.8953191 14.8753974 6.25935809"></polygon>
                    <polygon id="Path-3-Copy" fill="#66D5B8" points="11.0303003 0.484481197 13.6903239 1.88419321 13.6903239 4.84307108"></polygon>
                    <path d="M2.65764632,19.9124496 C2.64914052,19.8038271 2.64480731,19.691391 2.64480731,19.5752106 C2.64480731,18.4815116 3.02881497,17.2445526 3.66283841,16.0880608 C3.01893456,15.4467181 2.64480731,14.4369623 2.64480731,13.1039318 C2.64480731,9.44089717 5.46982522,4.72394658 8.95466141,2.56832775 C11.8125488,0.800521324 14.2266744,1.30433844 15.0028134,3.56319998 C15.361037,3.28350492 15.7280406,3.02633912 16.1017432,2.79517754 C20.0489675,0.353538816 23.248825,1.73768297 23.248825,5.88675002 C23.248825,6.33137193 23.2120788,6.78970255 23.1416047,7.25670258 L2.65764632,19.9124496 Z" id="Combined-Shape" fill="#68E2C2"></path>
                </g>
                <g id="Group-3" transform="translate(23.814376, 98.134473) scale(-1, 1) translate(-23.814376, -98.134473) translate(18.814376, 86.634473)">
                    <polygon id="Path-3-Copy-3" fill="#DD2D4F" points="1.14118305 17.5982737 8.21649187 22.8881456 9.34707858 22.2623157 9.34707858 4.53234938 1.14118305 0 0.00432332326 0.610925948"></polygon>
                    <polygon id="Path-3" fill="#F42B52" points="0 18.2118264 8.20589552 22.8758684 8.20589552 5.14590212 0 0.613552745"></polygon>
                    <polygon id="Path-3" fill="#DA2749" points="0.760431967 8.62759535 7.44546356 12.4272133 7.44546356 6.48926486 0.760431967 2.79693187"></polygon>
                    <path d="M7.44546356,7.47722731 L1.52086393,4.20490251 L1.52086393,9.05980737 L0.760431967,8.62759535 L0.760431967,2.79693187 L7.44546356,6.48926486 L7.44546356,7.47722731 Z" id="Combined-Shape" fill="#C52242"></path>
                    <polygon id="Path-3-Copy" fill="#DA2749" points="0.760431967 15.4937573 7.44546356 19.2933753 7.44546356 13.3554268 0.760431967 9.66309378"></polygon>
                    <path d="M7.44546356,14.3433892 L1.52086393,11.0710644 L1.52086393,15.9259693 L0.760431967,15.4937573 L0.760431967,9.66309378 L7.44546356,13.3554268 L7.44546356,14.3433892 Z" id="Combined-Shape" fill="#C52242"></path>
                </g>
                <g id="Group-5" transform="translate(66.046360, 0.016195)">
                    <g id="Rectangle-22-Copy">
                        <use fill="#A3795B" fill-rule="evenodd" xlink:href="#path-3"></use>
                        <rect stroke="#979797" stroke-width="1" x="4.9678877" y="4.57560526" width="2.5229498" height="13.0223709" rx="1.2614749"></rect>
                    </g>
                    <rect id="Rectangle-22" fill="#68E2C2" x="0" y="0" width="12.4587252" height="14.0223709" rx="6.2293626"></rect>
                    <path d="M4.33076117,13.7277491 C6.84268188,12.9248219 8.66152234,10.5713216 8.66152234,7.79300827 L8.66152234,6.2293626 C8.66152234,3.45104931 6.84268188,1.09754897 4.33076117,0.294621802 C4.92934882,0.103285237 5.56729393,1.21620042e-16 6.2293626,0 C9.66974457,-6.31987914e-16 12.4587252,2.78898064 12.4587252,6.2293626 L12.4587252,7.79300827 C12.4587252,11.2333902 9.66974457,14.0223709 6.2293626,14.0223709 C5.56729393,14.0223709 4.92934882,13.9190856 4.33076117,13.7277491 Z" id="Combined-Shape" fill="#64DABB"></path>
                </g>
                <g id="Group-5-Copy" transform="translate(72.313221, 3.104839)">
                    <g id="Rectangle-22-Copy">
                        <use fill="#A3795B" fill-rule="evenodd" xlink:href="#path-4"></use>
                        <rect stroke="#979797" stroke-width="1" x="4.9678877" y="4.57560526" width="2.5229498" height="13.0223709" rx="1.2614749"></rect>
                    </g>
                    <rect id="Rectangle-22" fill="#68E2C2" x="0" y="0" width="12.4587252" height="14.0223709" rx="6.2293626"></rect>
                    <path d="M4.33076117,13.7277491 C6.84268188,12.9248219 8.66152234,10.5713216 8.66152234,7.79300827 L8.66152234,6.2293626 C8.66152234,3.45104931 6.84268188,1.09754897 4.33076117,0.294621802 C4.92934882,0.103285237 5.56729393,1.21620042e-16 6.2293626,0 C9.66974457,-6.31987914e-16 12.4587252,2.78898064 12.4587252,6.2293626 L12.4587252,7.79300827 C12.4587252,11.2333902 9.66974457,14.0223709 6.2293626,14.0223709 C5.56729393,14.0223709 4.92934882,13.9190856 4.33076117,13.7277491 Z" id="Combined-Shape" fill="#64DABB"></path>
                </g>
                <g id="Group-5-Copy-2" transform="translate(80.420972, 6.465018)">
                    <g id="Rectangle-22-Copy">
                        <use fill="#A3795B" fill-rule="evenodd" xlink:href="#path-5"></use>
                        <rect stroke="#979797" stroke-width="1" x="4.9678877" y="4.57560526" width="2.5229498" height="13.0223709" rx="1.2614749"></rect>
                    </g>
                    <rect id="Rectangle-22" fill="#68E2C2" x="0" y="0" width="12.4587252" height="14.0223709" rx="6.2293626"></rect>
                    <path d="M4.33076117,13.7277491 C6.84268188,12.9248219 8.66152234,10.5713216 8.66152234,7.79300827 L8.66152234,6.2293626 C8.66152234,3.45104931 6.84268188,1.09754897 4.33076117,0.294621802 C4.92934882,0.103285237 5.56729393,1.21620042e-16 6.2293626,0 C9.66974457,-6.31987914e-16 12.4587252,2.78898064 12.4587252,6.2293626 L12.4587252,7.79300827 C12.4587252,11.2333902 9.66974457,14.0223709 6.2293626,14.0223709 C5.56729393,14.0223709 4.92934882,13.9190856 4.33076117,13.7277491 Z" id="Combined-Shape" fill="#64DABB"></path>
                </g>
            </g>
            <g id="Group-4" transform="translate(82.202793, 93.276154)">
                <g id="Group-3" transform="translate(0.351867, 0.391941)">
                    <path d="M10.2453205,16.5211367 L10.2453205,16.5211367 C13.543498,14.6552371 17.7298097,15.8163278 19.5957093,19.1145054 C20.178735,20.145066 20.4851471,21.3089656 20.4851471,22.4930155 L20.4851471,26.9260038 L5.14546556,41.9852906 L0.00549376506,39.1437455 L0.00549376506,34.0791036 C0.00549376506,26.8088522 3.9175175,20.101006 10.2453205,16.5211367 Z" id="Rectangle-16" fill="#68E2C2"></path>
                    <polygon id="Path-19" fill="#56CAAC" points="17.1511136 16.6142595 22.5506383 20.3290614 17.4155088 22.6333914 15.0741602 18.6181563"></polygon>
                    <path d="M15.2983784,20.0214657 L15.2983784,20.0214657 C18.596556,18.1555661 22.7828677,19.3166569 24.6487672,22.6148345 C25.231793,23.645395 25.5382051,24.8092946 25.5382051,25.9933445 L25.5382051,30.4263329 L5.05855171,42.012421 L5.05855171,37.5794326 C5.05855171,30.3091813 8.97057544,23.601335 15.2983784,20.0214657 Z" id="Rectangle-16-Copy" fill="#60D8B9"></path>
                    <rect id="Rectangle-25" fill="#4BB096" transform="translate(10.245320, 22.248122) rotate(-345.000000) translate(-10.245320, -22.248122) " x="5.03696326" y="20.0524419" width="10.4167144" height="4.39135998"></rect>
                    <polygon id="Rectangle-25-Copy" fill="#4BB096" transform="translate(16.635877, 17.381412) rotate(-75.000000) translate(-16.635877, -17.381412) " points="12.6636828 17.9549121 20.0605338 12.9870932 20.7765767 17.2376712 12.4951766 21.7757318"></polygon>
                    <g id="Group" transform="translate(45.922775, 28.704873) scale(-1, 1) translate(-45.922775, -28.704873) translate(32.922775, 15.204873)">
                        <path d="M10.3295694,0.924489655 L10.3295694,0.924489655 C13.627747,-0.941409906 17.8140586,0.219680848 19.6799582,3.51785844 C20.262984,4.54841902 20.5693961,5.71231857 20.5693961,6.89636846 L20.5693961,11.3293568 L5.22971449,26.3886436 L0.0897426917,23.5470985 L0.0897426917,18.4824566 C0.0897426917,11.2122052 4.00176642,4.50435897 10.3295694,0.924489655 Z" id="Rectangle-16-Copy-2" fill="#FFEB84"></path>
                        <polygon id="Path-19-Copy" fill="#E4D069" points="17.2353626 1.01761251 22.6348872 4.73241438 17.4997578 7.03674435 15.1584091 3.02150932"></polygon>
                        <path d="M15.3826273,4.42481868 L15.3826273,4.42481868 C18.6808049,2.55891912 22.8671166,3.72000987 24.7330161,7.01818746 C25.3160419,8.04874804 25.622454,9.21264759 25.622454,10.3966975 L25.622454,14.8296859 L5.14280064,26.415774 L5.14280064,21.9827856 C5.14280064,14.7125343 9.05482437,8.00468799 15.3826273,4.42481868 Z" id="Rectangle-16-Copy-3" fill="#F5DF70"></path>
                    </g>
                    <circle id="Oval-8" fill="#FFDBB9" cx="11.6183166" cy="11.8847283" r="9.95707013"></circle>
                    <path d="M8.54981044,13.9909209 C8.58871447,13.8501561 8.60950013,13.7018692 8.60950013,13.5487275 C8.60950013,12.6340636 7.86801852,11.892582 6.95335459,11.892582 C6.03869067,11.892582 5.29720906,12.6340636 5.29720906,13.5487275 C5.29720906,14.0093253 5.48523639,14.4260069 5.78872091,14.7262023 C4.36510745,16.3105522 3.55728077,17.1027272 3.36524087,17.1027272 C3.02071216,17.1027272 2.13007362,15.3949777 1.73882311,14.1188812 C1.3475726,12.8427848 0.954798086,10.9465299 1.30160474,8.94589426 C1.64841139,6.94525861 1.90814236,4.62270784 8.68861765,2.31774307 C13.2089345,0.781099891 17.0590075,2.35110876 20.2388365,7.02776967 C18.7895703,9.18983855 15.135679,10.5042636 9.27716252,10.9710449 C9.50110106,11.4140781 9.30491944,12.4633569 8.68861765,14.1188812 L8.54981044,13.9909209 Z" id="Combined-Shape" fill="#6F5019"></path>
                    <path d="M1.53167626,7.75322976 L9.3834013,11.45042 C11.833826,11.0736525 13.5547648,10.7538525 14.5462177,10.4910201 C18.8778773,9.34270484 21.210274,7.10785405 21.6600114,4.2337675 C22.5662285,-1.55749327 18.1547087,1.21763431 14.1368029,0.768487224 C10.1188971,0.319340135 5.55161254,0.734883484 3.68881226,2.98371606 C2.4469454,4.48293779 1.72790007,6.07277569 1.53167626,7.75322976 Z" id="Path-2" fill="#513A12"></path>
                    <g id="Group-2" transform="translate(36.679807, 0.051469)">
                        <path d="M2.9787646,4.07201461 C0.535332707,8.37787802 -0.404868766,11.7273884 0.158160183,14.1205458 C0.721189131,16.5137032 1.35485262,18.102696 2.05915065,18.8875242 C1.85077307,17.7860349 2.15731105,16.7161661 2.9787646,15.677918 C3.80021815,14.6396699 5.67334153,11.2105392 8.59813474,5.39052604 L2.9787646,4.07201461 Z" id="Path-34" fill="#795B27"></path>
                        <circle id="Oval-8-Copy" fill="#FFDBB9" cx="10.1769651" cy="12.0965642" r="9.04449497"></circle>
                        <path d="M16.3392936,6.63011895 C16.636099,1.70252235 18.2405692,-0.121521322 21.1527041,1.15798793 C25.5209065,3.0772518 24.1899744,10.2428164 29.4779218,11.8353597 C25.3676156,13.5254694 22.5925431,13.5254694 21.1527041,11.8353597 C19.7128652,10.14525 18.108395,9.3001951 16.3392936,9.3001951 L13.7484046,8.36930519 L16.3392936,6.63011895 Z" id="Path-35" fill="#694F21"></path>
                        <path d="M1.7576169,8.35722025 C2.81348764,7.45210917 4.36369078,7.15850596 6.40822634,7.47641062 C11.3440368,8.24387936 14.9568909,11.1512711 15.3632014,11.936039 C15.7428694,12.6693486 14.2224445,15.4439154 13.2977508,18.3849769 C13.0213405,19.2641217 13.1386811,21.2561412 13.6497726,24.3610353 C14.8962902,21.3724199 16.2677152,19.6676239 17.7640479,19.2466471 C20.0085468,18.6151819 22.8669042,13.1489698 21.0211292,7.93782546 C19.1753541,2.7266811 15.8898754,0.193661416 11.6639135,0.0845403327 C7.43795155,-0.0245807501 5.23251996,1.03091664 3.34142301,3.42864611 C2.08069171,5.02713242 1.55275634,6.66999047 1.7576169,8.35722025 Z" id="Path-33" fill="#795B27"></path>
                    </g>
                    <g id="Path-22-Copy" transform="translate(15.072379, 15.204873)">
                        <mask id="mask-7" fill="white">
                            <use xlink:href="#path-6"></use>
                        </mask>
                        <use id="Mask" fill="#FFFFFF" xlink:href="#path-6"></use>
                        <path d="M1.13102622,3.57310457 L4.74331398,1.66709156 C4.82476752,3.04707992 4.42340222,3.91166801 3.53921806,4.26085583 C2.6550339,4.61004365 1.85230329,4.38079323 1.13102622,3.57310457 Z" fill="#FF8585" mask="url(#mask-7)" transform="translate(2.942323, 3.043022) rotate(-180.000000) translate(-2.942323, -3.043022) "></path>
                    </g>
                    <g id="Path-22-Copy-2" transform="translate(42.913799, 16.583934) rotate(57.000000) translate(-42.913799, -16.583934) translate(40.913799, 15.083934)">
                        <mask id="mask-9" fill="white">
                            <use xlink:href="#path-8"></use>
                        </mask>
                        <use id="Mask" fill="#FFFFFF" xlink:href="#path-8"></use>
                        <path d="M1.13102622,3.57310457 L4.74331398,1.66709156 C4.82476752,3.04707992 4.42340222,3.91166801 3.53921806,4.26085583 C2.6550339,4.61004365 1.85230329,4.38079323 1.13102622,3.57310457 Z" id="Path-22-Copy" fill="#FF8585" mask="url(#mask-9)" transform="translate(2.942323, 3.043022) rotate(-180.000000) translate(-2.942323, -3.043022) "></path>
                    </g>
                    <circle id="Oval-15" fill="#FFFFFF" cx="7.08619825" cy="13.6753126" r="1"></circle>
                    <path d="M17.1685958,28.558078 C18.8628212,27.1554846 19.8941341,25.5955166 20.2625345,23.8781741 C20.630935,22.1608315 20.5224694,20.0200443 19.9371377,17.4558125" id="Path-32" stroke="#FFFFFF" stroke-width="2" stroke-linecap="round"></path>
                    <path d="M7.11006282,13.8759147 C6.95537272,22.3688218 8.85582796,26.7317783 12.8114285,26.9647844 C16.7670291,27.1977904 18.7448294,29.4308455 18.7448294,33.6639497" id="Path-31" stroke="#FFFFFF" stroke-width="2" stroke-linecap="round"></path>
                </g>
            </g>
        </g>
    </g>
</svg>