<?xml version="1.0" encoding="UTF-8"?>
<svg width="17px" height="10px" viewBox="0 0 17 10" version="1.1" xmlns="http://www.w3.org/2000/svg" xmlns:xlink="http://www.w3.org/1999/xlink">
    <!-- Generator: Sketch 48.2 (47327) - http://www.bohemiancoding.com/sketch -->
    <title>Shape Copy 3</title>
    <desc>Created with Sketch.</desc>
    <defs></defs>
    <g id="Tenant---Dashboard" stroke="none" stroke-width="1" fill="none" fill-rule="evenodd" transform="translate(-773.000000, -981.000000)">
        <path d="M788.350167,982.866877 L781.789443,990.020184 C781.769041,990.050188 781.775942,990.089493 781.749538,990.116197 C781.631021,990.235014 781.474099,990.286321 781.318977,990.27912 C781.165356,990.285121 781.010534,990.233214 780.892917,990.115897 C780.866814,990.089493 780.874015,990.050788 780.853912,990.021684 L774.292288,982.868077 C774.069057,982.644545 774.069057,982.282995 774.292288,982.059463 C774.51552,981.836532 774.87707,981.836532 775.100602,982.059463 L781.320477,988.841318 L787.541253,982.059163 C787.764484,981.835332 788.126335,981.835332 788.349567,982.059163 C788.573098,982.281794 788.573098,982.643645 788.350167,982.866877 Z" id="Shape-Copy-3" stroke="#9C9C9C" fill-rule="nonzero"></path>
    </g>
</svg>