<?xml version="1.0" encoding="UTF-8"?>
<svg width="22px" height="19px" viewBox="0 0 22 19" version="1.1" xmlns="http://www.w3.org/2000/svg" xmlns:xlink="http://www.w3.org/1999/xlink">
    <!-- Generator: Sketch 47 (45396) - http://www.bohemiancoding.com/sketch -->
    <title>Shape</title>
    <desc>Created with Sketch.</desc>
    <defs></defs>
    <g id="Page-1" stroke="none" stroke-width="1" fill="none" fill-rule="evenodd">
        <g id="Tenant-Wizard---Proposal-Dashboard" transform="translate(-39.000000, -351.000000)" fill-rule="nonzero" fill="#767676">
            <g id="Side-Bar" transform="translate(1.000000, 1.000000)">
                <g id="Bank-Info-Tab" transform="translate(38.000000, 343.000000)">
                    <path d="M18.9154815,25.5057876 L3.05337789,25.5057876 C1.59340344,25.5057876 0.409693952,24.3217476 0.409693952,22.8611123 L0.409693952,16.2528938 L0.409693952,10.9645345 L0.409693952,9.64335348 C0.409693952,8.1827181 1.59340344,7 3.05337789,7 L18.9154815,7 C20.3757865,7 21.5591655,8.1827181 21.5591655,9.64335348 L21.5591655,10.9645345 L21.5591655,16.2528938 L21.5591655,22.8611123 C21.5591655,24.3217476 20.3757865,25.5057876 18.9154815,25.5057876 Z M20.2373235,9.64335348 C20.2373235,8.91303579 19.6454688,8.32085059 18.9154815,8.32085059 L3.05337789,8.32085059 C2.32339066,8.32085059 1.73186638,8.91303579 1.73186638,9.64335348 L1.73186638,10.9645345 L20.2373235,10.9645345 L20.2373235,9.64335348 Z M20.2373235,12.2870374 L1.73186638,12.2870374 L1.73186638,14.9307214 L20.2373235,14.9307214 L20.2373235,12.2870374 Z M20.2373235,16.2528938 L1.73186638,16.2528938 L1.73186638,22.8611123 C1.73186638,23.59143 2.32339066,24.1839456 3.05337789,24.1839456 L18.9154815,24.1839456 C19.6454688,24.1839456 20.2373235,23.59143 20.2373235,22.8611123 L20.2373235,16.2528938 Z M9.66258774,20.2184197 L13.6281137,20.2184197 L13.6281137,21.5402617 L9.66258774,21.5402617 L9.66258774,20.2184197 Z M3.05337789,20.2184197 L8.34074577,20.2184197 L8.34074577,21.5402617 L3.05337789,21.5402617 L3.05337789,20.2184197 Z" id="Shape"></path>
                </g>
            </g>
        </g>
    </g>
</svg>