<?xml version="1.0" encoding="UTF-8"?>
<svg width="79px" height="60px" viewBox="0 0 79 60" version="1.1" xmlns="http://www.w3.org/2000/svg" xmlns:xlink="http://www.w3.org/1999/xlink">
    <!-- Generator: Sketch 50.2 (55047) - http://www.bohemiancoding.com/sketch -->
    <title>Group 14</title>
    <desc>Created with Sketch.</desc>
    <defs>
        <path d="M33.5019435,23.9376648 C38.1697609,23.9376648 41.9537745,21.6207733 41.9537745,18.7627428 C41.9537745,15.9047123 38.1697609,13.5878208 33.5019435,13.5878208 C28.8341261,13.5878208 25.0501125,15.9047123 25.0501125,18.7627428 C25.0501125,21.6207733 28.8341261,23.9376648 33.5019435,23.9376648 Z" id="path-1"></path>
        <path d="M33.5019435,23.9376648 C38.1697609,23.9376648 41.9537745,21.6207733 41.9537745,18.7627428 C41.9537745,15.9047123 38.1697609,13.5878208 33.5019435,13.5878208 C28.8341261,13.5878208 25.0501125,15.9047123 25.0501125,18.7627428 C25.0501125,21.6207733 28.8341261,23.9376648 33.5019435,23.9376648 Z" id="path-3"></path>
        <path d="M33.5019435,23.9376648 C38.1697609,23.9376648 41.9537745,21.6207733 41.9537745,18.7627428 C41.9537745,15.9047123 38.1697609,13.5878208 33.5019435,13.5878208 C28.8341261,13.5878208 25.0501125,15.9047123 25.0501125,18.7627428 C25.0501125,21.6207733 28.8341261,23.9376648 33.5019435,23.9376648 Z" id="path-5"></path>
        <path d="M33.5019435,23.9376648 C38.1697609,23.9376648 41.9537745,21.6207733 41.9537745,18.7627428 C41.9537745,15.9047123 38.1697609,13.5878208 33.5019435,13.5878208 C28.8341261,13.5878208 25.0501125,15.9047123 25.0501125,18.7627428 C25.0501125,21.6207733 28.8341261,23.9376648 33.5019435,23.9376648 Z" id="path-7"></path>
    </defs>
    <g id="Page-1" stroke="none" stroke-width="1" fill="none" fill-rule="evenodd">
        <g id="Landlord-Welcome-1" transform="translate(-353.000000, -739.000000)">
            <g id="Group-14" transform="translate(353.000000, 739.000000)">
                <g id="Group-9">
                    <g id="Group-8" transform="translate(0.200861, 20.274570)">
                        <g id="Bills-Copy-3" transform="translate(0.224682, 0.609035)">
                            <g id="Group-Copy-3" transform="translate(0.039614, 0.000000)">
                                <polygon id="Rectangle-Copy-3" fill="#5ED5B6" points="66.9842872 13.5901787 66.9842872 16.2762222 29.427348 38.5829029 0.0195997359 25.0045364 0.0195997359 22.3247566"></polygon>
                                <polygon id="Rectangle-Copy-4" fill="#6FF5D2" points="37.576539 0.00727993074 66.9842872 13.5856464 29.427348 35.8923272 0.0195997359 22.3139607"></polygon>
                                <polygon id="Rectangle-Copy-5" fill="#68E2C2" points="60.749869 13.0639015 62.9745555 14.0486125 55.0375474 18.7627428 52.8128609 17.7780318"></polygon>
                                <mask id="mask-2" fill="white">
                                    <use xlink:href="#path-1"></use>
                                </mask>
                                <use id="Oval-5" fill="#68E2C2" xlink:href="#path-1"></use>
                            </g>
                        </g>
                    </g>
                    <g id="Group-8-Copy" transform="translate(0.200861, 13.516380)">
                        <g id="Bills-Copy-3" transform="translate(0.224682, 0.609035)">
                            <g id="Group-Copy-3" transform="translate(0.039614, 0.000000)">
                                <polygon id="Rectangle-Copy-3" fill="#5ED5B6" points="66.9842872 13.5901787 66.9842872 16.2762222 29.427348 38.5829029 0.0195997359 25.0045364 0.0195997359 22.3247566"></polygon>
                                <polygon id="Rectangle-Copy-4" fill="#6FF5D2" points="37.576539 0.00727993074 66.9842872 13.5856464 29.427348 35.8923272 0.0195997359 22.3139607"></polygon>
                                <polygon id="Rectangle-Copy-5" fill="#68E2C2" points="60.749869 13.0639015 62.9745555 14.0486125 55.0375474 18.7627428 52.8128609 17.7780318"></polygon>
                                <mask id="mask-4" fill="white">
                                    <use xlink:href="#path-3"></use>
                                </mask>
                                <use id="Oval-5" fill="#68E2C2" xlink:href="#path-3"></use>
                            </g>
                        </g>
                    </g>
                    <g id="Group-8-Copy-2" transform="translate(0.200861, 6.758190)">
                        <g id="Bills-Copy-3" transform="translate(0.224682, 0.609035)">
                            <g id="Group-Copy-3" transform="translate(0.039614, 0.000000)">
                                <polygon id="Rectangle-Copy-3" fill="#5ED5B6" points="66.9842872 13.5901787 66.9842872 16.2762222 29.427348 38.5829029 0.0195997359 25.0045364 0.0195997359 22.3247566"></polygon>
                                <polygon id="Rectangle-Copy-4" fill="#6FF5D2" points="37.576539 0.00727993074 66.9842872 13.5856464 29.427348 35.8923272 0.0195997359 22.3139607"></polygon>
                                <polygon id="Rectangle-Copy-5" fill="#68E2C2" points="60.749869 13.0639015 62.9745555 14.0486125 55.0375474 18.7627428 52.8128609 17.7780318"></polygon>
                                <mask id="mask-6" fill="white">
                                    <use xlink:href="#path-5"></use>
                                </mask>
                                <use id="Oval-5" fill="#68E2C2" xlink:href="#path-5"></use>
                            </g>
                        </g>
                    </g>
                    <g id="Group-8-Copy-3" transform="translate(0.200861, 0.000000)">
                        <g id="Bills-Copy-3" transform="translate(0.224682, 0.609035)">
                            <g id="Group-Copy-3" transform="translate(0.039614, 0.000000)">
                                <polygon id="Rectangle-Copy-3" fill="#5ED5B6" points="66.9842872 13.5901787 66.9842872 16.2762222 29.427348 38.5829029 0.0195997359 25.0045364 0.0195997359 22.3247566"></polygon>
                                <polygon id="Rectangle-Copy-4" fill="#6FF5D2" points="37.576539 0.00727993074 66.9842872 13.5856464 29.427348 35.8923272 0.0195997359 22.3139607"></polygon>
                                <polygon id="Rectangle-Copy-5" fill="#68E2C2" points="60.749869 13.0639015 62.9745555 14.0486125 55.0375474 18.7627428 52.8128609 17.7780318"></polygon>
                                <mask id="mask-8" fill="white">
                                    <use xlink:href="#path-7"></use>
                                </mask>
                                <use id="Oval-5" fill="#68E2C2" xlink:href="#path-7"></use>
                            </g>
                        </g>
                    </g>
                </g>
                <g id="Coins" transform="translate(62.000000, 25.000000)">
                    <g id="Group" transform="translate(0.000000, 11.172721)">
                        <path d="M8.24442423,11.1720513 C12.781058,11.1720513 16.4587263,9.51027254 16.4587263,7.46036458 C16.4587263,5.41045663 12.781058,3.7486779 8.24442423,3.7486779 C3.70779046,3.7486779 0.0301221369,5.41045663 0.0301221369,7.46036458 C0.0301221369,9.51027254 3.70779046,11.1720513 8.24442423,11.1720513 Z" id="Oval-16" fill="#F5DF70"></path>
                        <polygon id="Path-36" fill="#F5DF70" points="0.0675359665 7.51401134 0.0675359665 3.7486779 16.4587263 3.7486779 16.4587263 7.51424155"></polygon>
                        <path d="M8.24442423,7.46036458 C12.781058,7.46036458 16.4587263,5.79858585 16.4587263,3.7486779 C16.4587263,1.69876995 12.781058,0.0369912128 8.24442423,0.0369912128 C3.70779046,0.0369912128 0.0301221369,1.69876995 0.0301221369,3.7486779 C0.0301221369,5.79858585 3.70779046,7.46036458 8.24442423,7.46036458 Z" id="Oval-16-Copy" fill="#FFED92"></path>
                        <path d="M8.26313115,6.35814157 C11.4525655,6.35814157 14.0381129,5.18984489 14.0381129,3.7486779 C14.0381129,2.30751091 11.4525655,1.13921423 8.26313115,1.13921423 C5.07369679,1.13921423 2.48814939,2.30751091 2.48814939,3.7486779 C2.48814939,5.18984489 5.07369679,6.35814157 8.26313115,6.35814157 Z" id="Oval-16-Copy-2" fill="#F3DF7A"></path>
                        <path d="M2.63033328,4.32672789 C2.53727394,4.14079236 2.48814939,3.94732735 2.48814939,3.7486779 C2.48814939,2.30751091 5.07369679,1.13921423 8.26313115,1.13921423 C11.4525655,1.13921423 14.0381129,2.30751091 14.0381129,3.7486779 C14.0381129,3.94732735 13.9889884,4.14079236 13.895929,4.32672789 C13.3138591,3.16373374 11.0129361,2.29531421 8.26313115,2.29531421 C5.5133262,2.29531421 3.21240315,3.16373374 2.63033328,4.32672789 Z" id="Combined-Shape" fill="#EED660"></path>
                    </g>
                    <g id="Group-Copy" transform="translate(0.000000, 5.586361)">
                        <path d="M8.24442423,11.1720513 C12.781058,11.1720513 16.4587263,9.51027254 16.4587263,7.46036458 C16.4587263,5.41045663 12.781058,3.7486779 8.24442423,3.7486779 C3.70779046,3.7486779 0.0301221369,5.41045663 0.0301221369,7.46036458 C0.0301221369,9.51027254 3.70779046,11.1720513 8.24442423,11.1720513 Z" id="Oval-16" fill="#F5DF70"></path>
                        <polygon id="Path-36" fill="#F5DF70" points="0.0675359665 7.51401134 0.0675359665 3.7486779 16.4587263 3.7486779 16.4587263 7.51424155"></polygon>
                        <path d="M8.24442423,7.46036458 C12.781058,7.46036458 16.4587263,5.79858585 16.4587263,3.7486779 C16.4587263,1.69876995 12.781058,0.0369912128 8.24442423,0.0369912128 C3.70779046,0.0369912128 0.0301221369,1.69876995 0.0301221369,3.7486779 C0.0301221369,5.79858585 3.70779046,7.46036458 8.24442423,7.46036458 Z" id="Oval-16-Copy" fill="#FFED92"></path>
                        <path d="M8.26313115,6.35814157 C11.4525655,6.35814157 14.0381129,5.18984489 14.0381129,3.7486779 C14.0381129,2.30751091 11.4525655,1.13921423 8.26313115,1.13921423 C5.07369679,1.13921423 2.48814939,2.30751091 2.48814939,3.7486779 C2.48814939,5.18984489 5.07369679,6.35814157 8.26313115,6.35814157 Z" id="Oval-16-Copy-2" fill="#F3DF7A"></path>
                        <path d="M2.63033328,4.32672789 C2.53727394,4.14079236 2.48814939,3.94732735 2.48814939,3.7486779 C2.48814939,2.30751091 5.07369679,1.13921423 8.26313115,1.13921423 C11.4525655,1.13921423 14.0381129,2.30751091 14.0381129,3.7486779 C14.0381129,3.94732735 13.9889884,4.14079236 13.895929,4.32672789 C13.3138591,3.16373374 11.0129361,2.29531421 8.26313115,2.29531421 C5.5133262,2.29531421 3.21240315,3.16373374 2.63033328,4.32672789 Z" id="Combined-Shape" fill="#EED660"></path>
                    </g>
                    <g id="Group-Copy-2">
                        <path d="M8.24442423,11.1720513 C12.781058,11.1720513 16.4587263,9.51027254 16.4587263,7.46036458 C16.4587263,5.41045663 12.781058,3.7486779 8.24442423,3.7486779 C3.70779046,3.7486779 0.0301221369,5.41045663 0.0301221369,7.46036458 C0.0301221369,9.51027254 3.70779046,11.1720513 8.24442423,11.1720513 Z" id="Oval-16" fill="#F5DF70"></path>
                        <polygon id="Path-36" fill="#F5DF70" points="0.0675359665 7.51401134 0.0675359665 3.7486779 16.4587263 3.7486779 16.4587263 7.51424155"></polygon>
                        <path d="M8.24442423,7.46036458 C12.781058,7.46036458 16.4587263,5.79858585 16.4587263,3.7486779 C16.4587263,1.69876995 12.781058,0.0369912128 8.24442423,0.0369912128 C3.70779046,0.0369912128 0.0301221369,1.69876995 0.0301221369,3.7486779 C0.0301221369,5.79858585 3.70779046,7.46036458 8.24442423,7.46036458 Z" id="Oval-16-Copy" fill="#FFED92"></path>
                        <path d="M8.26313115,6.35814157 C11.4525655,6.35814157 14.0381129,5.18984489 14.0381129,3.7486779 C14.0381129,2.30751091 11.4525655,1.13921423 8.26313115,1.13921423 C5.07369679,1.13921423 2.48814939,2.30751091 2.48814939,3.7486779 C2.48814939,5.18984489 5.07369679,6.35814157 8.26313115,6.35814157 Z" id="Oval-16-Copy-2" fill="#F3DF7A"></path>
                        <path d="M2.63033328,4.32672789 C2.53727394,4.14079236 2.48814939,3.94732735 2.48814939,3.7486779 C2.48814939,2.30751091 5.07369679,1.13921423 8.26313115,1.13921423 C11.4525655,1.13921423 14.0381129,2.30751091 14.0381129,3.7486779 C14.0381129,3.94732735 13.9889884,4.14079236 13.895929,4.32672789 C13.3138591,3.16373374 11.0129361,2.29531421 8.26313115,2.29531421 C5.5133262,2.29531421 3.21240315,3.16373374 2.63033328,4.32672789 Z" id="Combined-Shape" fill="#EED660"></path>
                    </g>
                </g>
                <g id="Coins-Copy" transform="translate(53.000000, 34.000000)">
                    <g id="Group" transform="translate(0.000000, 11.172721)">
                        <path d="M8.24442423,11.1720513 C12.781058,11.1720513 16.4587263,9.51027254 16.4587263,7.46036458 C16.4587263,5.41045663 12.781058,3.7486779 8.24442423,3.7486779 C3.70779046,3.7486779 0.0301221369,5.41045663 0.0301221369,7.46036458 C0.0301221369,9.51027254 3.70779046,11.1720513 8.24442423,11.1720513 Z" id="Oval-16" fill="#F5DF70"></path>
                        <polygon id="Path-36" fill="#F5DF70" points="0.0675359665 7.51401134 0.0675359665 3.7486779 16.4587263 3.7486779 16.4587263 7.51424155"></polygon>
                        <path d="M8.24442423,7.46036458 C12.781058,7.46036458 16.4587263,5.79858585 16.4587263,3.7486779 C16.4587263,1.69876995 12.781058,0.0369912128 8.24442423,0.0369912128 C3.70779046,0.0369912128 0.0301221369,1.69876995 0.0301221369,3.7486779 C0.0301221369,5.79858585 3.70779046,7.46036458 8.24442423,7.46036458 Z" id="Oval-16-Copy" fill="#FFED92"></path>
                        <path d="M8.26313115,6.35814157 C11.4525655,6.35814157 14.0381129,5.18984489 14.0381129,3.7486779 C14.0381129,2.30751091 11.4525655,1.13921423 8.26313115,1.13921423 C5.07369679,1.13921423 2.48814939,2.30751091 2.48814939,3.7486779 C2.48814939,5.18984489 5.07369679,6.35814157 8.26313115,6.35814157 Z" id="Oval-16-Copy-2" fill="#F3DF7A"></path>
                        <path d="M2.63033328,4.32672789 C2.53727394,4.14079236 2.48814939,3.94732735 2.48814939,3.7486779 C2.48814939,2.30751091 5.07369679,1.13921423 8.26313115,1.13921423 C11.4525655,1.13921423 14.0381129,2.30751091 14.0381129,3.7486779 C14.0381129,3.94732735 13.9889884,4.14079236 13.895929,4.32672789 C13.3138591,3.16373374 11.0129361,2.29531421 8.26313115,2.29531421 C5.5133262,2.29531421 3.21240315,3.16373374 2.63033328,4.32672789 Z" id="Combined-Shape" fill="#EED660"></path>
                    </g>
                    <g id="Group-Copy" transform="translate(0.000000, 5.586361)">
                        <path d="M8.24442423,11.1720513 C12.781058,11.1720513 16.4587263,9.51027254 16.4587263,7.46036458 C16.4587263,5.41045663 12.781058,3.7486779 8.24442423,3.7486779 C3.70779046,3.7486779 0.0301221369,5.41045663 0.0301221369,7.46036458 C0.0301221369,9.51027254 3.70779046,11.1720513 8.24442423,11.1720513 Z" id="Oval-16" fill="#F5DF70"></path>
                        <polygon id="Path-36" fill="#F5DF70" points="0.0675359665 7.51401134 0.0675359665 3.7486779 16.4587263 3.7486779 16.4587263 7.51424155"></polygon>
                        <path d="M8.24442423,7.46036458 C12.781058,7.46036458 16.4587263,5.79858585 16.4587263,3.7486779 C16.4587263,1.69876995 12.781058,0.0369912128 8.24442423,0.0369912128 C3.70779046,0.0369912128 0.0301221369,1.69876995 0.0301221369,3.7486779 C0.0301221369,5.79858585 3.70779046,7.46036458 8.24442423,7.46036458 Z" id="Oval-16-Copy" fill="#FFED92"></path>
                        <path d="M8.26313115,6.35814157 C11.4525655,6.35814157 14.0381129,5.18984489 14.0381129,3.7486779 C14.0381129,2.30751091 11.4525655,1.13921423 8.26313115,1.13921423 C5.07369679,1.13921423 2.48814939,2.30751091 2.48814939,3.7486779 C2.48814939,5.18984489 5.07369679,6.35814157 8.26313115,6.35814157 Z" id="Oval-16-Copy-2" fill="#F3DF7A"></path>
                        <path d="M2.63033328,4.32672789 C2.53727394,4.14079236 2.48814939,3.94732735 2.48814939,3.7486779 C2.48814939,2.30751091 5.07369679,1.13921423 8.26313115,1.13921423 C11.4525655,1.13921423 14.0381129,2.30751091 14.0381129,3.7486779 C14.0381129,3.94732735 13.9889884,4.14079236 13.895929,4.32672789 C13.3138591,3.16373374 11.0129361,2.29531421 8.26313115,2.29531421 C5.5133262,2.29531421 3.21240315,3.16373374 2.63033328,4.32672789 Z" id="Combined-Shape" fill="#EED660"></path>
                    </g>
                    <g id="Group-Copy-2">
                        <path d="M8.24442423,11.1720513 C12.781058,11.1720513 16.4587263,9.51027254 16.4587263,7.46036458 C16.4587263,5.41045663 12.781058,3.7486779 8.24442423,3.7486779 C3.70779046,3.7486779 0.0301221369,5.41045663 0.0301221369,7.46036458 C0.0301221369,9.51027254 3.70779046,11.1720513 8.24442423,11.1720513 Z" id="Oval-16" fill="#F5DF70"></path>
                        <polygon id="Path-36" fill="#F5DF70" points="0.0675359665 7.51401134 0.0675359665 3.7486779 16.4587263 3.7486779 16.4587263 7.51424155"></polygon>
                        <path d="M8.24442423,7.46036458 C12.781058,7.46036458 16.4587263,5.79858585 16.4587263,3.7486779 C16.4587263,1.69876995 12.781058,0.0369912128 8.24442423,0.0369912128 C3.70779046,0.0369912128 0.0301221369,1.69876995 0.0301221369,3.7486779 C0.0301221369,5.79858585 3.70779046,7.46036458 8.24442423,7.46036458 Z" id="Oval-16-Copy" fill="#FFED92"></path>
                        <path d="M8.26313115,6.35814157 C11.4525655,6.35814157 14.0381129,5.18984489 14.0381129,3.7486779 C14.0381129,2.30751091 11.4525655,1.13921423 8.26313115,1.13921423 C5.07369679,1.13921423 2.48814939,2.30751091 2.48814939,3.7486779 C2.48814939,5.18984489 5.07369679,6.35814157 8.26313115,6.35814157 Z" id="Oval-16-Copy-2" fill="#F3DF7A"></path>
                        <path d="M2.63033328,4.32672789 C2.53727394,4.14079236 2.48814939,3.94732735 2.48814939,3.7486779 C2.48814939,2.30751091 5.07369679,1.13921423 8.26313115,1.13921423 C11.4525655,1.13921423 14.0381129,2.30751091 14.0381129,3.7486779 C14.0381129,3.94732735 13.9889884,4.14079236 13.895929,4.32672789 C13.3138591,3.16373374 11.0129361,2.29531421 8.26313115,2.29531421 C5.5133262,2.29531421 3.21240315,3.16373374 2.63033328,4.32672789 Z" id="Combined-Shape" fill="#EED660"></path>
                    </g>
                </g>
            </g>
        </g>
    </g>
</svg>