<?xml version="1.0" encoding="UTF-8"?>
<svg width="25px" height="24px" viewBox="0 0 25 24" version="1.1" xmlns="http://www.w3.org/2000/svg" xmlns:xlink="http://www.w3.org/1999/xlink">
    <!-- Generator: Sketch 47 (45396) - http://www.bohemiancoding.com/sketch -->
    <title>Shape</title>
    <desc>Created with Sketch.</desc>
    <defs></defs>
    <g id="Web-UI" stroke="none" stroke-width="1" fill="none" fill-rule="evenodd">
        <g id="Landlord---Dashboard-Copy-14" transform="translate(-1007.000000, -896.000000)" fill-rule="nonzero" fill="#FFFFFF">
            <path d="M1025.28918,919.694725 L1022.39432,919.694725 L1020.94707,919.694725 L1018.05257,919.694725 L1016.60568,919.694725 L1013.71082,919.694725 L1007.92181,919.694725 L1007.92181,918.970376 L1007.92181,918.247474 L1007.92181,900.879744 L1013.71082,900.879744 L1013.71082,896.537993 L1025.28918,896.537993 L1025.28918,900.879744 L1031.07819,900.879744 L1031.07819,918.247474 L1031.07819,918.970376 L1031.07819,919.694725 L1025.28918,919.694725 Z M1013.71082,902.327718 L1009.36943,902.327718 L1009.36943,918.247474 L1013.71082,918.247474 L1013.71082,902.327718 Z M1018.05257,918.247474 L1020.94707,918.247474 L1020.94707,915.352611 L1018.05257,915.352611 L1018.05257,918.247474 Z M1023.84157,900.879744 L1023.84157,897.985243 L1015.15807,897.985243 L1015.15807,900.879744 L1015.15807,918.247474 L1016.60568,918.247474 L1016.60568,915.352611 L1016.60568,913.904999 L1018.05257,913.904999 L1020.94707,913.904999 L1022.39432,913.904999 L1022.39432,915.352611 L1022.39432,918.247474 L1023.84157,918.247474 L1023.84157,900.879744 Z M1029.63093,902.327718 L1025.28918,902.327718 L1025.28918,918.247474 L1029.63093,918.247474 L1029.63093,902.327718 Z M1028.18368,906.669108 L1026.73643,906.669108 L1026.73643,905.222219 L1028.18368,905.222219 L1028.18368,906.669108 Z M1028.18368,911.010498 L1026.73643,911.010498 L1026.73643,909.562524 L1028.18368,909.562524 L1028.18368,911.010498 Z M1028.18368,915.352611 L1026.73643,915.352611 L1026.73643,913.904999 L1028.18368,913.904999 L1028.18368,915.352611 Z M1016.60568,909.562524 L1022.39432,909.562524 L1022.39432,911.010498 L1016.60568,911.010498 L1016.60568,909.562524 Z M1016.60568,905.222219 L1022.39432,905.222219 L1022.39432,906.669108 L1016.60568,906.669108 L1016.60568,905.222219 Z M1016.60568,900.879744 L1022.39432,900.879744 L1022.39432,902.327718 L1016.60568,902.327718 L1016.60568,900.879744 Z M1012.26357,906.669108 L1010.81632,906.669108 L1010.81632,905.222219 L1012.26357,905.222219 L1012.26357,906.669108 Z M1012.26357,911.010498 L1010.81632,911.010498 L1010.81632,909.562524 L1012.26357,909.562524 L1012.26357,911.010498 Z M1012.26357,915.352611 L1010.81632,915.352611 L1010.81632,913.904999 L1012.26357,913.904999 L1012.26357,915.352611 Z" id="Shape"></path>
        </g>
    </g>
</svg>