<?xml version="1.0" encoding="UTF-8"?>
<svg width="18px" height="21px" viewBox="0 0 18 21" version="1.1" xmlns="http://www.w3.org/2000/svg" xmlns:xlink="http://www.w3.org/1999/xlink">
    <!-- Generator: Sketch 48.2 (47327) - http://www.bohemiancoding.com/sketch -->
    <title>Shape</title>
    <desc>Created with Sketch.</desc>
    <defs></defs>
    <g id="Tenant---Dashboard-w-Popups-Copy" stroke="none" stroke-width="1" fill="none" fill-rule="evenodd" transform="translate(-1130.000000, -100.000000)">
        <g id="Group-10" transform="translate(1111.215190, 89.500000)" fill="#FFFFFF" fill-rule="nonzero">
            <path d="M34.2397356,21.7531229 C31.9144408,24.0784177 28.2471302,24.1893363 25.7582887,22.1438364 L23.2234808,24.4528098 L26.1040351,27.3393596 L25.1733842,28.2716759 L22.2485291,25.3414914 L20.4318614,26.9956117 L23.4469836,30.0037391 L22.5120026,30.9357223 L18.7727447,27.206124 L18.8197103,27.1594915 C18.7421005,26.9393197 18.7913977,26.690169 18.9829239,26.5152973 L24.8236407,21.1951987 C22.8460909,18.7080226 22.9789935,15.0923408 25.2796397,12.7913615 C27.7541583,10.3171759 31.76555,10.3171759 34.2397356,12.7913615 C36.7139212,15.2658802 36.7139212,19.2786042 34.2397356,21.7531229 Z M33.2994252,13.7419977 C31.3495217,11.7914281 28.1878403,11.7914281 26.2379369,13.7419977 C24.2880335,15.691568 24.2880335,18.8532495 26.2379369,20.8028198 C28.1878403,22.7530563 31.3495217,22.7530563 33.2994252,20.8028198 C35.2493286,18.8532495 35.2493286,15.6912349 33.2994252,13.7419977 Z" id="Shape"></path>
        </g>
    </g>
</svg>