<?xml version="1.0" encoding="UTF-8"?>
<svg width="18px" height="18px" viewBox="0 0 18 18" version="1.1" xmlns="http://www.w3.org/2000/svg" xmlns:xlink="http://www.w3.org/1999/xlink">
    <!-- Generator: Sketch 48.2 (47327) - http://www.bohemiancoding.com/sketch -->
    <title>Shape</title>
    <desc>Created with Sketch.</desc>
    <defs></defs>
    <g id="Tenant---Dashboard-w-Popups-Copy" stroke="none" stroke-width="1" fill="none" fill-rule="evenodd" transform="translate(-1201.000000, -100.000000)">
        <g id="Group-21" transform="translate(1182.215190, 88.500000)" fill="#FFFFFF" fill-rule="nonzero">
            <path d="M35.3817098,27.6288377 L35.3817098,28.6786626 L34.3313597,28.6786626 L34.3313597,27.6288377 L21.7268959,27.6288377 L21.7268959,28.6786626 L20.6768083,28.6786626 L20.6768083,27.6288377 L19.6261957,27.6288377 L19.6261957,23.4274373 L19.859636,23.4274373 L21.7268959,15.0246365 L21.7268959,12.9234111 C21.7268959,12.3438805 22.1971901,11.8735862 22.777246,11.8735862 L33.280747,11.8735862 C33.8610654,11.8735862 34.3313597,12.3438805 34.3313597,12.9234111 L34.3313597,15.0246365 L36.198357,23.4274373 L36.4317973,23.4274373 L36.4317973,27.6288377 L35.3817098,27.6288377 Z M33.280747,13.4491113 C33.280747,13.1589521 33.0457311,12.9234111 32.7558345,12.9234111 L23.3026836,12.9234111 C23.0125244,12.9234111 22.777246,13.1586895 22.777246,13.4491113 L22.777246,14.4989363 C22.777246,14.7890955 23.0125244,15.0246365 23.3026836,15.0246365 L24.8782087,15.0246365 L24.8782087,14.4989363 C24.8782087,14.2090396 25.1132246,13.9742864 25.4033838,13.9742864 L30.6551343,13.9742864 C30.9450309,13.9742864 31.1800468,14.2090396 31.1800468,14.4989363 L31.1800468,15.0246365 L32.7558345,15.0246365 C33.0457311,15.0246365 33.280747,14.7893581 33.280747,14.4989363 L33.280747,13.4491113 Z M25.9285588,15.0246365 L25.9285588,16.0749866 L30.1299592,16.0749866 L30.1299592,15.0246365 L25.9285588,15.0246365 Z M33.280747,16.0749866 L31.1800468,16.0749866 L31.1800468,16.5998991 C31.1800468,16.8897957 30.9450309,17.1250741 30.6551343,17.1250741 L25.4033838,17.1250741 C25.1132246,17.1250741 24.8782087,16.8897957 24.8782087,16.5998991 L24.8782087,16.0749866 L22.777246,16.0749866 L21.8768333,19.2257743 L34.180897,19.2257743 L33.280747,16.0749866 Z M34.3313597,19.7509494 L34.3313597,20.276387 L21.7268959,20.276387 L21.7268959,19.7509494 L20.6768083,23.4274373 L35.3817098,23.4274373 L34.3313597,19.7509494 Z M35.3817098,24.4772622 L20.6768083,24.4772622 L20.6768083,26.5779624 L21.7268959,26.5779624 L34.3313597,26.5779624 L35.3817098,26.5779624 L35.3817098,24.4772622 Z" id="Shape"></path>
        </g>
    </g>
</svg>