<?xml version="1.0" encoding="UTF-8"?>
<svg width="22px" height="17px" viewBox="0 0 22 17" version="1.1" xmlns="http://www.w3.org/2000/svg" xmlns:xlink="http://www.w3.org/1999/xlink">
    <!-- Generator: Sketch 48.2 (47327) - http://www.bohemiancoding.com/sketch -->
    <title>Shape</title>
    <desc>Created with Sketch.</desc>
    <defs></defs>
    <g id="Tenant---Dashboard-w-Popups-Copy" stroke="none" stroke-width="1" fill="none" fill-rule="evenodd" transform="translate(-1271.000000, -101.000000)">
        <g id="Group-21" transform="translate(1182.215190, 88.500000)" fill="#FFFFFF" fill-rule="nonzero">
            <path d="M109.511085,24.7811896 L107.462138,24.7811896 C107.507948,25.0006844 107.533655,25.2274297 107.533655,25.4601074 C107.533655,27.2800025 106.057833,28.754836 104.237937,28.754836 C102.417713,28.754836 100.94222,27.2800025 100.94222,25.4601074 C100.94222,25.2274297 100.967597,25.0006844 101.013737,24.7815192 L96.9158422,24.7815192 C96.9616527,25.0006844 96.9873593,25.2274297 96.9873593,25.4601074 C96.9873593,27.2800025 95.5115371,28.754836 93.6916419,28.754836 C91.8714172,28.754836 90.3959246,27.2800025 90.3959246,25.4601074 C90.3959246,25.2274297 90.4213016,25.0006844 90.4674417,24.7815192 L90.3959246,24.7815192 C89.6679006,24.7815192 89.0776376,24.1925745 89.0776376,23.4652097 L89.0776376,14.2520318 C89.0776376,13.524667 89.6679006,12.9357223 90.3959246,12.9357223 L102.260507,12.9357223 C102.988531,12.9357223 103.578794,13.524667 103.578794,14.2520318 L103.578794,15.5633977 L108.192798,15.5633977 C108.556645,15.5633977 108.851942,15.8583645 108.851942,16.2222116 L110.170229,24.1233644 C110.170229,24.486882 109.874932,24.7811896 109.511085,24.7811896 Z M104.237937,27.4213888 C105.329809,27.4213888 106.215368,26.5434097 106.215368,25.4601074 C106.215368,24.3771347 105.329809,23.4994851 104.237937,23.4994851 C103.145737,23.4994851 102.260507,24.3771347 102.260507,25.4601074 C102.260507,26.5434097 103.145737,27.4213888 104.237937,27.4213888 Z M93.6916419,27.4213888 C94.7835131,27.4213888 95.6690723,26.5434097 95.6690723,25.4601074 C95.6690723,24.3771347 94.7835131,23.4994851 93.6916419,23.4994851 C92.5997708,23.4994851 91.7142115,24.3771347 91.7142115,25.4601074 C91.7142115,26.5434097 92.5997708,27.4213888 93.6916419,27.4213888 Z M102.260507,14.9279834 C102.260507,14.5644658 101.965211,14.2698287 101.601364,14.2698287 L91.0550681,14.2698287 C90.6912209,14.2698287 90.3959246,14.5647954 90.3959246,14.9279834 L90.3959246,22.8291362 C90.3959246,23.1923243 90.6912209,23.487291 91.0550681,23.487291 L91.0666031,23.487291 C91.6677419,22.6890682 92.6146015,22.1650492 93.6916419,22.1650492 C94.7683528,22.1650492 95.7152124,22.6890682 96.3166808,23.487291 L101.601364,23.487291 C101.606307,23.487291 101.609932,23.4846544 101.615206,23.4846544 C101.799107,23.2411009 102.014647,23.0252314 102.25787,22.8410008 C102.25787,22.8367164 102.260507,22.8334207 102.260507,22.8291362 L102.260507,20.8319315 L102.260507,19.5373737 L102.260507,14.9279834 L102.260507,14.9279834 Z M103.578794,16.8912423 L103.578794,19.5373737 L108.062617,19.5373737 L107.533655,16.8912423 L103.578794,16.8912423 Z M108.32199,20.8319315 L103.578794,20.8319315 L103.578794,22.2312931 C103.791697,22.1881192 104.011851,22.1650492 104.237937,22.1650492 C105.312341,22.1650492 106.257223,22.6867612 106.859021,23.4823474 L108.851942,23.4823474 L108.32199,20.8319315 Z" id="Shape"></path>
        </g>
    </g>
</svg>