<?xml version="1.0" encoding="UTF-8"?>
<svg width="16px" height="21px" viewBox="0 0 16 21" version="1.1" xmlns="http://www.w3.org/2000/svg" xmlns:xlink="http://www.w3.org/1999/xlink">
    <!-- Generator: Sketch 48.2 (47327) - http://www.bohemiancoding.com/sketch -->
    <title>Group 3</title>
    <desc>Created with Sketch.</desc>
    <defs></defs>
    <g id="Tenant---Dashboard-w-Popups-Copy" stroke="none" stroke-width="1" fill="none" fill-rule="evenodd" transform="translate(-1346.000000, -98.000000)">
        <g id="Group-21" transform="translate(1182.215190, 88.500000)" fill="#FFFFFF">
            <g id="Group-3" transform="translate(164.484693, 10.352074)">
                <path d="M8.95166128,12.2339199 L8.90192983,4.49826904 L8.90192983,4.49826904 C6.89613708,4.49826904 5.27012078,6.12428534 5.27012078,8.13007809 C5.27012078,8.13785365 5.27014575,8.14562919 5.27019569,8.15340459 L5.29645034,12.2410258 C5.29645034,14.1823577 3.7621862,15.7653431 1.84006371,15.8435761 C0.816402741,15.8477387 0,16.6641415 0,17.6712253 C0,18.6783091 0.816402741,19.4947118 1.82348656,19.4947118 C1.86813847,19.4947118 1.91241553,19.4931069 1.95626321,19.4899516 C5.84334665,19.3502907 8.95166128,16.1550982 8.95166128,12.2339199 Z" id="Combined-Shape-Copy" opacity="0.7" transform="translate(4.475831, 11.996490) scale(-1, 1) translate(-4.475831, -11.996490) "></path>
                <path d="M14.4386981,12.2339199 L14.3889667,4.49826904 L14.3889667,4.49826904 C12.3831739,4.49826904 10.7571576,6.12428534 10.7571576,8.13007809 C10.7571576,8.13785365 10.7571826,8.14562919 10.7572325,8.15340459 L10.7834872,12.2410258 C10.7834872,14.1823577 9.24922303,15.7653431 7.32710053,15.8435761 C6.30343957,15.8477387 5.48703682,16.6641415 5.48703682,17.6712253 C5.48703682,18.6783091 6.30343957,19.4947118 7.31052338,19.4947118 C7.35517529,19.4947118 7.39945236,19.4931069 7.44330003,19.4899516 C11.3303835,19.3502907 14.4386981,16.1550982 14.4386981,12.2339199 Z" id="Combined-Shape"></path>
                <circle id="Oval-Copy" cx="12.6362269" cy="1.82036361" r="1.80247118"></circle>
                <circle id="Oval-Copy-3" opacity="0.7" cx="1.80247118" cy="1.82036361" r="1.80247118"></circle>
            </g>
        </g>
    </g>
</svg>