<?xml version="1.0" encoding="UTF-8"?>
<svg width="78px" height="64px" viewBox="0 0 78 64" version="1.1" xmlns="http://www.w3.org/2000/svg" xmlns:xlink="http://www.w3.org/1999/xlink">
    <!-- Generator: Sketch 50.2 (55047) - http://www.bohemiancoding.com/sketch -->
    <title>Group 2</title>
    <desc>Created with Sketch.</desc>
    <defs></defs>
    <g id="Page-1" stroke="none" stroke-width="1" fill="none" fill-rule="evenodd">
        <g id="Landlord-Welcome-1" transform="translate(-681.000000, -738.000000)">
            <g id="Group-2" transform="translate(681.000000, 738.000000)">
                <g id="Group">
                    <polygon id="Rectangle-12" fill="#E9E9E9" points="1.13686838e-13 23.433323 37.7639134 1.86588406 43.95289 4.45308329 37.7639134 39.2544078 6.22661797 63.3358854 1.13686838e-13 60.8218467"></polygon>
                    <polygon id="Rectangle-12" fill="#E6536C" points="1.13686838e-13 23.433323 37.7639134 1.86588406 43.95289 4.45308329 37.7639134 39.2544078 6.22661797 33.6165118 1.13686838e-13 31.1024731"></polygon>
                    <polygon id="Rectangle-12-Copy" fill="#F7F7F7" points="6.20487513 25.9909386 43.9687885 4.4234997 43.9687885 41.8120234 6.20487513 63.3794623"></polygon>
                    <polygon id="Rectangle-12-Copy" fill="#F65873" points="6.20487513 25.9909386 43.9687885 4.4234997 43.9687885 12.1854041 6.20487513 33.752843"></polygon>
                    <polygon id="Rectangle-13" fill="#DADADA" points="10.2096435 51.4940242 14.9268008 48.7757364 14.9268008 53.5178534 10.2096435 56.2361411"></polygon>
                    <polygon id="Rectangle-13-Copy-4" fill="#DADADA" points="16.6491443 47.7832266 21.3663015 45.0649388 21.3663015 49.8070557 16.6491443 52.5253435"></polygon>
                    <g id="Group-21" transform="translate(5.112155, 12.781213)">
                        <g id="Group-17" transform="translate(0.000000, 0.000000)" fill="#E6E6E6">
                            <polygon id="Combined-Shape" points="9.01365747 13.1954443 8.32354206 6.08360805 3.52639293 3.46629854 3.54892393 5.717825 1.44519649 6.9232662 0.0408439918 1.22315764 1.44519649 0.0790669888 10.4047385 4.967365 10.4047385 12.0442537"></polygon>
                        </g>
                        <polygon id="Combined-Shape-Copy-10" fill="#D8D8D8" points="6.93072871 12.0484364 6.93072871 7.22328507 2.13357959 4.60597556 2.13357959 6.53344391 0.0523831401 7.73157762 0.0523831401 1.21874401 9.01192516 6.10704202 9.01192516 13.1839307"></polygon>
                    </g>
                    <g id="Group-21-Copy" transform="translate(27.462483, 0.000000)">
                        <g id="Group-17" transform="translate(0.000000, 0.000000)" fill="#E6E6E6">
                            <polygon id="Combined-Shape" points="9.01365747 13.1954443 8.32354206 6.08360805 3.52639293 3.46629854 3.54892393 5.717825 1.44519649 6.9232662 0.0408439918 1.22315764 1.44519649 0.0790669888 10.4047385 4.967365 10.4047385 12.0442537"></polygon>
                        </g>
                        <polygon id="Combined-Shape-Copy-10" fill="#D8D8D8" points="6.93072871 12.0484364 6.93072871 7.22328507 2.13357959 4.60597556 2.13357959 6.53344391 0.0523831401 7.73157762 0.0523831401 1.21874401 9.01192516 6.10704202 9.01192516 13.1839307"></polygon>
                    </g>
                    <polygon id="Rectangle-13-Copy-8" fill="#DADADA" points="22.9096823 44.1755572 27.6268396 41.4572694 27.6268396 46.1993864 22.9096823 48.9176741"></polygon>
                    <polygon id="Rectangle-13-Copy-12" fill="#DADADA" points="29.0782726 40.6208732 33.7954298 37.9025855 33.7954298 42.6447024 29.0782726 45.3629901"></polygon>
                    <polygon id="Rectangle-13-Copy-16" fill="#DADADA" points="35.2468628 37.0661892 39.9640201 34.3479015 39.9640201 39.0900184 35.2468628 41.8083062"></polygon>
                    <polygon id="Rectangle-13-Copy" fill="#DADADA" points="10.2096435 45.7791653 14.9268008 43.0608776 14.9268008 47.8029945 10.2096435 50.5212822"></polygon>
                    <polygon id="Rectangle-13-Copy-5" fill="#DADADA" points="16.6491443 42.0683677 21.3663015 39.3500799 21.3663015 44.0921969 16.6491443 46.8104846"></polygon>
                    <polygon id="Rectangle-13-Copy-9" fill="#DADADA" points="22.9096823 38.4606983 27.6268396 35.7424106 27.6268396 40.4845275 22.9096823 43.2028152"></polygon>
                    <polygon id="Rectangle-13-Copy-13" fill="#DADADA" points="29.0782726 34.9060143 33.7954298 32.1877266 33.7954298 36.9298435 29.0782726 39.6481313"></polygon>
                    <polygon id="Rectangle-13-Copy-17" fill="#DADADA" points="35.2468628 31.3513304 39.9640201 28.6330426 39.9640201 33.3751596 35.2468628 36.0934473"></polygon>
                    <polygon id="Rectangle-13-Copy-2" fill="#DADADA" points="10.2096435 40.0643065 14.9268008 37.3460187 14.9268008 42.0881356 10.2096435 44.8064234"></polygon>
                    <polygon id="Rectangle-13-Copy-6" fill="#DADADA" points="16.6491443 36.3535088 21.3663015 33.6352211 21.3663015 38.377338 16.6491443 41.0956258"></polygon>
                    <polygon id="Rectangle-13-Copy-10" fill="#68E2C2" points="22.9096823 32.7458395 27.6268396 30.0275517 27.6268396 34.7696686 22.9096823 37.4879564"></polygon>
                    <polygon id="Rectangle-13-Copy-14" fill="#68E2C2" points="29.0782726 29.1911555 33.7954298 26.4728677 33.7954298 31.2149847 29.0782726 33.9332724"></polygon>
                    <polygon id="Rectangle-13-Copy-18" fill="#68E2C2" points="35.2468628 25.6364715 39.9640201 22.9181838 39.9640201 27.6603007 35.2468628 30.3785884"></polygon>
                    <polygon id="Rectangle-13-Copy-3" fill="#DADADA" points="10.2096435 34.3494476 14.9268008 31.6311598 14.9268008 36.3732768 10.2096435 39.0915645"></polygon>
                    <polygon id="Rectangle-13-Copy-7" fill="#DADADA" points="16.6491443 30.63865 21.3663015 27.9203622 21.3663015 32.6624791 16.6491443 35.3807669"></polygon>
                    <polygon id="Rectangle-13-Copy-11" fill="#DADADA" points="22.9096823 27.0309806 27.6268396 24.3126928 27.6268396 29.0548098 22.9096823 31.7730975"></polygon>
                    <polygon id="Rectangle-13-Copy-15" fill="#DADADA" points="29.0782726 23.4762966 33.7954298 20.7580089 33.7954298 25.5001258 29.0782726 28.2184135"></polygon>
                    <polygon id="Rectangle-13-Copy-19" fill="#DADADA" points="35.2468628 19.9216126 39.9640201 17.2033249 39.9640201 21.9454418 35.2468628 24.6637296"></polygon>
                    <polygon id="Combined-Shape-Copy-11" fill="#56C3A7" points="51.1701744 25.447315 42.3780286 24.1317491 46.5927304 20.3271166 51.1701744 20.5580465 46.9567561 17.5930784 51.1701744 13.7993518 77.4904777 29.1838455 77.4904777 47.5905034 73.268536 51.2308477 51.1701744 32.2060097"></polygon>
                    <polygon id="Combined-Shape-Copy-12" fill="#68E2C2" points="46.9188015 29.2592293 42.3413574 24.1390309 46.9188015 24.3699608 46.9188015 17.6112661 73.2391047 32.9957598 73.2391047 51.4024177 46.9188015 36.0179239"></polygon>
                    <polygon id="Rectangle-14" fill="#FFFFFF" points="56.1074278 28.7997456 70.5269088 37.1643484 70.5269088 39.7224269 56.1074278 31.3578241"></polygon>
                    <polygon id="Rectangle-14-Copy" fill="#FFFFFF" points="56.1074278 32.6429147 66.8924296 38.8991909 66.8924296 41.4572694 56.1074278 35.2009932"></polygon>
                </g>
                <path d="M53.875,27.1848808 C53.875,27.3969404 53.8697917,27.700841 53.859375,28.0965918 C53.8489583,28.4923426 53.8281252,28.9150387 53.796875,29.3646927 C53.7656248,29.8143468 53.7239586,30.2586758 53.671875,30.6976932 C53.6197914,31.1367105 53.557292,31.5081692 53.484375,31.8120801 C53.4427081,31.8184668 53.3802088,31.8142168 53.296875,31.7993301 C53.2135413,31.7844435 53.1250005,31.762288 53.03125,31.732863 C52.9374995,31.703438 52.8437505,31.6694035 52.75,31.6307586 C52.6562495,31.5921136 52.572917,31.5541776 52.5,31.5169493 C52.1979152,31.3627178 51.9453135,31.192261 51.7421875,31.0055738 C51.5390615,30.8188866 51.4114586,30.5923908 51.359375,30.3260797 C51.3072914,30.0874285 51.263021,29.7421315 51.2265625,29.2901783 C51.190104,28.838225 51.1562502,28.3507288 51.125,27.8276749 C51.0937498,27.304621 51.0703126,26.7901735 51.0546875,26.2843171 C51.0390624,25.7784607 51.03125,25.3503593 51.03125,25 C51.2395844,25.0049468 51.4765612,25.0452633 51.7421875,25.1209507 C52.0078138,25.1966382 52.270832,25.3009595 52.53125,25.4339176 C52.9583355,25.651969 53.2890613,25.9084119 53.5234375,26.2032539 C53.7578137,26.4980959 53.875,26.8253016 53.875,27.1848808 Z M51,32.6873002 C51,32.309281 51.1328112,32.065919 51.3984375,31.9572068 C51.6640638,31.8484947 52.0312477,31.9138 52.5,32.1531247 C52.9687523,32.3924495 53.3359362,32.7020806 53.6015625,33.0820274 C53.8671888,33.4619742 54,33.8409515 54,34.2189707 C54,34.5969899 53.8671888,34.840352 53.6015625,34.9490641 C53.3359362,35.0577762 52.9687523,34.9924709 52.5,34.7531462 C52.0312477,34.5138215 51.6640638,34.2041904 51.3984375,33.8242435 C51.1328112,33.4442967 51,33.0653194 51,32.6873002 Z" id="!" fill="#FFFFFF"></path>
            </g>
        </g>
    </g>
</svg>