<?xml version="1.0" encoding="UTF-8"?>
<svg width="5px" height="8px" viewBox="0 0 5 8" version="1.1" xmlns="http://www.w3.org/2000/svg" xmlns:xlink="http://www.w3.org/1999/xlink">
    <!-- Generator: Sketch 48.2 (47327) - http://www.bohemiancoding.com/sketch -->
    <title>Shape</title>
    <desc>Created with Sketch.</desc>
    <defs></defs>
    <g id="Tenant---Dashboard" stroke="none" stroke-width="1" fill="none" fill-rule="evenodd" transform="translate(-455.000000, -666.000000)">
        <path d="M460.836424,668.402703 L457.707984,671.813712 C457.698256,671.828019 457.701546,671.846762 457.688956,671.859495 C457.632442,671.916152 457.557615,671.940618 457.483646,671.937184 C457.410392,671.940045 457.336566,671.915294 457.280482,671.859352 C457.268034,671.846762 457.271468,671.828305 457.261882,671.814427 L454.133013,668.403275 C454.026567,668.296685 454.026567,668.124282 454.133013,668.017693 C454.23946,667.911389 454.411863,667.911389 454.518453,668.017693 L457.484361,671.251577 L460.450699,668.017549 C460.557145,667.910817 460.729691,667.910817 460.836138,668.017549 C460.942727,668.12371 460.942727,668.296256 460.836424,668.402703 Z" id="Shape" stroke="#9C9C9C" fill-rule="nonzero" transform="translate(457.484647, 669.937500) rotate(-90.000000) translate(-457.484647, -669.937500) "></path>
    </g>
</svg>