<?xml version="1.0" encoding="UTF-8"?>
<svg width="6px" height="8px" viewBox="0 0 6 8" version="1.1" xmlns="http://www.w3.org/2000/svg" xmlns:xlink="http://www.w3.org/1999/xlink">
    <!-- Generator: Sketch 48.2 (47327) - http://www.bohemiancoding.com/sketch -->
    <title>Shape Copy 4</title>
    <desc>Created with Sketch.</desc>
    <defs></defs>
    <g id="Tenant---Dashboard" stroke="none" stroke-width="1" fill="none" fill-rule="evenodd" transform="translate(-301.000000, -666.000000)">
        <path d="M307.298814,668.402703 L304.170375,671.813712 C304.160646,671.828019 304.163936,671.846762 304.151346,671.859495 C304.094832,671.916152 304.020005,671.940618 303.946036,671.937184 C303.872782,671.940045 303.798957,671.915294 303.742872,671.859352 C303.730424,671.846762 303.733858,671.828305 303.724272,671.814427 L300.595404,668.403275 C300.488957,668.296685 300.488957,668.124282 300.595404,668.017693 C300.70185,667.911389 300.874253,667.911389 300.980843,668.017693 L303.946751,671.251577 L306.913089,668.017549 C307.019535,667.910817 307.192082,667.910817 307.298528,668.017549 C307.405118,668.12371 307.405118,668.296256 307.298814,668.402703 Z" id="Shape-Copy-4" stroke="#9C9C9C" fill-rule="nonzero" transform="translate(303.947037, 669.937500) rotate(-270.000000) translate(-303.947037, -669.937500) "></path>
    </g>
</svg>