<?xml version="1.0" encoding="UTF-8"?>
<svg width="11px" height="18px" viewBox="0 0 11 18" version="1.1" xmlns="http://www.w3.org/2000/svg" xmlns:xlink="http://www.w3.org/1999/xlink">
    <!-- Generator: Sketch 48.2 (47327) - http://www.bohemiancoding.com/sketch -->
    <title>Shape Copy 8</title>
    <desc>Created with Sketch.</desc>
    <defs></defs>
    <g id="Tenant---Dashboard" stroke="none" stroke-width="1" fill="none" fill-rule="evenodd" transform="translate(-955.000000, -695.000000)">
        <g id="Group-8" transform="translate(954.906116, 695.586865)" fill="#E5E5E5" fill-rule="nonzero" stroke="#E5E5E5">
            <path d="M13.5727219,4.84737708 L6.12743285,12.965146 C6.10427911,12.9991956 6.11211053,13.0438006 6.08214686,13.0741048 C5.94765088,13.2089413 5.76957139,13.2671661 5.59353487,13.2589942 C5.41920084,13.2658041 5.24350482,13.2068983 5.11003033,13.0737643 C5.08040716,13.0438006 5.08857907,12.9998766 5.06576582,12.9668485 L-2.3805447,4.84873906 C-2.63387384,4.59506942 -2.63387384,4.18477155 -2.3805447,3.93110191 C-2.12721556,3.67811327 -1.71691769,3.67811327 -1.46324805,3.93110191 L5.59523735,11.6273366 L12.6547442,3.93076142 C12.9080734,3.67675128 13.3187118,3.67675128 13.5720409,3.93076142 C13.8257105,4.18340957 13.8257105,4.59404794 13.5727219,4.84737708 Z" id="Shape-Copy-8" transform="translate(5.595918, 8.500000) rotate(-270.000000) translate(-5.595918, -8.500000) "></path>
        </g>
    </g>
</svg>