<?xml version="1.0" encoding="UTF-8"?>
<svg width="15px" height="17px" viewBox="0 0 15 17" version="1.1" xmlns="http://www.w3.org/2000/svg" xmlns:xlink="http://www.w3.org/1999/xlink">
    <!-- Generator: Sketch 48.2 (47327) - http://www.bohemiancoding.com/sketch -->
    <title>Shape</title>
    <desc>Created with Sketch.</desc>
    <defs></defs>
    <g id="Tenant---Dashboard" stroke="none" stroke-width="1" fill="none" fill-rule="evenodd" transform="translate(-1155.000000, -668.000000)">
        <g id="Group-7" transform="translate(1019.906116, 662.586865)" fill="#454545" fill-rule="nonzero">
            <path d="M148.612952,22.1579363 L146.112913,22.1579363 L145.112897,22.1579363 L139.112553,22.1579363 L138.112788,22.1579363 L135.612749,22.1579363 C135.336494,22.1579363 135.112741,21.9349329 135.112741,21.6591785 L135.112741,16.6678506 C135.112741,16.6446002 135.122491,16.6248499 135.125741,16.6028495 C135.128741,16.565599 135.138241,16.5300984 135.147991,16.4930978 C135.167742,16.4293468 135.173242,16.3903462 135.192492,16.3543457 L136.113006,13.7218045 L136.113006,10.6580067 C136.113006,10.618756 136.126757,10.5840055 136.135257,10.5472549 C136.151007,10.4847539 136.169757,10.4407533 136.195508,10.3995026 L136.98502,8.55697382 C137.063521,8.32772024 137.303775,8.17871791 137.558779,8.16921776 C137.577279,8.16696773 137.59378,8.15821759 137.61278,8.15821759 L139.296306,8.15821759 C139.709563,6.99544942 140.80833,6.15793634 142.11285,6.15793634 C143.417371,6.15793634 144.515888,6.99544942 144.929394,8.15821759 L146.612921,8.15821759 C146.631921,8.15821759 146.648171,8.16696773 146.666671,8.16921776 C146.921675,8.17871791 147.161679,8.32772024 147.24043,8.55697382 L148.030443,10.3995026 C148.056193,10.4412533 148.074943,10.4847539 148.087694,10.5330047 C148.098944,10.5842555 148.112944,10.619006 148.112944,10.6580067 L148.112944,13.7073043 L149.033458,16.3443455 C149.051959,16.3805961 149.057709,16.4193467 149.069459,16.4568473 C149.087459,16.5208483 149.097209,16.5563488 149.100209,16.5930994 C149.103209,16.6150997 149.11346,16.63485 149.11346,16.6581004 L149.11346,21.6581785 C149.11296,21.9344328 148.888956,22.1579363 148.612952,22.1579363 Z M139.112553,21.1581707 L145.112897,21.1581707 L145.112897,19.1578895 L139.112553,19.1578895 L139.112553,21.1581707 Z M139.112553,9.15773321 L138.112788,9.15773321 L137.926535,9.15773321 L137.240524,10.7590082 C137.214524,10.8347594 137.168523,10.9000104 137.112522,10.9575113 L137.112772,13.1577957 L139.112553,13.1577957 L139.112553,9.15773321 Z M142.1126,7.15720195 C141.374089,7.15720195 140.736329,7.56270829 140.389573,8.15796759 L143.835377,8.15796759 C143.489122,7.56270829 142.851112,7.15720195 142.1126,7.15720195 Z M144.112631,9.15773321 L140.112569,9.15773321 L140.112569,13.1577957 L144.112631,13.1577957 L144.112631,9.15773321 Z M147.112928,10.9575113 C147.056927,10.9002604 147.010927,10.8347594 146.984926,10.7590082 L146.298916,9.15773321 L146.112913,9.15773321 L145.112897,9.15773321 L145.112897,13.1577957 L147.112928,13.1577957 L147.112928,10.9575113 Z M147.257431,14.1578113 L145.112897,14.1578113 L145.112897,15.6578348 C145.112897,15.9338391 144.888894,16.1578426 144.612639,16.1578426 C144.336385,16.1578426 144.112631,15.9338391 144.112631,15.6578348 L144.112631,14.1578113 L140.112569,14.1578113 L140.112569,15.6578348 C140.112569,15.9338391 139.888565,16.1578426 139.612561,16.1578426 C139.336557,16.1578426 139.112553,15.9338391 139.112553,15.6578348 L139.112553,14.1578113 L136.97252,14.1578113 L136.106256,16.6366001 C136.106756,16.6481002 136.112506,16.6568504 136.112506,16.6678506 L136.112506,21.1581707 L138.112538,21.1581707 L138.112538,19.1578895 L138.112538,18.1578738 L139.112303,18.1578738 L145.112897,18.1578738 L146.112913,18.1578738 L146.112913,19.1578895 L146.112913,21.1581707 L148.112694,21.1581707 L148.112694,16.6578504 C148.112694,16.6466002 148.118194,16.6376001 148.118944,16.6270999 L147.257431,14.1578113 Z" id="Shape"></path>
        </g>
    </g>
</svg>