<?xml version="1.0" encoding="UTF-8"?>
<svg width="22px" height="21px" viewBox="0 0 22 21" version="1.1" xmlns="http://www.w3.org/2000/svg" xmlns:xlink="http://www.w3.org/1999/xlink">
    <!-- Generator: Sketch 47 (45396) - http://www.bohemiancoding.com/sketch -->
    <title>Shape</title>
    <desc>Created with Sketch.</desc>
    <defs></defs>
    <g id="Page-1" stroke="none" stroke-width="1" fill="none" fill-rule="evenodd">
        <g id="Tenant-Wizard---Proposal-Dashboard" transform="translate(-40.000000, -286.000000)" fill-rule="nonzero" fill="#767676">
            <g id="Side-Bar" transform="translate(1.000000, 1.000000)">
                <g id="Dashboard-Tab" transform="translate(39.000000, 279.000000)">
                    <path d="M20.913445,7.5038801 L20.1993454,7.5038801 L20.1993454,20.3573158 C20.1993454,21.1463958 19.5598692,21.785515 18.7711462,21.785515 L13.3172105,21.785515 L15.0946044,25.0582334 C15.313833,25.3827917 15.1838669,25.7976836 14.8043229,25.9854918 C14.424779,26.1715147 13.9395483,26.0615434 13.7203197,25.7369851 L11.7365511,22.0843657 C11.6729962,21.9893904 11.6469316,21.8876312 11.6397906,21.785872 L10.1926677,21.785872 C10.1855267,21.8879883 10.1598191,21.9893904 10.0959072,22.0843657 L8.11213856,25.7369851 C7.89290998,26.0615434 7.4076793,26.1718718 7.02849242,25.9854918 C6.64894848,25.7976836 6.51862531,25.3827917 6.73785388,25.0582334 L8.51524778,21.785515 L3.06095506,21.785515 C2.27223206,21.785515 1.63275587,21.1463958 1.63275587,20.3573158 L1.63275587,7.5038801 L0.918656271,7.5038801 C0.524473293,7.5038801 0.204556674,7.18432053 0.204556674,6.78942346 C0.204556674,6.39524048 0.524473293,6.07603796 0.918656271,6.07603796 L3.06095506,6.07603796 L18.7711462,6.07603796 L20.913445,6.07603796 C21.307628,6.07603796 21.6275446,6.39559753 21.6275446,6.78942346 C21.6275446,7.18467758 21.307628,7.5038801 20.913445,7.5038801 Z M18.7711462,7.5053083 L18.0645446,7.5053083 C18.0616882,7.5053083 18.0595459,7.50423715 18.0570466,7.50423715 L3.77505466,7.50423715 C3.77219826,7.50423715 3.77005596,7.5053083 3.76755661,7.5053083 L3.06095506,7.5053083 L3.06095506,8.2179797 C3.06095506,8.2179797 3.06095506,8.2179797 3.06095506,8.21833675 L3.06095506,19.6435732 C3.06095506,20.0377562 3.38087168,20.3576728 3.77505466,20.3576728 L18.0570466,20.3576728 C18.4512296,20.3576728 18.7711462,20.0377562 18.7711462,19.6435732 L18.7711462,8.93422159 L18.7711462,8.93422159 L18.7711462,7.5053083 Z M6.63145304,14.644519 C7.02563602,14.644519 7.34555264,14.9644356 7.34555264,15.3589757 L7.34555264,18.215017 C7.34555264,18.6099141 7.02563602,18.9287595 6.63145304,18.9287595 C6.23727007,18.9287595 5.91735345,18.6099141 5.91735345,18.215017 L5.91735345,15.3589757 C5.91735345,14.9644356 6.23691302,14.644519 6.63145304,14.644519 Z M10.9085526,8.93422159 L10.9235487,8.93422159 C11.3141611,8.93814914 11.6301502,9.25449526 11.6301502,9.64617889 L11.6301502,18.215374 C11.6301502,18.6102711 11.3102336,18.9291166 10.9160506,18.9291166 C10.5218676,18.9291166 10.201951,18.6102711 10.201951,18.215374 L10.201951,9.64617889 C10.201951,9.25413821 10.517583,8.93814914 10.9085526,8.93422159 Z M15.2002912,11.0743781 C15.5948312,11.0743781 15.9143907,11.3946518 15.9143907,11.7884777 L15.9143907,18.215017 C15.9143907,18.6099141 15.5948312,18.9287595 15.2002912,18.9287595 C14.8061082,18.9287595 14.4861916,18.6099141 14.4861916,18.215017 L14.4861916,11.7884777 C14.4861916,11.3946518 14.8061082,11.0743781 15.2002912,11.0743781 Z" id="Shape"></path>
                </g>
            </g>
        </g>
    </g>
</svg>