<?xml version="1.0" encoding="UTF-8"?>
<svg width="67px" height="64px" viewBox="0 0 67 64" version="1.1" xmlns="http://www.w3.org/2000/svg" xmlns:xlink="http://www.w3.org/1999/xlink">
    <!-- Generator: Sketch 47 (45396) - http://www.bohemiancoding.com/sketch -->
    <title>Group 14</title>
    <desc>Created with Sketch.</desc>
    <defs>
        <path d="M33.2109768,23.4798284 C37.8382538,23.4798284 41.589403,21.2072502 41.589403,18.403883 C41.589403,15.6005157 37.8382538,13.3279375 33.2109768,13.3279375 C28.5836997,13.3279375 24.8325505,15.6005157 24.8325505,18.403883 C24.8325505,21.2072502 28.5836997,23.4798284 33.2109768,23.4798284 Z" id="path-1"></path>
        <path d="M33.2109768,23.4798284 C37.8382538,23.4798284 41.589403,21.2072502 41.589403,18.403883 C41.589403,15.6005157 37.8382538,13.3279375 33.2109768,13.3279375 C28.5836997,13.3279375 24.8325505,15.6005157 24.8325505,18.403883 C24.8325505,21.2072502 28.5836997,23.4798284 33.2109768,23.4798284 Z" id="path-3"></path>
        <path d="M33.2109768,23.4798284 C37.8382538,23.4798284 41.589403,21.2072502 41.589403,18.403883 C41.589403,15.6005157 37.8382538,13.3279375 33.2109768,13.3279375 C28.5836997,13.3279375 24.8325505,15.6005157 24.8325505,18.403883 C24.8325505,21.2072502 28.5836997,23.4798284 33.2109768,23.4798284 Z" id="path-5"></path>
        <path d="M33.2109768,23.4798284 C37.8382538,23.4798284 41.589403,21.2072502 41.589403,18.403883 C41.589403,15.6005157 37.8382538,13.3279375 33.2109768,13.3279375 C28.5836997,13.3279375 24.8325505,15.6005157 24.8325505,18.403883 C24.8325505,21.2072502 28.5836997,23.4798284 33.2109768,23.4798284 Z" id="path-7"></path>
        <path d="M33.2109768,23.4798284 C37.8382538,23.4798284 41.589403,21.2072502 41.589403,18.403883 C41.589403,15.6005157 37.8382538,13.3279375 33.2109768,13.3279375 C28.5836997,13.3279375 24.8325505,15.6005157 24.8325505,18.403883 C24.8325505,21.2072502 28.5836997,23.4798284 33.2109768,23.4798284 Z" id="path-9"></path>
    </defs>
    <g id="Web-UI" stroke="none" stroke-width="1" fill="none" fill-rule="evenodd">
        <g id="Landlord---Review-Proposal" transform="translate(-611.000000, -624.000000)">
            <g id="Group-14" transform="translate(611.500000, 623.915703)">
                <g id="Group-9" transform="translate(0.027987, 0.027948)">
                    <g id="Group" transform="translate(0.050244, 25.669320)">
                        <polygon id="Rectangle-Copy-3" fill="#67C9B9" points="66.402524 13.3302503 66.402524 15.9649201 29.1717694 37.844959 0.0194295108 24.5262949 0.0194295108 21.897769"></polygon>
                        <polygon id="Rectangle-Copy-4" fill="#68E2C2" points="37.2501841 0.0071406934 66.402524 13.3258048 29.1717694 35.2058437 0.0194295108 21.8871796"></polygon>
                        <polygon id="Rectangle-Copy-5" fill="#2FC5B0" points="60.2222522 12.8140388 62.4276171 13.779916 54.5595425 18.403883 52.3541776 17.4380058"></polygon>
                        <mask id="mask-2" fill="white">
                            <use xlink:href="#path-1"></use>
                        </mask>
                        <use id="Oval-5" fill="#2FC5B0" xlink:href="#path-1"></use>
                    </g>
                    <g id="Group-Copy" transform="translate(0.000000, 19.358883)">
                        <polygon id="Rectangle-Copy-3" fill="#67C9B9" points="66.402524 13.3302503 66.402524 15.9649201 29.1717694 37.844959 0.0194295108 24.5262949 0.0194295108 21.897769"></polygon>
                        <polygon id="Rectangle-Copy-4" fill="#68E2C2" points="37.2501841 0.0071406934 66.402524 13.3258048 29.1717694 35.2058437 0.0194295108 21.8871796"></polygon>
                        <polygon id="Rectangle-Copy-5" fill="#2FC5B0" points="60.2222522 12.8140388 62.4276171 13.779916 54.5595425 18.403883 52.3541776 17.4380058"></polygon>
                        <mask id="mask-4" fill="white">
                            <use xlink:href="#path-3"></use>
                        </mask>
                        <use id="Oval-5" fill="#2FC5B0" xlink:href="#path-3"></use>
                    </g>
                    <g id="Group-Copy-2" transform="translate(0.000000, 13.048446)">
                        <polygon id="Rectangle-Copy-3" fill="#67C9B9" points="66.402524 13.3302503 66.402524 15.9649201 29.1717694 37.844959 0.0194295108 24.5262949 0.0194295108 21.897769"></polygon>
                        <polygon id="Rectangle-Copy-4" fill="#68E2C2" points="37.2501841 0.0071406934 66.402524 13.3258048 29.1717694 35.2058437 0.0194295108 21.8871796"></polygon>
                        <polygon id="Rectangle-Copy-5" fill="#2FC5B0" points="60.2222522 12.8140388 62.4276171 13.779916 54.5595425 18.403883 52.3541776 17.4380058"></polygon>
                        <mask id="mask-6" fill="white">
                            <use xlink:href="#path-5"></use>
                        </mask>
                        <use id="Oval-5" fill="#2FC5B0" xlink:href="#path-5"></use>
                    </g>
                    <g id="Group-Copy-3" transform="translate(0.000000, 6.738008)">
                        <polygon id="Rectangle-Copy-3" fill="#67C9B9" points="66.402524 13.3302503 66.402524 15.9649201 29.1717694 37.844959 0.0194295108 24.5262949 0.0194295108 21.897769"></polygon>
                        <polygon id="Rectangle-Copy-4" fill="#68E2C2" points="37.2501841 0.0071406934 66.402524 13.3258048 29.1717694 35.2058437 0.0194295108 21.8871796"></polygon>
                        <polygon id="Rectangle-Copy-5" fill="#2FC5B0" points="60.2222522 12.8140388 62.4276171 13.779916 54.5595425 18.403883 52.3541776 17.4380058"></polygon>
                        <mask id="mask-8" fill="white">
                            <use xlink:href="#path-7"></use>
                        </mask>
                        <use id="Oval-5" fill="#2FC5B0" xlink:href="#path-7"></use>
                    </g>
                    <g id="Group-Copy-4" transform="translate(0.000000, 0.326197)">
                        <polygon id="Rectangle-Copy-3" fill="#67C9B9" points="66.402524 13.3302503 66.402524 15.9649201 29.1717694 37.844959 0.0194295108 24.5262949 0.0194295108 21.897769"></polygon>
                        <polygon id="Rectangle-Copy-4" fill="#68E2C2" points="37.2501841 0.0071406934 66.402524 13.3258048 29.1717694 35.2058437 0.0194295108 21.8871796"></polygon>
                        <polygon id="Rectangle-Copy-5" fill="#2FC5B0" points="60.2222522 12.8140388 62.4276171 13.779916 54.5595425 18.403883 52.3541776 17.4380058"></polygon>
                        <mask id="mask-10" fill="white">
                            <use xlink:href="#path-9"></use>
                        </mask>
                        <use id="Oval-5" fill="#2FC5B0" xlink:href="#path-9"></use>
                    </g>
                </g>
            </g>
        </g>
    </g>
</svg>