<?xml version="1.0" encoding="UTF-8"?>
<svg width="17px" height="15px" viewBox="0 0 17 15" version="1.1" xmlns="http://www.w3.org/2000/svg" xmlns:xlink="http://www.w3.org/1999/xlink">
    <!-- Generator: Sketch 48.2 (47327) - http://www.bohemiancoding.com/sketch -->
    <title>Shape</title>
    <desc>Created with Sketch.</desc>
    <defs></defs>
    <g id="Tenant---Dashboard" stroke="none" stroke-width="1" fill="none" fill-rule="evenodd" transform="translate(-1154.000000, -700.000000)">
        <g id="Group-7" transform="translate(1019.906116, 662.586865)" fill="#454545" fill-rule="nonzero">
            <path d="M149.864077,50.2382952 C149.864077,50.2382952 149.662011,50.4126262 147.203053,50.493601 C147.264465,50.182331 147.256046,49.8549652 147.199091,49.5404761 L148.713839,49.5446858 C149.490404,49.2730366 149.301958,47.9489632 148.713839,47.6867239 C148.291384,47.499021 146.551541,47.0366972 145.52388,46.7709911 L145.387436,46.3215441 L145.387436,45.6613646 C146.243985,44.9873179 146.752616,43.5936608 146.752616,42.3198561 C146.752616,40.5644127 146.340065,39.1407924 144.277809,39.1407924 C144.126013,39.1407924 144.001208,39.1640695 143.866745,39.1791749 C143.445032,38.9060399 142.900001,38.7354234 142.211344,38.6841641 C142.717993,38.3563031 143.376439,38.1529995 144.277562,38.1529995 C147.115888,38.1529995 147.746599,40.0055136 147.746599,42.2901406 C147.746599,43.7595723 147.170861,45.3037881 146.207831,46.2257116 C147.229797,46.478541 149.242032,47.0015339 149.536463,47.2692211 C150.190947,47.862293 150.518065,49.3470777 149.864077,50.2382952 Z M143.78478,43.5102097 C143.78478,45.0831504 143.191212,46.7331038 142.203915,47.7008388 C143.212756,47.9499538 145.276498,48.4835947 145.574891,48.754501 C146.229128,49.3485635 146.555998,50.8331006 145.902009,51.7238229 C145.902009,51.7238229 145.574891,52.0207303 140.342238,52.0207303 C135.109338,52.0207303 134.733437,51.7238229 134.733437,51.7238229 C134.074496,50.832853 134.406319,49.3485635 135.065508,48.754501 C135.373311,48.4771563 137.407089,47.9581255 138.436732,47.7085153 C137.443986,46.7425137 136.846457,45.0878554 136.846457,43.5102097 C136.846457,41.0990441 137.477416,39.1440116 140.315742,39.1440116 C143.154068,39.1440116 143.78478,41.0990441 143.78478,43.5102097 Z M140.315742,40.1404715 C138.253238,40.1404715 137.840688,41.6643816 137.840688,43.5453731 C137.840688,44.9093147 138.349071,46.401776 139.20562,47.1241104 L139.20562,47.8078146 L139.08552,48.2057547 C138.210646,48.4595747 136.472289,48.97291 136.023337,49.1729944 C135.432494,49.4359766 134.983542,50.715972 135.868817,51.0297182 C135.870798,51.0297182 140.255568,51.0190701 140.255568,51.0190701 L144.751772,51.0297182 C145.528337,50.7588118 145.339891,49.4352337 144.751772,49.1729944 C144.329316,48.9843009 142.589226,48.5224725 141.561812,48.2567663 L141.425369,47.8078146 L141.425369,47.1246056 C142.281918,46.4025188 142.790548,44.90981 142.790548,43.5453731 C142.790548,41.6643816 142.378246,40.1404715 140.315742,40.1404715 Z" id="Shape"></path>
        </g>
    </g>
</svg>