<?xml version="1.0" encoding="UTF-8"?>
<svg width="91px" height="118px" viewBox="0 0 91 118" version="1.1" xmlns="http://www.w3.org/2000/svg" xmlns:xlink="http://www.w3.org/1999/xlink">
    <!-- Generator: Sketch 48.2 (47327) - http://www.bohemiancoding.com/sketch -->
    <title>Send Illustration</title>
    <desc>Created with Sketch.</desc>
    <defs>
        <polygon id="path-1" points="0 0.0768407415 43.3608807 19.9564535 43.3608807 46.8088544 0 26.9292416"></polygon>
        <rect id="path-3" x="0" y="0" width="62.4955" height="39.7920566"></rect>
        <polygon id="path-5" points="4.61496291 0.062456749 47.9758436 19.9420695 43.3608807 21.9416505 0 2.06203769"></polygon>
        <polygon id="path-7" points="43.4822452 22.0124283 48.0973906 20.068642 48.0973906 46.9210428 43.4822452 48.7056244"></polygon>
    </defs>
    <g id="Tablet" stroke="none" stroke-width="1" fill="none" fill-rule="evenodd" transform="translate(-121.000000, -1232.000000)">
        <g id="Section-2-Copy" transform="translate(92.500000, 1033.989019)">
            <g id="SEND" transform="translate(0.734375, 198.000000)">
                <g id="Send-Illustration" transform="translate(28.000000, 0.361538)">
                    <g id="Group-Copy" transform="translate(24.107358, 0.000000)">
                        <path d="M4.91155773,45.7190423 L35.3164163,34.5623551 L65.7212748,72.0839676 L65.7212748,115.026912 L4.91155773,88.6619868 L4.91155773,45.7190423 Z" id="Combined-Shape" fill="#AA9E5D"></path>
                        <polygon id="Rectangle-5" fill="#F5DE67" points="60.9445551 74.7951812 65.7212748 71.9865486 65.7212748 115.022637 60.9445551 117.448839"></polygon>
                        <polygon id="Rectangle-5-Copy" fill="#867C47" points="0.134838023 48.1662289 4.91155773 45.7505069 4.91155773 88.3936846 0.134838023 90.8198863"></polygon>
                        <g id="Group-8-Copy" transform="translate(7.128881, 0.095718)">
                            <polygon id="Rectangle-Copy-27" fill="#EDEDED" points="5.19644875 0.071828657 52.7188215 21.7734314 52.7188215 102.584868 47.5439737 104.678127 0.162354272 2.13370261"></polygon>
                            <polygon id="Rectangle-Copy-14" fill="#F8F8F8" points="0.0785049311 2.15635173 47.6008777 23.8579545 47.6008777 104.669391 38.0137198 100.301891 0.0785049311 83.0202287"></polygon>
                            <path d="M37.2577852,84.201268 C39.7083986,85.3130931 41.6950132,84.2277908 41.6950132,81.7771774 C41.6950132,79.326564 39.7083986,76.438637 37.2577852,75.3268119 C34.8071718,74.2149868 32.8205572,75.3002892 32.8205572,77.7509025 C32.8205572,80.2015159 34.8071718,83.0894429 37.2577852,84.201268 Z" id="Oval-4" fill="#F6DF71"></path>
                            <polygon id="Rectangle-8" fill="#F6DF71" points="35.0599327 79.76404 39.5386836 81.9899999 39.6561488 89.6858027 37.3580407 87.0556886 35.1773978 87.4598427"></polygon>
                            <path d="M37.2577852,82.3683606 C38.6961118,83.0209187 39.8621059,82.3839275 39.8621059,80.9456009 C39.8621059,79.5072743 38.6961118,77.8122774 37.2577852,77.1597193 C35.8194586,76.5071612 34.6534646,77.1441524 34.6534646,78.582479 C34.6534646,80.0208056 35.8194586,81.7158025 37.2577852,82.3683606 Z" id="Oval-4" fill="#EBD56B"></path>
                            <polygon id="Rectangle-Copy-21" fill="#E0E0E0" points="7.37232506 20.7664288 37.2577852 34.4139457 37.2577852 37.8032481 7.37232506 24.1887098"></polygon>
                            <polygon id="Rectangle-Copy-24" fill="#E0E0E0" points="7.37232506 41.899841 37.2577852 55.5473579 37.2577852 58.9366603 7.37232506 45.322122"></polygon>
                            <polygon id="Rectangle-Copy-22" fill="#E0E0E0" points="7.37232506 27.8108996 37.2577852 41.4584165 37.2577852 44.8477188 7.37232506 31.2331805"></polygon>
                            <polygon id="Rectangle-Copy-25" fill="#E0E0E0" points="7.37232506 48.9443117 37.2577852 62.5918286 37.2577852 65.981131 7.37232506 52.3665927"></polygon>
                            <polygon id="Rectangle-Copy-23" fill="#E0E0E0" points="7.37232506 34.8553703 37.2577852 48.5028872 37.2577852 51.8921896 7.37232506 38.2776512"></polygon>
                            <polygon id="Rectangle-Copy-26" fill="#E0E0E0" points="7.37232506 55.9887825 28.9576351 65.8459465 28.9576351 68.8970767 7.37232506 59.063732"></polygon>
                        </g>
                        <polygon id="Triangle-Copy-2" fill="#FEEB8C" points="31.3354864 83.1082287 0.023965454 90.8198863 0.023965454 48.2454528"></polygon>
                        <polygon id="Triangle-Copy-3" fill="#FEEB8C" points="29.6266456 82.5207405 60.9381666 74.7946336 60.9381666 117.448839"></polygon>
                        <polygon id="Triangle" fill="#FAE268" points="30.533308 77.5925301 60.9381666 117.448839 0.128449504 91.0839133"></polygon>
                    </g>
                    <g id="Group-Copy" transform="translate(24.107358, 0.000000)"></g>
                    <path d="M24.5816198,90.7089835 L24.131323,90.5038475 L24.131323,48.2454528 L24.2421956,48.3689002 L24.2421956,48.1662289 L29.0189153,45.7505069 L29.0189153,53.6873805 L29.0189153,45.7190423 L31.3147434,46.7144315 L29.0189153,45.7190423 L31.3147434,44.8766166 L31.3147434,20.1519906 L57.032083,31.8960904 L57.032083,105.303209 L48.4466653,101.580878 L48.3009442,101.514494 L24.8279099,90.8211827 L25.7034199,90.4326974 L24.5816198,90.7089835 Z" id="Combined-Shape" fill="#000000" opacity="0.05"></path>
                    <g id="Group-5" transform="translate(0.000000, 17.715853)">
                        <g id="Group-8" transform="translate(24.576026, 48.220958) rotate(-360.000000) translate(-24.576026, -48.220958) translate(0.076026, 0.220958)">
                            <polygon id="Rectangle-Copy-27" fill="#EDEDED" points="4.73246775 0.0654152133 48.0116585 19.8293233 48.0116585 93.4252604 43.298863 95.3316165 0.147857969 1.94318838"></polygon>
                            <polygon id="Rectangle-Copy-14" fill="#F8F8F8" points="0.0714953756 1.9638152 43.3506861 21.7277232 43.3506861 95.3236604 34.6195473 91.3461267 0.0714953756 75.6075108"></polygon>
                            <polygon id="Rectangle-Copy-24" fill="#E0E0E0" points="6.71406421 52.1616058 33.9311086 64.590562 33.9311086 67.67724 6.71406421 55.2783178"></polygon>
                            <polygon id="Rectangle-Copy-22" fill="#E0E0E0" points="6.71406421 39.3306391 33.9311086 51.7595952 33.9311086 54.8462733 6.71406421 42.4473511"></polygon>
                            <polygon id="Rectangle-Copy-25" fill="#E0E0E0" points="6.71406421 58.5770892 33.9311086 71.0060453 33.9311086 74.0927234 6.71406421 61.6938012"></polygon>
                            <polygon id="Rectangle-Copy-23" fill="#E0E0E0" points="6.71406421 45.7461225 33.9311086 58.1750786 33.9311086 61.2617566 6.71406421 48.8628345"></polygon>
                            <polygon id="Rectangle-Copy-26" fill="#E0E0E0" points="6.71406421 64.9925726 26.3720631 73.9696092 26.3720631 76.7483098 6.71406421 67.7929657"></polygon>
                        </g>
                        <g id="patrick-perkins-340019" transform="translate(0.121364, 2.049429)">
                            <mask id="mask-2" fill="white">
                                <use xlink:href="#path-1"></use>
                            </mask>
                            <use id="Mask" fill="#D8D8D8" xlink:href="#path-1"></use>
                            <g mask="url(#mask-2)">
                                <g transform="translate(18.369830, 24.689091) rotate(15.000000) translate(-18.369830, -24.689091) translate(-13.130170, 4.689091)">
                                    <mask id="mask-4" fill="white">
                                        <use xlink:href="#path-3"></use>
                                    </mask>
                                    <use id="Mask" stroke="none" fill="#68E2C2" fill-rule="evenodd" xlink:href="#path-3"></use>
                                </g>
                            </g>
                        </g>
                        <polygon id="Rectangle-Copy-22" fill="#FFFFFF" points="6.79009032 14.4087664 34.0071347 26.8377226 34.0071347 29.9244006 6.79009032 17.5254784"></polygon>
                        <polygon id="Rectangle-Copy-28" fill="#FFFFFF" points="6.79009032 20.068642 22.4010349 27.456352 22.4010349 30.5430301 6.79009032 23.185354"></polygon>
                        <g id="patrick-perkins-340019-copy-2" transform="translate(0.121364, 0.120449)">
                            <mask id="mask-6" fill="white">
                                <use xlink:href="#path-5"></use>
                            </mask>
                            <use id="Mask" fill="#5CD3B4" xlink:href="#path-5"></use>
                        </g>
                        <mask id="mask-8" fill="white">
                            <use xlink:href="#path-7"></use>
                        </mask>
                        <use id="Mask" fill="#54C2A5" xlink:href="#path-7"></use>
                    </g>
                </g>
            </g>
        </g>
    </g>
</svg>