<?xml version="1.0" encoding="UTF-8"?>
<svg width="102px" height="112px" viewBox="0 0 102 112" version="1.1" xmlns="http://www.w3.org/2000/svg" xmlns:xlink="http://www.w3.org/1999/xlink">
    <!-- Generator: Sketch 48.2 (47327) - http://www.bohemiancoding.com/sketch -->
    <title>Host Illustration</title>
    <desc>Created with Sketch.</desc>
    <defs>
        <polygon id="path-1" points="0.0803782993 5.81242841 9.85610211 0.0664475888 9.85610211 23.1125407 0.0803782993 28.8576162"></polygon>
        <linearGradient x1="50%" y1="0%" x2="50%" y2="100%" id="linearGradient-3">
            <stop stop-color="#FFFDF5" offset="0%"></stop>
            <stop stop-color="#FFFBE8" stop-opacity="0" offset="100%"></stop>
        </linearGradient>
    </defs>
    <g id="Tablet" stroke="none" stroke-width="1" fill="none" fill-rule="evenodd" transform="translate(-551.000000, -1234.000000)">
        <g id="Section-2-Copy" transform="translate(92.500000, 1033.989019)">
            <g id="HOST" transform="translate(436.265625, 199.000000)">
                <g id="Host-Illustration" transform="translate(22.628472, 0.884924)">
                    <polygon id="Rectangle" fill="#F4F4F4" points="0.575041624 49.4737267 39.847284 67.4078186 39.847284 108.523087 0.575041624 90.6323317"></polygon>
                    <polygon id="Rectangle" fill="#CDEEF0" points="0.575041624 58.0894484 39.847284 76.0235403 39.847284 97.1881331 0.575041624 79.297378"></polygon>
                    <polygon id="Rectangle-Copy-3" fill="#FFFFFF" points="50.1871183 20.0755804 89.4464889 38.0117863 39.3079409 67.4775705 0.0485702975 49.5413646"></polygon>
                    <polygon id="Rectangle-Copy-2" fill="#FCFCFC" points="39.8490283 67.4062871 89.9585362 37.9528904 89.9585362 79.0727993 39.8490283 108.521555"></polygon>
                    <polygon id="Rectangle-Copy-2" fill="#DEF9FA" points="39.8634524 75.9462454 65.5297227 60.8601095 65.5297227 82.1417327 39.8634524 97.2254915"></polygon>
                    <path d="M65.5297227,63.2544449 L65.5297227,82.1417327 L47.5072295,92.7333355 L65.5297227,63.2544449 Z" id="Combined-Shape" fill="#DAF6F8"></path>
                    <polygon id="Rectangle-Copy-7" fill-opacity="0.5" fill="#BAFEFF" points="50.686783 0.117678966 89.9590254 18.0517709 89.9590254 38.0929121 50.686783 20.202157"></polygon>
                    <polygon id="Rectangle-Copy-6" fill-opacity="0.5" fill="#CFFEFF" points="0.577275131 29.5710757 50.686783 0.117678966 50.686783 20.0683075 0.577275131 49.5170635"></polygon>
                    <polygon id="Rectangle-Copy-5" fill-opacity="0.5" fill="#DAFEFF" points="0.575041624 29.5023373 39.847284 47.4364293 39.847284 67.4775705 0.575041624 49.5868154"></polygon>
                    <polygon id="Rectangle-Copy-4" fill-opacity="0.5" fill="#C8FEFF" points="39.8366457 47.5315826 89.9461536 18.0781859 89.9461536 38.0288145 39.8366457 67.4775705"></polygon>
                    <path d="M89.6764345,18.2367216 L89.9461536,18.0781859 L89.9461536,38.0288145 L55.3247072,58.3754228 L89.6764345,18.2367216 Z" id="Combined-Shape" fill-opacity="0.3" fill="#B9F0F0"></path>
                    <g id="Group-2-Copy" transform="translate(45.026188, 92.733336)">
                        <path d="M0.0348396388,17.4016287 C0.0264444653,17.2996345 0.022167616,17.1940594 0.022167616,17.0849686 C0.022167616,16.0580089 0.401180603,14.8965313 1.02695749,13.8106106 C0.391428703,13.2084037 0.022167616,12.2602649 0.022167616,11.0085782 C0.022167616,7.56906823 2.81044136,3.13995402 6.24995134,1.11587472 C9.070667,-0.544057137 11.4533928,-0.0709838031 12.2194368,2.05003815 C12.5730011,1.78741057 12.9352312,1.54593746 13.3040732,1.32888175 C17.1999571,-0.963764009 20.358195,0.335917302 20.358195,4.23180121 C20.358195,4.64929153 20.3219268,5.07965403 20.2523693,5.51815692 L0.0348396388,17.4016287 Z" id="Combined-Shape-Copy" fill="#66D5B8"></path>
                        <polygon id="Path-2" fill="#66D5B8" points="0.022167616 17.3867372 2.62283108 18.6812727 14.6819175 5.87740138"></polygon>
                        <polygon id="Path-3-Copy" fill="#66D5B8" points="10.8868325 0.454917328 13.5122579 1.76921653 13.5122579 4.54753862"></polygon>
                        <path d="M2.62307911,18.6973579 C2.61468394,18.5953638 2.61040709,18.4897887 2.61040709,18.3806979 C2.61040709,17.3537382 2.98942008,16.1922606 3.61519696,15.1063399 C2.97966818,14.504133 2.61040709,13.5559942 2.61040709,12.3043075 C2.61040709,8.86479752 5.39868084,4.4356833 8.83819081,2.411604 C11.6589065,0.751672147 14.0416323,1.22474548 14.8076763,3.34576744 C15.1612406,3.08313985 15.5234707,2.84166674 15.8923126,2.62461103 C19.7881965,0.331965274 22.9464345,1.63164659 22.9464345,5.52753049 C22.9464345,5.94502082 22.9101663,6.37538331 22.8406087,6.8138862 L2.62307911,18.6973579 Z" id="Combined-Shape" fill="#68E2C2"></path>
                    </g>
                    <g id="Group-2" transform="translate(57.749229, 97.188133)">
                        <path d="M0.0234706199,11.7230553 C0.017814995,11.6543443 0.0149337854,11.5832209 0.0149337854,11.509729 C0.0149337854,10.8178912 0.270265644,10.0354319 0.691836357,9.30387346 C0.263696025,8.89818128 0.0149337854,8.25944318 0.0149337854,7.41621219 C0.0149337854,5.09909773 1.8933262,2.11531088 4.21044066,0.751737741 C6.11068841,-0.3665181 7.71587302,-0.0478200669 8.23193825,1.38106099 C8.47012595,1.20413516 8.71415162,1.04146058 8.96263148,0.89523541 C11.587194,-0.649264443 13.7148223,0.226299341 13.7148223,2.85086186 C13.7148223,3.13211496 13.6903893,3.42203974 13.6435301,3.71744851 L0.0234706199,11.7230553 Z" id="Combined-Shape-Copy" fill="#66D5B8"></path>
                        <polygon id="Path-2" fill="#66D5B8" points="0.0149337854 11.7130232 1.7669377 12.5851204 9.89085181 3.95946279"></polygon>
                        <polygon id="Path-3-Copy" fill="#66D5B8" points="7.33419506 0.306466773 9.10288052 1.19187827 9.10288052 3.06356649"></polygon>
                        <path d="M1.76710479,12.5959567 C1.76144917,12.5272457 1.75856796,12.4561223 1.75856796,12.3826304 C1.75856796,11.6907926 2.01389982,10.9083333 2.43547053,10.1767749 C2.0073302,9.77108267 1.75856796,9.13234457 1.75856796,8.28911359 C1.75856796,5.97199913 3.63696037,2.98821228 5.95407483,1.62463914 C7.85432258,0.506383298 9.4595072,0.825081331 9.97557242,2.25396239 C10.2137601,2.07703655 10.4577858,1.91436198 10.7062656,1.76813681 C13.3308282,0.223636955 15.4584565,1.09920074 15.4584565,3.72376325 C15.4584565,4.00501636 15.4340235,4.29494114 15.3871643,4.5903499 L1.76710479,12.5959567 Z" id="Combined-Shape" fill="#68E2C2"></path>
                    </g>
                    <g id="Group" transform="translate(76.169684, 58.285120)">
                        <mask id="mask-2" fill="white">
                            <use xlink:href="#path-1"></use>
                        </mask>
                        <use id="Mask" fill="#AEAEAE" xlink:href="#path-1"></use>
                        <g mask="url(#mask-2)">
                            <g transform="translate(0.000000, -0.713807)">
                                <polygon id="Rectangle-Copy-10" fill="#E5E5E5" points="0.0803782993 27.8769503 9.85347404 22.1325142 9.85347404 23.8278919 0.0803782993 29.5714229"></polygon>
                                <polygon id="Rectangle-Copy-8" fill="#D1D1D1" points="8.20061826 0.0598469809 9.85610211 0.815841488 9.85610211 23.8727304 8.20061826 23.1185627"></polygon>
                            </g>
                        </g>
                    </g>
                    <polygon id="Rectangle-2" fill="#F4E080" points="86.0202166 58.2851196 98.9209883 58.2851196 99.9553005 59.4986608 98.9209883 81.4124579 87.0552796 82.6244398 86.0202166 81.4124579"></polygon>
                    <rect id="Rectangle-2-Copy" fill="#FEEB8C" x="87.0543278" y="59.4985911" width="12.9007717" height="23.1273383"></rect>
                    <rect id="Rectangle-3" fill="#F5E285" x="89.4464889" y="61.9969147" width="8.13739682" height="8.13739682"></rect>
                    <path d="M96.5616854,70.1343115 L96.5616854,62.9248634 L89.4464889,62.9248634 L89.4464889,61.9969147 L97.5838857,61.9969147 L97.5838857,70.1343115 L96.5616854,70.1343115 Z" id="Combined-Shape" fill="#F1DE7F"></path>
                    <rect id="Rectangle-3-Copy" fill="#F5E285" x="89.4464889" y="72.7848993" width="8.13739682" height="8.13739682"></rect>
                    <polygon id="Triangle" fill="url(#linearGradient-3)" points="85.9495632 53.8930602 101.582658 92.5813855 70.3164683 92.5813855"></polygon>
                    <path d="M96.5616854,80.9841739 L96.5616854,73.7747258 L89.4464889,73.7747258 L89.4464889,72.8467771 L97.5838857,72.8467771 L97.5838857,80.9841739 L96.5616854,80.9841739 Z" id="Combined-Shape-Copy-2" fill="#F1DE7F"></path>
                    <g id="Group-3" transform="translate(76.169684, 48.287082)">
                        <polygon id="Rectangle-Copy-11" fill="#E8E8E8" points="0.0102054306 5.94921307 7.93509511 9.5681992 7.93509511 11.6684793 0.0102054306 8.05823832"></polygon>
                        <polygon id="Rectangle-Copy-12" fill="#F5F5F5" points="10.1134907 0.0295997099 18.0245419 3.64387678 7.92125663 9.58144846 0.0102054306 5.9671714"></polygon>
                        <polygon id="Rectangle-Copy-2" fill="#F8F8F8" points="7.93515754 9.56027184 18.0245419 3.65611553 18.0245419 5.76607652 7.93515754 11.6692966"></polygon>
                    </g>
                </g>
            </g>
        </g>
    </g>
</svg>