<?xml version="1.0" encoding="UTF-8"?>
<svg width="103px" height="107px" viewBox="0 0 103 107" version="1.1" xmlns="http://www.w3.org/2000/svg" xmlns:xlink="http://www.w3.org/1999/xlink">
    <!-- Generator: Sketch 48.2 (47327) - http://www.bohemiancoding.com/sketch -->
    <title>Agree Illustration</title>
    <desc>Created with Sketch.</desc>
    <defs>
        <polygon id="path-1" points="0 0.0407194302 22.9777892 10.5753198 22.9777892 24.8049387 0 14.2703383"></polygon>
        <polygon id="path-3" points="2.50987365 0.0969253631 25.4876628 10.6315258 23.0421026 11.6911433 0.0643134394 1.15654289"></polygon>
        <path d="M25.4506208,49.7399267 C25.4506208,50.103438 25.745305,50.5301457 26.1088163,50.693005 L40.8771686,57.3094789 C41.2406799,57.4723382 41.535364,57.3096776 41.535364,56.9461663 L41.535364,43.8485871 C41.535364,43.4850758 41.2406799,43.0583681 40.8771686,42.8955088 L26.1088163,36.2790349 C25.745305,36.1161756 25.4506208,36.2788362 25.4506208,36.6423475 L25.4506208,45.6859825 L24.8943234,45.7340831 C24.8560509,45.7373924 24.8247043,45.7546951 24.8042483,45.783803 C24.7471313,45.8650776 24.7874593,46.0160782 24.8943234,46.1210721 L25.4506208,46.6676342 L25.4506208,49.7399267 Z" id="path-5"></path>
    </defs>
    <g id="Tablet" stroke="none" stroke-width="1" fill="none" fill-rule="evenodd" transform="translate(-332.000000, -1237.000000)">
        <g id="Section-2-Copy" transform="translate(92.500000, 1033.989019)">
            <g id="AGREE" transform="translate(218.500000, 202.000000)">
                <g id="Agree-Illustration" transform="translate(21.085876, 0.822828)">
                    <g id="Group-2-Copy-4" transform="translate(22.278773, 0.000000)">
                        <g id="Group-8-Copy-3" transform="translate(0.102297, 0.070198)">
                            <polygon id="Rectangle-Copy-27" fill="#EBEBEB" points="7.71879083 0.114751665 79.9207621 33.0865586 79.9207621 97.6989631 73.4406003 100.493148 0.0703607616 3.24741015"></polygon>
                            <polygon id="Rectangle-Copy-14" fill="#F8F8F8" points="0.0703607616 3.33018541 73.4763664 36.8518276 73.4763664 100.66813 58.6674474 93.9218197 0.0703607616 67.2274914"></polygon>
                            <polygon id="Rectangle-Copy-3" fill="#FFFFFF" points="16.3792067 27.0235267 50.2386473 42.489695 50.2386473 73.7702134 16.3792067 58.3259119"></polygon>
                            <polygon id="Rectangle-Copy-14" fill="#D7D7D7" points="0.0703607616 3.33018541 73.4763664 36.8518276 73.4763664 46.2108564 0.0703607616 12.7702177"></polygon>
                            <g id="Group-12" transform="translate(3.328921, 9.524853)">
                                <path d="M1.16387448,2.18075163 C1.7081068,2.39543444 2.14929427,2.12828177 2.14929427,1.58404945 C2.14929427,1.03981712 1.7081068,0.424594855 1.16387448,0.209912049 C0.619642153,-0.00477075623 0.178454684,0.262381913 0.178454684,0.806614237 C0.178454684,1.35084656 0.619642153,1.96606883 1.16387448,2.18075163 Z" id="Oval-6" fill="#70D1B8"></path>
                                <path d="M4.46262434,3.66892156 C5.00685666,3.88360436 5.44804413,3.6164517 5.44804413,3.07221937 C5.44804413,2.52798705 5.00685666,1.91276478 4.46262434,1.69808197 C3.91839201,1.48339917 3.47720454,1.75055184 3.47720454,2.29478416 C3.47720454,2.83901648 3.91839201,3.45423875 4.46262434,3.66892156 Z" id="Oval-6-Copy" fill="#F6DF71"></path>
                                <path d="M7.76504766,5.1649562 C8.30927998,5.37963901 8.75046745,5.11248634 8.75046745,4.56825402 C8.75046745,4.02402169 8.30927998,3.40879942 7.76504766,3.19411662 C7.22081533,2.97943381 6.77962787,3.24658648 6.77962787,3.79081881 C6.77962787,4.33505113 7.22081533,4.9502734 7.76504766,5.1649562 Z" id="Oval-6-Copy-2" fill="#E24660"></path>
                            </g>
                            <polygon id="Rectangle-Copy-28" fill="#D7D7D7" points="73.4763664 36.8800365 79.9192206 33.1062792 79.9192206 42.465308 73.4763664 46.3200688"></polygon>
                            <g id="Group" transform="translate(21.626982, 38.078659)" fill="#E0E0E0">
                                <polygon id="Rectangle-Copy-21" points="0.0240133765 0.0474700579 23.3037163 10.6783968 23.3037163 13.318542 0.0240133765 2.71330432"></polygon>
                                <polygon id="Rectangle-Copy-22" points="0.0240133765 5.5348604 23.3037163 16.1657872 23.3037163 18.8059323 0.0240133765 8.20069466"></polygon>
                                <polygon id="Rectangle-Copy-23" points="0.0240133765 11.0222507 23.3037163 21.6531775 23.3037163 24.2933227 0.0240133765 13.688085"></polygon>
                            </g>
                        </g>
                        <polygon id="Rectangle" fill="#5B5B5B" points="0.102296855 12.8242682 12.0559148 18.2223184 12.0559148 72.6900166 0.102296855 67.284358"></polygon>
                        <polygon id="Rectangle-Copy-2" fill="#FFFFFF" points="56.5717833 38.5499662 73.5555711 46.3077471 73.5555711 100.770374 56.5717833 93.0235613"></polygon>
                        <polygon id="Rectangle" fill="#4E4E4E" points="0.102296855 27.0937249 12.0559148 32.3930546 12.0559148 36.6919978 0.102296855 31.3926681"></polygon>
                        <polygon id="Rectangle-Copy" fill="#E24660" points="11.1202852 31.956571 12.0559148 32.3713584 12.0559148 36.634239 11.1202852 36.2194517"></polygon>
                        <path d="M60.4853125,72.7081329 L68.4697507,76.3624404 C69.2172165,76.7045396 69.8231574,77.5878066 69.8231574,78.3352725 L69.8231574,79.5075637 C69.8231574,79.607591 69.7420692,79.6515669 69.6420419,79.6057865 L61.6576037,75.951479 C60.9101378,75.6093798 60.304197,74.7261128 60.304197,73.9786469 L60.304197,72.8063556 C60.304197,72.7063283 60.3852852,72.6623525 60.4853125,72.7081329 Z" id="Rectangle-6" fill="#E24660"></path>
                        <path d="M65.4763872,64.1249026 C67.8770421,64.9707663 69.8231574,63.7103591 69.8231574,61.3097042 C69.8231574,58.9090493 67.8770421,56.277226 65.4763872,55.4313622 C63.0757323,54.5854985 61.129617,55.8459057 61.129617,58.2465606 C61.129617,60.6472155 63.0757323,63.2790388 65.4763872,64.1249026 Z" id="Oval-7" fill="#F7F7F7"></path>
                    </g>
                    <g id="Group-2-Copy-5" transform="translate(0.000000, 6.375954)">
                        <g id="Group-8-Copy-3" transform="translate(0.073307, 0.050304)">
                            <polygon id="Rectangle-Copy-27" fill="#EBEBEB" points="5.53133563 0.0822317886 57.2717371 23.7100427 57.2717371 70.0117114 52.6280111 72.0140425 0.0504209787 2.3271152"></polygon>
                            <polygon id="Rectangle-Copy-14" fill="#F8F8F8" points="0.0504209787 2.38643249 52.6536413 26.4082589 52.6536413 72.1394358 42.0414738 67.3049859 0.0504209787 48.1756569"></polygon>
                        </g>
                        <path d="M46.9208043,45.9523216 C48.6411291,46.5584731 50.035728,45.655257 50.035728,43.9349322 C50.035728,42.2146073 48.6411291,40.3286256 46.9208043,39.7224741 C45.2004794,39.1163227 43.8058805,40.0195387 43.8058805,41.7398636 C43.8058805,43.4601885 45.2004794,45.3461702 46.9208043,45.9523216 Z" id="Oval-7" fill="#F7F7F7"></path>
                    </g>
                    <polygon id="Rectangle-5-Copy-3" fill="#FFFFFF" points="5.97919085 17.1437862 46.4877398 35.5581543 46.4877398 69.5644982 5.97919085 51.1501301"></polygon>
                    <g id="Group-5" transform="translate(44.694052, 50.523711)">
                        <g id="Group-8" transform="translate(13.040288, 25.617090) rotate(-360.000000) translate(-13.040288, -25.617090) translate(0.040288, 0.117090)">
                            <polygon id="Rectangle-Copy-27" fill="#EDEDED" points="2.50782836 0.0346648166 25.4423284 10.507951 25.4423284 49.5078951 22.9449247 50.518111 0.0783528652 1.02973399"></polygon>
                            <polygon id="Rectangle-Copy-14" fill="#F8F8F8" points="0.037886815 1.04066455 22.9723868 11.5139507 22.9723868 50.5138949 18.3455835 48.406121 0.037886815 40.0659169"></polygon>
                            <polygon id="Rectangle-Copy-24" fill="#E0E0E0" points="3.55791555 27.6414676 17.9807662 34.2278176 17.9807662 35.8635094 3.55791555 29.293075"></polygon>
                            <polygon id="Rectangle-Copy-22" fill="#E0E0E0" points="3.55791555 20.8420843 17.9807662 27.4284343 17.9807662 29.0641261 3.55791555 22.4936917"></polygon>
                            <polygon id="Rectangle-Copy-25" fill="#E0E0E0" points="3.55791555 31.0411593 17.9807662 37.6275092 17.9807662 39.263201 3.55791555 32.6927667"></polygon>
                            <polygon id="Rectangle-Copy-23" fill="#E0E0E0" points="3.55791555 24.241776 17.9807662 30.8281259 17.9807662 32.4638177 3.55791555 25.8933834"></polygon>
                            <polygon id="Rectangle-Copy-26" fill="#E0E0E0" points="3.55791555 34.4408509 13.9750784 39.1979604 13.9750784 40.6704489 3.55791555 35.9248347"></polygon>
                        </g>
                        <g id="patrick-perkins-340019" transform="translate(0.064313, 1.086033)">
                            <mask id="mask-2" fill="white">
                                <use xlink:href="#path-1"></use>
                            </mask>
                            <use id="Mask" fill="#FEEB8C" xlink:href="#path-1"></use>
                        </g>
                        <polygon id="Rectangle-Copy-22" fill="#FFFFFF" points="3.59820329 7.63549059 18.021054 14.2218405 18.021054 15.8575323 3.59820329 9.28709799"></polygon>
                        <polygon id="Rectangle-Copy-28" fill="#FFFFFF" points="3.59820329 10.6347707 11.8707519 14.5496645 11.8707519 16.1853563 3.59820329 12.2863781"></polygon>
                        <mask id="mask-4" fill="white">
                            <use xlink:href="#path-3"></use>
                        </mask>
                        <use id="Mask" fill="#DCCA75" xlink:href="#path-3"></use>
                        <polygon id="Mask" fill="#EBD982" points="23.0421026 11.6648215 25.4877595 10.6347707 25.4877595 24.8643896 23.0421026 25.8100746"></polygon>
                    </g>
                    <g id="Group-7" transform="translate(69.793973, 95.068984)">
                        <polygon id="Rectangle-13" fill="#95D2E6" points="0.0718960284 3.36632816 5.67978625 5.97058986 5.67978625 11.7222721 0.0718960284 9.11801044"></polygon>
                        <polygon id="Rectangle-13-Copy" fill="#88C3D7" points="5.67023648 5.97207961 10.2065226 3.45839729 10.2065226 9.21007956 5.67023648 11.7237619"></polygon>
                        <polygon id="Rectangle-13-Copy" fill="#A8DBEC" points="5.67023648 5.97207961 10.2065226 3.45839729 4.60751082 0.85183744 0.0712246879 3.36551976"></polygon>
                        <polygon id="Rectangle-13" fill="#95D2E6" points="2.09025499 1.49776823 5.43727937 3.05210097 5.43727937 4.97515414 2.09025499 3.42082139"></polygon>
                        <polygon id="Rectangle-13-Copy" fill="#88C3D7" points="5.43157967 3.04844539 8.13902572 1.54817422 8.13902572 3.47577211 5.43157967 4.97604328"></polygon>
                        <polygon id="Rectangle-13-Copy" fill="#696969" points="5.43157967 3.076162 8.13902572 1.57589083 4.79730036 0.0201864527 2.08985431 1.52045762"></polygon>
                        <path d="M5.43157967,3.076162 L2.08985431,1.52045762 L4.79730036,0.0201864527 L8.13902572,1.57589083 L5.43157967,3.076162 Z M5.32444868,2.56000189 L7.11730912,1.56652805 L4.90443135,0.536346559 L3.11157092,1.5298204 L5.32444868,2.56000189 Z" id="Combined-Shape" fill="#A8DBEC"></path>
                    </g>
                    <g id="Combined-Shape">
                        <use fill="#FFFFFF" fill-rule="evenodd" xlink:href="#path-5"></use>
                        <path stroke="#DBDBDB" stroke-width="0.5" d="M25.0949073,45.9676723 L25.6258302,46.489304 L25.7006208,46.6676342 L25.7006208,49.7399267 C25.7006208,50.0018828 25.9349211,50.3411536 26.2110311,50.4648556 L40.9793834,57.0813296 C41.1855012,57.1736739 41.285364,57.1185513 41.285364,56.9461663 L41.285364,43.8485871 C41.285364,43.586631 41.0510638,43.2473602 40.7749538,43.1236582 L26.0066015,36.5071842 C25.8004836,36.4148399 25.7006208,36.4699625 25.7006208,36.6423475 L25.7006208,45.9152989 L25.0949073,45.9676723 Z"></path>
                    </g>
                    <path d="M28.2461261,41.89534 C28.5036133,42.0106987 28.7123479,41.8954807 28.7123479,41.6379935 C28.7123479,41.3805064 28.5036133,41.0782551 28.2461261,40.9628964 C27.9886389,40.8475378 27.7799043,40.9627557 27.7799043,41.2202429 C27.7799043,41.4777301 27.9886389,41.7799814 28.2461261,41.89534 Z" id="Oval-6" fill="#E24660"></path>
                    <path d="M28.2461261,47.2604787 C28.5036133,47.3758373 28.7123479,47.2606194 28.7123479,47.0031322 C28.7123479,46.745645 28.5036133,46.4433938 28.2461261,46.3280351 C27.9886389,46.2126765 27.7799043,46.3278944 27.7799043,46.5853816 C27.7799043,46.8428688 27.9886389,47.14512 28.2461261,47.2604787 Z" id="Oval-6-Copy" fill="#E7E7E7"></path>
                    <polygon id="Rectangle-16" fill="#EDEDED" points="29.6678874 41.4875444 36.8902455 44.8629947 36.8902455 45.8158373 29.6678874 42.440387"></polygon>
                    <polygon id="Rectangle-16-Copy-4" fill="#EDEDED" points="9.88388079 25.1027419 17.1062389 28.4781922 17.1062389 29.4310348 9.88388079 26.0555844"></polygon>
                    <polygon id="Rectangle-16-Copy-9" fill="#EDEDED" points="9.88388079 34.6994119 17.1062389 38.0748622 17.1062389 39.0277048 9.88388079 35.6522545"></polygon>
                    <polygon id="Rectangle-16-Copy-10" fill="#EDEDED" points="9.88388079 42.9029446 17.1062389 46.2783949 17.1062389 47.2312375 9.88388079 43.8557872"></polygon>
                    <polygon id="Rectangle-16-Copy-2" fill="#EDEDED" points="29.6678874 46.8299206 37.947812 50.6408303 37.947812 51.5936728 29.6678874 47.7827631"></polygon>
                    <polygon id="Rectangle-16-Copy" fill="#EDEDED" points="29.6678874 43.2036851 37.947812 47.0145948 37.947812 47.9674374 29.6678874 44.1565277"></polygon>
                    <polygon id="Rectangle-16-Copy-5" fill="#EDEDED" points="9.88388079 26.8188826 18.1638054 30.6297923 18.1638054 31.5826348 9.88388079 27.7717251"></polygon>
                    <polygon id="Rectangle-16-Copy-8" fill="#EDEDED" points="9.88388079 32.4953807 18.1638054 36.3062904 18.1638054 37.259133 9.88388079 33.4482233"></polygon>
                    <polygon id="Rectangle-16-Copy-11" fill="#EDEDED" points="9.88388079 40.6989134 18.1638054 44.5098231 18.1638054 45.4626657 9.88388079 41.651756"></polygon>
                    <polygon id="Rectangle-16-Copy-7" fill="#EDEDED" points="9.88388079 30.7463238 18.1638054 34.5572335 18.1638054 35.510076 9.88388079 31.6991664"></polygon>
                    <polygon id="Rectangle-16-Copy-12" fill="#EDEDED" points="9.88388079 38.9498565 18.1638054 42.7607662 18.1638054 43.7136087 9.88388079 39.9026991"></polygon>
                    <polygon id="Rectangle-16-Copy-6" fill="#EDEDED" points="9.88388079 28.6884287 19.2138275 32.9975346 19.2138275 33.9503772 9.88388079 29.6412712"></polygon>
                    <polygon id="Rectangle-16-Copy-3" fill="#EDEDED" points="29.6678874 48.5460613 35.800481 51.426693 35.800481 52.3795355 29.6678874 49.4989038"></polygon>
                    <g id="Group-11" transform="translate(50.209320, 96.681658) rotate(-64.000000) translate(-50.209320, -96.681658) translate(48.209320, 83.181658)">
                        <g id="Group-10" transform="translate(0.506389, 4.858049)">
                            <path d="M1.11296061,0 C1.72763178,0 2.21046973,0.498289438 2.19140936,1.11296061 L1.58745191,20.5897713 C1.56839154,21.2044424 1.35595455,21.7027319 1.11296061,21.7027319 C0.869966671,21.7027319 0.657529679,21.2044424 0.638469308,20.5897713 L0.0345118545,1.11296061 C0.0154514836,0.498289438 0.498289438,0 1.11296061,0 Z" id="Rectangle-14" fill="#D8BEA4"></path>
                            <path d="M0.804744864,21.4062021 L1.42801631,1.30654122 C1.44491645,0.761534722 1.12569988,0.294468004 0.657550303,0.0985148906 C0.795394072,0.035231695 0.949516688,0 1.11296061,0 C1.72763178,0 2.21046973,0.498289438 2.19140936,1.11296061 L1.58745191,20.5897713 C1.56839154,21.2044424 1.35595455,21.7027319 1.11296061,21.7027319 C0.997500869,21.7027319 0.888940035,21.590232 0.804744864,21.4062021 Z" id="Combined-Shape" fill="#C09F7D"></path>
                        </g>
                        <path d="M1.61934971,0.0829322981 L3.07676445,3.64550166 C2.43353999,4.63600748 1.94773508,5.13126039 1.61934971,5.13126039 C1.29096434,5.13126039 0.80515943,4.63600748 0.161934971,3.64550166 L1.61934971,0.0829322981 Z" id="Triangle-2" fill="#D8D8D8"></path>
                        <path d="M1.61934971,5.13126039 L1.61934971,0.0829322981 L3.07676445,3.64550166 C2.43353999,4.63600748 1.94773508,5.13126039 1.61934971,5.13126039 Z" id="Combined-Shape" fill="#C5C5C5"></path>
                        <circle id="Oval" fill="#858585" cx="1.61934971" cy="2.60709634" r="1"></circle>
                    </g>
                </g>
            </g>
        </g>
    </g>
</svg>