<?xml version="1.0" encoding="UTF-8"?>
<svg width="25px" height="26px" viewBox="0 0 25 26" version="1.1" xmlns="http://www.w3.org/2000/svg" xmlns:xlink="http://www.w3.org/1999/xlink">
    <!-- Generator: Sketch 48.2 (47327) - http://www.bohemiancoding.com/sketch -->
    <title>Shape</title>
    <desc>Created with Sketch.</desc>
    <defs></defs>
    <g id="Tenant---Dashboard" stroke="none" stroke-width="1" fill="none" fill-rule="evenodd" transform="translate(-718.000000, -742.000000)">
        <path d="M742.743532,752.751549 C742.433079,753.062393 741.930105,753.062393 741.620042,752.751549 L741.400968,752.576601 L741.400968,765.490685 C741.400968,766.353316 740.703131,767.052715 739.841671,767.052715 L736.723859,767.052715 L728.929329,767.052715 L721.134409,767.052715 C720.27334,767.052715 719.575503,766.353316 719.575503,765.490685 L719.575503,752.576601 L719.356428,752.751549 C719.045584,753.062393 718.54261,753.062393 718.232547,752.751549 C717.922484,752.440705 717.922484,751.937731 718.232547,751.626106 L729.902474,742.276575 C730.064144,742.114515 730.27619,742.046176 730.487845,742.053205 C730.69989,742.046176 730.911545,742.114515 731.073215,742.276575 L742.743532,751.626106 C743.053595,751.937731 743.053595,752.440705 742.743532,752.751549 Z M730.488235,765.490685 L735.165734,765.490685 L735.165734,757.680535 L730.488235,757.680535 L730.488235,765.490685 Z M739.842062,751.327368 L730.488235,743.833919 L721.134799,751.327368 L721.134799,764.70967 C721.134799,765.14079 721.483522,765.491075 721.914252,765.491075 L728.92972,765.491075 L728.92972,756.117724 L736.72425,756.117724 L736.72425,765.491075 L739.062999,765.491075 C739.493338,765.491075 739.842062,765.14079 739.842062,764.70967 L739.842062,751.327368 L739.842062,751.327368 Z M730.512837,754.556084 C728.777031,754.556084 727.369642,753.156896 727.369642,751.430852 C727.369642,749.705981 728.777031,748.307573 730.512837,748.307573 C732.247862,748.307573 733.655251,749.705981 733.655251,751.430852 C733.655251,753.156896 732.247862,754.556084 730.512837,754.556084 Z M730.512837,749.870384 C729.6381,749.870384 728.928548,750.569393 728.928548,751.430852 C728.928548,752.294264 729.63771,752.993663 730.512837,752.993663 C731.387183,752.993663 732.096345,752.294264 732.096345,751.430852 C732.096345,750.569393 731.387183,749.870384 730.512837,749.870384 Z M727.369642,757.680535 L722.693315,757.680535 L722.693315,756.117333 L727.369642,756.117333 L727.369642,757.680535 Z M727.369642,760.804204 L722.693315,760.804204 L722.693315,759.242174 L727.369642,759.242174 L727.369642,760.804204 Z" id="Shape" fill="#FFFFFF" fill-rule="nonzero"></path>
    </g>
</svg>