<?xml version="1.0" encoding="UTF-8"?>
<svg width="101px" height="168px" viewBox="0 0 101 168" version="1.1" xmlns="http://www.w3.org/2000/svg" xmlns:xlink="http://www.w3.org/1999/xlink">
    <!-- Generator: Sketch 48.2 (47327) - http://www.bohemiancoding.com/sketch -->
    <title>Group 4</title>
    <desc>Created with Sketch.</desc>
    <defs>
        <polygon id="path-1" points="0 0.134660372 75.9882348 34.9728984 75.9882348 82.0306728 0 47.1924347"></polygon>
        <polygon id="path-3" points="8.30022711 0.32053507 84.2884619 35.1587731 76.2009213 38.6629599 0.212686464 3.82472188"></polygon>
    </defs>
    <g id="Landing-Page---Main" stroke="none" stroke-width="1" fill="none" fill-rule="evenodd" transform="translate(-672.000000, -1260.000000)">
        <g id="Group-4" transform="translate(666.500000, 1258.846043)">
            <g id="Agree-Illustration" transform="translate(16.119053, 0.364881)">
                <g id="Group-5" transform="translate(0.575415, 0.540817)">
                    <g id="Group-8" transform="translate(42.633233, 84.387221) rotate(-360.000000) translate(-42.633233, -84.387221) translate(0.133233, 0.387221)">
                        <polygon id="Rectangle-Copy-27" fill="#EDEDED" points="8.29346325 0.114637584 84.1385396 34.7501076 84.1385396 163.724087 75.8795512 167.064901 0.259115265 3.40536106"></polygon>
                        <polygon id="Rectangle-Copy-14" fill="#F8F8F8" points="0.125292828 3.44150876 75.9703692 38.0769788 75.9703692 167.050959 60.6693924 160.080488 0.125292828 132.499183"></polygon>
                        <polygon id="Rectangle-Copy-24" fill="#E0E0E0" points="11.766133 91.4111588 59.4629308 113.192415 59.4629308 118.601696 11.766133 96.8730738"></polygon>
                        <polygon id="Rectangle-Copy-22" fill="#E0E0E0" points="11.766133 68.9253952 59.4629308 90.706651 59.4629308 96.1159327 11.766133 74.3873101"></polygon>
                        <polygon id="Rectangle-Copy-25" fill="#E0E0E0" points="11.766133 102.654041 59.4629308 124.435296 59.4629308 129.844578 11.766133 108.115956"></polygon>
                        <polygon id="Rectangle-Copy-23" fill="#E0E0E0" points="11.766133 80.168277 59.4629308 101.949533 59.4629308 107.358814 11.766133 85.630192"></polygon>
                        <polygon id="Rectangle-Copy-26" fill="#E0E0E0" points="11.766133 113.896922 46.2160014 129.628825 46.2160014 134.498389 11.766133 118.804501"></polygon>
                    </g>
                    <g id="patrick-perkins-340019" transform="translate(0.212686, 3.591544)">
                        <mask id="mask-2" fill="white">
                            <use xlink:href="#path-1"></use>
                        </mask>
                        <use id="Mask" fill="#68E2C2" xlink:href="#path-1"></use>
                    </g>
                    <polygon id="Rectangle-Copy-22" fill="#FFFFFF" points="11.8993657 25.2507954 59.5961636 47.0320512 59.5961636 52.4413329 11.8993657 30.7127103"></polygon>
                    <polygon id="Rectangle-Copy-28" fill="#FFFFFF" points="11.8993657 35.1695043 39.2569309 48.116175 39.2569309 53.5254567 11.8993657 40.6314193"></polygon>
                    <mask id="mask-4" fill="white">
                        <use xlink:href="#path-3"></use>
                    </mask>
                    <use id="Mask" fill="#58B99F" xlink:href="#path-3"></use>
                    <polygon id="Mask" fill="#60D1B3" points="76.2009213 38.5759131 84.2887817 35.1695043 84.2887817 82.2272787 76.2009213 85.3546875"></polygon>
                </g>
            </g>
            <g id="Group-2" transform="translate(0.000000, 64.685672)">
                <rect id="Rectangle" fill="#000000" transform="translate(7.822185, 97.118857) rotate(-315.000000) translate(-7.822185, -97.118857) " x="6.93703158" y="95.2993756" width="1.77030618" height="3.63896269" rx="0.885153088"></rect>
                <path d="M20.3561513,101.972704 C23.3868737,101.972704 31.5154684,84.8903756 31.5154684,78.6710339 C31.5154684,72.4516922 26.4736958,67.4099196 20.2543541,67.4099196 C14.0350124,67.4099196 8.99323984,72.4516922 8.99323984,78.6710339 C8.99323984,84.8903756 17.3254288,101.972704 20.3561513,101.972704 Z" id="Oval-12" fill="#EAEAEA" transform="translate(20.254354, 84.691312) rotate(-315.000000) translate(-20.254354, -84.691312) "></path>
                <path d="M98.6701554,26.303331 L38.589524,86.3839624 L38.5236228,86.3180612 C36.0505143,88.7103807 32.6817257,90.1824683 28.9691125,90.1824683 C21.378714,90.1824683 15.2254803,84.0292346 15.2254803,76.4388361 C15.2254803,72.726223 16.6975679,69.3574343 19.0898875,66.8843258 L19.0476054,66.8420437 L80.3160407,5.57360837 L80.4614855,5.7190531 C82.8592725,3.67979592 85.9662006,2.44929609 89.3605274,2.44929609 C96.9509259,2.44929609 103.10416,8.60252982 103.10416,16.1929283 C103.10416,19.5872551 101.87366,22.6941832 99.8344026,25.0919702 L99.8579594,25.115527 L99.4709301,25.5025563 C99.2150603,25.7802932 98.9478923,26.0474612 98.6701554,26.303331 Z" id="Combined-Shape" fill="#7C7C7C"></path>
                <path d="M78.5518642,7.33778493 C81.0988333,4.22879221 84.9680903,2.24484032 89.3007241,2.24484032 C96.9710119,2.24484032 103.189009,8.46283715 103.189009,16.133125 C103.189009,20.4773478 101.194429,24.3557117 98.0710918,26.9023946 L92.9447801,32.0287063 C90.4057135,35.1849662 86.5114109,37.2048317 82.1453434,37.2048317 C74.4947121,37.2048317 68.29265,31.0027696 68.29265,23.3521382 C68.29265,19.1765481 70.1401196,15.4324576 73.0622453,12.8926801 L73.0296072,12.8600419 L78.5518642,7.33778493 Z" id="Combined-Shape" fill="#FADB51"></path>
                <path d="M78.5518642,7.33778493 C81.0988333,4.22879221 84.9680903,2.24484032 89.3007241,2.24484032 C96.9710119,2.24484032 103.189009,8.46283715 103.189009,16.133125 C103.189009,20.4773478 101.194429,24.3557117 98.0710918,26.9023946 L92.9447801,32.0287063 C90.4057135,35.1849662 86.5114109,37.2048317 82.1453434,37.2048317 C74.4947121,37.2048317 68.29265,31.0027696 68.29265,23.3521382 C68.29265,19.1765481 70.1401196,15.4324576 73.0622453,12.8926801 L73.0296072,12.8600419 L78.5518642,7.33778493 Z" id="Combined-Shape" fill="#FADB51"></path>
                <circle id="Oval-11" fill="#565656" cx="91.9334485" cy="13.6795181" r="11.225156"></circle>
                <polygon id="Path-22" fill="#565656" points="87.4008151 3.39778193 94.5495914 0.526895307 104.791877 13.6388948 100.666302 20.820261"></polygon>
                <circle id="Oval-11-Copy" fill="#616161" cx="97.3754133" cy="8.86378683" r="8.77446294"></circle>
                <g id="Group" transform="translate(43.336420, 8.863787)">
                    <path d="M7.57176631,23.6600315 L25.8327323,5.13967173 C28.1542434,2.785184 30.0362,2.75845115 30.0362,5.07996222 C30.0362,7.4014733 28.1542434,11.1921193 25.8327323,13.546607 L7.57176631,32.0669668 C5.25025523,34.4214545 3.36829866,34.4481874 3.36829866,32.1266763 C3.36829866,29.8051652 5.25025523,26.0145192 7.57176631,23.6600315 Z" id="Rectangle-18" fill="#F3D44B"></path>
                    <polygon id="Path-23" fill="#F3D44B" points="26.2190871 0.360541164 29.5566666 3.65598333 27.3583224 9.31417064 23.5118205 6.71977954"></polygon>
                    <polygon id="Path-24" fill="#F3D44B" points="3.87596962 33.6540853 0.472762933 30.2705978 3.61231894 25.1743867 7.70771474 28.098453"></polygon>
                    <path d="M4.20908241,20.369354 L22.4700484,1.84899425 C24.7915595,-0.505493477 26.6735161,-0.532226333 26.6735161,1.78928475 C26.6735161,4.11079582 24.7915595,7.90144182 22.4700484,10.2559295 L4.20908241,28.7762893 C1.88757133,31.130777 0.00561475732,31.1575099 0.00561475732,28.8359988 C0.00561475732,26.5144877 1.88757133,22.7238417 4.20908241,20.369354 Z" id="Rectangle-18-Copy" fill="#FADB51"></path>
                </g>
                <path d="M15.2460772,96.4651798 L94.5409211,17.1703359 C95.4301008,17.4736725 96.3835375,17.6382498 97.3754133,17.6382498 C100.476473,17.6382498 103.2018,16.0295483 104.762392,13.6011484 L104.791877,13.6388948 L103.185802,16.4345811 C103.095896,20.6565048 101.122001,24.4147675 98.0710918,26.9023946 L92.9447801,32.0287063 C92.3158366,32.8105326 91.6037378,33.5226314 90.8219115,34.151575 L38.589524,86.3839624 L38.5236228,86.3180612 C36.3359887,88.4342319 33.4475193,89.8303565 30.2401765,90.124473 C26.5006037,92.5383385 20.2038997,95.1161803 15.2460772,96.4651798 Z" id="Combined-Shape" fill="#000000" opacity="0.15"></path>
            </g>
        </g>
    </g>
</svg>