<?xml version="1.0" encoding="UTF-8"?>
<svg width="144px" height="152px" viewBox="0 0 144 152" version="1.1" xmlns="http://www.w3.org/2000/svg" xmlns:xlink="http://www.w3.org/1999/xlink">
    <!-- Generator: Sketch 48.2 (47327) - http://www.bohemiancoding.com/sketch -->
    <title>Group 11</title>
    <desc>Created with Sketch.</desc>
    <defs></defs>
    <g id="Landing-Page---Main" stroke="none" stroke-width="1" fill="none" fill-rule="evenodd" transform="translate(-998.000000, -1271.000000)">
        <g id="Group-11" transform="translate(998.000000, 1271.346043)">
            <polygon id="Rectangle" fill="#EAEAEA" points="7.01429956 40.0232782 62.0860299 42.6748351 75.7688172 79.0348266 75.7688172 145.697448 7.01429956 106.6859"></polygon>
            <polygon id="Path-5" fill="#D1F6F5" points="76.0908016 126.98102 6.85567871 83.4515927 6.85567871 63.1707987 76.0908016 106.334259"></polygon>
            <path d="M41.2881672,58.3719152 C46.9082117,64.4221908 51.1652235,68.9404548 54.0592024,71.9267071 C56.9531814,74.9129594 62.2100553,79.0992556 69.829824,84.4855956 L64.8030534,132.653899 L41.2881672,132.111695 L18.982614,105.776799 L12.7465104,50.383466 C20.5186308,54.2179786 25.9846866,56.4376654 29.1446777,57.0425264 C32.3046687,57.6473873 36.3524986,58.0905169 41.2881672,58.3719152 Z" id="Polygon-Copy-5" fill="#000000" opacity="0.0417798913"></path>
            <g id="Group" transform="translate(0.000000, 61.599670)">
                <path d="M40.8557384,8.23950624 C46.475783,14.2897819 50.7327947,18.8080458 53.6267737,21.7942982 C56.5207527,24.7805505 61.7776265,28.9668467 69.3973952,34.3531867 L64.3706247,82.5214897 L52.3213396,89.7298179 L18.5501853,55.6443901 L0.337129062,7.34503751 L12.3140817,0.251057099 C20.0862021,4.08556974 25.5522579,6.30525652 28.7122489,6.91011746 C31.87224,7.5149784 35.9200698,7.95810799 40.8557384,8.23950624 Z" id="Polygon-Copy-3" fill="#E8CD57"></path>
                <path d="M40.8557384,8.23950624 C47.4404426,15.2851993 51.6974544,19.8034633 53.6267737,21.7942982 C56.5207527,24.7805505 61.7776265,28.9668467 69.3973952,34.3531867 L57.3577656,41.4428536 L18.5501853,55.6443901 L28.8230996,15.3154521 L40.8557384,8.23950624 Z" id="Polygon-Copy-4" fill="#EDD66D"></path>
                <path d="M28.7939242,15.309807 C34.4139688,21.3600826 38.6709805,25.8783466 41.5649595,28.8645989 C44.4589385,31.8508512 49.7158123,36.0371474 57.335581,41.4234874 L52.3088104,89.5917904 L28.7939242,89.0495865 L6.48837105,62.7146909 L0.252267439,7.32135782 C8.02438787,11.1558705 13.4904436,13.3755572 16.6504347,13.9804182 C19.8104258,14.5852791 23.8582556,15.0284087 28.7939242,15.309807 Z" id="Polygon-Copy-5" fill="#FEEB8C"></path>
                <path d="M28.7939242,23.3885674 C33.2184416,28.1517948 36.5698782,31.7089085 38.8482339,34.0599086 C41.1265896,36.4109088 45.265192,39.7066728 51.2640412,43.9472006 L47.3065932,81.8688745 L28.7939242,81.4420112 L11.2333323,60.7092209 L6.32380728,17.0994655 C12.4425991,20.1182793 16.7458851,21.865782 19.2336653,22.3419736 C21.7214455,22.8181651 24.9081985,23.1670297 28.7939242,23.3885674 Z" id="Polygon-Copy-6" fill="#F2DC6D"></path>
                <path d="M28.7939242,89.0495865 L52.3088104,89.5917904 L57.335581,41.4234874 C49.7158123,36.0371474 44.4589385,31.8508512 41.5649595,28.8645989 C38.6709805,25.8783466 34.4139688,21.3600826 28.7939242,15.309807 L28.7939242,89.0495865 Z" id="Combined-Shape-Copy" fill="#000000" opacity="0.03"></path>
            </g>
            <polygon id="Rectangle" fill="#F3F3F3" points="133.243742 45.246145 75.7688172 78.6959081 75.7688172 145.044833 112.617854 123.152652 108.598315 120.576608 125.110809 111.248268 133.243742 111.59507"></polygon>
            <g id="Group-2-Copy" transform="translate(81.714845, 129.507081)">
                <path d="M0.0368315825,18.7602674 C0.0279564179,18.6503101 0.0234350414,18.5364922 0.0234350414,18.418884 C0.0234350414,17.3117441 0.424117958,16.0595836 1.08567341,14.8888793 C0.413808496,14.2396548 0.0234350414,13.2174898 0.0234350414,11.8680771 C0.0234350414,8.16002612 2.97112732,3.38510712 6.60729003,1.20299706 C9.58927908,-0.586534604 12.1082364,-0.0765258905 12.9180786,2.21009566 C13.2918578,1.92696333 13.6747984,1.66663711 14.0647287,1.4326347 C18.1833583,-1.03901025 21.5221674,0.362144174 21.5221674,4.5622007 C21.5221674,5.01228674 21.4838256,5.47624995 21.4102911,5.94898912 L0.0368315825,18.7602674 Z" id="Combined-Shape-Copy" fill="#66D5B8"></path>
                <polygon id="Path-2" fill="#66D5B8" points="0.0234350414 18.7442133 2.77279049 20.1398202 15.5213508 6.33628173"></polygon>
                <polygon id="Path-3-Copy" fill="#66D5B8" points="11.5092832 0.490435171 14.2848164 1.90734878 14.2848164 4.90258942"></polygon>
                <path d="M2.77305271,20.1571613 C2.76417754,20.0472039 2.75965617,19.933386 2.75965617,19.8157779 C2.75965617,18.7086379 3.16033908,17.4564775 3.82189453,16.2857731 C3.15002962,15.6365487 2.75965617,14.6143836 2.75965617,13.264971 C2.75965617,9.55691996 5.70734845,4.78200096 9.34351115,2.5998909 C12.3255002,0.810359236 14.8444575,1.32036795 15.6542998,3.6069895 C16.028079,3.32385717 16.4110195,3.06353095 16.8009498,2.82952854 C20.9195795,0.357883589 24.2583885,1.75903801 24.2583885,5.95909454 C24.2583885,6.40918058 24.2200467,6.87314379 24.1465122,7.34588296 L2.77305271,20.1571613 Z" id="Combined-Shape" fill="#68E2C2"></path>
            </g>
            <g id="Group-2" transform="translate(95.165322, 132.761741)">
                <path d="M0.024812544,12.6383373 C0.0188335608,12.5642617 0.0157876191,12.4875853 0.0157876191,12.4083555 C0.0157876191,11.6625022 0.285717984,10.8189521 0.731391848,10.0302769 C0.27877275,9.59291016 0.0157876191,8.90430234 0.0157876191,7.99523578 C0.0157876191,5.49721172 2.00157643,2.28046458 4.45117107,0.810429951 C6.46006479,-0.39513414 8.15702525,-0.0515536368 8.70259632,1.48888785 C8.95440231,1.29814847 9.21238007,1.12277301 9.47506666,0.965131256 C12.2496876,-0.699956011 14.4989623,0.243967748 14.4989623,3.07344398 C14.4989623,3.37665603 14.4731323,3.6892168 14.4235939,4.00768971 L0.024812544,12.6383373 Z" id="Combined-Shape-Copy" fill="#66D5B8"></path>
                <polygon id="Path-2" fill="#66D5B8" points="0.0157876191 12.627522 1.86796172 13.5677085 10.4563577 4.26859935"></polygon>
                <polygon id="Path-3-Copy" fill="#66D5B8" points="7.75352499 0.330394282 9.62333439 1.28493462 9.62333439 3.30275561"></polygon>
                <path d="M1.86813837,13.5793908 C1.86215938,13.5053152 1.85911344,13.4286388 1.85911344,13.349409 C1.85911344,12.6035557 2.1290438,11.7600056 2.57471767,10.9713304 C2.12209857,10.5339637 1.85911344,9.84535585 1.85911344,8.93628929 C1.85911344,6.43826523 3.84490225,3.22151809 6.29449689,1.75148346 C8.30339061,0.545919367 10.0003511,0.88949987 10.5459221,2.42994136 C10.7977281,2.23920197 11.0557059,2.06382652 11.3183925,1.90618476 C14.0930134,0.241097496 16.3422881,1.18502126 16.3422881,4.01449749 C16.3422881,4.31770954 16.3164581,4.6302703 16.2669198,4.94874322 L1.86813837,13.5793908 Z" id="Combined-Shape" fill="#68E2C2"></path>
            </g>
            <polygon id="Rectangle" fill="#D1F6F5" points="133.243742 45.246145 75.7688172 78.6959081 61.7180273 42.2314275 119.192952 8.78166448"></polygon>
            <path d="M81.7148447,75.2353866 L119.427012,9.3890929 L133.243742,45.246145 L81.7148447,75.2353866 Z" id="Combined-Shape" fill="#C9EFEE"></path>
            <path d="M130.764678,44.3748791 L118.17056,11.6907392 L64.1970916,43.1026934 L76.7912099,75.7868333 L130.764678,44.3748791 Z" id="Rectangle" stroke="#FFFFFF" stroke-width="4"></path>
            <polygon id="Rectangle" fill="#58C3E5" points="64.3858335 6.22211648 6.91090839 33.5149751 6.91090839 39.6718795 61.7180273 42.3960343 119.192952 8.94627121 119.192952 2.7899389"></polygon>
            <polygon id="Rectangle-Copy" fill="#67D5F8" points="64.3858335 0 6.91090839 33.4497631 61.7180273 36.1739178 119.192952 2.72415474"></polygon>
            <polygon id="Path-3-Copy-3" fill="#DD2D4F" points="125.603428 116.760115 140.906976 128.20185 143.35238 126.848211 143.35238 88.4991586 125.603428 78.6959081 123.144456 80.0173111"></polygon>
            <polygon id="Path-3" fill="#F42B52" points="123.135105 118.0872 140.884056 128.175295 140.884056 89.8262433 123.135105 80.0229927"></polygon>
            <polygon id="Path-3" fill="#DA2749" points="124.779882 97.3569759 139.239279 105.575364 139.239279 92.7318713 124.779882 84.7455352"></polygon>
            <path d="M139.239279,94.8687859 L126.424659,87.790907 L126.424659,98.2918294 L124.779882,97.3569759 L124.779882,84.7455352 L139.239279,92.7318713 L139.239279,94.8687859 Z" id="Combined-Shape" fill="#C52242"></path>
            <path d="M139.239279,109.719959 L126.424659,102.64208 L126.424659,113.143003 L124.779882,112.208149 L124.779882,99.5967084 L139.239279,107.583045 L139.239279,109.719959 Z" id="Combined-Shape-Copy-2" fill="#DA2749"></path>
            <polygon id="Path-3-Copy" fill="#DA2749" points="124.779882 112.208149 139.239279 120.426537 139.239279 107.583045 124.779882 99.5967084"></polygon>
            <path d="M139.239279,109.719959 L126.424659,102.64208 L126.424659,113.143003 L124.779882,112.208149 L124.779882,99.5967084 L139.239279,107.583045 L139.239279,109.719959 Z" id="Combined-Shape" fill="#C52242"></path>
            <polygon id="Path-4" fill="#666666" points="123.135105 117.726949 118.1503 115.090028 108.617034 120.523726 108.572778 88.7898257 123.135105 80.0229927"></polygon>
            <polygon id="Path-4" fill="#AAAAAA" points="123.093259 117.950353 118.201303 115.005478 118.201303 83.0732228 123.093259 80.0229927"></polygon>
            <polygon id="Path-5" fill="#D1F6F5" points="75.665426 126.988427 100.963952 111.806884 100.963952 91.5260898 75.665426 106.341667"></polygon>
        </g>
    </g>
</svg>