<?xml version="1.0" encoding="UTF-8"?>
<svg width="179px" height="175px" viewBox="0 0 179 175" version="1.1" xmlns="http://www.w3.org/2000/svg" xmlns:xlink="http://www.w3.org/1999/xlink">
    <!-- Generator: Sketch 48.2 (47327) - http://www.bohemiancoding.com/sketch -->
    <title>Group 3</title>
    <desc>Created with Sketch.</desc>
    <defs>
        <path d="M0.00309995595,3.37496504 L6.28901865,0.0582185274 C6.43075995,2.45960381 5.73232454,3.96411585 4.19371242,4.57175465 C2.65510029,5.17939346 1.25822947,4.78046359 0.00309995595,3.37496504 Z" id="path-1"></path>
    </defs>
    <g id="Landing-Page---Main" stroke="none" stroke-width="1" fill="none" fill-rule="evenodd" transform="translate(-276.000000, -1255.000000)">
        <g id="Group-3" transform="translate(276.000000, 1255.846043)">
            <g id="Group" transform="translate(0.053652, 60.661320)">
                <polygon id="Rectangle-Copy-15" fill="#EBEBEB" points="81.931309 9.81191102 177.82616 54.7844855 177.82616 65.5241055 94.3384706 112.646496 0.0762332685 55.8748896 0.0762332685 47.2370909"></polygon>
                <polygon id="Rectangle-Copy-14" fill="#F8F8F8" points="81.2512462 1.61522546 175.678048 56.4745249 94.5520538 102.014854 0.125252017 47.2597543"></polygon>
                <polygon id="Rectangle-Copy-3" fill="#FFFFFF" points="83.3499439 22.215495 126.366347 47.41323 85.3447538 70.0949083 42.328351 44.9253018"></polygon>
                <polygon id="Rectangle-Copy-28" fill="#C9C9C9" points="166.008701 61.9085444 177.936399 55.074404 177.936399 65.37598 166.008701 72.2392961"></polygon>
                <polygon id="Rectangle-Copy-29" fill="#F4F4F4" points="94.3925806 102.297679 166.008701 61.9702692 166.008701 72.2718451 94.3925806 112.62843"></polygon>
                <polygon id="Rectangle-Copy-29" fill="#F4F4F4" points="94.3925806 102.297679 72.8762805 89.5390294 72.8762805 99.8406054 94.3925806 112.62843"></polygon>
                <polygon id="Rectangle-Copy-30" fill="#414141" points="15.2401814 56.0210741 0.125252017 47.0055074 0.125252017 56.0210741 15.2401814 65.0658164"></polygon>
                <polygon id="Rectangle-Copy-21" fill="#E0E0E0" points="83.3154969 28.4979284 112.890973 45.8189257 110.311692 47.321519 80.7362163 30.0335672"></polygon>
                <polygon id="Rectangle-Copy-22" fill="#E0E0E0" points="78.807833 31.2608841 108.383309 48.5818814 105.804029 50.0844747 76.2285525 32.7965229"></polygon>
                <polygon id="Rectangle-Copy-23" fill="#E0E0E0" points="74.2897319 33.9536622 103.865208 51.2746595 101.285927 52.7772528 71.7104513 35.489301"></polygon>
                <polygon id="Rectangle" fill="#5B5B5B" points="73.0750591 6.42417418 88.2614188 15.2400475 15.2206722 56.0724951 0.0343124529 47.2468346"></polygon>
                <polygon id="Rectangle-Copy-2" fill="#FFFFFF" points="148.524441 46.7202868 170.101332 59.3593907 94.514959 102.197751 72.9380679 89.572756"></polygon>
                <polygon id="Rectangle-Copy-14" fill="#D7D7D7" points="83.9322037 0.0536858886 178.046532 55.0343511 165.88976 61.9702692 71.775432 7.09380371"></polygon>
                <polygon id="Rectangle" fill="#4E4E4E" points="56.5890722 15.7399685 71.775432 24.4288514 65.8083643 27.6743475 50.6220045 18.9854647"></polygon>
                <polygon id="Rectangle-Copy" fill="#E24660" points="70.6445204 23.7413486 71.8331821 24.4214419 65.9161421 27.7332825 64.7274804 27.0531892"></polygon>
                <path d="M131.003409,68.6552711 C133.411475,70.0160757 139.243537,71.0633377 143.437539,68.6552711 C147.63154,66.2472045 145.845605,62.9048355 143.437539,61.5440308 C141.029472,60.1832262 135.19741,59.1359642 131.003409,61.5440308 C126.809407,63.9520974 128.595342,67.2944664 131.003409,68.6552711 Z" id="Oval-13" fill="#EDEDED"></path>
                <path d="M88.471099,10.6746919 C88.8394671,10.8828577 89.7316125,11.04306 90.3731796,10.6746919 C91.0147467,10.3063238 90.7415477,9.79503313 90.3731796,9.58686738 C90.0048115,9.37870162 89.1126661,9.21849929 88.471099,9.58686738 C87.8295319,9.95523547 88.1027309,10.4665262 88.471099,10.6746919 Z" id="Oval-13-Copy" fill="#E24660"></path>
                <path d="M85.2261604,8.76942099 C85.5945285,8.97758674 86.4866739,9.13778908 87.128241,8.76942099 C87.7698081,8.40105289 87.4966091,7.88976218 87.128241,7.68159642 C86.7598729,7.47343067 85.8677275,7.31322833 85.2261604,7.68159642 C84.5845933,8.04996452 84.8577923,8.56125523 85.2261604,8.76942099 Z" id="Oval-13-Copy-2" fill="#F6DF71"></path>
                <path d="M82.0598487,6.96808646 C82.4282168,7.17625222 83.3203622,7.33645456 83.9619293,6.96808646 C84.6034964,6.59971837 84.3302974,6.08842766 83.9619293,5.8802619 C83.5935612,5.67209615 82.7014159,5.51189381 82.0598487,5.8802619 C81.4182816,6.24862999 81.6914806,6.75992071 82.0598487,6.96808646 Z" id="Oval-13-Copy-3" fill="#70D1B8"></path>
            </g>
            <g id="Group-2" transform="translate(38.069632, 49.360656)">
                <path d="M17.8188235,28.930866 L17.8188235,28.930866 C23.5581437,25.6839228 30.8429495,27.7043937 34.0898927,33.4437139 C35.1044443,35.2370428 35.637647,37.2624014 35.637647,39.3228245 L35.637647,47.0368845 L8.94431645,73.2422864 L0,68.2975747 L-7.10542736e-15,59.4843435 C-8.65476723e-15,46.8330233 6.80750393,35.1603718 17.8188235,28.930866 Z" id="Rectangle-16" fill="#68E2C2"></path>
                <polygon id="Path-19" fill="#56CAAC" points="29.8359322 29.0929136 39.2319092 35.5572221 30.2960192 39.5670995 26.2217239 32.5799925"></polygon>
                <path d="M26.6118969,35.0219598 L26.6118969,35.0219598 C32.3512172,31.7750167 39.636023,33.7954875 42.8829661,39.5348077 C43.8975178,41.3281366 44.4307204,43.3534952 44.4307204,45.4139184 L44.4307204,53.1279784 L8.79307341,73.2894973 L8.79307341,65.5754373 C8.79307341,52.9241171 15.6005773,41.2514656 26.6118969,35.0219598 Z" id="Rectangle-16-Copy" fill="#60D8B9"></path>
                <circle id="Oval-8" fill="#FFDBB9" cx="20.2080413" cy="20.8628249" r="17.326785"></circle>
                <g id="Group" transform="translate(8.575528, 41.347762)">
                    <path d="M5.52223994,11.8462821 C8.55126118,10.0674744 11.0067681,6.16995897 11.0067681,3.14093773 C11.0067681,0.111916485 8.55126118,-0.901581839 5.52223994,0.877225864 C2.49321869,2.65603357 0.0377118083,6.55354901 0.0377118083,9.58257025 C0.0377118083,12.6115915 2.49321869,13.6250898 5.52223994,11.8462821 Z" id="Oval" fill="#68E2C2"></path>
                    <polygon id="Path-21" fill="#68E2C2" points="1.26531794 12.3455462 14.1909285 18.5145337 23.1290124 6.80271147 9.61531597 0.306710365"></polygon>
                    <path d="M17.6444843,17.6377212 C20.6735055,15.8589135 23.1290124,11.961398 23.1290124,8.93237677 C23.1290124,5.90335553 20.6735055,4.8898572 17.6444843,6.66866491 C14.6154631,8.44747261 12.1599562,12.344988 12.1599562,15.3740093 C12.1599562,18.4030305 14.6154631,19.4165289 17.6444843,17.6377212 Z" id="Oval-Copy-2" fill="#3ED7AF"></path>
                    <path d="M14.2308501,18.3922279 C13.7054331,17.8593193 13.40181,17.043417 13.40181,15.9782955 C13.40181,12.9492742 15.8573169,9.05175879 18.8863381,7.27295108 C20.4895757,6.33144185 21.9321431,6.17219812 22.9349757,6.68003737 C22.9686225,6.68510884 23.0045165,6.69712397 23.0428544,6.71662292 C25.4556514,7.94379124 27.1085973,10.4501204 27.1085973,13.3425158 C27.1085973,17.4454592 23.7825045,20.771552 19.6795611,20.771552 C17.535321,20.771552 15.6032555,19.8631248 14.2472332,18.4101391 C14.2416291,18.4041342 14.2361684,18.3981639 14.2308501,18.3922279 Z" id="Combined-Shape" fill="#FFDBB9"></path>
                    <path d="M25.2232944,18.2096891 C24.6978774,17.6767805 24.3942543,16.8608781 24.3942543,15.7957566 C24.3942543,12.7667354 26.8497612,8.86921991 29.8787825,7.09041221 C31.4820201,6.14890298 32.9245875,5.98965924 33.9274201,6.4974985 C33.9610669,6.50256996 33.9969609,6.5145851 34.0352988,6.53408405 C36.4480958,7.76125237 38.1010417,10.2675816 38.1010417,13.1599769 C38.1010417,17.2629203 34.7749489,20.5890131 30.6720055,20.5890131 C28.5277654,20.5890131 26.5956998,19.6805859 25.2396776,18.2276002 C25.2340734,18.2215953 25.2286128,18.2156251 25.2232944,18.2096891 Z" id="Combined-Shape-Copy" fill="#FEE5CE" transform="translate(31.247648, 13.401306) rotate(-165.000000) translate(-31.247648, -13.401306) "></path>
                </g>
                <path d="M14.8683836,24.5279137 C14.9360824,24.2829619 14.9722525,24.0249206 14.9722525,23.7584314 C14.9722525,22.1667799 13.6819641,20.8764915 12.0903126,20.8764915 C10.4986612,20.8764915 9.20837273,22.1667799 9.20837273,23.7584314 C9.20837273,24.5177162 9.50200267,25.2084201 9.98190468,25.7231852 C7.22494179,28.5363418 5.84646035,29.9429202 5.84646035,29.9429202 C5.84646035,29.9429202 2.93626029,26.9711817 2.25542613,24.7505838 C1.57459198,22.5299859 0.982026193,19.5269134 1.58552142,16.0455095 C2.18901665,12.5641055 4.33504764,4.96035735 16.1340845,0.949375357 C24.0001091,-1.72461264 31.1807784,1.45690788 37.6760923,10.4939369 C35.1541534,14.2562588 27.9734841,17.1825731 16.1340845,19.2728798 C16.5237709,20.0438235 16.1823857,21.8697248 15.1099288,24.7505838 L14.8683836,24.5279137 Z" id="Combined-Shape" fill="#513A12"></path>
                <path d="M51.7593877,50.2039715 L51.7593877,50.2039715 C57.3707328,46.8832253 64.6116236,48.7401226 67.9323698,54.3514677 C69.0097804,56.1720594 69.5782112,58.2487042 69.5782112,60.3642107 L69.5782112,67.8457216 L42.8848806,94.0511235 L33.9405641,88.9357774 L33.9405641,81.4542665 C33.9405641,68.6205989 40.7148135,56.7400563 51.7593877,50.2039715 Z" id="Rectangle-16-Copy-2" fill="#82E1FF"></path>
                <polygon id="Path-19-Copy" fill="#63BFDC" points="65.8637522 51.5604052 72.9328413 56.2309396 66.3238393 62.034591 62.249544 55.0474841"></polygon>
                <path d="M60.5524611,55.8307969 L60.5524611,55.8307969 C66.2917813,52.5838538 73.5765871,54.6043246 76.8235302,60.3436448 C77.8380819,62.1369737 78.3712846,64.1623323 78.3712846,66.2227555 L78.3712846,73.9368155 L42.7336376,94.0983344 L42.7336376,86.3842744 C42.7336376,73.7329542 49.5411415,62.0603027 60.5524611,55.8307969 Z" id="Rectangle-16-Copy-3" fill="#67D5F8"></path>
                <circle id="Oval-8-Copy" fill="#FFE5CD" cx="56.8768929" cy="38.5741448" r="17.326785"></circle>
                <path d="M45.0586873,42.4909725 C45.2615129,41.5263137 45.1271373,40.4252758 44.6555607,39.1878588 C44.0485968,37.5951854 42.5369298,36.2450738 40.1205598,35.1375239 C38.53833,34.9347522 37.4814684,34.7091058 37.5369079,34.4341893 C38.7730911,28.3041365 42.7003227,20.4091473 49.3652142,20.4091473 C52.1731825,20.4091473 57.8873419,20.1995272 62.430213,21.1076099 C66.9730841,22.0156926 74.8698513,28.5283863 74.8698513,38.5928664 C74.8698513,48.6573466 67.7605944,56.7974981 57.6961143,56.7974981 C56.6694443,56.7974981 54.8284671,56.5238641 52.1731825,55.9765961 C52.1848374,55.9594735 52.1964363,55.9423928 52.2079791,55.9253539 C51.1694703,51.8068087 50.678635,49.3113288 50.7354733,48.4389144 C50.7635731,48.0076088 50.6360871,47.4764176 50.3530152,46.8453409 C51.0963154,46.2072205 51.5671672,45.2607234 51.5671672,44.204253 C51.5671672,42.282625 50.0093799,40.7248377 48.0877519,40.7248377 C46.7889982,40.7248377 45.6564427,41.4364168 45.058687,42.4909731 L45.0586873,42.4909725 Z M44.6762502,43.5550276 C44.6752256,43.5604566 44.674209,43.5658884 44.6732006,43.571323 C44.6673222,43.5785 44.6614423,43.5856899 44.6555607,43.5928927 C44.662504,43.5802899 44.6694005,43.5676682 44.6762502,43.5550276 Z" id="Combined-Shape" fill="#C0C0C0"></path>
                <g id="Path-22-Copy" transform="translate(26.218624, 26.640371)">
                    <mask id="mask-2" fill="white">
                        <use xlink:href="#path-1"></use>
                    </mask>
                    <use id="Mask" fill="#FFFFFF" xlink:href="#path-1"></use>
                    <path d="M1.96815408,6.21773412 L8.25407277,2.90098761 C8.39581407,5.30237289 7.69737866,6.80688493 6.15876654,7.41452374 C4.62015441,8.02216254 3.22328359,7.62323267 1.96815408,6.21773412 Z" fill="#FF8585" mask="url(#mask-2)" transform="translate(5.120081, 5.295311) rotate(-180.000000) translate(-5.120081, -5.295311) "></path>
                </g>
            </g>
            <path d="M104.265091,140.135389 L112.506476,144.83767 C112.986171,145.111369 113.153164,145.722116 112.879465,146.201811 C112.790243,146.358184 112.66046,146.487571 112.503814,146.576313 L112.052718,146.831866 C110.824085,147.527906 109.319727,147.525602 108.093232,146.825802 L99.8518465,142.123521 C99.3721516,141.849822 99.205159,141.239075 99.4788582,140.75938 C99.5680801,140.603007 99.6978632,140.47362 99.8545094,140.384878 L100.305605,140.129325 C101.534238,139.433285 103.038596,139.435589 104.265091,140.135389 Z" id="Rectangle-19" fill="#F65873"></path>
            <g id="Group-6" transform="translate(72.520356, 0.029569)">
                <g id="Group" transform="translate(40.640541, 42.527089) scale(-1, 1) translate(-40.640541, -42.527089) translate(0.140541, 0.027089)">
                    <g id="Group-22" transform="translate(0.031727, 0.043363)">
                        <path d="M57.9016628,48.2453013 L55.0929164,56.241743 L52.28417,51.3982013 L6.76819276,76.9447093 C3.0369407,79.0389291 0.0121632581,77.7118522 0.0121632581,73.9806001 L0.0121632581,41.88946 C0.0121632581,38.1582079 3.0369407,33.4357299 6.76819276,31.3415101 L60.8164288,1.00614711 C64.5476809,-1.08807268 67.5724583,0.239004178 67.5724583,3.97025624 L67.5724583,36.0613964 C67.5724583,39.7926485 64.5476809,44.5151265 60.8164288,46.6093463 L57.9016628,48.2453013 Z" id="Combined-Shape" fill="#CE3D55"></path>
                        <path d="M1.70752888,77.5142858 L13.7164313,83.0794605 L18.9577656,77.9806847 L13.7164313,66.382044 C9.01454375,68.0135023 6.5881042,68.9025855 6.43711265,69.0492937 C6.2861211,69.1960018 4.70959318,72.0176658 1.70752888,77.5142858 Z" id="Path-17" fill="#CE3D55"></path>
                        <polygon id="Path-18" fill="#CE3D55" points="66.8607987 61.4041564 52.0528303 52.7867585 66.8607987 48.357225"></polygon>
                        <polygon id="Path-16" fill="#CE3D55" points="66.0056173 0.414410571 77.1382875 5.64245588 74.5054993 11.9269866 65.5937973 15.9828897 64.8112628 5.64245588"></polygon>
                        <path d="M69.642902,53.7289708 L66.8341556,61.7254124 L64.0254092,56.8818707 L18.509432,82.4283787 C14.7781799,84.5225985 11.7534025,83.1955216 11.7534025,79.4642696 L11.7534025,47.3731294 C11.7534025,43.6418773 14.7781799,38.9193993 18.509432,36.8251795 L72.557668,6.48981654 C76.2889201,4.39559674 79.3136975,5.72267361 79.3136975,9.45392567 L79.3136975,41.5450658 C79.3136975,45.2763179 76.2889201,49.9987959 72.557668,52.0930157 L69.642902,53.7289708 Z" id="Combined-Shape-Copy-13" fill="#E24660"></path>
                    </g>
                </g>
                <path d="M9.37065513,33.3547751 L9.40831046,27.518 C10.9270435,28.3429729 12.1582198,30.242922 12.1582198,31.761655 C12.1582198,31.76558 12.1515745,32.799537 12.1382838,34.8635262 C12.1382838,36.3334512 13.2999879,38.1630812 14.755368,39.0128769 C15.5304569,39.4370556 16.1486154,40.3909966 16.1486154,41.1535337 C16.1486154,41.9160709 15.5304569,42.1984468 14.7679198,41.7842381 C14.7341105,41.7658729 14.7005851,41.7464468 14.6673848,41.7260234 C11.7241884,40.021537 9.37065513,36.3237872 9.37065513,33.3547751 Z" id="Combined-Shape-Copy" fill="#FFFFFF" opacity="0.7"></path>
                <path d="M20.303254,39.2933424 L20.2655986,33.4156587 C18.7468656,32.5906857 17.5156892,33.1530894 17.5156892,34.6718224 C17.5156892,34.6757474 17.5223346,35.7169239 17.5356253,37.7953521 C17.5356253,39.2652771 16.3739212,39.8328361 14.9185411,39.1015123 C14.1434522,38.6836372 13.5252937,38.9660132 13.5252937,39.7285503 C13.5252937,40.4910874 14.1434522,41.4450284 14.9059893,41.8592372 C14.9397986,41.8776023 14.973324,41.894598 15.0065243,41.9102433 C17.9497207,43.4032345 20.303254,42.2623545 20.303254,39.2933424 Z" id="Combined-Shape" fill="#FFFFFF"></path>
                <path d="M18.9384706,32.0319097 C19.6922197,32.4413447 20.303254,32.1622231 20.303254,31.4084741 C20.303254,30.6547251 19.6922197,29.7117781 18.9384706,29.302343 C18.1847216,28.892908 17.5736873,29.1720296 17.5736873,29.9257786 C17.5736873,30.6795276 18.1847216,31.6224746 18.9384706,32.0319097 Z" id="Oval-Copy" fill="#FFFFFF"></path>
                <path d="M10.7354384,27.5760379 C11.4891875,27.9854729 12.1002218,27.7063513 12.1002218,26.9526023 C12.1002218,26.1988533 11.4891875,25.2559063 10.7354384,24.8464712 C9.98168943,24.4370361 9.37065513,24.7161578 9.37065513,25.4699068 C9.37065513,26.2236558 9.98168943,27.1666028 10.7354384,27.5760379 Z" id="Oval-Copy-3" fill="#FFFFFF" opacity="0.7"></path>
                <path d="M27.704336,45.281034 C27.6173844,45.2496115 27.488935,45.2015756 27.3189841,45.136925 C27.1490332,45.0722744 26.9771088,44.9927184 26.8032055,44.8982544 C26.6293023,44.8037905 26.4731869,44.7071321 26.3348548,44.6082763 C26.1965227,44.5094204 26.0799302,44.3986602 25.9850739,44.2759922 C25.8902176,44.1533242 25.8171003,44.0167759 25.7657197,43.8663434 C25.7143392,43.7159109 25.6886494,43.5418885 25.6886494,43.3442712 L25.6886494,36.4672227 C25.775601,36.4986453 25.9040503,36.5466812 26.0740012,36.6113317 C26.2439521,36.6759823 26.4158766,36.7555384 26.5897799,36.8500023 C26.7636831,36.9444662 26.9197985,37.0411247 27.0581306,37.1399805 C27.1964627,37.2388363 27.3130552,37.3495966 27.4079115,37.4722646 C27.5027678,37.5949326 27.5758851,37.7314808 27.6272656,37.8819134 C27.6786461,38.0323459 27.704336,38.2063682 27.704336,38.4039855 L27.704336,45.281034 Z M32.0202768,47.8270137 C31.5538999,47.5736786 31.1211244,47.2733831 30.7219375,46.926118 C30.3227505,46.5788529 29.9749492,46.1942897 29.6785232,45.7724168 C29.3820972,45.3505439 29.1489123,44.8958384 28.9789614,44.4082868 C28.8090105,43.9207351 28.7240363,43.4121597 28.7240363,42.8825453 C28.7240363,42.3608355 28.8090105,41.9584087 28.9789614,41.6752528 C29.1489123,41.3920969 29.3722165,41.205117 29.6488807,41.1143074 C29.925545,41.0234977 30.241728,41.0173948 30.5974392,41.0959984 C30.9531503,41.174602 31.3167608,41.3148064 31.6882813,41.5166156 C32.1072301,41.7441878 32.4886258,42.0145978 32.8324799,42.3278539 C33.1763341,42.6411099 33.4727556,42.9760261 33.7217534,43.3326127 C33.9707513,43.6891993 34.1644133,44.0591994 34.3027455,44.4426242 C34.4410776,44.8260489 34.5102426,45.1995637 34.5102426,45.5631795 C34.5102426,45.8319391 34.4351492,45.9966674 34.28496,46.0573694 C34.1347708,46.1180714 33.9252996,46.0951896 33.65654,45.9887234 L30.7278659,44.8365814 C30.8148176,45.1446682 30.9926705,45.4369158 31.2614301,45.7133329 C31.5301896,45.98975 31.838468,46.222419 32.1862745,46.4113469 C32.5103669,46.5873933 32.8166692,46.7122771 33.1051905,46.786002 C33.3937118,46.859727 33.6288728,46.890635 33.8106808,46.878727 C33.9371559,47.026475 34.0438676,47.1951046 34.1308192,47.3846211 C34.2177709,47.5741375 34.261246,47.7479401 34.261246,47.9060339 C34.261246,48.2617451 34.09525,48.4363796 33.7632529,48.4299426 C33.5103027,48.4269203 33.225738,48.3632479 32.9095503,48.2389235 C32.5933626,48.1145991 32.296941,47.9772972 32.0202768,47.8270137 Z M31.6882813,42.9868812 C31.4985687,42.8838296 31.3345488,42.8263526 31.1962167,42.8144484 C31.0578845,42.8025442 30.9452443,42.8223801 30.8582927,42.8739568 C30.7713411,42.9255335 30.7061284,43.0007741 30.6626526,43.0996809 C30.6191767,43.1985877 30.5934869,43.30913 30.5855822,43.4313113 L32.6131258,44.2006738 C32.5894117,44.0296985 32.5024614,43.8243757 32.3522722,43.5846994 C32.2020831,43.3450231 31.980755,43.1457523 31.6882813,42.9868812 Z M37.4982016,48.6327849 C37.4982016,48.8383069 37.5634144,49.019965 37.6938418,49.1777645 C37.8242692,49.3355641 38.0080506,49.4788689 38.2451914,49.6076834 C38.3637618,49.6720906 38.4862827,49.728763 38.6127577,49.7777023 C38.7392328,49.8266416 38.8498969,49.8610642 38.9447532,49.8809712 C39.0158954,50.0065672 39.0771559,50.1366748 39.1285364,50.2712979 C39.1799169,50.4059211 39.2056068,50.5483251 39.2056068,50.6985143 C39.2056068,50.9988926 39.0929666,51.1827485 38.8676828,51.2500874 C38.6423991,51.3174263 38.2451942,51.1965203 37.6760563,50.8873656 C36.9804433,50.5095099 36.4449084,50.0605169 36.0694355,49.540373 C35.6939626,49.0202291 35.5062289,48.4044552 35.5062289,47.6930328 L35.5062289,42.6182453 C35.5931806,42.6417632 35.7176776,42.6836999 35.8797238,42.7440566 C36.04177,42.8044134 36.2136945,42.8839695 36.3955025,42.9827272 C36.7433089,43.171655 37.0140406,43.3799764 37.2077056,43.6076976 C37.4013706,43.8354188 37.4982016,44.1468921 37.4982016,44.5421267 L37.4982016,45.3009735 L39.051466,46.1447038 C39.0988942,46.2574183 39.1443455,46.3907953 39.1878213,46.5448387 C39.2312971,46.6988821 39.2530347,46.8549484 39.2530347,47.0130422 C39.2530347,47.2897065 39.1917742,47.4560204 39.0692515,47.5119891 C38.9467287,47.5679577 38.7827088,47.5401228 38.5771868,47.4284836 L37.4982016,46.8423809 L37.4982016,48.6327849 Z M46.7466461,52.9806749 C46.7466461,53.4075283 46.6735288,53.7571114 46.527292,54.0294346 C46.3810552,54.3017579 46.1696078,54.4872739 45.8929436,54.5859883 C45.6162793,54.6847026 45.2803349,54.6939041 44.8851003,54.6135932 C44.4898656,54.5332822 44.0432571,54.3578742 43.5452615,54.0873639 C43.0472658,53.8168536 42.6006574,53.5070678 42.2054227,53.1579973 C41.8101881,52.8089268 41.4742437,52.4347565 41.1975794,52.0354752 C40.9209152,51.6361939 40.7094678,51.2209622 40.563231,50.7897678 C40.4169942,50.3585734 40.3438769,49.9295559 40.3438769,49.5027025 L40.3438769,44.9733361 C40.4308285,45.0047587 40.5691585,45.0581617 40.7588712,45.1335468 C40.9485838,45.208932 41.130389,45.2938552 41.3042922,45.3883191 C41.4861002,45.4870769 41.6461678,45.5878583 41.7844999,45.6906665 C41.9228321,45.7934747 42.0394245,45.9062111 42.1342809,46.0288791 C42.2291372,46.1515471 42.3002783,46.288998 42.3477065,46.441236 C42.3951347,46.593474 42.4188484,46.7723513 42.4188484,46.9778733 L42.4188484,50.5942522 C42.4188484,50.9736775 42.523584,51.3269912 42.7330584,51.654204 C42.9425327,51.9814168 43.2132644,52.2351895 43.5452615,52.4155297 C43.8851633,52.6001637 44.1578711,52.6415864 44.3633931,52.5397988 C44.5689151,52.4380113 44.6716746,52.1974085 44.6716746,51.8179833 L44.6716746,47.3241878 C44.7586262,47.3556103 44.8969563,47.4090134 45.0866689,47.4843985 C45.2763815,47.5597836 45.4581868,47.6447069 45.63209,47.7391708 C45.8138979,47.8379285 45.9739656,47.93871 46.1122977,48.0415182 C46.2506298,48.1443263 46.3672223,48.2570627 46.4620786,48.3797308 C46.5569349,48.5023988 46.6280761,48.6398497 46.6755043,48.7920877 C46.7229324,48.9443256 46.7466461,49.123203 46.7466461,49.328725 L46.7466461,52.9806749 Z M50.1495994,57.4732593 C50.0626478,57.4418368 49.9341985,57.3938009 49.7642476,57.3291503 C49.5942967,57.2644997 49.4223722,57.1849437 49.2484689,57.0904798 C49.0745657,56.9960158 48.9184504,56.8993574 48.7801182,56.8005016 C48.6417861,56.7016457 48.5251936,56.5908855 48.4303373,56.4682175 C48.335481,56.3455495 48.2623637,56.2090012 48.2109832,56.0585687 C48.1596027,55.9081362 48.1339128,55.7341138 48.1339128,55.5364965 L48.1339128,48.659448 C48.2208644,48.6908706 48.3493138,48.7389065 48.5192647,48.803557 C48.6892156,48.8682076 48.8611401,48.9477637 49.0350433,49.0422276 C49.2089466,49.1366915 49.3650619,49.23335 49.503394,49.3322058 C49.6417261,49.4310616 49.7583186,49.5418219 49.8531749,49.6644899 C49.9480313,49.7871579 50.0211486,49.9237061 50.0725291,50.0741387 C50.1239096,50.2245712 50.1495994,50.3985935 50.1495994,50.5962108 L50.1495994,57.4732593 Z M54.4655402,60.019239 C53.9991633,59.7659039 53.5663879,59.4656084 53.1672009,59.1183433 C52.7680139,58.7710782 52.4202126,58.386515 52.1237866,57.9646421 C51.8273607,57.5427692 51.5941757,57.0880637 51.4242248,56.6005121 C51.2542739,56.1129604 51.1692997,55.604385 51.1692997,55.0747706 C51.1692997,54.5530608 51.2542739,54.1506341 51.4242248,53.8674782 C51.5941757,53.5843223 51.8174799,53.3973423 52.0941442,53.3065327 C52.3708084,53.215723 52.6869914,53.2096201 53.0427026,53.2882237 C53.3984138,53.3668273 53.7620242,53.5070317 54.1335448,53.7088409 C54.5524935,53.9364131 54.9338892,54.2068231 55.2777434,54.5200792 C55.6215975,54.8333352 55.918019,55.1682515 56.1670169,55.524838 C56.4160147,55.8814246 56.6096768,56.2514247 56.7480089,56.6348495 C56.886341,57.0182742 56.9555061,57.391789 56.9555061,57.7554048 C56.9555061,58.0241644 56.8804126,58.1888927 56.7302234,58.2495947 C56.5800343,58.3102967 56.370563,58.2874149 56.1018035,58.1809487 L53.1731294,57.0288067 C53.260081,57.3368935 53.4379339,57.6291411 53.7066935,57.9055582 C53.975453,58.1819753 54.2837314,58.4146443 54.6315379,58.6035722 C54.9556304,58.7796186 55.2619326,58.9045024 55.5504539,58.9782273 C55.8389752,59.0519523 56.0741363,59.0828603 56.2559442,59.0709523 C56.3824193,59.2187003 56.4891311,59.38733 56.5760827,59.5768464 C56.6630343,59.7663628 56.7065095,59.9401654 56.7065095,60.0982592 C56.7065095,60.4539704 56.5405134,60.6286049 56.2085163,60.6221679 C55.9555661,60.6191456 55.6710014,60.5554732 55.3548137,60.4311488 C55.038626,60.3068244 54.7422045,60.1695225 54.4655402,60.019239 Z M54.1335448,55.1791065 C53.9438321,55.0760549 53.7798122,55.0185779 53.6414801,55.0066737 C53.503148,54.9947695 53.3905078,55.0146054 53.3035562,55.0661821 C53.2166045,55.1177589 53.1513918,55.1929995 53.107916,55.2919062 C53.0644402,55.390813 53.0387503,55.5013553 53.0308456,55.6235366 L55.0583892,56.3928991 C55.0346751,56.2219238 54.9477248,56.016601 54.7975357,55.7769247 C54.6473465,55.5372484 54.4260184,55.3379776 54.1335448,55.1791065 Z M59.943465,60.8250102 C59.943465,61.0305322 60.0086778,61.2121903 60.1391052,61.3699898 C60.2695327,61.5277894 60.453314,61.6710942 60.6904548,61.7999087 C60.8090252,61.8643159 60.9315461,61.9209883 61.0580212,61.9699276 C61.1844963,62.0188669 61.2951603,62.0532895 61.3900166,62.0731965 C61.4611589,62.1987925 61.5224193,62.3289001 61.5737998,62.4635232 C61.6251803,62.5981464 61.6508702,62.7405504 61.6508702,62.8907396 C61.6508702,63.1911179 61.53823,63.3749738 61.3129463,63.4423127 C61.0876625,63.5096516 60.6904576,63.3887456 60.1213198,63.0795909 C59.4257068,62.7017352 58.8901719,62.2527422 58.5146989,61.7325983 C58.139226,61.2124544 57.9514924,60.5966805 57.9514924,59.8852581 L57.9514924,54.8104706 C58.038444,54.8339885 58.1629411,54.8759252 58.3249873,54.936282 C58.4870335,54.9966387 58.658958,55.0761948 58.8407659,55.1749525 C59.1885724,55.3638804 59.4593041,55.5722017 59.652969,55.7999229 C59.846634,56.0276441 59.943465,56.3391174 59.943465,56.734352 L59.943465,57.4931988 L61.4967295,58.3369291 C61.5441576,58.4496436 61.5896089,58.5830206 61.6330847,58.737064 C61.6765605,58.8911074 61.6982981,59.0471737 61.6982981,59.2052676 C61.6982981,59.4819318 61.6370377,59.6482457 61.5145149,59.7042144 C61.3919922,59.760183 61.2279723,59.7323481 61.0224502,59.6207089 L59.943465,59.0346062 L59.943465,60.8250102 Z" id="letUlet" fill="#FFFFFF"></path>
            </g>
        </g>
    </g>
</svg>