<?xml version="1.0" encoding="UTF-8"?>
<svg width="24px" height="27px" viewBox="0 0 24 27" version="1.1" xmlns="http://www.w3.org/2000/svg" xmlns:xlink="http://www.w3.org/1999/xlink">
    <!-- Generator: Sketch 48.2 (47327) - http://www.bohemiancoding.com/sketch -->
    <title>Shape</title>
    <desc>Created with Sketch.</desc>
    <defs></defs>
    <g id="Landing-Page---Tenant" stroke="none" stroke-width="1" fill="none" fill-rule="evenodd" transform="translate(-742.000000, -4367.000000)">
        <g id="Footer" transform="translate(0.000000, 4019.000000)" fill="#FFFFFF" fill-rule="nonzero">
            <g id="Social-Media" transform="translate(615.000000, 342.875545)">
                <path d="M146.29502,31.7656529 L131.606257,31.7656529 C129.352756,31.7656529 127.526046,29.9147456 127.526046,27.6319047 L127.526046,9.44564481 C127.526046,7.16363065 129.352756,5.31189664 131.606257,5.31189664 L146.29502,5.31189664 C148.548113,5.31189664 150.375232,7.16321732 150.375232,9.44564481 L150.375232,27.6319047 C150.375232,29.9151589 148.548113,31.7656529 146.29502,31.7656529 Z M138.950639,11.9202724 C135.349444,11.9202724 132.430052,14.8818068 132.430052,18.5344348 C132.430052,22.1862361 135.349444,25.1481838 138.950639,25.1481838 C142.551834,25.1481838 145.471633,22.1862361 145.471633,18.5344348 C145.471225,14.8818068 142.551834,11.9202724 138.950639,11.9202724 Z M147.111062,8.61897784 L143.846893,8.61897784 L143.846893,11.924819 L147.111062,11.924819 L147.111062,8.61897784 Z M148.743147,20.193142 L148.743147,20.1923154 L148.743147,20.1923154 L148.743147,16.8848208 L147.111062,16.8848208 L147.111062,17.343621 C147.085765,17.328741 147.055572,17.3229543 147.029866,17.3084877 C147.05394,17.5812878 147.106982,17.8458212 147.106982,18.125648 C147.106982,22.9165964 143.455193,26.8015178 138.950231,26.8015178 C134.445269,26.8015178 130.793479,22.9165964 130.793479,18.125648 C130.793479,17.8458212 130.846522,17.5817011 130.871003,17.3084877 C130.845298,17.322541 130.815104,17.328741 130.789807,17.343621 L130.789807,16.8848208 L129.157722,16.8848208 L129.157722,20.1923154 L129.157722,20.1923154 C129.157722,20.1923154 129.157722,20.1923154 129.157722,20.193142 L129.157722,26.8052378 C129.157722,28.6317584 130.619254,30.1127323 132.421892,30.1127323 L145.47857,30.1127323 C147.281207,30.1127323 148.742739,28.6317584 148.742739,26.8052378 L148.742739,20.193142 L148.743147,20.193142 Z" id="Shape"></path>
            </g>
        </g>
    </g>
</svg>