<?xml version="1.0" encoding="UTF-8"?>
<svg width="51px" height="65px" viewBox="0 0 51 65" version="1.1" xmlns="http://www.w3.org/2000/svg" xmlns:xlink="http://www.w3.org/1999/xlink">
    <!-- Generator: Sketch 47 (45396) - http://www.bohemiancoding.com/sketch -->
    <title>Group 3 Copy</title>
    <desc>Created with Sketch.</desc>
    <defs></defs>
    <g id="Web-UI" stroke="none" stroke-width="1" fill="none" fill-rule="evenodd">
        <g id="Landlord---Review-Proposal" transform="translate(-418.000000, -623.000000)">
            <g id="Group-3-Copy" transform="translate(418.485797, 623.340137)">
                <path d="M29.4621088,5.88999381 C33.5148654,10.253001 36.5847045,13.5112357 38.6716261,15.6646979 C40.7585477,17.8181602 44.5494127,20.8370045 50.0442211,24.7212308 L46.4192894,59.4566153 L37.7302445,64.6547235 L13.3770089,40.0748574 L0.243112313,5.24496972 L8.87999648,0.129320603 C14.4846696,2.89448488 18.426381,4.4951573 20.7051306,4.93133785 C22.9838803,5.36751841 25.902873,5.68707039 29.4621088,5.88999381 Z" id="Polygon-Copy-2" fill="#D4BB4C"></path>
                <path d="M29.4621088,5.88999381 C34.2105059,10.9708217 37.280345,14.2290564 38.6716261,15.6646979 C40.7585477,17.8181602 44.5494127,20.8370045 50.0442211,24.7212308 L41.3621389,29.8337694 L13.3770089,40.0748574 L20.7850678,10.9926378 L29.4621088,5.88999381 Z" id="Polygon-Copy-2" fill="#E5CB58"></path>
                <path d="M20.7640287,10.9885669 C24.8167853,15.3515741 27.8866244,18.6098087 29.9735461,20.763271 C32.0604677,22.9167332 35.8513327,25.9355776 41.346141,29.8198039 L37.7212093,64.5551884 L20.7640287,64.1641914 L4.67892886,45.1734305 L0.181916446,5.2278937 C5.78658953,7.99305798 9.72830091,9.59373039 12.0070506,10.0299109 C14.2858003,10.4660915 17.204793,10.7856435 20.7640287,10.9885669 Z" id="Polygon" fill="#FADB51"></path>
                <path d="M20.7640287,16.8143659 C23.9546604,20.2492499 26.3714663,22.8143748 28.0144464,24.5097406 C29.6574264,26.2051064 32.6418775,28.5817653 36.9677997,31.6397175 L34.1139837,58.9859979 L20.7640287,58.678176 L8.1006407,43.7272353 L4.56025775,12.2791351 C8.97267363,14.4560782 12.0758823,15.7162467 13.8698837,16.0596405 C15.663885,16.4030343 17.9619334,16.6546094 20.7640287,16.8143659 Z" id="Polygon-Copy" fill="#EACE54"></path>
                <path d="M20.7640287,64.1641914 L37.7212093,64.5551884 L41.346141,29.8198039 C35.8513327,25.9355776 32.0604677,22.9167332 29.9735461,20.763271 C27.8866244,18.6098087 24.8167853,15.3515741 20.7640287,10.9885669 L20.7640287,64.1641914 Z" id="Combined-Shape" fill="#000000" opacity="0.03"></path>
            </g>
        </g>
    </g>
</svg>