<?xml version="1.0" encoding="UTF-8"?>
<svg width="28px" height="38px" viewBox="0 0 28 38" version="1.1" xmlns="http://www.w3.org/2000/svg" xmlns:xlink="http://www.w3.org/1999/xlink">
    <!-- Generator: Sketch 47 (45396) - http://www.bohemiancoding.com/sketch -->
    <title>Group 3</title>
    <desc>Created with Sketch.</desc>
    <defs></defs>
    <g id="Page-1" stroke="none" stroke-width="1" fill="none" fill-rule="evenodd">
        <g id="Tenant-Wizard---Proposal-Dashboard" transform="translate(-105.000000, -70.000000)" fill="#FFFFFF">
            <g id="Side-Bar">
                <g id="Group-Copy-2" transform="translate(88.192683, 70.000000)">
                    <g id="Group-3" transform="translate(16.904539, 0.334459)">
                        <path d="M17.00875,23.245259 L16.9142569,8.54700943 L16.9142569,8.54700943 L16.9142569,8.54700943 C13.1031177,8.54700943 10.0135789,11.6365482 10.0135789,15.4476874 C10.0135789,15.4624615 10.0136264,15.4772356 10.0137213,15.4920093 L10.0636068,23.2587606 C10.0636068,26.9474201 7.14840324,29.9551972 3.49624305,30.1038451 C1.55121934,30.1117543 0,31.6629737 0,33.5764997 C0,35.4900257 1.55121934,37.0412451 3.46474537,37.0412451 C3.54958696,37.0412451 3.63371631,37.0381956 3.7170298,37.0322003 C11.1027461,36.7668353 17.00875,30.6957577 17.00875,23.245259 Z" id="Combined-Shape-Copy" opacity="0.7" transform="translate(8.504375, 22.794127) scale(-1, 1) translate(-8.504375, -22.794127) "></path>
                        <path d="M27.4344838,23.245259 L27.3399907,8.54700943 L27.3399907,8.54700943 L27.3399907,8.54700943 C23.5288515,8.54700943 20.4393127,11.6365482 20.4393127,15.4476874 C20.4393127,15.4624615 20.4393601,15.4772356 20.439455,15.4920093 L20.4893406,23.2587606 C20.4893406,26.9474201 17.574137,29.9551972 13.9219768,30.1038451 C11.9769531,30.1117543 10.4257338,31.6629737 10.4257338,33.5764997 C10.4257338,35.4900257 11.9769531,37.0412451 13.8904791,37.0412451 C13.9753207,37.0412451 14.0594501,37.0381956 14.1427636,37.0322003 C21.5284799,36.7668353 27.4344838,30.6957577 27.4344838,23.245259 Z" id="Combined-Shape"></path>
                        <circle id="Oval-Copy" cx="24.009669" cy="3.45881155" r="3.42481476"></circle>
                        <circle id="Oval-Copy-3" opacity="0.7" cx="3.42481476" cy="3.45881155" r="3.42481476"></circle>
                    </g>
                </g>
            </g>
        </g>
    </g>
</svg>