<?xml version="1.0" encoding="UTF-8"?>
<svg width="62px" height="14px" viewBox="0 0 62 14" version="1.1" xmlns="http://www.w3.org/2000/svg" xmlns:xlink="http://www.w3.org/1999/xlink">
    <!-- Generator: Sketch 47 (45396) - http://www.bohemiancoding.com/sketch -->
    <title>letUlet</title>
    <desc>Created with Sketch.</desc>
    <defs></defs>
    <g id="Page-1" stroke="none" stroke-width="1" fill="none" fill-rule="evenodd">
        <g id="Tenant-Wizard---Proposal-Dashboard" transform="translate(-88.000000, -121.000000)" fill="#FFFFFF">
            <g id="Side-Bar">
                <g id="Group-Copy-2" transform="translate(88.192683, 70.000000)">
                    <path d="M3.57515806,64.4018938 C3.42723356,64.4287892 3.20871201,64.4657698 2.91958685,64.5128367 C2.63046169,64.5599036 2.337979,64.5834366 2.04213,64.5834366 C1.746281,64.5834366 1.48069327,64.5632654 1.24535884,64.5229224 C1.01002441,64.4825793 0.811674079,64.4018945 0.650301898,64.2808653 C0.488929717,64.1598362 0.364540526,63.9951046 0.277130595,63.7866655 C0.189720663,63.5782264 0.146016353,63.3059149 0.146016353,62.9697229 L0.146016353,51.2702983 C0.293940852,51.2434029 0.512462403,51.2064223 0.801587561,51.1593554 C1.09071272,51.1122886 1.38319541,51.0887555 1.67904441,51.0887555 C1.97489341,51.0887555 2.24048114,51.1089267 2.47581557,51.1492697 C2.71115,51.1896128 2.90950033,51.2702977 3.07087251,51.3913268 C3.23224469,51.5123559 3.35663388,51.6770876 3.44404381,51.8855266 C3.53145375,52.0939657 3.57515806,52.3662772 3.57515806,52.7024692 L3.57515806,64.4018938 Z M10.9175556,64.744808 C10.1241424,64.744808 9.38789283,64.6338663 8.7087849,64.4119796 C8.02967697,64.1900928 7.43798785,63.8572677 6.93369978,63.4134942 C6.42941172,62.9697207 6.03271106,62.4116503 5.7435859,61.7392662 C5.45446074,61.0668821 5.30990033,60.2802045 5.30990033,59.3792098 C5.30990033,58.4916628 5.45446074,57.7285183 5.7435859,57.0897535 C6.03271106,56.4509886 6.41260237,55.9265368 6.88327123,55.5163826 C7.35394009,55.1062283 7.89183929,54.80366 8.49698497,54.6086686 C9.10213065,54.4136772 9.72071473,54.316183 10.3527558,54.316183 C11.0654829,54.316183 11.7143238,54.4237628 12.299298,54.6389257 C12.8842721,54.8540886 13.3885526,55.1499332 13.8121546,55.5264683 C14.2357566,55.9030034 14.5652198,56.3534939 14.8005543,56.8779535 C15.0358887,57.4024131 15.1535542,57.973931 15.1535542,58.5925244 C15.1535542,59.0497456 15.0258031,59.39938 14.7702971,59.6414383 C14.5147912,59.8834966 14.158433,60.0381426 13.7012118,60.105381 L8.71887061,60.8517236 C8.86679511,61.2954971 9.16936341,61.6283222 9.62658459,61.850209 C10.0838058,62.0720957 10.6082575,62.1830375 11.1999555,62.1830375 C11.7513104,62.1830375 12.2724003,62.1124382 12.7632407,61.9712375 C13.2540811,61.8300369 13.6541436,61.6653052 13.9634403,61.4770377 C14.1786032,61.6115145 14.3601442,61.7997792 14.5080687,62.0418375 C14.6559932,62.2838958 14.7299543,62.5393979 14.7299543,62.8083515 C14.7299543,63.4134972 14.4475572,63.8639878 13.8827546,64.1598368 C13.4524288,64.3884474 12.9683195,64.5430934 12.4304122,64.6237795 C11.892505,64.7044656 11.3882244,64.744808 10.9175556,64.744808 Z M10.3527558,56.8174393 C10.0300114,56.8174393 9.7509762,56.8712292 9.51564177,56.9788106 C9.28030734,57.0863921 9.08868075,57.2242288 8.94075625,57.3923248 C8.79283175,57.5604208 8.68189004,57.7486855 8.60792779,57.9571246 C8.53396554,58.1655637 8.49026123,58.3773615 8.47681355,58.5925244 L11.9261267,58.0277246 C11.8857836,57.7587709 11.7378614,57.4898213 11.4823554,57.2208677 C11.2268494,56.9519141 10.85032,56.8174393 10.3527558,56.8174393 Z M20.2367525,61.0534378 C20.2367525,61.4030776 20.3476942,61.6518559 20.5695809,61.7997804 C20.7914677,61.9477049 21.1041216,62.0216661 21.507552,62.0216661 C21.7092673,62.0216661 21.9177032,62.0048567 22.1328661,61.9712375 C22.348029,61.9376183 22.5362937,61.893914 22.6976659,61.8401233 C22.818695,61.9880478 22.922913,62.1527794 23.0103229,62.3343231 C23.0977329,62.5158668 23.1414372,62.7343884 23.1414372,62.9898943 C23.1414372,63.5009062 22.9498106,63.9177781 22.5665517,64.2405225 C22.1832927,64.5632668 21.5075569,64.7246366 20.5393238,64.7246366 C19.3559278,64.7246366 18.444861,64.455687 17.8060961,63.9177797 C17.1673312,63.3798725 16.8479536,62.5057863 16.8479536,61.2954949 L16.8479536,52.6621264 C16.9958781,52.6217833 17.2076759,52.578079 17.4833534,52.5310121 C17.7590309,52.4839452 18.0515135,52.4604122 18.3608102,52.4604122 C18.9525082,52.4604122 19.4130844,52.5646301 19.7425526,52.7730692 C20.0720208,52.9815083 20.2367525,53.4219132 20.2367525,54.0942973 L20.2367525,55.3852683 L22.8792087,55.3852683 C22.9598948,55.5331928 23.0372178,55.7180957 23.1111801,55.9399824 C23.1851423,56.1618692 23.2221229,56.4072857 23.2221229,56.6762393 C23.2221229,57.1469082 23.1179049,57.486457 22.9094658,57.6948961 C22.7010268,57.9033352 22.4219916,58.0075531 22.0723518,58.0075531 L20.2367525,58.0075531 L20.2367525,61.0534378 Z M35.9704614,59.9036668 C35.9704614,60.6298416 35.8460723,61.29213 35.5972901,61.8905518 C35.348508,62.4889737 34.9887879,62.9999779 34.5181191,63.4235799 C34.0474502,63.8471819 33.4759323,64.1732833 32.8035482,64.4018938 C32.1311641,64.6305044 31.3713815,64.744808 30.5241776,64.744808 C29.6769736,64.744808 28.917191,64.6305044 28.2448069,64.4018938 C27.5724228,64.1732833 27.0009049,63.8471819 26.530236,63.4235799 C26.0595672,62.9999779 25.6998471,62.4889737 25.451065,61.8905518 C25.2022829,61.29213 25.0778937,60.6298416 25.0778937,59.9036668 L25.0778937,52.1981837 C25.2258182,52.1712883 25.4611491,52.1343077 25.7838934,52.0872408 C26.1066378,52.040174 26.4159298,52.0166409 26.7117788,52.0166409 C27.0210755,52.0166409 27.293387,52.040174 27.5287214,52.0872408 C27.7640559,52.1343077 27.9624062,52.2183545 28.1237784,52.3393836 C28.2851506,52.4604128 28.4061779,52.6285063 28.486864,52.8436692 C28.5675501,53.0588321 28.6078925,53.3412292 28.6078925,53.6908689 L28.6078925,59.8431525 C28.6078925,60.4886412 28.7860716,60.9929218 29.1424352,61.3560092 C29.4987987,61.7190966 29.9593749,61.9006375 30.5241776,61.9006375 C31.1024279,61.9006375 31.5663659,61.7190966 31.9160057,61.3560092 C32.2656454,60.9929218 32.4404626,60.4886412 32.4404626,59.8431525 L32.4404626,52.1981837 C32.5883871,52.1712883 32.823718,52.1343077 33.1464624,52.0872408 C33.4692068,52.040174 33.7784988,52.0166409 34.0743478,52.0166409 C34.3836445,52.0166409 34.6559559,52.040174 34.8912904,52.0872408 C35.1266248,52.1343077 35.3249751,52.2183545 35.4863473,52.3393836 C35.6477195,52.4604128 35.7687468,52.6285063 35.8494329,52.8436692 C35.930119,53.0588321 35.9704614,53.3412292 35.9704614,53.6908689 L35.9704614,59.9036668 Z M41.7596595,64.4018938 C41.611735,64.4287892 41.3932134,64.4657698 41.1040883,64.5128367 C40.8149631,64.5599036 40.5224804,64.5834366 40.2266314,64.5834366 C39.9307824,64.5834366 39.6651947,64.5632654 39.4298603,64.5229224 C39.1945258,64.4825793 38.9961755,64.4018945 38.8348033,64.2808653 C38.6734312,64.1598362 38.549042,63.9951046 38.461632,63.7866655 C38.3742221,63.5782264 38.3305178,63.3059149 38.3305178,62.9697229 L38.3305178,51.2702983 C38.4784423,51.2434029 38.6969638,51.2064223 38.986089,51.1593554 C39.2752142,51.1122886 39.5676969,51.0887555 39.8635458,51.0887555 C40.1593948,51.0887555 40.4249826,51.1089267 40.660317,51.1492697 C40.8956514,51.1896128 41.0940018,51.2702977 41.255374,51.3913268 C41.4167461,51.5123559 41.5411353,51.6770876 41.6285453,51.8855266 C41.7159552,52.0939657 41.7596595,52.3662772 41.7596595,52.7024692 L41.7596595,64.4018938 Z M49.102057,64.744808 C48.3086438,64.744808 47.5723943,64.6338663 46.8932863,64.4119796 C46.2141784,64.1900928 45.6224893,63.8572677 45.1182012,63.4134942 C44.6139132,62.9697207 44.2172125,62.4116503 43.9280873,61.7392662 C43.6389622,61.0668821 43.4944018,60.2802045 43.4944018,59.3792098 C43.4944018,58.4916628 43.6389622,57.7285183 43.9280873,57.0897535 C44.2172125,56.4509886 44.5971038,55.9265368 45.0677727,55.5163826 C45.5384415,55.1062283 46.0763407,54.80366 46.6814864,54.6086686 C47.2866321,54.4136772 47.9052162,54.316183 48.5372572,54.316183 C49.2499844,54.316183 49.8988253,54.4237628 50.4837994,54.6389257 C51.0687736,54.8540886 51.5730541,55.1499332 51.9966561,55.5264683 C52.420258,55.9030034 52.7497213,56.3534939 52.9850557,56.8779535 C53.2203902,57.4024131 53.3380556,57.973931 53.3380556,58.5925244 C53.3380556,59.0497456 53.2103045,59.39938 52.9547986,59.6414383 C52.6992926,59.8834966 52.3429344,60.0381426 51.8857132,60.105381 L46.9033721,60.8517236 C47.0512966,61.2954971 47.3538649,61.6283222 47.811086,61.850209 C48.2683072,62.0720957 48.7927589,62.1830375 49.3844569,62.1830375 C49.9358119,62.1830375 50.4569017,62.1124382 50.9477421,61.9712375 C51.4385825,61.8300369 51.838645,61.6653052 52.1479417,61.4770377 C52.3631046,61.6115145 52.5446456,61.7997792 52.6925701,62.0418375 C52.8404946,62.2838958 52.9144557,62.5393979 52.9144557,62.8083515 C52.9144557,63.4134972 52.6320587,63.8639878 52.067256,64.1598368 C51.6369302,64.3884474 51.1528209,64.5430934 50.6149137,64.6237795 C50.0770064,64.7044656 49.5727259,64.744808 49.102057,64.744808 Z M48.5372572,56.8174393 C48.2145129,56.8174393 47.9354776,56.8712292 47.7001432,56.9788106 C47.4648088,57.0863921 47.2731822,57.2242288 47.1252577,57.3923248 C46.9773332,57.5604208 46.8663915,57.7486855 46.7924292,57.9571246 C46.718467,58.1655637 46.6747627,58.3773615 46.661315,58.5925244 L50.1106281,58.0277246 C50.0702851,57.7587709 49.9223628,57.4898213 49.6668568,57.2208677 C49.4113509,56.9519141 49.0348214,56.8174393 48.5372572,56.8174393 Z M58.4212539,61.0534378 C58.4212539,61.4030776 58.5321956,61.6518559 58.7540824,61.7997804 C58.9759691,61.9477049 59.288623,62.0216661 59.6920535,62.0216661 C59.8937687,62.0216661 60.1022046,62.0048567 60.3173675,61.9712375 C60.5325304,61.9376183 60.7207952,61.893914 60.8821673,61.8401233 C61.0031965,61.9880478 61.1074145,62.1527794 61.1948244,62.3343231 C61.2822343,62.5158668 61.3259386,62.7343884 61.3259386,62.9898943 C61.3259386,63.5009062 61.134312,63.9177781 60.7510531,64.2405225 C60.3677942,64.5632668 59.6920583,64.7246366 58.7238252,64.7246366 C57.5404292,64.7246366 56.6293625,64.455687 55.9905976,63.9177797 C55.3518327,63.3798725 55.032455,62.5057863 55.032455,61.2954949 L55.032455,52.6621264 C55.1803795,52.6217833 55.3921773,52.578079 55.6678548,52.5310121 C55.9435323,52.4839452 56.236015,52.4604122 56.5453117,52.4604122 C57.1370097,52.4604122 57.5975859,52.5646301 57.9270541,52.7730692 C58.2565223,52.9815083 58.4212539,53.4219132 58.4212539,54.0942973 L58.4212539,55.3852683 L61.0637101,55.3852683 C61.1443962,55.5331928 61.2217192,55.7180957 61.2956815,55.9399824 C61.3696437,56.1618692 61.4066243,56.4072857 61.4066243,56.6762393 C61.4066243,57.1469082 61.3024063,57.486457 61.0939673,57.6948961 C60.8855282,57.9033352 60.606493,58.0075531 60.2568533,58.0075531 L58.4212539,58.0075531 L58.4212539,61.0534378 Z" id="letUlet"></path>
                </g>
            </g>
        </g>
    </g>
</svg>