<?xml version="1.0" encoding="UTF-8"?>
<svg width="96px" height="28px" viewBox="0 0 96 28" version="1.1" xmlns="http://www.w3.org/2000/svg" xmlns:xlink="http://www.w3.org/1999/xlink">
    <!-- Generator: Sketch 48.2 (47327) - http://www.bohemiancoding.com/sketch -->
    <title>Group Copy</title>
    <desc>Created with Sketch.</desc>
    <defs></defs>
    <g id="Landing-Page---Tenant" stroke="none" stroke-width="1" fill="none" fill-rule="evenodd" transform="translate(-677.000000, -4287.000000)">
        <g id="Footer" transform="translate(0.000000, 4019.000000)" fill="#FFFFFF">
            <g id="Bottom-Logo" transform="translate(480.500000, 267.875545)">
                <g id="Group-Copy" transform="translate(196.607143, 0.469238)">
                    <g id="Group-3">
                        <path d="M12.3826888,16.9229842 L12.313896,6.22238305 L12.313896,6.22238305 C9.53931526,6.22238305 7.29007312,8.47162519 7.29007312,11.246206 C7.29007312,11.2569618 7.29010766,11.2677176 7.29017675,11.2784731 L7.32649437,16.9328137 C7.32649437,19.6182268 5.20417153,21.807945 2.54533047,21.9161634 C1.12931675,21.9219215 0,23.0512382 0,24.4443211 C0,25.8374039 1.12931675,26.9667206 2.52239956,26.9667206 C2.58416583,26.9667206 2.64541358,26.9645006 2.70606736,26.9601359 C8.08300723,26.7669452 12.3826888,22.3470869 12.3826888,16.9229842 Z" id="Combined-Shape-Copy" opacity="0.7" transform="translate(6.191344, 16.594552) scale(-1, 1) translate(-6.191344, -16.594552) "></path>
                        <path d="M19.9728183,16.9229842 L19.9040256,6.22238305 L19.9040256,6.22238305 C17.1294448,6.22238305 14.8802027,8.47162519 14.8802027,11.246206 C14.8802027,11.2569618 14.8802373,11.2677176 14.8803063,11.2784731 L14.916624,16.9328137 C14.916624,19.6182268 12.7943011,21.807945 10.1354601,21.9161634 C8.71944634,21.9219215 7.59012959,23.0512382 7.59012959,24.4443211 C7.59012959,25.8374039 8.71944634,26.9667206 10.1125291,26.9667206 C10.1742954,26.9667206 10.2355432,26.9645006 10.2961969,26.9601359 C15.6731368,26.7669452 19.9728183,22.3470869 19.9728183,16.9229842 Z" id="Combined-Shape"></path>
                        <circle id="Oval-Copy" cx="17.479489" cy="2.51807963" r="2.49332933"></circle>
                        <circle id="Oval-Copy-3" opacity="0.7" cx="2.49332933" cy="2.51807963" r="2.49332933"></circle>
                    </g>
                    <path d="M33.4938913,20.5173056 C33.335039,20.5461878 33.1003743,20.5859003 32.7898902,20.6364443 C32.479406,20.6869882 32.1653163,20.7122598 31.8476116,20.7122598 C31.5299069,20.7122598 31.2446991,20.6905984 30.9919794,20.647275 C30.7392598,20.6039517 30.5262564,20.5173062 30.352963,20.3873361 C30.1796695,20.257366 30.0460911,20.0804649 29.9522238,19.8566276 C29.8583565,19.6327902 29.8114236,19.3403618 29.8114236,18.9793338 L29.8114236,6.41562021 C29.9702759,6.38673796 30.2049406,6.34702547 30.5154248,6.29648154 C30.8259089,6.24593761 31.1399986,6.22066603 31.4577033,6.22066603 C31.775408,6.22066603 32.0606159,6.24232739 32.3133355,6.28565076 C32.5660551,6.32897412 32.7790585,6.41561956 32.952352,6.54558966 C33.1256454,6.67555976 33.2592238,6.85246085 33.3530911,7.07629825 C33.4469584,7.30013564 33.4938913,7.59256398 33.4938913,7.95359204 L33.4938913,20.5173056 Z M41.3787047,20.8855524 C40.5266785,20.8855524 39.7360389,20.7664149 39.0067622,20.5281364 C38.2774855,20.2898579 37.6420857,19.9324454 37.1005436,19.4558884 C36.5590015,18.9793314 36.1329948,18.3800338 35.8225107,17.6579777 C35.5120265,16.9359216 35.3567868,16.0911286 35.3567868,15.1235734 C35.3567868,14.1704593 35.5120265,13.3509379 35.8225107,12.6649846 C36.1329948,11.9790313 36.5409504,11.415836 37.0463897,10.9753818 C37.5518289,10.5349275 38.1294652,10.2100072 38.7793157,10.0006109 C39.4291662,9.79121461 40.0934478,9.68651804 40.7721806,9.68651804 C41.5375601,9.68651804 42.2343338,9.80204529 42.8625226,10.0331032 C43.4907114,10.2641612 44.0322454,10.5818611 44.4871407,10.9862126 C44.9420361,11.390564 45.2958382,11.8743343 45.5485579,12.4375381 C45.8012775,13.0007419 45.9276354,13.6144803 45.9276354,14.278772 C45.9276354,14.7697701 45.7904468,15.1452337 45.5160655,15.4051739 C45.2416842,15.6651141 44.8590002,15.8311845 44.368002,15.9033901 L39.017593,16.7048684 C39.1764453,17.1814254 39.5013657,17.5388378 39.9923639,17.7771163 C40.483362,18.0153949 41.0465574,18.1345323 41.6819667,18.1345323 C42.2740527,18.1345323 42.8336378,18.0587176 43.3607388,17.9070858 C43.8878398,17.755454 44.3174567,17.5785529 44.6496025,17.3763772 C44.8806605,17.5207884 45.0756127,17.7229611 45.234465,17.9829013 C45.3933174,18.2428415 45.4727424,18.5172187 45.4727424,18.8060412 C45.4727424,19.4558917 45.1694834,19.939662 44.5629562,20.2573667 C44.1008403,20.5028658 43.5809677,20.6689362 43.0033228,20.7555829 C42.4256779,20.8422297 41.884144,20.8855524 41.3787047,20.8855524 Z M40.7721806,12.3725534 C40.4255936,12.3725534 40.1259449,12.430317 39.8732252,12.545846 C39.6205056,12.6613749 39.4147227,12.8093942 39.2558703,12.9899082 C39.097018,13.1704223 38.9778805,13.372595 38.8984543,13.5964323 C38.8190282,13.8202697 38.7720952,14.047714 38.7576541,14.278772 L42.4617834,13.6722479 C42.4184601,13.3834254 42.2596101,13.0946073 41.9852288,12.8057849 C41.7108475,12.5169624 41.3065021,12.3725534 40.7721806,12.3725534 Z M51.3863524,16.9214841 C51.3863524,17.2969533 51.5054898,17.5641101 51.7437684,17.7229624 C51.9820469,17.8818147 52.3177979,17.9612397 52.7510316,17.9612397 C52.9676484,17.9612397 53.1914825,17.9431886 53.4225404,17.9070858 C53.6535984,17.870983 53.8557711,17.82405 54.0290645,17.7662856 C54.1590346,17.9251379 54.2709517,18.102039 54.3648189,18.2969941 C54.4586862,18.4919493 54.5056192,18.726614 54.5056192,19.0009953 C54.5056192,19.549758 54.2998363,19.9974261 53.8882643,20.344013 C53.4766923,20.6905999 52.7510368,20.8638908 51.711276,20.8638908 C50.4404572,20.8638908 49.4620859,20.5750727 48.7761326,19.9974278 C48.0901793,19.4197829 47.7472078,18.481124 47.7472078,17.181423 L47.7472078,7.91026889 C47.9060601,7.86694552 48.1335044,7.82001258 48.4295474,7.76946865 C48.7255904,7.71892472 49.0396801,7.69365314 49.3718259,7.69365314 C50.0072353,7.69365314 50.5018363,7.80557015 50.8556438,8.02940755 C51.2094513,8.25324495 51.3863524,8.72618461 51.3863524,9.44824072 L51.3863524,10.8345815 L54.2240187,10.8345815 C54.3106654,10.9934339 54.3937007,11.1919963 54.4731268,11.4302748 C54.552553,11.6685534 54.5922655,11.9320999 54.5922655,12.2209223 C54.5922655,12.7263616 54.4803485,13.0909945 54.2565111,13.3148319 C54.0326737,13.5386693 53.7330249,13.6505863 53.3575557,13.6505863 L51.3863524,13.6505863 L51.3863524,16.9214841 Z M68.2823809,15.6867743 C68.2823809,16.4665949 68.1488026,17.1778096 67.8816418,17.8204395 C67.614481,18.4630694 67.2281868,19.0118238 66.7227475,19.4667192 C66.2173083,19.9216146 65.6035698,20.2718065 64.8815137,20.5173056 C64.1594575,20.7628047 63.3435464,20.8855524 62.4337557,20.8855524 C61.523965,20.8855524 60.7080538,20.7628047 59.9859977,20.5173056 C59.2639416,20.2718065 58.6502031,19.9216146 58.1447638,19.4667192 C57.6393245,19.0118238 57.2530303,18.4630694 56.9858695,17.8204395 C56.7187088,17.1778096 56.5851304,16.4665949 56.5851304,15.6867743 L56.5851304,7.41205266 C56.7439827,7.38317042 56.9966986,7.34345792 57.3432855,7.292914 C57.6898725,7.24237007 58.0220133,7.21709848 58.339718,7.21709848 C58.6718638,7.21709848 58.9642921,7.24237007 59.2170118,7.292914 C59.4697314,7.34345792 59.6827348,7.43371359 59.8560282,7.56368369 C60.0293217,7.69365379 60.1592899,7.87416511 60.2459366,8.10522306 C60.3325833,8.33628102 60.375906,8.63954004 60.375906,9.01500922 L60.375906,15.6217896 C60.375906,16.3149635 60.567248,16.8564975 60.9499378,17.2464078 C61.3326275,17.6363181 61.8272285,17.8312703 62.4337557,17.8312703 C63.0547239,17.8312703 63.5529352,17.6363181 63.9284044,17.2464078 C64.3038735,16.8564975 64.4916053,16.3149635 64.4916053,15.6217896 L64.4916053,7.41205266 C64.6504577,7.38317042 64.9031735,7.34345792 65.2497604,7.292914 C65.5963474,7.24237007 65.9284882,7.21709848 66.2461929,7.21709848 C66.5783387,7.21709848 66.870767,7.24237007 67.1234867,7.292914 C67.3762063,7.34345792 67.5892097,7.43371359 67.7625031,7.56368369 C67.9357966,7.69365379 68.0657648,7.87416511 68.1524115,8.10522306 C68.2390582,8.33628102 68.2823809,8.63954004 68.2823809,9.01500922 L68.2823809,15.6867743 Z M74.499253,20.5173056 C74.3404007,20.5461878 74.1057359,20.5859003 73.7952518,20.6364443 C73.4847677,20.6869882 73.170678,20.7122598 72.8529733,20.7122598 C72.5352686,20.7122598 72.2500607,20.6905984 71.9973411,20.647275 C71.7446214,20.6039517 71.5316181,20.5173062 71.3583246,20.3873361 C71.1850311,20.257366 71.0514528,20.0804649 70.9575855,19.8566276 C70.8637182,19.6327902 70.8167852,19.3403618 70.8167852,18.9793338 L70.8167852,6.41562021 C70.9756376,6.38673796 71.2103023,6.34702547 71.5207864,6.29648154 C71.8312706,6.24593761 72.1453603,6.22066603 72.4630649,6.22066603 C72.7807696,6.22066603 73.0659775,6.24232739 73.3186972,6.28565076 C73.5714168,6.32897412 73.7844202,6.41561956 73.9577136,6.54558966 C74.1310071,6.67555976 74.2645855,6.85246085 74.3584528,7.07629825 C74.4523201,7.30013564 74.499253,7.59256398 74.499253,7.95359204 L74.499253,20.5173056 Z M82.3840663,20.8855524 C81.5320401,20.8855524 80.7414005,20.7664149 80.0121239,20.5281364 C79.2828472,20.2898579 78.6474473,19.9324454 78.1059053,19.4558884 C77.5643632,18.9793314 77.1383565,18.3800338 76.8278723,17.6579777 C76.5173882,16.9359216 76.3621485,16.0911286 76.3621485,15.1235734 C76.3621485,14.1704593 76.5173882,13.3509379 76.8278723,12.6649846 C77.1383565,11.9790313 77.546312,11.415836 78.0517513,10.9753818 C78.5571906,10.5349275 79.1348268,10.2100072 79.7846773,10.0006109 C80.4345278,9.79121461 81.0988095,9.68651804 81.7775422,9.68651804 C82.5429217,9.68651804 83.2396954,9.80204529 83.8678842,10.0331032 C84.496073,10.2641612 85.037607,10.5818611 85.4925024,10.9862126 C85.9473977,11.390564 86.3011999,11.8743343 86.5539195,12.4375381 C86.8066392,13.0007419 86.9329971,13.6144803 86.9329971,14.278772 C86.9329971,14.7697701 86.7958085,15.1452337 86.5214272,15.4051739 C86.2470459,15.6651141 85.8643619,15.8311845 85.3733637,15.9033901 L80.0229546,16.7048684 C80.181807,17.1814254 80.5067274,17.5388378 80.9977255,17.7771163 C81.4887237,18.0153949 82.051919,18.1345323 82.6873284,18.1345323 C83.2794144,18.1345323 83.8389995,18.0587176 84.3661005,17.9070858 C84.8932014,17.755454 85.3228184,17.5785529 85.6549642,17.3763772 C85.8860221,17.5207884 86.0809744,17.7229611 86.2398267,17.9829013 C86.398679,18.2428415 86.478104,18.5172187 86.478104,18.8060412 C86.478104,19.4558917 86.174845,19.939662 85.5683179,20.2573667 C85.106202,20.5028658 84.5863294,20.6689362 84.0086845,20.7555829 C83.4310396,20.8422297 82.8895056,20.8855524 82.3840663,20.8855524 Z M81.7775422,12.3725534 C81.4309553,12.3725534 81.1313065,12.430317 80.8785869,12.545846 C80.6258672,12.6613749 80.4200843,12.8093942 80.261232,12.9899082 C80.1023796,13.1704223 79.9832422,13.372595 79.903816,13.5964323 C79.8243898,13.8202697 79.7774569,14.047714 79.7630157,14.278772 L83.4671451,13.6722479 C83.4238217,13.3834254 83.2649718,13.0946073 82.9905904,12.8057849 C82.7162091,12.5169624 82.3118638,12.3725534 81.7775422,12.3725534 Z M92.391714,16.9214841 C92.391714,17.2969533 92.5108515,17.5641101 92.74913,17.7229624 C92.9874085,17.8818147 93.3231596,17.9612397 93.7563933,17.9612397 C93.9730101,17.9612397 94.1968441,17.9431886 94.4279021,17.9070858 C94.65896,17.870983 94.8611327,17.82405 95.0344262,17.7662856 C95.1643963,17.9251379 95.2763133,18.102039 95.3701806,18.2969941 C95.4640479,18.4919493 95.5109808,18.726614 95.5109808,19.0009953 C95.5109808,19.549758 95.3051979,19.9974261 94.893626,20.344013 C94.482054,20.6905999 93.7563985,20.8638908 92.7166377,20.8638908 C91.4458189,20.8638908 90.4674475,20.5750727 89.7814942,19.9974278 C89.0955409,19.4197829 88.7525694,18.481124 88.7525694,17.181423 L88.7525694,7.91026889 C88.9114218,7.86694552 89.138866,7.82001258 89.434909,7.76946865 C89.730952,7.71892472 90.0450417,7.69365314 90.3771875,7.69365314 C91.0125969,7.69365314 91.5071979,7.80557015 91.8610054,8.02940755 C92.2148129,8.25324495 92.391714,8.72618461 92.391714,9.44824072 L92.391714,10.8345815 L95.2293804,10.8345815 C95.3160271,10.9934339 95.3990623,11.1919963 95.4784885,11.4302748 C95.5579147,11.6685534 95.5976271,11.9320999 95.5976271,12.2209223 C95.5976271,12.7263616 95.4857101,13.0909945 95.2618727,13.3148319 C95.0380353,13.5386693 94.7383865,13.6505863 94.3629174,13.6505863 L92.391714,13.6505863 L92.391714,16.9214841 Z" id="letUlet"></path>
                </g>
            </g>
        </g>
    </g>
</svg>