<?xml version="1.0" encoding="UTF-8"?>
<svg width="67px" height="65px" viewBox="0 0 67 65" version="1.1" xmlns="http://www.w3.org/2000/svg" xmlns:xlink="http://www.w3.org/1999/xlink">
    <!-- Generator: Sketch 47 (45396) - http://www.bohemiancoding.com/sketch -->
    <title>Group 11</title>
    <desc>Created with Sketch.</desc>
    <defs></defs>
    <g id="Web-UI" stroke="none" stroke-width="1" fill="none" fill-rule="evenodd">
        <g id="Landlord---Review-Proposal" transform="translate(-803.000000, -624.000000)">
            <g id="Group-11" transform="translate(803.261159, 624.491268)">
                <g id="Group-7" transform="translate(0.363337, -0.000000)">
                    <path d="M21.310427,6.05067915 C28.4900393,10.3411479 34.3102651,19.6394857 34.3102651,26.8190981 L34.3102651,33.5597549 C34.3102651,40.7393673 28.4900393,43.081481 21.310427,38.7910123 C14.1308146,34.5005436 8.31058882,25.2022057 8.31058882,18.0225933 L8.31058882,11.2819365 C8.31058882,4.10232413 14.1308146,1.76021044 21.310427,6.05067915 Z" id="Rectangle-5-Copy" fill="#EED9AC"></path>
                    <path d="M18.4734333,28.9578891 C18.4394246,29.105535 18.421574,29.2686986 18.421574,29.4466987 C18.421574,30.8855877 19.5880241,32.7490973 21.0269131,33.6089638 C22.4658021,34.4688303 23.6322521,33.9994398 23.6322521,32.5605508 C23.6322521,32.3825507 23.6144015,32.1980525 23.5803929,32.00976 C22.7963375,31.8758241 21.9332523,31.5452445 21.0269131,31.0036248 C20.1205739,30.462005 19.2574886,29.7610413 18.4734333,28.9578891 Z" id="Mask-Copy" fill="#FCFCFC"></path>
                    <path d="M21.0269131,33.6089638 C21.7555694,34.044402 22.4143607,34.1389614 22.8871877,33.9393616 C22.4143607,33.1746478 21.7555694,32.4818324 21.0269131,32.0463942 C20.2982567,31.610956 19.6394654,31.5163965 19.1666384,31.7159964 C19.6394654,32.4807101 20.2982567,33.1735256 21.0269131,33.6089638 Z" id="Combined-Shape-Copy-3" fill="#F58181"></path>
                    <path d="M34.3102651,29.6720151 L34.3102651,26.8190981 C34.3102651,19.6394857 28.4900393,10.3411479 21.310427,6.05067915 C14.1308146,1.76021044 8.31058882,4.10232413 8.31058882,11.2819365 L8.31058882,14.1348535 L11.5978713,13.710952 L11.5978713,13.5518391 C11.5978713,8.18774274 15.9463306,6.43788175 21.310427,9.64341522 C26.6745234,12.8489487 31.0229827,19.7960063 31.0229827,25.1601027 L31.0229827,25.3192156 L34.3102651,29.6720151 Z" id="Combined-Shape-Copy-4" fill="#7E7E7E"></path>
                    <path d="M27.0625763,16.5146358 C24.6834409,13.0408121 26.6618421,10.079766 32.99778,7.63149744 C42.5016867,3.95909461 48.1021904,15.2008668 53.8507345,12.0730666 C50.7249607,17.3245669 47.4778462,19.5460071 44.109391,18.7373871 C39.0567083,17.5244572 30.805781,15.0378078 31.3156979,18.7373871 C31.6556425,21.2037733 30.2379353,20.4628562 27.0625763,16.5146358 Z" id="Path-8" fill="#474747"></path>
                    <path d="M26.0978942,14.0442907 C26.1558081,14.8367142 26.4773688,15.6601625 27.0625763,16.5146358 C30.2379353,20.4628562 31.6556425,21.2037733 31.3156979,18.7373871 C30.805781,15.0378078 39.0567083,17.5244572 44.109391,18.7373871 C47.1484469,19.4669326 50.0887334,17.7300579 52.9302505,13.526763 C50.6236179,15.5037448 48.2658216,16.2030923 45.8568617,15.6248055 C39.7282185,14.1535842 29.7202701,11.1374069 30.3387729,15.6248055 C30.7167678,18.3672567 29.3031416,17.8404184 26.0978942,14.0442907 Z" id="Combined-Shape" fill="#3E3E3E"></path>
                    <path d="M34.3102651,29.6720151 L34.3102651,26.8190981 C34.3102651,19.6394857 30.9522951,8.07965186 21.310427,2.31776232 C11.6685589,-3.44412723 8.31058882,4.10232413 8.31058882,11.2819365 L8.31058882,14.1348535 L11.5978713,13.710952 L11.5978713,13.5518391 L26.1225512,35.558956 L34.3102651,29.6720151 Z" id="Combined-Shape-Copy-5" fill="#515151"></path>
                    <polygon id="Path-7-Copy" fill="#EED9AC" points="31.556322 39.8918272 23.5481796 45.6703267 23.2483768 38.2150541 31.1489657 34.5227247"></polygon>
                    <path d="M18.421574,20.205726 L18.421574,22.1684568 C18.421574,22.6901099 17.9986906,22.8602822 17.4770375,22.5485472 C16.9553844,22.2368122 16.532501,21.5612177 16.532501,21.0395646 L16.532501,19.0768337 C16.532501,18.5551806 16.9553844,18.3850083 17.4770375,18.6967433 C17.9986906,19.0084783 18.421574,19.6840728 18.421574,20.205726 Z" id="Rectangle-6-Copy-2" fill="#5B5B5B"></path>
                    <path d="M13.0885148,11.965539 C20.2681271,16.2560077 26.0883529,25.5543455 26.0883529,32.7339579 L26.0883529,39.4746147 C26.0883529,46.6542271 20.2681271,48.9963408 13.0885148,44.7058721 C5.90890243,40.4154034 0.0886766422,31.1170655 0.0886766422,23.9374531 L0.0886766422,17.1967963 C0.0886766422,10.0171839 5.90890243,7.67507025 13.0885148,11.965539 Z" id="Rectangle-5-Copy-2" fill="#F9E3B5"></path>
                    <path d="M10.2515211,34.8727489 C10.2175124,35.0203948 10.1996619,35.1835584 10.1996619,35.3615585 C10.1996619,36.8004475 11.3661119,38.6639571 12.8050009,39.5238236 C14.2438899,40.3836901 15.4103399,39.9142996 15.4103399,38.4754106 C15.4103399,38.2974105 15.3924893,38.1129123 15.3584807,37.9246198 C14.5744253,37.7906839 13.7113401,37.4601043 12.8050009,36.9184846 C11.8986617,36.3768648 11.0355764,35.6759011 10.2515211,34.8727489 Z" id="Mask-Copy-2" fill="#FCFCFC"></path>
                    <path d="M12.8050009,39.5238236 C13.5336573,39.9592618 14.1924486,40.0538212 14.6652755,39.8542214 C14.1924486,39.0895076 13.5336573,38.3966922 12.8050009,37.961254 C12.0763445,37.5258158 11.4175532,37.4312563 10.9447263,37.6308562 C11.4175532,38.3955699 12.0763445,39.0883854 12.8050009,39.5238236 Z" id="Combined-Shape-Copy-6" fill="#F58181"></path>
                    <polygon id="Path-6-Copy" fill="#4F4F4F" points="12.7709977 0.756528655 4.50221468 5.38671507 10.3584654 7.95875873 14.6652755 2.83510872"></polygon>
                    <path d="M26.0991352,35.5811238 L26.1740418,32.7261845 C26.1740418,25.5465722 26.9488959,15.0510719 12.9998381,6.7152464 C2.75257343,0.591577541 0,10.0020387 0,17.181651 L0,20.034568 L2.50222246,17.7735467 C4.09020344,15.6365244 6.67222607,15.6365244 10.2482903,17.7735467 C11.3266282,18.4179512 14.6457338,18.6524348 20.2056074,18.4769974 C20.498156,21.7629946 21.2426205,23.8215472 22.4390008,24.652655 C24.0334923,25.7603249 25.2535371,29.4031479 26.0991352,35.5811238 Z" id="Combined-Shape-Copy-8" fill="#5E5E5E"></path>
                    <path d="M10.2020414,25.747291 L10.2020414,27.7100219 C10.2020414,28.231675 9.77915798,28.4018473 9.25750487,28.0901123 C8.73585175,27.7783773 8.31296834,27.1027827 8.31296834,26.5811296 L8.31296834,24.6183988 C8.31296834,24.0967457 8.73585175,23.9265734 9.25750487,24.2383084 C9.77915798,24.5500434 10.2020414,25.2256379 10.2020414,25.747291 Z" id="Rectangle-6-Copy-3" fill="#5B5B5B"></path>
                    <path d="M17.8688203,30.3288859 L17.8688203,32.2916167 C17.8688203,32.8132698 17.4459369,32.9834421 16.9242838,32.6717071 C16.4026306,32.3599721 15.9797472,31.6843776 15.9797472,31.1627245 L15.9797472,29.1999936 C15.9797472,28.6783405 16.4026306,28.5081682 16.9242838,28.8199032 C17.4459369,29.1316382 17.8688203,29.8072327 17.8688203,30.3288859 Z" id="Rectangle-6-Copy-4" fill="#5B5B5B"></path>
                </g>
                <g id="Group-8" transform="translate(31.700639, 14.132014)">
                    <path d="M21.66226,8.63419966 C28.8418724,12.9246684 34.6620982,22.2230062 34.6620982,29.4026186 L34.6620982,36.1432754 C34.6620982,43.3228878 28.8418724,45.6650015 21.66226,41.3745328 C14.4826477,37.0840641 8.66242189,27.7857262 8.66242189,20.6061138 L8.66242189,13.865457 C8.66242189,6.68584464 14.4826477,4.34373095 21.66226,8.63419966 Z" id="Rectangle-5" fill="#EED9AC"></path>
                    <path d="M18.8252664,31.5414096 C18.7912577,31.6890555 18.7734071,31.8522191 18.7734071,32.0302192 C18.7734071,33.4691082 19.9398571,35.3326178 21.3787461,36.1924843 C22.8176351,37.0523508 23.9840852,36.5829603 23.9840852,35.1440713 C23.9840852,34.9660712 23.9662346,34.781573 23.9322259,34.5932805 C23.1481706,34.4593446 22.2850853,34.128765 21.3787461,33.5871453 C20.4724069,33.0455255 19.6093217,32.3445618 18.8252664,31.5414096 Z" id="Mask" fill="#FCFCFC"></path>
                    <path d="M21.3787461,36.1924843 C22.1074025,36.6279225 22.7661938,36.7224819 23.2390208,36.5228821 C22.7661938,35.7581683 22.1074025,35.0653529 21.3787461,34.6299147 C20.6500898,34.1944765 19.9912985,34.099917 19.5184715,34.2995169 C19.9912985,35.0642306 20.6500898,35.7570461 21.3787461,36.1924843 Z" id="Combined-Shape" fill="#F58181"></path>
                    <path d="M34.6620982,32.2555356 L34.6620982,29.4026186 C34.6620982,22.2230062 28.8418724,12.9246684 21.66226,8.63419966 C14.4826477,4.34373095 8.66242189,6.68584464 8.66242189,13.865457 L8.66242189,16.718374 L11.9497043,16.2944725 L11.9497043,16.1353596 C11.9497043,10.7712632 16.2981636,9.02140226 21.66226,12.2269357 C27.0263564,15.4324692 31.3748157,22.3795268 31.3748157,27.7436232 L31.3748157,27.9027361 L34.6620982,32.2555356 Z" id="Combined-Shape" fill="#7E7E7E"></path>
                    <path d="M34.6620982,32.2555356 L34.6620982,29.4026186 C34.6620982,22.2230062 28.8418724,12.9246684 21.66226,8.63419966 C14.4826477,4.34373095 8.66242189,6.68584464 8.66242189,13.865457 L8.66242189,16.718374 L11.9497043,16.2944725 L11.9497043,16.1353596 L26.4460259,38.1552501 L34.6620982,32.2555356 Z" id="Combined-Shape" fill="#947D5E"></path>
                    <path d="M18.7233788,1.90079012 L20.7053551,3.08520049 C25.5677246,5.99090672 29.7700809,11.8972411 30.791907,17.2616637 L31.4088864,20.5007058 C21.6506331,13.1468248 15.5484674,10.0812493 13.1023895,11.3039791 C10.6563115,12.5267089 9.1862292,13.2177984 8.69214248,13.3772474 L8.5751301,6.15185064 C8.48347688,0.492356553 12.952703,-1.45470136 18.557426,1.80297508 C18.6127389,1.83512507 18.6680584,1.86773118 18.7233788,1.90079012 Z" id="Rectangle-7" fill="#947D5E"></path>
                    <polygon id="Path-7" fill="#EED9AC" points="31.908155 42.4753477 23.9000126 48.2538472 23.6002098 40.7985746 31.5007988 37.1062452"></polygon>
                    <path d="M18.7734071,22.7892465 L18.7734071,24.7519773 C18.7734071,25.2736304 18.3505237,25.4438027 17.8288706,25.1320677 C17.3072175,24.8203327 16.8843341,24.1447382 16.8843341,23.6230851 L16.8843341,21.6603542 C16.8843341,21.1387011 17.3072175,20.9685288 17.8288706,21.2802638 C18.3505237,21.5919988 18.7734071,22.2675934 18.7734071,22.7892465 Z" id="Rectangle-6" fill="#5B5B5B"></path>
                    <path d="M13.4403479,14.5490595 C20.6199602,18.8395282 26.440186,28.137866 26.440186,35.3174784 L26.440186,42.0581352 C26.440186,49.2377476 20.6199602,51.5798613 13.4403479,47.2893926 C6.26073549,42.9989239 0.440509705,33.700586 0.440509705,26.5209736 L0.440509705,19.7803168 C0.440509705,12.6007044 6.26073549,10.2585908 13.4403479,14.5490595 Z" id="Rectangle-5" fill="#F9E3B5"></path>
                    <path d="M10.6033542,37.4562694 C10.5693455,37.6039153 10.5514949,37.7670789 10.5514949,37.945079 C10.5514949,39.383968 11.7179449,41.2474776 13.156834,42.1073441 C14.595723,42.9672106 15.762173,42.4978201 15.762173,41.0589311 C15.762173,40.880931 15.7443224,40.6964328 15.7103137,40.5081403 C14.9262584,40.3742044 14.0631731,40.0436248 13.156834,39.5020051 C12.2504948,38.9603853 11.3874095,38.2594216 10.6033542,37.4562694 Z" id="Mask" fill="#FCFCFC"></path>
                    <path d="M13.156834,42.1073441 C13.8854903,42.5427823 14.5442816,42.6373417 15.0171086,42.4377419 C14.5442816,41.6730281 13.8854903,40.9802127 13.156834,40.5447745 C12.4281776,40.1093363 11.7693863,40.0147768 11.2965593,40.2143767 C11.7693863,40.9790904 12.4281776,41.6719059 13.156834,42.1073441 Z" id="Combined-Shape" fill="#F58181"></path>
                    <path d="M26.440186,38.1703954 L26.440186,35.3174784 C26.440186,28.137866 20.6199602,18.8395282 13.4403479,14.5490595 C6.26073549,10.2585908 0.440509705,12.6007044 0.440509705,19.7803168 L0.440509705,22.6332338 L3.72779216,22.2093323 L3.72779216,22.0502194 C3.72779216,16.6861231 8.07625146,14.9362621 13.4403479,18.1417955 C18.8044442,21.347329 23.1529035,28.2943866 23.1529035,33.658483 L23.1529035,33.8175959 L26.440186,38.1703954 Z" id="Combined-Shape" fill="#7E7E7E"></path>
                    <polygon id="Path-6" fill="#947D5E" points="10.7204485 1.0219761 2.3257607 7.06286619 8.59409838 10.9379428 12.7388516 3.20675147"></polygon>
                    <path d="M26.440186,38.1703954 L26.440186,35.3174784 C26.440186,28.137866 20.6199602,18.8395282 13.4403479,14.5490595 C6.26073549,10.2585908 0.440509705,12.6007044 0.440509705,19.7803168 L0.440509705,22.6332338 L3.72779216,22.2093323 L3.72779216,22.0502194 C3.72779216,16.6861231 8.07625146,14.9362621 13.4403479,18.1417955 C18.8044442,21.347329 23.1529035,28.2943866 23.1529035,33.658483 L23.1529035,33.8175959 L26.440186,38.1703954 Z" id="Combined-Shape" fill="#A08767"></path>
                    <path d="M10.5014666,7.81564992 L12.4834429,9.00006029 C17.3458125,11.9057665 21.5481687,17.8121009 22.5699948,23.1765235 L23.1869742,26.4155656 C13.4287209,19.0616846 7.32655523,15.9961091 4.88047729,17.2188389 C2.43439935,18.4415687 0.96431702,19.1326582 0.4702303,19.2921072 L0.353217922,12.0667104 C0.261564703,6.40721636 4.73079079,4.46015845 10.3355138,7.71783488 C10.3908268,7.74998488 10.4461462,7.78259098 10.5014666,7.81564992 Z" id="Rectangle-7" fill="#A08767"></path>
                    <path d="M10.5514949,28.7041063 L10.5514949,30.6668371 C10.5514949,31.1884902 10.1286115,31.3586625 9.60695841,31.0469275 C9.08530529,30.7351925 8.66242189,30.059598 8.66242189,29.5379449 L8.66242189,27.575214 C8.66242189,27.0535609 9.08530529,26.8833886 9.60695841,27.1951236 C10.1286115,27.5068586 10.5514949,28.1824532 10.5514949,28.7041063 Z" id="Rectangle-6" fill="#5B5B5B"></path>
                    <path d="M18.2182738,33.2857011 L18.2182738,35.248432 C18.2182738,35.7700851 17.7953904,35.9402573 17.2737373,35.6285224 C16.7520842,35.3167874 16.3292008,34.6411928 16.3292008,34.1195397 L16.3292008,32.1568089 C16.3292008,31.6351557 16.7520842,31.4649835 17.2737373,31.7767185 C17.7953904,32.0884534 18.2182738,32.764048 18.2182738,33.2857011 Z" id="Rectangle-6-Copy" fill="#5B5B5B"></path>
                    <g id="Group-6" transform="translate(2.181518, 22.486511)">
                        <g id="Group-5" transform="translate(1.045957, 0.000000)" stroke="#808080">
                            <path d="M4.18436327,9.16499727 C6.37784912,10.5612133 8.15602073,9.91489834 8.15602073,7.72141249 C8.15602073,5.52792664 6.37784912,2.61789833 4.18436327,1.22168234 C1.99087742,-0.174533648 0.212705808,0.471781271 0.212705808,2.66526712 C0.212705808,4.85875297 1.99087742,7.76878128 4.18436327,9.16499727 Z" id="Oval-2"></path>
                            <path d="M15.228917,16.1951692 C17.4224029,17.5913852 19.2005745,16.9450702 19.2005745,14.7515844 C19.2005745,12.5580985 17.4224029,9.64807023 15.228917,8.25185424 C13.0354312,6.85563825 11.2572596,7.50195317 11.2572596,9.69543902 C11.2572596,11.8889249 13.0354312,14.7989532 15.228917,16.1951692 Z" id="Oval-2-Copy"></path>
                            <path d="M11.2697319,9.70337803 C11.2697319,8.84355043 10.5727039,7.70284434 9.71287633,7.15553966 C8.85304873,6.60823499 8.15602073,6.86158489 8.15602073,7.72141249" id="Oval-2-Copy-2"></path>
                        </g>
                        <g id="Group-5-Copy" transform="translate(0.320363, 0.606655)" stroke="#979797">
                            <path d="M4.18436327,9.16499727 C6.37784912,10.5612133 8.15602073,9.91489834 8.15602073,7.72141249 C8.15602073,5.52792664 6.37784912,2.61789833 4.18436327,1.22168234 C1.99087742,-0.174533648 0.212705808,0.471781271 0.212705808,2.66526712 C0.212705808,4.85875297 1.99087742,7.76878128 4.18436327,9.16499727 Z" id="Oval-2"></path>
                            <path d="M15.228917,16.1951692 C17.4224029,17.5913852 19.2005745,16.9450702 19.2005745,14.7515844 C19.2005745,12.5580985 17.4224029,9.64807023 15.228917,8.25185424 C13.0354312,6.85563825 11.2572596,7.50195317 11.2572596,9.69543902 C11.2572596,11.8889249 13.0354312,14.7989532 15.228917,16.1951692 Z" id="Oval-2-Copy"></path>
                            <path d="M11.2697319,9.70337803 C11.2697319,8.84355043 10.5727039,7.70284434 9.71287633,7.15553966 C8.85304873,6.60823499 8.15602073,6.86158489 8.15602073,7.72141249" id="Oval-2-Copy-2"></path>
                        </g>
                    </g>
                </g>
            </g>
        </g>
    </g>
</svg>