<?xml version="1.0" encoding="UTF-8"?>
<svg width="77px" height="71px" viewBox="0 0 77 71" version="1.1" xmlns="http://www.w3.org/2000/svg" xmlns:xlink="http://www.w3.org/1999/xlink">
    <!-- Generator: Sketch 50.2 (55047) - http://www.bohemiancoding.com/sketch -->
    <title>Group 14</title>
    <desc>Created with Sketch.</desc>
    <defs></defs>
    <g id="Page-1" stroke="none" stroke-width="1" fill="none" fill-rule="evenodd">
        <g id="Landlord-Welcome-1" transform="translate(-561.000000, -1845.000000)">
            <g id="Group-14" transform="translate(560.000000, 1845.000000)">
                <g id="Group-10" transform="translate(27.397260, 36.000000) scale(-1, 1) translate(-27.397260, -36.000000) ">
                    <g id="Group-4" transform="translate(17.856878, 0.000000)">
                        <polygon id="Rectangle-4" fill="#E3E3E3" points="4.30232554 0 35.461411 18.0552563 35.461411 68.5882741 31.1140252 71.0157092 4.30232554 51.0042052 0 2.51729349"></polygon>
                        <polygon id="Rectangle-4" fill="#E24660" points="31.1140252 62.1659931 35.461411 59.5157665 35.461411 68.5882741 31.1140252 71.0157092 4.30232554 51.0042052"></polygon>
                        <polygon id="Rectangle-4-Copy" fill="#F3F3F3" points="0 2.49225181 31.1590855 20.4826914 31.1590855 71.0157092 0 53.0252696"></polygon>
                        <polygon id="Rectangle-4-Copy" fill="#F65873" points="0 44.1549497 31.1590855 62.1453893 31.1590855 71.0157092 0 53.0252696"></polygon>
                        <polygon id="Rectangle-10" fill="#E6E6E6" points="4.61093312 13.3036779 26.5481523 25.9746727 26.5481523 29.584174 4.61093312 16.9131791"></polygon>
                        <polygon id="Rectangle-10-Copy" fill="#E6E6E6" points="4.61093312 19.2273584 26.5481523 31.8983533 26.5481523 35.5078546 4.61093312 22.8368597"></polygon>
                        <polygon id="Rectangle-10-Copy-2" fill="#E6E6E6" points="4.61093312 25.9158866 26.5481523 38.5868814 26.5481523 42.1963827 4.61093312 29.5253878"></polygon>
                        <polygon id="Rectangle-10-Copy-3" fill="#E6E6E6" points="4.61093312 33.3416127 26.5481523 46.0126076 26.5481523 49.6221089 4.61093312 36.951114"></polygon>
                        <polygon id="Rectangle-10-Copy-4" fill="#E6E6E6" points="4.61093312 40.2542366 26.5481523 52.9252315 26.5481523 56.5347328 4.61093312 43.8637379"></polygon>
                    </g>
                    <g id="Group-4-Copy">
                        <polygon id="Rectangle-4" fill="#E3E3E3" points="4.30232554 0 35.461411 18.0552563 35.461411 68.5882741 31.1140252 71.0157092 4.30232554 51.0042052 0 2.51729349"></polygon>
                        <polygon id="Rectangle-4" fill="#E8D369" points="31.1140252 62.1659931 35.461411 59.5157665 35.461411 68.5882741 31.1140252 71.0157092 4.30232554 51.0042052"></polygon>
                        <polygon id="Rectangle-4-Copy" fill="#F3F3F3" points="0 2.49225181 31.1590855 20.4826914 31.1590855 71.0157092 0 53.0252696"></polygon>
                        <polygon id="Rectangle-4-Copy" fill="#F5DF70" points="0 44.1549497 31.1590855 62.1453893 31.1590855 71.0157092 0 53.0252696"></polygon>
                        <polygon id="Rectangle-10" fill="#E6E6E6" points="4.61093312 13.3036779 26.5481523 25.9746727 26.5481523 29.584174 4.61093312 16.9131791"></polygon>
                        <polygon id="Rectangle-10-Copy" fill="#E6E6E6" points="4.61093312 19.2273584 26.5481523 31.8983533 26.5481523 35.5078546 4.61093312 22.8368597"></polygon>
                        <polygon id="Rectangle-10-Copy-2" fill="#E6E6E6" points="4.61093312 25.9158866 26.5481523 38.5868814 26.5481523 42.1963827 4.61093312 29.5253878"></polygon>
                        <polygon id="Rectangle-10-Copy-3" fill="#E6E6E6" points="4.61093312 33.3416127 26.5481523 46.0126076 26.5481523 49.6221089 4.61093312 36.951114"></polygon>
                        <polygon id="Rectangle-10-Copy-4" fill="#E6E6E6" points="4.61093312 40.2542366 26.5481523 52.9252315 26.5481523 56.5347328 4.61093312 43.8637379"></polygon>
                    </g>
                </g>
                <g id="Group-2" transform="translate(55.890411, 48.000000) scale(-1, 1) translate(-55.890411, -48.000000) translate(31.780822, 24.000000)">
                    <rect id="Rectangle" fill="#000000" transform="translate(3.635642, 43.741730) rotate(-315.000000) translate(-3.635642, -43.741730) " x="3.08769716" y="42.9242037" width="1" height="1.63505188" rx="0.5"></rect>
                    <path d="M9.18815195,45.8181838 C10.5561285,45.8181838 14.2251307,38.142784 14.2251307,35.3483211 C14.2251307,32.5538582 11.9494268,30.2884984 9.14220379,30.2884984 C6.33498077,30.2884984 4.05927688,32.5538582 4.05927688,35.3483211 C4.05927688,38.142784 7.82017538,45.8181838 9.18815195,45.8181838 Z" id="Oval-12" fill="#EAEAEA" transform="translate(9.142204, 38.053341) rotate(-315.000000) translate(-9.142204, -38.053341) "></path>
                    <path d="M36.3628112,2.53200054 C37.4388498,1.6382655 38.8236605,1.10051311 40.3346435,1.10051311 C43.7607201,1.10051311 46.538104,3.86527253 46.538104,7.27577611 C46.538104,9.29312197 45.5663427,11.0845325 44.0633731,12.2114571 L17.3980989,38.8767313 L17.3460424,38.8246748 C16.2337977,39.875733 14.7304444,40.5206172 13.0757826,40.5206172 C9.64970591,40.5206172 6.87232202,37.7558578 6.87232202,34.3453542 C6.87232202,32.4174657 7.75981044,30.6959191 9.15028154,29.5634723 L36.2722822,2.4414716 L36.3628112,2.53200054 Z" id="Combined-Shape" fill="#7C7C7C"></path>
                    <path d="M35.3875623,3.38156844 C36.5356667,1.93615055 38.3128488,1.00864743 40.3076501,1.00864743 C43.7697864,1.00864743 46.5764024,3.80250608 46.5764024,7.24890539 C46.5764024,9.25339867 45.6269766,11.0371496 44.1513553,12.1788517 L42.004861,14.3253461 C40.8603762,15.7811386 39.078919,16.716805 37.0779273,16.716805 C33.6246634,16.716805 30.8252399,13.9301061 30.8252399,10.4925389 C30.8252399,8.61319147 31.6619602,6.92838229 32.9848001,5.78711848 L32.9834062,5.78572459 L35.3875623,3.38156844 Z" id="Combined-Shape" fill="#FADB51"></path>
                    <ellipse id="Oval-11" fill="#565656" cx="41.4959824" cy="6.14645537" rx="5.06669644" ry="5.043666"></ellipse>
                    <polygon id="Path-22" fill="#565656" points="39.4500885 1.52668499 42.6768303 0.236743609 47.2998887 6.12820259 45.4377286 9.35492053"></polygon>
                    <ellipse id="Oval-11-Copy" fill="#616161" cx="43.9523209" cy="3.98266004" rx="3.96052759" ry="3.94252519"></ellipse>
                    <g id="Group" transform="translate(19.560751, 3.982660)">
                        <path d="M3.41766665,10.6308809 L11.6601153,2.30934764 C12.7079753,1.25143364 13.5574336,1.23942208 13.5574336,2.28251908 C13.5574336,3.32561607 12.7079753,5.02882201 11.6601153,6.08673601 L3.41766665,14.4082692 C2.36980666,15.4661832 1.5203483,15.4781948 1.5203483,14.4350978 C1.5203483,13.3920008 2.36980666,11.6887949 3.41766665,10.6308809 Z" id="Rectangle-18" fill="#F3D44B"></path>
                        <polygon id="Path-23" fill="#F3D44B" points="11.8345042 0.161997678 13.3409867 1.64269956 12.3487206 4.18502564 10.6125257 3.01931871"></polygon>
                        <polygon id="Path-24" fill="#F3D44B" points="1.74949564 15.1213903 0.213390911 13.6011281 1.63049168 11.3113081 3.47902967 12.6251441"></polygon>
                        <path d="M1.89985269,9.15231986 L10.1423013,0.830786621 C11.1901613,-0.227127379 12.0396196,-0.239138936 12.0396196,0.803958059 C12.0396196,1.84705505 11.1901613,3.55026099 10.1423013,4.60817499 L1.89985269,12.9297082 C0.851992695,13.9876222 0.0025343319,13.9996338 0.0025343319,12.9565368 C0.0025343319,11.9134398 0.851992695,10.2102339 1.89985269,9.15231986 Z" id="Rectangle-18-Copy" fill="#FADB51"></path>
                    </g>
                    <path d="M7.10515889,43.2817409 L42.6722002,7.71469962 C43.0737534,7.85114964 43.5043517,7.92518523 43.9523209,7.92518523 C45.3520456,7.92518523 46.582176,7.2023665 47.28658,6.11124243 L47.2998887,6.12820259 L46.5749548,7.38435511 C46.534374,9.28134193 45.6434175,10.9699974 44.2663292,12.0877334 L41.9524669,14.3910781 C41.6685808,14.7423669 41.3471609,15.0623258 40.9942681,15.3449215 L17.4181458,38.8138796 L17.3884,38.784269 C16.400968,39.7351029 15.0972001,40.3624069 13.6495024,40.4945588 C12.0172951,41.5433471 9.30582492,42.6610287 7.10515889,43.2817409 Z" id="Combined-Shape" fill="#000000" opacity="0.15"></path>
                </g>
            </g>
        </g>
    </g>
</svg>