<?xml version="1.0" encoding="UTF-8"?>
<svg width="77px" height="55px" viewBox="0 0 77 55" version="1.1" xmlns="http://www.w3.org/2000/svg" xmlns:xlink="http://www.w3.org/1999/xlink">
    <!-- Generator: Sketch 50.2 (55047) - http://www.bohemiancoding.com/sketch -->
    <title>Group 12</title>
    <desc>Created with Sketch.</desc>
    <defs></defs>
    <g id="Page-1" stroke="none" stroke-width="1" fill="none" fill-rule="evenodd">
        <g id="Landlord-Welcome-1" transform="translate(-1007.000000, -742.000000)">
            <g id="Group-12" transform="translate(1007.000000, 742.000000)">
                <g id="Group-15" transform="translate(21.450000, 10.725000)" fill="#A3A3A3">
                    <polygon id="Rectangle-2" points="18.4330231 2.78126342 36.9360157 14.5717926 35.7216683 15.3175283 17.2186757 3.52699906"></polygon>
                    <polygon id="Rectangle-2-Copy" points="16.5594585 3.93182698 29.2518622 12.0197163 28.0375148 12.765452 15.3451111 4.67756262"></polygon>
                    <path d="M15.4549135,2.4873026 C15.5698847,2.4166983 15.7502881,2.41502852 15.8578557,2.48357304 C15.9654233,2.55211756 15.9594214,2.66491997 15.8444502,2.73552427 L14.2114572,3.73835185 C13.943191,3.90309522 13.5222498,3.90699138 13.2712588,3.74705416 L10.9340386,2.25772416 C10.6830476,2.09778694 10.6970519,1.83458132 10.9653181,1.66983795 L13.4634042,0.135753204 C13.7316705,-0.0289901648 14.1526116,-0.0328863223 14.4036027,0.127050893 L16.1594105,1.24589175 C16.2669781,1.31443627 16.2609763,1.42723868 16.1460051,1.49784298 C16.0310338,1.56844728 15.8506305,1.57011706 15.7430629,1.50157254 L13.987255,0.382731685 C13.9513991,0.359883511 13.8912647,0.360440105 13.8529409,0.383974872 L11.3548548,1.91805962 C11.3165311,1.94159439 11.3145305,1.97919519 11.3503863,2.00204336 L13.6876065,3.49137337 C13.7234623,3.51422154 13.7835968,3.51366495 13.8219205,3.49013018 L15.4549135,2.4873026 Z M16.995468,1.68183972 C17.1502344,1.6591368 17.2991441,1.71835244 17.3280671,1.81410157 C17.3569901,1.9098507 17.2549739,2.00587507 17.1002076,2.02857799 L13.5433305,2.55034199 C13.3641303,2.57662914 13.1999759,2.49353694 13.2060375,2.37961005 L13.2605811,1.35448534 C13.2658162,1.25609226 13.3976246,1.1751482 13.5549833,1.17369172 C13.712342,1.17223523 13.8356625,1.25081787 13.8304274,1.34921094 L13.7876927,2.15239343 L16.995468,1.68183972 Z" id="Combined-Shape" fill-rule="nonzero"></path>
                    <polygon id="Rectangle-2-Copy-2" points="12.9626771 6.14062493 31.4656698 17.9311541 30.2513224 18.6768898 11.7483297 6.88636057"></polygon>
                    <polygon id="Rectangle-2-Copy-3" points="11.0891126 7.29118849 23.7815163 15.3790778 22.5671689 16.1248135 9.87476515 8.03692414"></polygon>
                    <path d="M8.25991193,6.71364794 C8.33941701,6.76431039 8.501877,6.76280669 8.5928859,6.70691776 L10.2258789,5.70409018 C10.3225663,5.64471402 10.4460483,5.68023108 10.5016836,5.78341975 C10.5573188,5.88660842 10.5240395,6.01839325 10.427352,6.0777694 L8.79435902,7.08059698 C8.57877795,7.21298619 8.26016232,7.21593524 8.0528205,7.0838123 L5.71560037,5.59448229 C5.43485057,5.41558211 5.45376342,5.06012227 5.73628353,4.88662553 L8.23436962,3.35254078 C8.44995069,3.22015157 8.76856632,3.21720252 8.97590814,3.34932546 L10.731716,4.46816632 C10.827494,4.52919824 10.8587784,4.66153851 10.8015917,4.76375658 C10.744405,4.86597464 10.6204026,4.89936261 10.5246246,4.83833068 L8.76881671,3.71948982 C8.68931163,3.66882737 8.52685164,3.67033107 8.43584274,3.72622 L5.95884399,5.24735493 L8.25991193,6.71364794 Z" id="Rectangle-20" fill-rule="nonzero"></path>
                    <path d="M11.6972677,4.92116996 C11.8077802,4.9049587 11.9096821,4.98742883 11.924872,5.10537214 C11.9400619,5.22331545 11.8627876,5.33206921 11.7522751,5.34828046 L8.19539803,5.87004446 C8.06945808,5.88851879 7.95903018,5.77972188 7.96623722,5.64426829 L8.02078074,4.61914358 C8.02710493,4.50028284 8.12251664,4.40939867 8.23388877,4.41614809 C8.34526089,4.42289752 8.43041907,4.52472467 8.42409488,4.64358541 L8.38346133,5.40727751 L11.6972677,4.92116996 Z" id="Path-9" fill-rule="nonzero"></path>
                    <polygon id="Rectangle-2-Copy-4" points="7.49233119 9.49998644 25.9953238 21.2905157 24.7809764 22.0362513 6.27798378 10.2457221"></polygon>
                    <polygon id="Rectangle-2-Copy-5" points="5.61876662 10.65055 18.3111704 18.7384393 17.0968229 19.484175 4.40441921 11.3962856"></polygon>
                    <path d="M2.78956599,10.0730095 C2.86907107,10.1236719 3.03153107,10.1221682 3.12253996,10.0662793 L4.75553295,9.06345169 C4.8522204,9.00407554 4.97570236,9.0395926 5.03133762,9.14278127 C5.08697289,9.24596994 5.05369351,9.37775476 4.95700606,9.43713092 L3.32401308,10.4399585 C3.10843201,10.5723477 2.78981638,10.5752968 2.58247456,10.4431738 L0.245254437,8.95384381 C-0.0354953723,8.77494362 -0.0165825216,8.41948378 0.26593759,8.24598704 L2.76402368,6.71190229 C2.97960475,6.57951309 3.29822039,6.57656404 3.5055622,6.70868697 L5.26137009,7.82752783 C5.35714809,7.88855976 5.3884325,8.02090002 5.33124578,8.12311809 C5.27405906,8.22533616 5.15005666,8.25872412 5.05427866,8.19769219 L3.29847077,7.07885133 C3.2189657,7.02818888 3.0565057,7.02969259 2.9654968,7.08558152 L0.48849805,8.60671644 L2.78956599,10.0730095 Z" id="Rectangle-20" fill-rule="nonzero"></path>
                    <path d="M6.22692172,8.28053147 C6.33743422,8.26432022 6.43933614,8.34679034 6.45452604,8.46473365 C6.46971593,8.58267696 6.39244169,8.69143072 6.28192919,8.70764198 L2.72505209,9.22940597 C2.59911214,9.24788031 2.48868424,9.13908339 2.49589128,9.00362981 L2.5504348,7.97850509 C2.55675899,7.85964436 2.6521707,7.76876018 2.76354283,7.77550961 C2.87491495,7.78225903 2.96007313,7.88408618 2.95374894,8.00294692 L2.91311539,8.76663903 L6.22692172,8.28053147 Z" id="Path-9" fill-rule="nonzero"></path>
                </g>
                <g id="Group-17">
                    <g id="Group-7">
                        <g id="Group-8" transform="translate(0.007090, 8.962891)">
                            <g id="Group-3" transform="translate(0.023587, 0.068242)">
                                <polygon id="Rectangle-15" fill="#CFBF91" points="0.000977006848 28.2127021 0.000977006848 25.6063333 43.7974949 2.66439316 73.8819287 17.6279459 73.8819287 20.2258062 30.0854109 45.7741152 4.57647778 30.8835936"></polygon>
                                <polygon id="Rectangle-15-Copy" fill="#EBDAA9" points="0.000977006848 25.5750003 43.7974949 0.0266912774 73.8819287 17.5881043 30.0854109 43.1364133"></polygon>
                            </g>
                            <g id="Group-3-Copy" transform="translate(5.452063, 2.902189)">
                                <polygon id="Rectangle-15" fill="#EAEAEA" points="0.0242505555 23.3902993 0.0242505555 21.2294376 36.3346208 2.2089679 61.2767163 14.6147975 61.2767163 16.768605 24.9663461 37.9499364 3.81766006 25.6046548"></polygon>
                                <polygon id="Rectangle-15-Copy" fill="#FFFFFF" points="0.0242505555 21.2034603 36.3346208 0.022128932 61.2767163 14.5817661 24.9663461 35.7630975"></polygon>
                            </g>
                            <g id="Group-4" transform="translate(45.039385, 4.479136)">
                                <path d="M8.29186326,2.65358742 L9.67988191,1.89670991 L14.5495672,3.19079056 L14.5495672,4.71645059 L13.9044489,5.06822941 L15.7352844,5.85588998 L15.7352844,7.3539194 L10.0695985,10.443381 L0.00357826271,4.61475655 L0.00357826271,3.10619874 L5.6692642,1.525295 L8.29186326,2.65358742 Z" id="Combined-Shape" fill="#C4C4C4"></path>
                                <path d="M7.94472742,1.32711652 L9.67988191,0.3809481 L14.5495672,3.20068878 L12.8144127,4.14685719 L15.7352844,5.83815759 L10.0695985,8.92761914 L0.00357826271,3.09899474 L5.6692642,0.00953318829 L7.94472742,1.32711652 Z" id="Combined-Shape-Copy-2" fill="#D8D8D8"></path>
                                <path d="M10.7518466,3.26218894 C11.1739093,3.05066379 11.1739092,2.69914253 10.7518462,2.47704422 C10.3297833,2.25494592 9.6454843,2.24637468 9.22342159,2.45789984 C8.80135887,2.66942499 8.80135904,3.02094625 9.22342196,3.24304455 C9.64548487,3.46514286 10.3297839,3.47371409 10.7518466,3.26218894 Z" id="Oval-10" fill="#EBDAA9"></path>
                                <path d="M10.7279795,3.27378591 C10.3124135,3.06763002 9.66285467,3.05949387 9.24728873,3.25523923 C9.23924432,3.25124853 9.2312876,3.24718362 9.22342196,3.24304455 C8.80135904,3.02094625 8.80135887,2.66942499 9.22342159,2.45789984 C9.6454843,2.24637468 10.3297833,2.25494592 10.7518462,2.47704422 C11.1739092,2.69914253 11.1739093,3.05066379 10.7518466,3.26218894 C10.7439809,3.26613103 10.736024,3.26999667 10.7279795,3.27378591 Z" id="Combined-Shape" fill="#9B9B9B"></path>
                            </g>
                        </g>
                        <g id="Group-8-Copy" transform="translate(2.560792, 0.000000)">
                            <g id="Group-3" transform="translate(0.023587, 0.068242)">
                                <polygon id="Rectangle-15" fill="#CFBF91" points="0.000977006848 28.2127021 0.000977006848 25.6063333 43.7974949 2.66439316 73.8819287 17.6279459 73.8819287 20.2258062 30.0854109 45.7741152 4.57647778 30.8835936"></polygon>
                                <polygon id="Rectangle-15-Copy" fill="#EBDAA9" points="0.000977006848 25.5750003 43.7974949 0.0266912774 73.8819287 17.5881043 30.0854109 43.1364133"></polygon>
                            </g>
                            <g id="Group-3-Copy" transform="translate(5.452063, 2.902189)">
                                <polygon id="Rectangle-15" fill="#EAEAEA" points="0.0242505555 23.3902993 0.0242505555 21.2294376 36.3346208 2.2089679 61.2767163 14.6147975 61.2767163 16.768605 24.9663461 37.9499364 3.81766006 25.6046548"></polygon>
                                <polygon id="Rectangle-15-Copy" fill="#FFFFFF" points="0.0242505555 21.2034603 36.3346208 0.022128932 61.2767163 14.5817661 24.9663461 35.7630975"></polygon>
                            </g>
                            <g id="Group-4" transform="translate(45.039385, 4.479136)">
                                <path d="M8.29186326,2.65358742 L9.67988191,1.89670991 L14.5495672,3.19079056 L14.5495672,4.71645059 L13.9044489,5.06822941 L15.7352844,5.85588998 L15.7352844,7.3539194 L10.0695985,10.443381 L0.00357826271,4.61475655 L0.00357826271,3.10619874 L5.6692642,1.525295 L8.29186326,2.65358742 Z" id="Combined-Shape" fill="#C4C4C4"></path>
                                <path d="M7.94472742,1.32711652 L9.67988191,0.3809481 L14.5495672,3.20068878 L12.8144127,4.14685719 L15.7352844,5.83815759 L10.0695985,8.92761914 L0.00357826271,3.09899474 L5.6692642,0.00953318829 L7.94472742,1.32711652 Z" id="Combined-Shape-Copy-2" fill="#D8D8D8"></path>
                                <path d="M10.7518466,3.26218894 C11.1739093,3.05066379 11.1739092,2.69914253 10.7518462,2.47704422 C10.3297833,2.25494592 9.6454843,2.24637468 9.22342159,2.45789984 C8.80135887,2.66942499 8.80135904,3.02094625 9.22342196,3.24304455 C9.64548487,3.46514286 10.3297839,3.47371409 10.7518466,3.26218894 Z" id="Oval-10" fill="#EBDAA9"></path>
                                <path d="M10.7279795,3.27378591 C10.3124135,3.06763002 9.66285467,3.05949387 9.24728873,3.25523923 C9.23924432,3.25124853 9.2312876,3.24718362 9.22342196,3.24304455 C8.80135904,3.02094625 8.80135887,2.66942499 9.22342159,2.45789984 C9.6454843,2.24637468 10.3297833,2.25494592 10.7518462,2.47704422 C11.1739092,2.69914253 11.1739093,3.05066379 10.7518466,3.26218894 C10.7439809,3.26613103 10.736024,3.26999667 10.7279795,3.27378591 Z" id="Combined-Shape" fill="#9B9B9B"></path>
                            </g>
                        </g>
                    </g>
                    <g id="Group-15-Copy" transform="translate(27.316300, 9.217031)" fill="#A3A3A3">
                        <polygon id="Rectangle-2" points="15.2454152 2.16041891 30.5487002 11.31902 29.5443489 11.8982896 14.2410639 2.73968852"></polygon>
                        <polygon id="Rectangle-2-Copy" points="13.6958446 3.05414917 24.1933612 9.33662819 23.1890099 9.9158978 12.6914933 3.63341878"></polygon>
                        <path d="M12.7823077,1.93207718 C12.8773971,1.87723345 13.0266034,1.8759364 13.1155694,1.92918014 C13.2045354,1.98242389 13.1995715,2.0700461 13.1044821,2.12488983 L11.7538813,2.90386232 C11.5320061,3.03183102 11.183858,3.03485747 10.9762706,2.91062206 L9.04322411,1.75374613 C8.83563676,1.62951073 8.84721931,1.4250589 9.06909447,1.29709019 L11.1351885,0.105449843 C11.3570637,-0.0225188667 11.7052119,-0.0255453087 11.9127992,0.0986900952 L13.3649766,0.967778916 C13.4539427,1.02102266 13.4489787,1.10864487 13.3538894,1.16348861 C13.2588,1.21833234 13.1095936,1.21962938 13.0206276,1.16638564 L11.5684502,0.29729682 C11.5387949,0.279548905 11.4890594,0.279981254 11.457363,0.298262498 L9.39126889,1.48990284 C9.35957244,1.50818409 9.35791779,1.53739149 9.38757313,1.55513941 L11.3206196,2.71201534 C11.350275,2.72976325 11.4000104,2.7293309 11.4317069,2.71104966 L12.7823077,1.93207718 Z M14.0564554,1.30641288 C14.1844581,1.28877779 14.307617,1.33477508 14.3315384,1.40915072 C14.3554597,1.48352635 14.2710851,1.55811578 14.1430824,1.57575087 L11.2012932,1.98104467 C11.053082,2.0014639 10.9173146,1.93691986 10.9223281,1.84842418 L10.9674394,1.05213182 C10.9717693,0.97570243 11.0807841,0.912827019 11.2109309,0.911695657 C11.3410777,0.910564294 11.4430725,0.971605405 11.4387427,1.04803479 L11.403398,1.67192774 L14.0564554,1.30641288 Z" id="Combined-Shape" fill-rule="nonzero"></path>
                        <polygon id="Rectangle-2-Copy-2" points="10.7210518 4.76989059 26.0243368 13.9284917 25.0199855 14.5077613 9.71670049 5.34916021"></polygon>
                        <polygon id="Rectangle-2-Copy-3" points="9.17148122 5.66362085 19.6689978 11.9460999 18.6646465 12.5253695 8.16712993 6.24289047"></polygon>
                        <path d="M6.83153198,5.21500116 C6.89728831,5.25435454 7.03165423,5.2531865 7.10692504,5.20977332 L8.45752585,4.43080084 C8.53749322,4.38467886 8.63962154,4.41226766 8.68563585,4.49242215 C8.73165015,4.57257665 8.70412575,4.67494395 8.62415839,4.72106592 L7.27355757,5.50003841 C7.09525676,5.60287517 6.83173907,5.60516592 6.66025271,5.50253599 L4.72720619,4.34566005 C4.49500622,4.20669467 4.51064848,3.93058197 4.74431262,3.79581385 L6.81040669,2.6041735 C6.9887075,2.50133673 7.25222518,2.49904598 7.42371155,2.60167592 L8.87588898,3.47076474 C8.95510417,3.51817288 8.98097859,3.62097164 8.93368113,3.70037218 C8.88638366,3.77977273 8.7838249,3.8057077 8.70460971,3.75829956 L7.25243227,2.88921074 C7.18667594,2.84985736 7.05231002,2.8510254 6.97703922,2.89443859 L4.92838588,4.07601982 L6.83153198,5.21500116 Z" id="Rectangle-20" fill-rule="nonzero"></path>
                        <path d="M9.67446854,3.82264713 C9.76587021,3.81005462 9.85015031,3.87411544 9.86271343,3.96573098 C9.87527655,4.05734652 9.81136528,4.14182385 9.71996362,4.15441636 L6.77817442,4.55971016 C6.67401317,4.57406058 6.58268147,4.48954973 6.58864221,4.38433263 L6.63375356,3.58804026 C6.63898411,3.49571209 6.71789636,3.42511544 6.81000899,3.43035823 C6.90212162,3.43560102 6.97255347,3.51469792 6.96732291,3.60702609 L6.93371609,4.20024386 L9.67446854,3.82264713 Z" id="Path-9" fill-rule="nonzero"></path>
                        <polygon id="Rectangle-2-Copy-4" points="6.19668837 7.37936228 21.4999733 16.5379634 20.4956221 17.117233 5.19233708 7.95863189"></polygon>
                        <polygon id="Rectangle-2-Copy-5" points="4.64711781 8.27309254 15.1446344 14.5555716 14.1402831 15.1348412 3.64276653 8.85236215"></polygon>
                        <path d="M2.30716858,7.82447285 C2.37292491,7.86382623 2.50729083,7.86265819 2.58256163,7.819245 L3.93316245,7.04027252 C4.01312982,6.99415054 4.11525814,7.02173935 4.16127244,7.10189384 C4.20728675,7.18204833 4.17976235,7.28441563 4.09979498,7.33053761 L2.74919417,8.10951009 C2.57089336,8.21234686 2.30737567,8.21463761 2.13588931,8.11200767 L0.202842784,6.95513174 C-0.0293571861,6.81616635 -0.0137149195,6.54005365 0.219949216,6.40528553 L2.28604329,5.21364518 C2.46434409,5.11080842 2.72786178,5.10851767 2.89934814,5.2111476 L4.35152558,6.08023642 C4.43074077,6.12764457 4.45661519,6.23044332 4.40931773,6.30984387 C4.36202026,6.38924442 4.25946149,6.41517939 4.18024631,6.36777125 L2.72806887,5.49868243 C2.66231254,5.45932905 2.52794662,5.46049709 2.45267582,5.50391027 L0.404022474,6.6854915 L2.30716858,7.82447285 Z" id="Rectangle-20" fill-rule="nonzero"></path>
                        <path d="M5.15010514,6.43211882 C5.2415068,6.4195263 5.32578691,6.48358712 5.33835003,6.57520267 C5.35091315,6.66681821 5.28700188,6.75129553 5.19560022,6.76388805 L2.25381102,7.16918184 C2.14964977,7.18353226 2.05831807,7.09902142 2.0642788,6.99380431 L2.10939016,6.19751195 C2.11462071,6.10518377 2.19353295,6.03458712 2.28564558,6.03982991 C2.37775822,6.0450727 2.44819006,6.1241696 2.44295951,6.21649778 L2.40935269,6.80971554 L5.15010514,6.43211882 Z" id="Path-9" fill-rule="nonzero"></path>
                    </g>
                </g>
            </g>
        </g>
    </g>
</svg>