<?xml version="1.0" encoding="UTF-8"?>
<svg width="16px" height="12px" viewBox="0 0 16 12" version="1.1" xmlns="http://www.w3.org/2000/svg" xmlns:xlink="http://www.w3.org/1999/xlink">
    <!-- Generator: Sketch 48.2 (47327) - http://www.bohemiancoding.com/sketch -->
    <title>Shape</title>
    <desc>Created with Sketch.</desc>
    <defs></defs>
    <g id="Tenant---Dashboard" stroke="none" stroke-width="1" fill="none" fill-rule="evenodd" transform="translate(-1155.000000, -732.000000)">
        <g id="Group-7" transform="translate(1019.906116, 662.586865)" fill="#454545" fill-rule="nonzero">
            <path d="M149.320447,81.3662126 L138.901636,81.3662126 C138.378565,81.3662126 137.954235,80.9418828 137.954235,80.4188112 L137.954235,79.4718833 L138.901636,79.4718833 L138.901636,79.9452288 C138.901636,80.2068831 139.113564,80.4188112 139.374982,80.4188112 L148.846628,80.4188112 C149.108046,80.4188112 149.320447,80.2068831 149.320447,79.9452288 L149.320447,74.2627145 C149.320447,74.0008235 149.108283,73.7886586 148.846628,73.7886586 L148.373046,73.7886586 L148.373046,72.8417307 L149.320447,72.8417307 C149.843519,72.8417307 150.267375,73.2658237 150.267375,73.7886586 L150.267375,80.4188112 C150.267375,80.9418828 149.843519,81.3662126 149.320447,81.3662126 Z M146.478953,78.5244819 L136.059905,78.5244819 C135.536834,78.5244819 135.112741,78.1001521 135.112741,77.5777908 L135.112741,70.9471647 C135.112741,70.4243298 135.536834,70 136.059905,70 L146.478953,70 C147.002025,70 147.426118,70.4243298 147.426118,70.9471647 L147.426118,77.5777908 C147.426118,78.1001521 147.002025,78.5244819 146.478953,78.5244819 Z M146.478953,71.4212206 C146.478953,71.1590927 146.266789,70.9471647 146.005134,70.9471647 L136.533488,70.9471647 C136.27207,70.9471647 136.059905,71.1590927 136.059905,71.4212206 L136.059905,77.1037349 C136.059905,77.3658627 136.27207,77.5777908 136.533488,77.5777908 L146.005134,77.5777908 C146.266552,77.5777908 146.478953,77.3658627 146.478953,77.1037349 L146.478953,71.4212206 Z M141.269311,76.6301526 C139.96175,76.6301526 138.901636,75.5695649 138.901636,74.2627145 C138.901636,72.9546801 139.96175,71.8943293 141.269311,71.8943293 C142.577109,71.8943293 143.637223,72.9546801 143.637223,74.2627145 C143.637223,75.5698017 142.577109,76.6301526 141.269311,76.6301526 Z M141.269311,72.8417307 C140.484822,72.8417307 139.848564,73.4777518 139.848564,74.2627145 C139.848564,75.0469668 140.484822,75.6829879 141.269311,75.6829879 C142.0538,75.6829879 142.690058,75.0467301 142.690058,74.2627145 C142.690058,73.4777518 142.054037,72.8417307 141.269311,72.8417307 Z" id="Shape"></path>
        </g>
    </g>
</svg>