<?xml version="1.0" encoding="UTF-8"?>
<svg width="21px" height="21px" viewBox="0 0 21 21" version="1.1" xmlns="http://www.w3.org/2000/svg" xmlns:xlink="http://www.w3.org/1999/xlink">
    <!-- Generator: Sketch 47 (45396) - http://www.bohemiancoding.com/sketch -->
    <title>Shape</title>
    <desc>Created with Sketch.</desc>
    <defs></defs>
    <g id="Page-1" stroke="none" stroke-width="1" fill="none" fill-rule="evenodd">
        <g id="Tenant-Wizard---Proposal-Dashboard" transform="translate(-39.000000, -221.000000)" fill-rule="nonzero" fill="#767676">
            <g id="Side-Bar" transform="translate(1.000000, 1.000000)">
                <g id="Proposal-Tab" transform="translate(0.000000, 198.000000)">
                    <path d="M57.6639302,42.676038 L40.1656794,42.676038 C39.4754359,42.676038 38.9158044,42.116903 38.9158044,41.4269599 L38.9158044,23.9442377 C38.9158044,23.254919 39.4754359,22.6954719 40.1656794,22.6954719 L51.4233041,22.6954719 L51.4233041,23.9442377 L40.1656794,23.9442377 L40.1656794,41.4269599 L57.6639302,41.4269599 L57.6639302,28.9442963 L58.9138053,28.9442963 L58.9138053,41.4269599 C58.9134928,42.1172152 58.3538612,42.676038 57.6639302,42.676038 Z M56.4749866,28.903087 L47.0574905,38.2107634 L46.8665721,38.2107634 L46.8175145,38.2004611 L42.9254036,39.556933 L42.0345551,38.7708349 L43.2478713,34.7057898 L43.2550581,34.6673903 L43.2550581,34.4451099 L52.9003439,25.3200655 L54.710163,23.2171438 C55.4391526,22.4956693 56.7196496,22.4956693 57.4483267,23.2171438 L58.2873054,24.008237 C59.0419174,24.7559356 59.160968,26.204504 58.406356,26.9515781 L56.4749866,28.903087 Z M43.295679,38.3125378 L45.797304,37.4771135 L44.0955991,35.8096988 L43.295679,38.3125378 Z M44.6346077,34.9193288 L46.6181594,36.9201639 L55.3663474,28.2137682 L53.4362278,26.2656935 L44.6346077,34.9193288 Z M57.5326933,25.1461749 L56.535918,24.1206259 C56.4149925,24.0004322 56.1537687,23.817488 55.980661,23.817488 C55.8069283,23.817488 55.6456945,23.8830482 55.5241441,24.0029297 L54.1008489,25.4109133 L56.110648,27.4579527 L57.5342557,26.0502814 C57.7851681,25.8008404 57.7851681,25.3962403 57.5326933,25.1461749 Z" id="Shape"></path>
                </g>
            </g>
        </g>
    </g>
</svg>