<?xml version="1.0" encoding="UTF-8"?>
<svg width="469px" height="112px" viewBox="0 0 469 112" version="1.1" xmlns="http://www.w3.org/2000/svg" xmlns:xlink="http://www.w3.org/1999/xlink">
    <!-- Generator: Sketch 47 (45396) - http://www.bohemiancoding.com/sketch -->
    <title>Group 14</title>
    <desc>Created with Sketch.</desc>
    <defs>
        <path d="M41.0095186,28.9933195 C46.7233645,28.9933195 51.3553518,26.1870986 51.3553518,22.7254497 C51.3553518,19.2638007 46.7233645,16.4575798 41.0095186,16.4575798 C35.2956727,16.4575798 30.6636853,19.2638007 30.6636853,22.7254497 C30.6636853,26.1870986 35.2956727,28.9933195 41.0095186,28.9933195 Z" id="path-1"></path>
        <path d="M41.0095186,28.9933195 C46.7233645,28.9933195 51.3553518,26.1870986 51.3553518,22.7254497 C51.3553518,19.2638007 46.7233645,16.4575798 41.0095186,16.4575798 C35.2956727,16.4575798 30.6636853,19.2638007 30.6636853,22.7254497 C30.6636853,26.1870986 35.2956727,28.9933195 41.0095186,28.9933195 Z" id="path-3"></path>
        <path d="M41.0095186,28.9933195 C46.7233645,28.9933195 51.3553518,26.1870986 51.3553518,22.7254497 C51.3553518,19.2638007 46.7233645,16.4575798 41.0095186,16.4575798 C35.2956727,16.4575798 30.6636853,19.2638007 30.6636853,22.7254497 C30.6636853,26.1870986 35.2956727,28.9933195 41.0095186,28.9933195 Z" id="path-5"></path>
        <path d="M41.0095186,28.9933195 C46.7233645,28.9933195 51.3553518,26.1870986 51.3553518,22.7254497 C51.3553518,19.2638007 46.7233645,16.4575798 41.0095186,16.4575798 C35.2956727,16.4575798 30.6636853,19.2638007 30.6636853,22.7254497 C30.6636853,26.1870986 35.2956727,28.9933195 41.0095186,28.9933195 Z" id="path-7"></path>
    </defs>
    <g id="Web-UI" stroke="none" stroke-width="1" fill="none" fill-rule="evenodd">
        <g id="Landlord---Review" transform="translate(-333.000000, -318.000000)">
            <g id="Group-14" transform="translate(333.000000, 318.500000)">
                <rect id="Rectangle-5" fill="#C4F2E6" x="22.3443801" y="0.708180516" width="446.35269" height="110.476161" rx="55.2380803"></rect>
                <circle id="Oval-7-Copy-3" fill="#83E5CC" cx="146.876014" cy="55.9462608" r="41.9232587"></circle>
                <path d="M130.86378,35.56723 C131.863936,35.56723 132.750026,35.694441 133.522076,35.9488667 C134.294127,36.2032925 134.952115,36.5498326 135.496059,36.9884977 C136.040004,37.4271628 136.452343,37.9447797 136.733089,38.5413642 C137.013834,39.1379487 137.154205,39.7783901 137.154205,40.4627075 C137.154205,42.3051008 136.110198,44.0597347 134.022152,45.7266619 L130.574262,48.4902379 L136.891007,48.4902379 C136.996287,48.6832505 137.097178,48.9288992 137.193685,49.2271915 C137.290191,49.5254837 137.338443,49.850091 137.338443,50.201023 C137.338443,50.8327007 137.198073,51.2845189 136.917327,51.5564913 C136.636581,51.8284636 136.268108,51.9644477 135.811897,51.9644477 L126.678936,51.9644477 C126.292911,51.7012487 125.990236,51.3634817 125.770904,50.9511365 C125.551571,50.5387914 125.441907,50.0518805 125.441907,49.4903892 C125.441907,48.8938047 125.564731,48.3893475 125.810383,47.9770023 C126.056036,47.5646572 126.328004,47.2356633 126.626296,46.9900109 L130.258425,43.8842778 C130.714636,43.4982526 131.091883,43.1517124 131.390175,42.8446469 C131.688467,42.5375813 131.929729,42.2612265 132.113969,42.0155741 C132.298208,41.7699216 132.429806,41.5418192 132.508765,41.33126 C132.587725,41.1207008 132.627204,40.9189179 132.627204,40.7259053 C132.627204,40.2346004 132.412262,39.8485809 131.98237,39.5678353 C131.552478,39.2870897 131.021701,39.146719 130.390024,39.146719 C129.68816,39.146719 129.060878,39.2563836 128.50816,39.4757161 C127.955442,39.6950486 127.494851,39.9275376 127.126372,40.1731901 C126.82808,39.9626308 126.582431,39.6994357 126.389418,39.3835969 C126.196406,39.0677581 126.099901,38.699285 126.099901,38.2781665 C126.099901,37.3657432 126.529786,36.6858226 127.38957,36.2383842 C128.249353,35.7909459 129.407412,35.56723 130.86378,35.56723 Z M148.787544,43.9632372 C148.787544,42.4191362 148.563828,41.2259851 148.11639,40.3837482 C147.668951,39.5415113 147.032897,39.1203992 146.208206,39.1203992 C145.383516,39.1203992 144.756234,39.5415113 144.326343,40.3837482 C143.896451,41.2259851 143.681508,42.4191362 143.681508,43.9632372 C143.681508,45.5073381 143.896451,46.7048758 144.326343,47.555886 C144.756234,48.4068962 145.383516,48.8323949 146.208206,48.8323949 C147.032897,48.8323949 147.668951,48.4068962 148.11639,47.555886 C148.563828,46.7048758 148.787544,45.5073381 148.787544,43.9632372 Z M153.288225,43.9632372 C153.288225,45.3143255 153.112762,46.5162497 152.76183,47.5690459 C152.410897,48.621842 151.923987,49.5035455 151.301082,50.2141829 C150.678178,50.9248203 149.932458,51.4643702 149.063902,51.8328489 C148.195345,52.2013275 147.252229,52.3855641 146.234526,52.3855641 C145.199277,52.3855641 144.247388,52.2013275 143.378831,51.8328489 C142.510274,51.4643702 141.764555,50.9248203 141.14165,50.2141829 C140.518746,49.5035455 140.036222,48.621842 139.694063,47.5690459 C139.351904,46.5162497 139.180827,45.3143255 139.180827,43.9632372 C139.180827,42.6121488 139.351904,41.4146112 139.694063,40.3705883 C140.036222,39.3265655 140.518746,38.4492486 141.14165,37.7386112 C141.764555,37.0279738 142.510274,36.4884239 143.378831,36.1199452 C144.247388,35.7514666 145.199277,35.56723 146.234526,35.56723 C147.252229,35.56723 148.195345,35.7514666 149.063902,36.1199452 C149.932458,36.4884239 150.678178,37.0279738 151.301082,37.7386112 C151.923987,38.4492486 152.410897,39.3265655 152.76183,40.3705883 C153.112762,41.4146112 153.288225,42.6121488 153.288225,43.9632372 Z M168.369454,35.7251487 C168.966039,35.8128817 169.496815,35.9751853 169.9618,36.2120644 C170.426785,36.4489436 170.676821,36.7691643 170.711914,37.1727361 C170.711914,37.4534817 170.641728,37.7429963 170.501356,38.0412886 C170.360983,38.3395808 170.176746,38.6466417 169.94864,38.9624806 L160.841999,52.1486861 C160.280508,52.0609531 159.811144,51.8986495 159.433892,51.6617703 C159.05664,51.4248912 158.85047,51.1046705 158.815377,50.7010987 C158.815377,50.420353 158.83731,50.1439982 158.881176,49.8720259 C158.925043,49.6000535 159.061027,49.288606 159.289133,48.937674 L168.369454,35.7251487 Z M163.447657,39.9099923 C163.447657,41.2259875 163.052864,42.2524483 162.263267,42.9894056 C161.47367,43.7263629 160.455982,44.094836 159.210174,44.094836 C157.946818,44.094836 156.924744,43.7263629 156.14392,42.9894056 C155.363096,42.2524483 154.97269,41.2259875 154.97269,39.9099923 C154.97269,38.6115438 155.363096,37.5938561 156.14392,36.8568988 C156.924744,36.1199416 157.946818,35.7514684 159.210174,35.7514684 C160.455982,35.7514684 161.47367,36.1199416 162.263267,36.8568988 C163.052864,37.5938561 163.447657,38.6115438 163.447657,39.9099923 Z M158.157383,39.9099923 C158.157383,40.4363904 158.258274,40.8267964 158.46006,41.0812222 C158.661846,41.3356479 158.911881,41.4628589 159.210174,41.4628589 C159.508466,41.4628589 159.758501,41.3356479 159.960287,41.0812222 C160.162073,40.8267964 160.262964,40.4363904 160.262964,39.9099923 C160.262964,39.4011409 160.162073,39.0238946 159.960287,38.7782422 C159.758501,38.5325897 159.508466,38.4097654 159.210174,38.4097654 C158.911881,38.4097654 158.661846,38.5325897 158.46006,38.7782422 C158.258274,39.0238946 158.157383,39.4011409 158.157383,39.9099923 Z M174.475641,47.9901622 C174.475641,49.3061574 174.080848,50.3326182 173.291251,51.0695755 C172.501654,51.8065328 171.483967,52.1750059 170.238158,52.1750059 C168.974802,52.1750059 167.952728,51.8065328 167.171904,51.0695755 C166.391081,50.3326182 166.000675,49.3061574 166.000675,47.9901622 C166.000675,46.6917137 166.391081,45.674026 167.171904,44.9370687 C167.952728,44.2001114 168.974802,43.8316383 170.238158,43.8316383 C171.483967,43.8316383 172.501654,44.2001114 173.291251,44.9370687 C174.080848,45.674026 174.475641,46.6917137 174.475641,47.9901622 Z M169.185367,47.9901622 C169.185367,48.5165603 169.286258,48.9069663 169.488044,49.161392 C169.68983,49.4158178 169.939866,49.5430287 170.238158,49.5430287 C170.53645,49.5430287 170.786485,49.4158178 170.988271,49.161392 C171.190057,48.9069663 171.290949,48.5165603 171.290949,47.9901622 C171.290949,47.4813107 171.190057,47.1040645 170.988271,46.858412 C170.786485,46.6127596 170.53645,46.4899352 170.238158,46.4899352 C169.939866,46.4899352 169.68983,46.6127596 169.488044,46.858412 C169.286258,47.1040645 169.185367,47.4813107 169.185367,47.9901622 Z M127.036885,67.447492 L127.036885,69.4688505 C126.95968,69.4899064 126.83861,69.510962 126.673672,69.5320179 C126.508734,69.5530738 126.345553,69.5636016 126.184124,69.5636016 C126.022695,69.5636016 125.88057,69.5513192 125.757744,69.526754 C125.634918,69.5021887 125.533149,69.4583229 125.452435,69.3951551 C125.37172,69.3319873 125.310308,69.2442556 125.268196,69.1319574 C125.226084,69.0196591 125.205029,68.8722699 125.205029,68.6897852 L125.205029,63.7311403 C125.205029,63.5837488 125.245385,63.4696976 125.3261,63.3889832 C125.406814,63.3082689 125.517356,63.2433474 125.657729,63.1942169 C125.896363,63.1099932 126.173595,63.048581 126.489434,63.0099785 C126.805272,62.971376 127.142162,62.952075 127.500113,62.952075 C128.468685,62.952075 129.198613,63.1556125 129.689918,63.5626937 C130.181223,63.9697749 130.426871,64.5207299 130.426871,65.2155754 C130.426871,65.6507311 130.314575,66.0227135 130.089978,66.3315337 C129.865382,66.6403539 129.598677,66.8789841 129.289857,67.0474315 C129.542528,67.3913449 129.791686,67.7141975 130.037339,68.0159991 C130.282991,68.3178006 130.476001,68.5915235 130.616374,68.8371759 C130.546187,69.0828284 130.418099,69.2705742 130.232105,69.400419 C130.046111,69.5302639 129.83731,69.5951854 129.605694,69.5951854 C129.451284,69.5951854 129.317932,69.577639 129.205634,69.5425458 C129.093336,69.5074526 128.995076,69.4583229 128.910853,69.3951551 C128.826629,69.3319873 128.749425,69.2547834 128.679239,69.1635411 C128.609052,69.0722988 128.542376,68.9740393 128.479208,68.8687597 L127.594864,67.447492 L127.036885,67.447492 Z M127.700143,66.0472802 C127.966851,66.0472802 128.177407,65.9788494 128.331818,65.8419859 C128.486228,65.7051224 128.563432,65.5033395 128.563432,65.2366312 C128.563432,64.9699228 128.477454,64.7681399 128.305498,64.6312764 C128.133541,64.4944129 127.861573,64.4259822 127.489585,64.4259822 C127.384305,64.4259822 127.300083,64.4294915 127.236915,64.4365101 C127.173747,64.4435288 127.103562,64.4540566 127.026357,64.4680939 L127.026357,66.0472802 L127.700143,66.0472802 Z M131.616525,64.110145 C131.616525,63.8083434 131.704257,63.5697132 131.879723,63.3942472 C132.055189,63.2187812 132.293819,63.1310495 132.595621,63.1310495 L136.06983,63.1310495 C136.118961,63.2082545 136.162827,63.3100233 136.201429,63.4363588 C136.240032,63.5626943 136.259333,63.6960465 136.259333,63.8364193 C136.259333,64.1031277 136.20143,64.2926282 136.085622,64.4049264 C135.969815,64.5172247 135.817162,64.5733729 135.627658,64.5733729 L133.406269,64.5733729 L133.406269,65.5524684 L135.775049,65.5524684 C135.824179,65.6296735 135.868045,65.7296876 135.906648,65.8525138 C135.94525,65.9753401 135.964551,66.1069376 135.964551,66.2473104 C135.964551,66.5140188 135.908403,66.7035192 135.796105,66.8158175 C135.683807,66.9281157 135.532908,66.984264 135.343405,66.984264 L133.406269,66.984264 L133.406269,68.0896944 L136.111942,68.0896944 C136.161072,68.1668995 136.204938,68.2686682 136.243541,68.3950038 C136.282143,68.5213393 136.301444,68.6546915 136.301444,68.7950643 C136.301444,69.0617727 136.243541,69.2530278 136.127734,69.3688353 C136.011926,69.4846429 135.859273,69.5425458 135.66977,69.5425458 L132.595621,69.5425458 C132.293819,69.5425458 132.055189,69.4548141 131.879723,69.2793481 C131.704257,69.1038821 131.616525,68.8652519 131.616525,68.5634503 L131.616525,64.110145 Z M141.20745,69.3004039 C141.109189,69.3846276 140.956536,69.4583222 140.749486,69.52149 C140.542436,69.5846578 140.316088,69.6162412 140.070436,69.6162412 C139.775653,69.6162412 139.522985,69.5723753 139.312426,69.4846423 C139.101867,69.3969093 138.957987,69.2758396 138.880782,69.1214295 C138.803577,68.9600007 138.708827,68.7511993 138.596528,68.4950189 C138.48423,68.2388385 138.36667,67.9528332 138.243844,67.6369944 C138.121017,67.3211555 137.994684,66.9860204 137.864839,66.6315791 C137.734994,66.2771377 137.610415,65.9174378 137.491098,65.5524684 C137.371781,65.1874991 137.259485,64.8295538 137.154205,64.4786218 C137.048925,64.1276897 136.957684,63.7978186 136.880479,63.4889984 C136.97874,63.3907374 137.120866,63.3012511 137.30686,63.2205367 C137.492854,63.1398223 137.691127,63.0994657 137.901686,63.0994657 C138.161376,63.0994657 138.373687,63.1538594 138.538625,63.2626483 C138.703563,63.3714373 138.824633,63.5732202 138.901838,63.8680031 C139.091341,64.5558299 139.282596,65.2138176 139.475609,65.8419859 C139.668621,66.4701543 139.870404,67.1246327 140.080964,67.8054409 L140.144131,67.8054409 C140.333634,67.1456887 140.528399,66.4262888 140.72843,65.6472196 C140.928461,64.8681505 141.119716,64.0926023 141.302201,63.3205518 C141.428536,63.2573841 141.563643,63.204745 141.707525,63.1626332 C141.851408,63.1205213 142.014589,63.0994657 142.197073,63.0994657 C142.456763,63.0994657 142.677847,63.1573687 142.860331,63.2731762 C143.042816,63.3889838 143.134057,63.5802389 143.134057,63.8469473 C143.134057,64.0013573 143.09721,64.2259505 143.023514,64.5207334 C142.949818,64.8155163 142.855068,65.1471421 142.73926,65.5156208 C142.623453,65.8840994 142.49361,66.2683642 142.349728,66.6684268 C142.205846,67.0684893 142.061966,67.4457356 141.918084,67.8001769 C141.774201,68.1546183 141.639095,68.4669431 141.512759,68.7371608 C141.386424,69.0073785 141.284655,69.1951243 141.20745,69.3004039 Z M144.060513,64.110145 C144.060513,63.8083434 144.148245,63.5697132 144.323711,63.3942472 C144.499177,63.2187812 144.737807,63.1310495 145.039609,63.1310495 L148.513818,63.1310495 C148.562949,63.2082545 148.606815,63.3100233 148.645417,63.4363588 C148.68402,63.5626943 148.703321,63.6960465 148.703321,63.8364193 C148.703321,64.1031277 148.645418,64.2926282 148.52961,64.4049264 C148.413803,64.5172247 148.26115,64.5733729 148.071646,64.5733729 L145.850257,64.5733729 L145.850257,65.5524684 L148.219037,65.5524684 C148.268167,65.6296735 148.312033,65.7296876 148.350636,65.8525138 C148.389238,65.9753401 148.408539,66.1069376 148.408539,66.2473104 C148.408539,66.5140188 148.352391,66.7035192 148.240093,66.8158175 C148.127794,66.9281157 147.976896,66.984264 147.787393,66.984264 L145.850257,66.984264 L145.850257,68.0896944 L148.55593,68.0896944 C148.60506,68.1668995 148.648926,68.2686682 148.687529,68.3950038 C148.726131,68.5213393 148.745432,68.6546915 148.745432,68.7950643 C148.745432,69.0617727 148.687529,69.2530278 148.571722,69.3688353 C148.455914,69.4846429 148.303261,69.5425458 148.113758,69.5425458 L145.039609,69.5425458 C144.737807,69.5425458 144.499177,69.4548141 144.323711,69.2793481 C144.148245,69.1038821 144.060513,68.8652519 144.060513,68.5634503 L144.060513,64.110145 Z M155.609629,69.289876 C155.511368,69.388137 155.369242,69.4635862 155.183248,69.516226 C154.997255,69.5688659 154.774416,69.5951854 154.514726,69.5951854 C154.255037,69.5951854 154.009388,69.5565834 153.777773,69.4793784 C153.546158,69.4021733 153.356657,69.2161821 153.209266,68.9213992 L152.167003,66.7947617 C152.061723,66.5771838 151.966973,66.3718916 151.882749,66.178879 C151.798525,65.9858664 151.707284,65.7630279 151.609024,65.5103568 L151.545856,65.5208847 C151.573931,65.8998913 151.589722,66.2859108 151.593232,66.6789547 C151.596741,67.0719986 151.598496,67.458018 151.598496,67.8370246 L151.598496,69.4688505 C151.521291,69.4899064 151.40373,69.510962 151.245811,69.5320179 C151.087891,69.5530738 150.931729,69.5636016 150.777319,69.5636016 C150.622909,69.5636016 150.486047,69.5530738 150.36673,69.5320179 C150.247413,69.510962 150.149154,69.4688508 150.071949,69.405683 C149.994744,69.3425152 149.935086,69.2565382 149.892974,69.1477492 C149.850863,69.0389603 149.829807,68.896835 149.829807,68.7213689 L149.829807,63.4574146 C149.928068,63.3170418 150.078966,63.2117638 150.282507,63.1415774 C150.486048,63.071391 150.703622,63.0362983 150.935237,63.0362983 C151.194927,63.0362983 151.44233,63.0766549 151.677455,63.1573692 C151.912579,63.2380836 152.100325,63.4223202 152.240698,63.7100844 L153.293489,65.836722 C153.398769,66.0542998 153.493519,66.259592 153.577742,66.4526046 C153.661966,66.6456173 153.753207,66.8684558 153.851468,67.1211268 L153.904108,67.1105989 C153.876033,66.7315923 153.858487,66.3525914 153.851468,65.9735848 C153.844449,65.5945782 153.84094,65.2155773 153.84094,64.8365707 L153.84094,63.1310495 C153.918145,63.1099935 154.035706,63.0889379 154.193625,63.067882 C154.351544,63.0468261 154.507707,63.0362983 154.662117,63.0362983 C154.970937,63.0362983 155.206058,63.0906919 155.367487,63.1994809 C155.528916,63.3082698 155.609629,63.5346176 155.609629,63.878531 L155.609629,69.289876 Z M162.631744,67.1527106 C162.631744,67.5317172 162.566822,67.87738 162.436978,68.1897096 C162.307133,68.5020391 162.119387,68.7687434 161.873734,68.9898306 C161.628082,69.2109178 161.329794,69.3811173 160.978862,69.5004342 C160.62793,69.6197511 160.231383,69.6794086 159.789209,69.6794086 C159.347034,69.6794086 158.950487,69.6197511 158.599555,69.5004342 C158.248623,69.3811173 157.950335,69.2109178 157.704683,68.9898306 C157.45903,68.7687434 157.271284,68.5020391 157.141439,68.1897096 C157.011595,67.87738 156.946673,67.5317172 156.946673,67.1527106 L156.946673,63.1310495 C157.023878,63.1170122 157.146703,63.0977112 157.31515,63.073146 C157.483597,63.0485807 157.645024,63.0362983 157.799434,63.0362983 C157.960863,63.0362983 158.102988,63.0485807 158.225814,63.073146 C158.34864,63.0977112 158.452164,63.1415771 158.536387,63.2047448 C158.620611,63.2679126 158.683778,63.3556443 158.72589,63.4679425 C158.768002,63.5802408 158.789057,63.72763 158.789057,63.9101147 L158.789057,67.1211268 C158.789057,67.4580216 158.882053,67.7212167 159.068047,67.91072 C159.254041,68.1002233 159.494426,68.1949735 159.789209,68.1949735 C160.09101,68.1949735 160.33315,68.1002233 160.515634,67.91072 C160.698119,67.7212167 160.78936,67.4580216 160.78936,67.1211268 L160.78936,63.1310495 C160.866565,63.1170122 160.989389,63.0977112 161.157837,63.073146 C161.326284,63.0485807 161.48771,63.0362983 161.64212,63.0362983 C161.803549,63.0362983 161.945675,63.0485807 162.068501,63.073146 C162.191327,63.0977112 162.29485,63.1415771 162.379074,63.2047448 C162.463298,63.2679126 162.526465,63.3556443 162.568576,63.4679425 C162.610688,63.5802408 162.631744,63.72763 162.631744,63.9101147 L162.631744,67.1527106 Z M163.968788,64.110145 C163.968788,63.8083434 164.05652,63.5697132 164.231986,63.3942472 C164.407452,63.2187812 164.646082,63.1310495 164.947884,63.1310495 L168.422094,63.1310495 C168.471224,63.2082545 168.51509,63.3100233 168.553692,63.4363588 C168.592295,63.5626943 168.611596,63.6960465 168.611596,63.8364193 C168.611596,64.1031277 168.553693,64.2926282 168.437885,64.4049264 C168.322078,64.5172247 168.169425,64.5733729 167.979921,64.5733729 L165.758533,64.5733729 L165.758533,65.5524684 L168.127312,65.5524684 C168.176443,65.6296735 168.220308,65.7296876 168.258911,65.8525138 C168.297514,65.9753401 168.316814,66.1069376 168.316814,66.2473104 C168.316814,66.5140188 168.260666,66.7035192 168.148368,66.8158175 C168.03607,66.9281157 167.885171,66.984264 167.695668,66.984264 L165.758533,66.984264 L165.758533,68.0896944 L168.464205,68.0896944 C168.513336,68.1668995 168.557202,68.2686682 168.595804,68.3950038 C168.634407,68.5213393 168.653708,68.6546915 168.653708,68.7950643 C168.653708,69.0617727 168.595805,69.2530278 168.479997,69.3688353 C168.36419,69.4846429 168.211536,69.5425458 168.022033,69.5425458 L164.947884,69.5425458 C164.646082,69.5425458 164.407452,69.4548141 164.231986,69.2793481 C164.05652,69.1038821 163.968788,68.8652519 163.968788,68.5634503 L163.968788,64.110145 Z M127.015829,75.7469933 C126.707009,75.6417137 126.426267,75.534681 126.173596,75.4258921 C125.920925,75.3171032 125.703351,75.1855056 125.520866,75.0310955 C125.338381,74.8766854 125.196256,74.6924489 125.094486,74.4783803 C124.992715,74.2643118 124.941831,74.0028713 124.941831,73.6940511 C124.941831,73.0974666 125.171688,72.6202062 125.631409,72.2622555 C126.09113,71.9043049 126.735081,71.7253322 127.56328,71.7253322 C127.865082,71.7253322 128.145823,71.7463878 128.405513,71.7884997 C128.665203,71.8306115 128.888041,71.895533 129.074035,71.983266 C129.260029,72.070999 129.405664,72.1832955 129.510943,72.320159 C129.616223,72.4570225 129.668862,72.6166942 129.668862,72.7991789 C129.668862,72.9816635 129.626751,73.137826 129.542527,73.2676708 C129.458303,73.3975157 129.356535,73.5080576 129.237218,73.5992999 C129.082808,73.501039 128.875761,73.4150619 128.616071,73.3413662 C128.356381,73.2676704 128.072131,73.2308231 127.76331,73.2308231 C127.447472,73.2308231 127.21586,73.274689 127.068469,73.362422 C126.921077,73.450155 126.847382,73.5606969 126.847382,73.6940511 C126.847382,73.7993307 126.893003,73.8853078 126.984245,73.9519849 C127.075488,74.018662 127.212349,74.0800742 127.394834,74.1362233 L127.952813,74.3151977 C128.612565,74.525757 129.119654,74.7942159 129.474096,75.1205827 C129.828537,75.4469495 130.005755,75.8908719 130.005755,76.4523632 C130.005755,77.0489476 129.770634,77.531472 129.300385,77.8999506 C128.830136,78.2684293 128.13881,78.4526658 127.226387,78.4526658 C126.90353,78.4526658 126.603487,78.4263463 126.326251,78.3737065 C126.049015,78.3210667 125.806875,78.2438628 125.599825,78.1420925 C125.392775,78.0403222 125.231349,77.9139886 125.115541,77.7630878 C124.999734,77.612187 124.941831,77.4384783 124.941831,77.2419563 C124.941831,77.0384157 125.001489,76.864707 125.120805,76.7208248 C125.240122,76.5769427 125.369965,76.4664008 125.510338,76.3891957 C125.70686,76.5436058 125.947245,76.676958 126.2315,76.7892563 C126.515755,76.9015545 126.826325,76.9577028 127.16322,76.9577028 C127.507133,76.9577028 127.749273,76.9050638 127.889645,76.7997842 C128.030018,76.6945045 128.100204,76.5716802 128.100204,76.4313074 C128.100204,76.2909345 128.044055,76.1839019 127.931757,76.1102061 C127.819459,76.0365104 127.661542,75.9645704 127.458001,75.894384 L127.015829,75.7469933 Z M136.712033,78.2421076 C136.634828,78.2631636 136.513758,78.2842192 136.34882,78.3052751 C136.183882,78.326331 136.020701,78.3368588 135.859272,78.3368588 C135.697843,78.3368588 135.555718,78.3245764 135.432892,78.3000111 C135.310066,78.2754459 135.206542,78.2315801 135.122319,78.1684123 C135.038095,78.1052445 134.974928,78.0175128 134.932816,77.9052146 C134.890704,77.7929163 134.869649,77.6455271 134.869649,77.4630424 L134.869649,75.8206887 L132.84829,75.8206887 L132.84829,78.2421076 C132.771085,78.2631636 132.650016,78.2842192 132.485077,78.3052751 C132.320139,78.326331 132.156958,78.3368588 131.99553,78.3368588 C131.834101,78.3368588 131.691976,78.3245764 131.569149,78.3000111 C131.446323,78.2754459 131.3428,78.2315801 131.258576,78.1684123 C131.174352,78.1052445 131.111186,78.0175128 131.069074,77.9052146 C131.026962,77.7929163 131.005906,77.6455271 131.005906,77.4630424 L131.005906,71.9043067 C131.083111,71.8902694 131.205936,71.8709684 131.374383,71.8464032 C131.542831,71.8218379 131.704257,71.8095555 131.858667,71.8095555 C132.020096,71.8095555 132.162221,71.8218379 132.285047,71.8464032 C132.407873,71.8709684 132.511397,71.9148342 132.595621,71.978002 C132.679844,72.0411698 132.743011,72.1289015 132.785123,72.2411997 C132.827235,72.353498 132.84829,72.5008872 132.84829,72.6833719 L132.84829,74.3678373 L134.869649,74.3678373 L134.869649,71.9043067 C134.946854,71.8902694 135.069678,71.8709684 135.238126,71.8464032 C135.406573,71.8218379 135.567999,71.8095555 135.722409,71.8095555 C135.883838,71.8095555 136.025963,71.8218379 136.14879,71.8464032 C136.271616,71.8709684 136.375139,71.9148342 136.459363,71.978002 C136.543587,72.0411698 136.606754,72.1289015 136.648865,72.2411997 C136.690977,72.353498 136.712033,72.5008872 136.712033,72.6833719 L136.712033,78.2421076 Z M139.438761,72.093809 C139.558078,72.0236226 139.738805,71.9569465 139.980948,71.8937787 C140.223092,71.830611 140.466986,71.7990276 140.712638,71.7990276 C141.06357,71.7990276 141.37414,71.8499119 141.644358,71.9516822 C141.914576,72.0534525 142.088284,72.2131242 142.165489,72.4307021 C142.291825,72.7956714 142.428686,73.2202928 142.576078,73.704579 C142.723469,74.1888652 142.870859,74.6889359 143.01825,75.204806 C143.165642,75.7206761 143.309522,76.2295199 143.449894,76.7313528 C143.590267,77.2331856 143.713092,77.677108 143.818371,78.0631332 C143.734147,78.1613942 143.607814,78.2403527 143.439366,78.3000111 C143.270919,78.3596696 143.070891,78.3894984 142.839276,78.3894984 C142.670828,78.3894984 142.528703,78.3754613 142.412895,78.3473867 C142.297088,78.3193122 142.202338,78.277201 142.128642,78.2210518 C142.054946,78.1649027 141.995289,78.0912081 141.949667,77.9999657 C141.904046,77.9087234 141.86369,77.8034454 141.828596,77.6841285 L141.639094,76.9577028 L139.733543,76.9577028 C139.677393,77.168262 139.621245,77.3858366 139.565096,77.6104331 C139.508947,77.8350296 139.452799,78.0526042 139.39665,78.2631635 C139.298389,78.2982567 139.194865,78.3280854 139.086076,78.3526507 C138.977287,78.3772159 138.84569,78.3894984 138.69128,78.3894984 C138.333329,78.3894984 138.068379,78.3280862 137.896423,78.20526 C137.724466,78.0824337 137.638489,77.9122343 137.638489,77.6946564 C137.638489,77.5963954 137.652526,77.4981359 137.6806,77.399875 C137.708675,77.301614 137.740258,77.1858081 137.775352,77.052454 C137.824482,76.8629507 137.892913,76.6278297 137.980646,76.3470841 C138.068379,76.0663385 138.164884,75.7627868 138.270163,75.43642 C138.375443,75.1100532 138.487739,74.7749181 138.607056,74.4310047 C138.726373,74.0870913 138.83867,73.762484 138.943949,73.4571732 C139.049229,73.1518623 139.145734,72.879894 139.233467,72.6412603 C139.3212,72.4026265 139.389631,72.2201445 139.438761,72.093809 Z M140.70211,73.4519092 C140.603849,73.7466921 140.493307,74.0748087 140.370481,74.4362687 C140.247655,74.7977287 140.137113,75.1644472 140.038852,75.5364351 L141.344313,75.5364351 C141.246052,75.1574285 141.146037,74.7872008 141.044267,74.4257408 C140.942497,74.0642808 140.849501,73.7396735 140.765278,73.4519092 L140.70211,73.4519092 Z M146.513516,76.2207492 L146.513516,78.2421076 C146.436311,78.2631636 146.315241,78.2842192 146.150303,78.3052751 C145.985365,78.326331 145.822184,78.3368588 145.660755,78.3368588 C145.499326,78.3368588 145.357201,78.3245764 145.234375,78.3000111 C145.111549,78.2754459 145.00978,78.2315801 144.929065,78.1684123 C144.848351,78.1052445 144.786939,78.0175128 144.744827,77.9052146 C144.702715,77.7929163 144.68166,77.6455271 144.68166,77.4630424 L144.68166,72.5043974 C144.68166,72.357006 144.722016,72.2429548 144.802731,72.1622404 C144.883445,72.081526 144.993987,72.0166046 145.13436,71.9674741 C145.372993,71.8832504 145.650226,71.8218382 145.966064,71.7832357 C146.281903,71.7446332 146.618793,71.7253322 146.976744,71.7253322 C147.945316,71.7253322 148.675244,71.9288697 149.166549,72.3359509 C149.657854,72.7430321 149.903502,73.2939871 149.903502,73.9888326 C149.903502,74.4239883 149.791206,74.7959707 149.566609,75.1047909 C149.342013,75.4136111 149.075308,75.6522413 148.766488,75.8206887 C149.019159,76.1646021 149.268317,76.4874547 149.51397,76.7892563 C149.759622,77.0910578 149.952632,77.3647807 150.093005,77.6104331 C150.022818,77.8560856 149.89473,78.0438314 149.708736,78.1736762 C149.522742,78.3035211 149.313941,78.3684425 149.082325,78.3684425 C148.927915,78.3684425 148.794563,78.3508962 148.682265,78.315803 C148.569967,78.2807098 148.471707,78.2315801 148.387483,78.1684123 C148.30326,78.1052445 148.226056,78.0280406 148.155869,77.9367983 C148.085683,77.845556 148.019007,77.7472965 147.955839,77.6420169 L147.071495,76.2207492 L146.513516,76.2207492 Z M147.176774,74.8205373 C147.443482,74.8205373 147.654038,74.7521066 147.808448,74.6152431 C147.962859,74.4783796 148.040062,74.2765967 148.040062,74.0098884 C148.040062,73.74318 147.954085,73.5413971 147.782129,73.4045336 C147.610172,73.2676701 147.338204,73.1992394 146.966216,73.1992394 C146.860936,73.1992394 146.776714,73.2027487 146.713546,73.2097673 C146.650378,73.216786 146.580193,73.2273138 146.502988,73.241351 L146.502988,74.8205373 L147.176774,74.8205373 Z M151.093156,72.8834022 C151.093156,72.5816006 151.180888,72.3429704 151.356354,72.1675044 C151.53182,71.9920383 151.77045,71.9043067 152.072251,71.9043067 L155.546461,71.9043067 C155.595592,71.9815117 155.639458,72.0832805 155.67806,72.209616 C155.716663,72.3359515 155.735964,72.4693037 155.735964,72.6096765 C155.735964,72.8763849 155.678061,73.0658853 155.562253,73.1781836 C155.446446,73.2904818 155.293792,73.3466301 155.104289,73.3466301 L152.8829,73.3466301 L152.8829,74.3257256 L155.25168,74.3257256 C155.30081,74.4029307 155.344676,74.5029448 155.383279,74.625771 C155.421881,74.7485972 155.441182,74.8801948 155.441182,75.0205676 C155.441182,75.287276 155.385034,75.4767764 155.272736,75.5890747 C155.160437,75.7013729 155.009539,75.7575212 154.820036,75.7575212 L152.8829,75.7575212 L152.8829,76.8629516 L155.588573,76.8629516 C155.637703,76.9401567 155.681569,77.0419254 155.720172,77.168261 C155.758774,77.2945965 155.778075,77.4279487 155.778075,77.5683215 C155.778075,77.8350298 155.720172,78.0262849 155.604365,78.1420925 C155.488557,78.2579001 155.335904,78.315803 155.146401,78.315803 L152.072251,78.315803 C151.77045,78.315803 151.53182,78.2280713 151.356354,78.0526053 C151.180888,77.8771393 151.093156,77.6385091 151.093156,77.3367075 L151.093156,72.8834022 Z" id="20%-REVENUE-SHARE" fill="#FFFFFF"></path>
                <g id="Group-9" transform="translate(0.308224, 40.366289)">
                    <g id="Group" transform="translate(0.062043, 23.376729)">
                        <polygon id="Rectangle-Copy-3" fill="#67C9B9" points="81.9950453 16.4604357 81.9950453 19.7137739 36.0218318 46.7316442 0.0239919136 30.2855154 0.0239919136 27.0397637"></polygon>
                        <polygon id="Rectangle-Copy-4" fill="#68E2C2" points="45.9972054 0.00881745818 81.9950453 16.4549463 36.0218318 43.4728166 0.0239919136 27.0266877"></polygon>
                        <polygon id="Rectangle-Copy-5" fill="#2FC5B0" points="74.3635331 15.8230084 77.0867578 17.0156911 67.3711161 22.7254497 64.6478914 21.5327669"></polygon>
                        <mask id="mask-2" fill="white">
                            <use xlink:href="#path-1"></use>
                        </mask>
                        <use id="Oval-5" fill="#2FC5B0" xlink:href="#path-1"></use>
                    </g>
                    <g id="Group-Copy" transform="translate(0.000000, 15.584486)">
                        <polygon id="Rectangle-Copy-3" fill="#67C9B9" points="81.9950453 16.4604357 81.9950453 19.7137739 36.0218318 46.7316442 0.0239919136 30.2855154 0.0239919136 27.0397637"></polygon>
                        <polygon id="Rectangle-Copy-4" fill="#68E2C2" points="45.9972054 0.00881745818 81.9950453 16.4549463 36.0218318 43.4728166 0.0239919136 27.0266877"></polygon>
                        <polygon id="Rectangle-Copy-5" fill="#2FC5B0" points="74.3635331 15.8230084 77.0867578 17.0156911 67.3711161 22.7254497 64.6478914 21.5327669"></polygon>
                        <mask id="mask-4" fill="white">
                            <use xlink:href="#path-3"></use>
                        </mask>
                        <use id="Oval-5" fill="#2FC5B0" xlink:href="#path-3"></use>
                    </g>
                    <g id="Group-Copy-2" transform="translate(0.000000, 7.792243)">
                        <polygon id="Rectangle-Copy-3" fill="#67C9B9" points="81.9950453 16.4604357 81.9950453 19.7137739 36.0218318 46.7316442 0.0239919136 30.2855154 0.0239919136 27.0397637"></polygon>
                        <polygon id="Rectangle-Copy-4" fill="#68E2C2" points="45.9972054 0.00881745818 81.9950453 16.4549463 36.0218318 43.4728166 0.0239919136 27.0266877"></polygon>
                        <polygon id="Rectangle-Copy-5" fill="#2FC5B0" points="74.3635331 15.8230084 77.0867578 17.0156911 67.3711161 22.7254497 64.6478914 21.5327669"></polygon>
                        <mask id="mask-6" fill="white">
                            <use xlink:href="#path-5"></use>
                        </mask>
                        <use id="Oval-5" fill="#2FC5B0" xlink:href="#path-5"></use>
                    </g>
                    <g id="Group-Copy-3">
                        <polygon id="Rectangle-Copy-3" fill="#67C9B9" points="81.9950453 16.4604357 81.9950453 19.7137739 36.0218318 46.7316442 0.0239919136 30.2855154 0.0239919136 27.0397637"></polygon>
                        <polygon id="Rectangle-Copy-4" fill="#68E2C2" points="45.9972054 0.00881745818 81.9950453 16.4549463 36.0218318 43.4728166 0.0239919136 27.0266877"></polygon>
                        <polygon id="Rectangle-Copy-5" fill="#2FC5B0" points="74.3635331 15.8230084 77.0867578 17.0156911 67.3711161 22.7254497 64.6478914 21.5327669"></polygon>
                        <mask id="mask-8" fill="white">
                            <use xlink:href="#path-7"></use>
                        </mask>
                        <use id="Oval-5" fill="#2FC5B0" xlink:href="#path-7"></use>
                    </g>
                </g>
                <g id="Group-10" transform="translate(440.697070, 0.023002)">
                    <circle id="Oval-7-Copy-4" fill="#70D1B8" cx="13.5983595" cy="13.6129373" r="13.4305767"></circle>
                    <path d="M12.6615383,14.7501703 L10.2560207,12.4040575 C9.61767147,11.7814725 8.59548234,11.7942519 7.97289732,12.4326011 C7.35031231,13.0709502 7.3630917,14.0931394 8.00144088,14.7157244 L11.7333478,18.3554711 C12.4345469,19.0393539 13.5782466,18.9463909 14.159795,18.1582428 L20.083716,10.1298016 C20.613139,9.4122968 20.4606686,8.40146213 19.7431639,7.87203913 C19.0256591,7.34261612 18.0148244,7.4950865 17.4854014,8.21259125 L12.6615383,14.7501703 Z" id="Path-3" fill="#FFFFFF" fill-rule="nonzero"></path>
                </g>
            </g>
        </g>
    </g>
</svg>