<?xml version="1.0" encoding="UTF-8"?>
<svg width="21px" height="20px" viewBox="0 0 21 20" version="1.1" xmlns="http://www.w3.org/2000/svg" xmlns:xlink="http://www.w3.org/1999/xlink">
    <!-- Generator: Sketch 47 (45396) - http://www.bohemiancoding.com/sketch -->
    <title>Combined Shape</title>
    <desc>Created with Sketch.</desc>
    <defs></defs>
    <g id="Page-1" stroke="none" stroke-width="1" fill="none" fill-rule="evenodd">
        <g id="Tenant-Wizard---Proposal-Dashboard" transform="translate(-41.000000, -414.000000)" fill-rule="nonzero" fill="#767676">
            <g id="Side-Bar" transform="translate(1.000000, 1.000000)">
                <g id="Settings-Tab" transform="translate(40.000000, 407.000000)">
                    <path d="M4.43440405,14.7308468 L2.98958807,14.7308468 C2.51359471,14.7308468 2.12772585,15.1167156 2.12772585,15.592709 L2.12772585,16.407291 C2.12772585,16.8832844 2.51359471,17.2691532 2.98958807,17.2691532 L4.43440405,17.2691532 L4.54699868,17.6977322 C4.69587889,18.2644281 4.91937348,18.8083379 5.21183858,19.3166881 L5.43135406,19.6982404 L4.20144427,20.9281502 C3.86486614,21.2647283 3.86486614,21.8104293 4.20144427,22.1470074 L4.71695926,22.6625224 C5.05353739,22.9991006 5.59923837,22.9991006 5.9358165,22.6625224 L7.14169737,21.4566416 L7.52755269,21.691926 C8.07698929,22.0269579 8.67096381,22.2799835 9.29255104,22.4432845 L9.72112998,22.5558791 L9.72112998,23.9889882 C9.72112998,24.4649815 10.1069988,24.8508504 10.5829922,24.8508504 L11.3975742,24.8508504 C11.8735675,24.8508504 12.2594364,24.4649815 12.2594364,23.9889882 L12.2594364,22.5558791 L12.6880154,22.4432845 C13.3051666,22.2811489 13.8951136,22.0305613 14.4412962,21.6990545 L14.8268172,21.4650615 L16.0242782,22.6625224 C16.3608563,22.9991006 16.9065573,22.9991006 17.2431354,22.6625224 L17.7586504,22.1470074 C18.0952286,21.8104293 18.0952286,21.2647283 17.7586504,20.9281502 L16.5410555,19.7105553 L16.7618352,19.3286398 C17.0576731,18.8168852 17.2835156,18.2688886 17.4335677,17.6977322 L17.5461623,17.2691532 L18.9792714,17.2691532 C19.4552647,17.2691532 19.8411336,16.8832844 19.8411336,16.407291 L19.8411336,15.592709 C19.8411336,15.1167156 19.4552647,14.7308468 18.9792714,14.7308468 L17.5461623,14.7308468 L17.4335677,14.3022678 C17.2730849,13.691408 17.0259395,13.1071785 16.6994068,12.5656314 L16.4672402,12.1805884 L17.7586504,10.8891782 C18.0952286,10.5526 18.0952286,10.0068991 17.7586504,9.67032094 L17.2431354,9.15480595 C16.9065573,8.81822782 16.3608563,8.81822782 16.0242782,9.15480595 L14.7182543,10.4608298 L14.3358285,10.238254 C13.8192709,9.93761196 13.2654906,9.70842759 12.6880154,9.55671549 L12.2594364,9.44412086 L12.2594364,8.01101183 C12.2594364,7.53501848 11.8735675,7.14914962 11.3975742,7.14914962 L10.5829922,7.14914962 C10.1069988,7.14914962 9.72112998,7.53501848 9.72112998,8.01101183 L9.72112998,9.44412086 L9.29255104,9.55671549 C8.71060859,9.7096012 8.15274325,9.94115921 7.63280397,10.2452162 L7.24710806,10.4707686 L7.16870502,10.3912063 L6.93361923,10.1526443 C6.93219901,10.1512066 6.58051604,9.79950976 5.9358165,9.15480595 C5.59923837,8.81822782 5.05353739,8.81822782 4.71695926,9.15480595 L4.20144427,9.67032094 C3.86486614,10.0068991 3.86486614,10.5526 4.20144427,10.8891782 L5.50496202,12.1926959 L5.27408103,12.5773985 C4.95104133,13.1156593 4.70631476,13.6958489 4.54699868,14.3022678 L4.43440405,14.7308468 Z M3.38887278,11.7017497 C2.60352381,10.9164007 2.60352381,9.64309842 3.38887278,8.85774945 L3.90438778,8.34223446 C4.68973675,7.55688549 5.96303901,7.55688549 6.74838798,8.34223446 L7.44488321,9.03872969 C7.80785837,8.85352112 8.18461679,8.69719725 8.57198037,8.57117836 L8.57198037,8.01101183 C8.57198037,6.90036067 9.47234103,6 10.5829922,6 L11.3975742,6 C12.5082254,6 13.408586,6.90036067 13.408586,8.01101183 L13.408586,8.57117834 C13.7911192,8.69562577 14.1633162,8.8496291 14.5221169,9.0318243 L15.2117067,8.34223446 C15.9970557,7.55688549 17.2703579,7.55688549 18.0557069,8.34223446 L18.5712219,8.85774945 C19.3565709,9.64309842 19.3565709,10.9164007 18.5712219,11.7017497 L17.9060915,12.3668801 C18.1112725,12.7567008 18.2828855,13.1629799 18.4191047,13.5816972 L18.9792714,13.5816972 C20.0899225,13.5816972 20.9902832,14.4820578 20.9902832,15.592709 L20.9902832,16.407291 C20.9902832,17.5179422 20.0899225,18.4183028 18.9792714,18.4183028 L18.4191049,18.4183028 C18.2968866,18.793984 18.146159,19.1597042 17.9682091,19.5125659 L18.5712219,20.1155787 C19.3565709,20.9009277 19.3565709,22.17423 18.5712219,22.9595789 L18.0557069,23.4750939 C17.2703579,24.2604429 15.9970557,24.2604429 15.2117067,23.4750939 L14.6423927,22.90578 C14.2467947,23.1153965 13.8341188,23.290385 13.408586,23.4288214 L13.408586,23.9889882 C13.408586,25.0996393 12.5082254,26 11.3975742,26 L10.5829922,26 C9.47234103,26 8.57198037,25.0996393 8.57198037,23.9889882 L8.57198037,23.4288214 C8.14164267,23.2888218 7.72446148,23.1114425 7.32480312,22.8986788 L6.74838798,23.4750939 C5.96303901,24.2604429 4.68973675,24.2604429 3.90438778,23.4750939 L3.38887278,22.9595789 C2.60352381,22.17423 2.60352381,20.9009277 3.38887278,20.1155787 L4.00550553,19.498946 C3.83053212,19.1502895 3.68210595,18.7891464 3.56146149,18.4183028 L2.98958807,18.4183028 C1.8789369,18.4183028 0.978576234,17.5179422 0.978576234,16.407291 L0.978576234,15.592709 C0.978576234,14.4820578 1.8789369,13.5816972 2.98958807,13.5816972 L3.56146168,13.5816972 C3.69611552,13.1677915 3.86535673,12.7660328 4.06742643,12.3803033 L3.38887278,11.7017497 Z M10.9844297,20.3075873 C8.60446293,20.3075873 6.67511864,18.3782431 6.67511864,15.9982763 C6.67511864,13.6183095 8.60446293,11.6889652 10.9844297,11.6889652 C13.3643965,11.6889652 15.2937408,13.6183095 15.2937408,15.9982763 C15.2937408,18.3782431 13.3643965,20.3075873 10.9844297,20.3075873 Z M10.9844297,19.1584377 C12.7297387,19.1584377 14.1445912,17.7435853 14.1445912,15.9982763 C14.1445912,14.2529673 12.7297387,12.8381148 10.9844297,12.8381148 C9.23912074,12.8381148 7.82426826,14.2529673 7.82426826,15.9982763 C7.82426826,17.7435853 9.23912074,19.1584377 10.9844297,19.1584377 Z" id="Combined-Shape"></path>
                </g>
            </g>
        </g>
    </g>
</svg>