<?xml version="1.0" encoding="UTF-8"?>
<svg width="87px" height="99px" viewBox="0 0 87 99" version="1.1" xmlns="http://www.w3.org/2000/svg" xmlns:xlink="http://www.w3.org/1999/xlink">
    <!-- Generator: Sketch 48.2 (47327) - http://www.bohemiancoding.com/sketch -->
    <title>Logo</title>
    <desc>Created with Sketch.</desc>
    <defs>
        <filter x="-4.5%" y="-3.2%" width="109.1%" height="106.4%" filterUnits="objectBoundingBox" id="filter-1">
            <feOffset dx="0" dy="0" in="SourceAlpha" result="shadowOffsetOuter1"></feOffset>
            <feGaussianBlur stdDeviation="7.5" in="shadowOffsetOuter1" result="shadowBlurOuter1"></feGaussianBlur>
            <feColorMatrix values="0 0 0 0 0   0 0 0 0 0   0 0 0 0 0  0 0 0 0.15 0" type="matrix" in="shadowBlurOuter1" result="shadowMatrixOuter1"></feColorMatrix>
            <feMerge>
                <feMergeNode in="shadowMatrixOuter1"></feMergeNode>
                <feMergeNode in="SourceGraphic"></feMergeNode>
            </feMerge>
        </filter>
    </defs>
    <g id="Tenant-Wizard---Create-Your-Proposal---Hide-Name" stroke="none" stroke-width="1" fill="none" fill-rule="evenodd" transform="translate(-726.000000, -215.000000)">
        <g id="Group-5" transform="translate(339.000000, 229.000000)">
            <g id="Section-1" filter="url(#filter-1)" transform="translate(0.660414, 0.619975)">
                <g transform="translate(-10.532612, -38.440444)" id="Logo">
                    <g transform="translate(411.732168, 0.000000)">
                        <path d="M-22.4812655,25.7614783 L54.2833847,25.7614783 C69.8893604,25.7614783 82.5405033,38.4126212 82.5405033,54.0185969 L82.5405033,79.2757155 C82.5405033,80.9325697 81.1973576,82.2757155 79.5405033,82.2757155 L2.77585313,82.2757155 C-12.8301225,82.2757155 -25.4812655,69.6245725 -25.4812655,54.0185969 L-25.4812655,28.7614783 C-25.4812655,27.104624 -24.1381197,25.7614783 -22.4812655,25.7614783 Z" id="Rectangle-12" fill="#E24660" transform="translate(28.529619, 54.018597) rotate(-270.000000) translate(-28.529619, -54.018597) "></path>
                        <g id="Group-Copy-2" transform="translate(14.636816, 56.039368)" fill="#FFFFFF">
                            <g id="Group-3" transform="translate(7.623854, 0.150839)">
                                <path d="M7.67085258,10.4834838 L7.62823673,3.85465419 L7.62823673,3.85465419 C5.90943393,3.85465419 4.51606895,5.24801916 4.51606895,6.96682197 C4.51606895,6.973485 4.51609035,6.98014801 4.51613314,6.9868109 L4.53863126,10.489573 C4.53863126,12.1531381 3.2238905,13.509629 1.57678636,13.5766684 C0.69959138,13.5802354 0,14.2798268 0,15.1428165 C0,16.0058062 0.69959138,16.7053975 1.56258108,16.7053975 C1.60084417,16.7053975 1.63878605,16.7040223 1.67635997,16.7013184 C5.00727734,16.5816403 7.67085258,13.8436177 7.67085258,10.4834838 Z" id="Combined-Shape-Copy" opacity="0.7" transform="translate(3.835426, 10.280026) scale(-1, 1) translate(-3.835426, -10.280026) "></path>
                                <path d="M12.3728011,10.4834838 L12.3301853,3.85465419 L12.3301853,3.85465419 C10.6113825,3.85465419 9.21801747,5.24801916 9.21801747,6.96682197 C9.21801747,6.973485 9.21803887,6.98014801 9.21808167,6.9868109 L9.24057978,10.489573 C9.24057978,12.1531381 7.92583902,13.509629 6.27873489,13.5766684 C5.4015399,13.5802354 4.70194852,14.2798268 4.70194852,15.1428165 C4.70194852,16.0058062 5.4015399,16.7053975 6.26452961,16.7053975 C6.3027927,16.7053975 6.34073457,16.7040223 6.3783085,16.7013184 C9.70922587,16.5816403 12.3728011,13.8436177 12.3728011,10.4834838 Z" id="Combined-Shape"></path>
                                <circle id="Oval-Copy" cx="10.8282285" cy="1.55990496" r="1.5445726"></circle>
                                <circle id="Oval-Copy-3" opacity="0.7" cx="1.5445726" cy="1.55990496" r="1.5445726"></circle>
                            </g>
                            <path d="M1.6123766,29.0448995 C1.54566346,29.0570291 1.44711145,29.0737072 1.31671759,29.0949341 C1.18632374,29.116161 1.05441565,29.1267743 0.920989385,29.1267743 C0.787563116,29.1267743 0.667784512,29.1176772 0.561649979,29.0994827 C0.455515447,29.0812882 0.36606054,29.0448998 0.293282575,28.9903163 C0.22050461,28.9357328 0.16440577,28.8614398 0.124984372,28.7674349 C0.0855629744,28.67343 0.0658525712,28.550619 0.0658525712,28.3989983 L0.0658525712,23.1226222 C0.132565706,23.1104925 0.231117722,23.0938145 0.361511576,23.0725876 C0.49190543,23.0513607 0.623813513,23.0407474 0.757239782,23.0407474 C0.890666052,23.0407474 1.01044466,23.0498445 1.11657919,23.068039 C1.22271372,23.0862335 1.31216863,23.1226219 1.38494659,23.1772054 C1.45772456,23.2317889 1.5138234,23.3060819 1.5532448,23.4000868 C1.59266619,23.4940917 1.6123766,23.6169026 1.6123766,23.7685234 L1.6123766,29.0448995 Z M4.92375745,29.1995519 C4.56593245,29.1995519 4.23388797,29.1495178 3.92761403,29.0494481 C3.6213401,28.9493784 3.35449156,28.7992761 3.12706042,28.5991367 C2.89962928,28.3989973 2.72071947,28.1473106 2.59032561,27.8440691 C2.45993176,27.5408275 2.39473581,27.1860403 2.39473581,26.7796966 C2.39473581,26.3794178 2.45993176,26.0352439 2.59032561,25.7471644 C2.72071947,25.459085 2.89204836,25.2225601 3.10431742,25.0375828 C3.31658649,24.8526055 3.55917606,24.7161489 3.83209343,24.6282088 C4.1050108,24.5402688 4.38398882,24.4962994 4.66903585,24.4962994 C4.99047186,24.4962994 5.28309554,24.5448173 5.54691566,24.6418546 C5.81073578,24.7388919 6.03816351,24.8723162 6.22920567,25.0421314 C6.42024783,25.2119467 6.56883395,25.4151154 6.67496848,25.6516438 C6.78110301,25.8881722 6.83416948,26.1459236 6.83416948,26.4249058 C6.83416948,26.6311101 6.77655446,26.7887933 6.66132268,26.8979602 C6.5460909,27.0071272 6.3853753,27.0768717 6.17917107,27.1071959 L3.93216263,27.4437923 C3.99887577,27.6439317 4.13533241,27.794034 4.34153664,27.8941037 C4.54774087,27.9941734 4.78426571,28.0442075 5.05111825,28.0442075 C5.2997763,28.0442075 5.53478495,28.0123676 5.75615126,27.9486869 C5.97751757,27.8850061 6.15794357,27.8107131 6.29743467,27.7258055 C6.39447196,27.7864538 6.47634594,27.8713601 6.54305908,27.9805271 C6.60977221,28.089694 6.64312828,28.2049241 6.64312828,28.3262207 C6.64312828,28.599138 6.51576875,28.8023068 6.26104587,28.9357331 C6.0669713,29.0388352 5.84864068,29.1085797 5.60604746,29.1449687 C5.36345424,29.1813577 5.13602651,29.1995519 4.92375745,29.1995519 Z M4.66903585,25.6243522 C4.52347992,25.6243522 4.39763657,25.6486112 4.29150204,25.6971298 C4.18536751,25.7456485 4.09894497,25.8078121 4.03223184,25.8836224 C3.9655187,25.9594328 3.9154846,26.0443392 3.88212803,26.138344 C3.84877147,26.2323489 3.82906106,26.3278686 3.82299623,26.4249058 L5.37861746,26.1701842 C5.36042297,26.0488876 5.29371083,25.9275928 5.17847905,25.8062962 C5.06324728,25.6849996 4.89343457,25.6243522 4.66903585,25.6243522 Z M9.12666392,27.5347643 C9.12666392,27.6924499 9.17669802,27.8046475 9.27676772,27.8713607 C9.37683742,27.9380738 9.51784261,27.9714299 9.69978753,27.9714299 C9.79075998,27.9714299 9.88476344,27.9638489 9.98180073,27.9486869 C10.078838,27.9335248 10.1637444,27.9138144 10.2365223,27.8895551 C10.2911058,27.9562682 10.3381075,28.0305613 10.3775289,28.1124365 C10.4169503,28.1943117 10.4366607,28.2928637 10.4366607,28.4080955 C10.4366607,28.638559 10.3502382,28.826566 10.1773905,28.9721219 C10.0045429,29.1176778 9.69978971,29.1904547 9.26312192,29.1904547 C8.72941684,29.1904547 8.31853075,29.0691599 8.0304513,28.8265667 C7.74237186,28.5839735 7.59833429,28.1897654 7.59833429,27.6439307 L7.59833429,23.750329 C7.66504743,23.7321345 7.76056707,23.7124241 7.8848961,23.6911972 C8.00922512,23.6699703 8.1411332,23.659357 8.2806243,23.659357 C8.54747684,23.659357 8.75519417,23.7063587 8.90378251,23.8003636 C9.05237086,23.8943685 9.12666392,24.0929887 9.12666392,24.3962302 L9.12666392,24.978451 L10.3183971,24.978451 C10.3547861,25.0451642 10.3896584,25.1285543 10.4230149,25.228624 C10.4563715,25.3286937 10.4730495,25.4393752 10.4730495,25.5606718 C10.4730495,25.7729409 10.4260478,25.9260756 10.3320429,26.0200804 C10.2380381,26.1140853 10.1121947,26.161087 9.95450913,26.161087 L9.12666392,26.161087 L9.12666392,27.5347643 Z M16.22248,27.0162239 C16.22248,27.3437247 16.1663812,27.6424131 16.0541818,27.9122981 C15.9419825,28.182183 15.7797507,28.4126431 15.5674816,28.6036853 C15.3552126,28.7947274 15.0974611,28.9417974 14.7942196,29.0448995 C14.4909781,29.1480016 14.1483203,29.1995519 13.766236,29.1995519 C13.3841517,29.1995519 13.0414939,29.1480016 12.7382524,29.0448995 C12.4350109,28.9417974 12.1772594,28.7947274 11.9649904,28.6036853 C11.7527213,28.4126431 11.5904895,28.182183 11.4782902,27.9122981 C11.3660908,27.6424131 11.309992,27.3437247 11.309992,27.0162239 L11.309992,23.5410934 C11.3767051,23.5289637 11.482838,23.5122857 11.628394,23.4910588 C11.7739499,23.4698319 11.9134389,23.4592186 12.0468652,23.4592186 C12.1863563,23.4592186 12.3091672,23.4698319 12.4153018,23.4910588 C12.5214363,23.5122857 12.6108912,23.5501903 12.6836692,23.6047738 C12.7564471,23.6593573 12.8110298,23.7351665 12.8474188,23.8322038 C12.8838078,23.9292411 12.902002,24.0566006 12.902002,24.2142862 L12.902002,26.9889323 C12.902002,27.2800441 12.9823598,27.5074718 13.1430778,27.6712223 C13.3037958,27.8349727 13.5115131,27.9168467 13.766236,27.9168467 C14.0270237,27.9168467 14.2362572,27.8349727 14.3939428,27.6712223 C14.5516284,27.5074718 14.63047,27.2800441 14.63047,26.9889323 L14.63047,23.5410934 C14.6971831,23.5289637 14.8033161,23.5122857 14.948872,23.4910588 C15.0944279,23.4698319 15.2339169,23.4592186 15.3673432,23.4592186 C15.5068343,23.4592186 15.6296453,23.4698319 15.7357798,23.4910588 C15.8419144,23.5122857 15.9313693,23.5501903 16.0041472,23.6047738 C16.0769252,23.6593573 16.1315078,23.7351665 16.1678968,23.8322038 C16.2042858,23.9292411 16.22248,24.0566006 16.22248,24.2142862 L16.22248,27.0162239 Z M18.8333765,29.0448995 C18.7666633,29.0570291 18.6681113,29.0737072 18.5377175,29.0949341 C18.4073236,29.116161 18.2754155,29.1267743 18.1419893,29.1267743 C18.008563,29.1267743 17.8887844,29.1176772 17.7826499,29.0994827 C17.6765153,29.0812882 17.5870604,29.0448998 17.5142825,28.9903163 C17.4415045,28.9357328 17.3854056,28.8614398 17.3459843,28.7674349 C17.3065629,28.67343 17.2868524,28.550619 17.2868524,28.3989983 L17.2868524,23.1226222 C17.3535656,23.1104925 17.4521176,23.0938145 17.5825115,23.0725876 C17.7129053,23.0513607 17.8448134,23.0407474 17.9782397,23.0407474 C18.1116659,23.0407474 18.2314445,23.0498445 18.3375791,23.068039 C18.4437136,23.0862335 18.5331685,23.1226219 18.6059465,23.1772054 C18.6787244,23.2317889 18.7348233,23.3060819 18.7742447,23.4000868 C18.8136661,23.4940917 18.8333765,23.6169026 18.8333765,23.7685234 L18.8333765,29.0448995 Z M22.1447573,29.1995519 C21.7869323,29.1995519 21.4548878,29.1495178 21.1486139,29.0494481 C20.84234,28.9493784 20.5754914,28.7992761 20.3480603,28.5991367 C20.1206292,28.3989973 19.9417193,28.1473106 19.8113255,27.8440691 C19.6809316,27.5408275 19.6157357,27.1860403 19.6157357,26.7796966 C19.6157357,26.3794178 19.6809316,26.0352439 19.8113255,25.7471644 C19.9417193,25.459085 20.1130482,25.2225601 20.3253173,25.0375828 C20.5375864,24.8526055 20.7801759,24.7161489 21.0530933,24.6282088 C21.3260107,24.5402688 21.6049887,24.4962994 21.8900357,24.4962994 C22.2114717,24.4962994 22.5040954,24.5448173 22.7679155,24.6418546 C23.0317357,24.7388919 23.2591634,24.8723162 23.4502055,25.0421314 C23.6412477,25.2119467 23.7898338,25.4151154 23.8959684,25.6516438 C24.0021029,25.8881722 24.0551694,26.1459236 24.0551694,26.4249058 C24.0551694,26.6311101 23.9975543,26.7887933 23.8823226,26.8979602 C23.7670908,27.0071272 23.6063752,27.0768717 23.4001709,27.1071959 L21.1531625,27.4437923 C21.2198756,27.6439317 21.3563323,27.794034 21.5625365,27.8941037 C21.7687408,27.9941734 22.0052656,28.0442075 22.2721181,28.0442075 C22.5207762,28.0442075 22.7557848,28.0123676 22.9771511,27.9486869 C23.1985175,27.8850061 23.3789435,27.8107131 23.5184346,27.7258055 C23.6154718,27.7864538 23.6973458,27.8713601 23.764059,27.9805271 C23.8307721,28.089694 23.8641282,28.2049241 23.8641282,28.3262207 C23.8641282,28.599138 23.7367686,28.8023068 23.4820458,28.9357331 C23.2879712,29.0388352 23.0696406,29.1085797 22.8270473,29.1449687 C22.5844541,29.1813577 22.3570264,29.1995519 22.1447573,29.1995519 Z M21.8900357,25.6243522 C21.7444798,25.6243522 21.6186365,25.6486112 21.5125019,25.6971298 C21.4063674,25.7456485 21.3199448,25.8078121 21.2532317,25.8836224 C21.1865186,25.9594328 21.1364845,26.0443392 21.1031279,26.138344 C21.0697713,26.2323489 21.0500609,26.3278686 21.0439961,26.4249058 L22.5996173,26.1701842 C22.5814228,26.0488876 22.5147107,25.9275928 22.3994789,25.8062962 C22.2842472,25.6849996 22.1144345,25.6243522 21.8900357,25.6243522 Z M26.3476638,27.5347643 C26.3476638,27.6924499 26.3976979,27.8046475 26.4977676,27.8713607 C26.5978373,27.9380738 26.7388425,27.9714299 26.9207874,27.9714299 C27.0117599,27.9714299 27.1057633,27.9638489 27.2028006,27.9486869 C27.2998379,27.9335248 27.3847442,27.9138144 27.4575222,27.8895551 C27.5121057,27.9562682 27.5591074,28.0305613 27.5985288,28.1124365 C27.6379502,28.1943117 27.6576606,28.2928637 27.6576606,28.4080955 C27.6576606,28.638559 27.5712381,28.826566 27.3983904,28.9721219 C27.2255427,29.1176778 26.9207896,29.1904547 26.4841218,29.1904547 C25.9504167,29.1904547 25.5395306,29.0691599 25.2514512,28.8265667 C24.9633717,28.5839735 24.8193342,28.1897654 24.8193342,27.6439307 L24.8193342,23.750329 C24.8860473,23.7321345 24.981567,23.7124241 25.105896,23.6911972 C25.230225,23.6699703 25.3621331,23.659357 25.5016242,23.659357 C25.7684767,23.659357 25.976194,23.7063587 26.1247824,23.8003636 C26.2733707,23.8943685 26.3476638,24.0929887 26.3476638,24.3962302 L26.3476638,24.978451 L27.539397,24.978451 C27.575786,25.0451642 27.6106583,25.1285543 27.6440148,25.228624 C27.6773714,25.3286937 27.6940494,25.4393752 27.6940494,25.5606718 C27.6940494,25.7729409 27.6470477,25.9260756 27.5530428,26.0200804 C27.4590379,26.1140853 27.3331946,26.161087 27.175509,26.161087 L26.3476638,26.161087 L26.3476638,27.5347643 Z" id="letUlet"></path>
                        </g>
                    </g>
                </g>
            </g>
        </g>
    </g>
</svg>