<?xml version="1.0" encoding="UTF-8"?>
<svg width="33px" height="27px" viewBox="0 0 33 27" version="1.1" xmlns="http://www.w3.org/2000/svg" xmlns:xlink="http://www.w3.org/1999/xlink">
    <!-- Generator: Sketch 48.2 (47327) - http://www.bohemiancoding.com/sketch -->
    <title>Shape</title>
    <desc>Created with Sketch.</desc>
    <defs></defs>
    <g id="Landing-Page---Tenant" stroke="none" stroke-width="1" fill="none" fill-rule="evenodd" transform="translate(-676.000000, -4367.000000)">
        <g id="Footer" transform="translate(0.000000, 4019.000000)" fill="#FFFFFF" fill-rule="nonzero">
            <g id="Social-Media" transform="translate(615.000000, 342.875545)">
                <path d="M93.322927,8.35820802 L90.3087347,11.4045194 C90.3087347,11.4045194 90.3087347,11.1276745 90.3087347,11.9124076 C90.3087347,12.468133 90.2198161,12.9999397 90.0917129,13.5164793 C90.0213817,17.7073203 88.7006631,23.2635562 83.2756194,27.6498171 C72.6043739,36.2762829 61.1715425,28.6640668 61.1715425,28.6640668 C70.2141194,28.6640668 70.2141194,25.6187732 70.2141194,25.6187732 C68.2046579,25.6187732 64.1857348,21.5577032 64.1857348,21.5577032 C65.1904656,22.5724618 67.1999271,21.5577032 67.1999271,21.5577032 C62.1762733,18.5119007 62.1762733,15.4650805 62.1762733,15.4650805 C63.1810041,16.480348 65.1904656,15.4650805 65.1904656,15.4650805 C60.1668118,11.4045194 63.1810041,6.32767304 63.1810041,6.32767304 C64.1857348,11.4045194 77.2472348,13.4350544 77.2472348,13.4350544 L77.4135177,13.350576 C77.3110352,12.8859448 77.2472348,11.899685 77.2472348,11.4045194 C77.2472348,7.75922565 80.1710013,5.31189664 83.7779848,5.31189664 C85.7633327,5.31189664 87.5196021,6.22640075 88.7177436,7.63912383 L89.304004,7.34192272 L92.3181963,5.31189664 L90.3087347,9.37296661 L93.322927,8.35820802 Z" id="Shape"></path>
            </g>
        </g>
    </g>
</svg>